<svg xmlns="http://www.w3.org/2000/svg" width="14" height="8" viewBox="0 0 14 8" fill="none"><path fill-rule="evenodd" clip-rule="evenodd" d="M13.354 7.62557C13.3075 7.67213 13.2523 7.70907 13.1916 7.73428C13.1308 7.75949 13.0657 7.77246 13 7.77246C12.9342 7.77246 12.8691 7.75949 12.8083 7.73428C12.7476 7.70907 12.6924 7.67213 12.646 7.62557L6.99996 1.97857L1.35396 7.62557C1.30747 7.67206 1.25228 7.70893 1.19154 7.73409C1.13081 7.75925 1.0657 7.7722 0.999961 7.7722C0.934217 7.7722 0.869117 7.75925 0.808377 7.73409C0.747638 7.70893 0.692449 7.67206 0.645961 7.62557C0.599473 7.57908 0.562597 7.52389 0.537437 7.46315C0.512278 7.40241 0.49933 7.33731 0.49933 7.27157C0.49933 7.20582 0.512278 7.14072 0.537437 7.07998C0.562597 7.01924 0.599473 6.96406 0.645961 6.91757L6.64596 0.917567C6.69241 0.871004 6.74758 0.834062 6.80833 0.808855C6.86907 0.783649 6.93419 0.770674 6.99996 0.770674C7.06573 0.770674 7.13085 0.783649 7.19159 0.808855C7.25234 0.834062 7.30752 0.871004 7.35396 0.917567L13.354 6.91757C13.4005 6.96401 13.4375 7.01919 13.4627 7.07993C13.4879 7.14068 13.5009 7.2058 13.5009 7.27157C13.5009 7.33733 13.4879 7.40246 13.4627 7.4632C13.4375 7.52395 13.4005 7.57912 13.354 7.62557Z" fill="white"></path></svg>