<svg xmlns="http://www.w3.org/2000/svg" width="14" height="8" viewBox="0 0 14 8" fill="none"><path fill-rule="evenodd" clip-rule="evenodd" d="M0.646039 0.917401C0.692485 0.870838 0.747661 0.833895 0.808406 0.808689C0.869151 0.783482 0.934272 0.770508 1.00004 0.770508C1.06581 0.770508 1.13093 0.783482 1.19167 0.808689C1.25242 0.833895 1.30759 0.870838 1.35404 0.917401L7.00004 6.5644L12.646 0.917401C12.6925 0.870913 12.7477 0.834037 12.8085 0.808878C12.8692 0.783719 12.9343 0.77077 13 0.77077C13.0658 0.77077 13.1309 0.783719 13.1916 0.808878C13.2524 0.834037 13.3076 0.870913 13.354 0.917401C13.4005 0.963889 13.4374 1.01908 13.4626 1.07982C13.4877 1.14056 13.5007 1.20566 13.5007 1.2714C13.5007 1.33715 13.4877 1.40225 13.4626 1.46299C13.4374 1.52372 13.4005 1.57891 13.354 1.6254L7.35404 7.6254C7.30759 7.67196 7.25242 7.70891 7.19167 7.73411C7.13093 7.75932 7.06581 7.77229 7.00004 7.77229C6.93427 7.77229 6.86915 7.75932 6.80841 7.73411C6.74766 7.70891 6.69248 7.67196 6.64604 7.6254L0.646039 1.6254C0.599476 1.57896 0.562533 1.52378 0.537327 1.46304C0.51212 1.40229 0.499146 1.33717 0.499146 1.2714C0.499146 1.20563 0.51212 1.14051 0.537327 1.07977C0.562533 1.01902 0.599476 0.963847 0.646039 0.917401Z" fill="white"></path></svg>