<svg xmlns="http://www.w3.org/2000/svg" width="21" height="22" viewBox="0 0 21 22" fill="none"><path d="M16.8267 13.8525L14.6042 13.5988C14.3428 13.5681 14.0779 13.597 13.8294 13.6834C13.5808 13.7698 13.3551 13.9114 13.1692 14.0975L11.5592 15.7075C9.07519 14.4442 7.05621 12.4253 5.7929 9.94129L7.41165 8.32254C7.7879 7.94629 7.97165 7.42129 7.9104 6.88754L7.65665 4.68254C7.60704 4.25569 7.4022 3.862 7.08111 3.57641C6.76002 3.29082 6.34512 3.13328 5.9154 3.13379H4.40165C3.4129 3.13379 2.5904 3.95629 2.65165 4.94504C3.1154 12.4175 9.09165 18.385 16.5554 18.8488C17.5442 18.91 18.3667 18.0875 18.3667 17.0988V15.585C18.3754 14.7013 17.7104 13.9575 16.8267 13.8525Z" fill="white"></path></svg>