<svg xmlns="http://www.w3.org/2000/svg" width="45" height="47" viewBox="0 0 45 47" fill="none"><path d="M35.8027 35.761C33.675 34.9131 32.7563 33.3834 32.7867 31.1778C32.8285 28.0722 32.8141 24.9652 32.7896 21.8582C32.778 20.356 33.2503 19.1051 34.4319 18.1402C34.5561 18.0391 34.6442 17.8051 34.6356 17.6404C34.2802 10.8617 28.6122 4.74876 21.2167 5.61254C16.3272 6.18454 13.0714 9.07921 11.2673 13.5743C10.7661 14.8238 10.6347 16.2249 10.3732 17.5653C10.3371 17.7545 10.4772 18.0564 10.6347 18.1922C11.6718 19.0849 12.1975 20.2043 12.199 21.565C12.2048 24.9248 12.2106 28.2831 12.1976 31.6429C12.1889 33.8225 10.7401 35.4952 8.58933 35.8607C6.65088 36.19 4.73266 34.9998 3.99455 33.0382C3.92955 32.8649 3.71866 32.6713 3.54244 32.628C1.37288 32.0892 0.163883 30.5841 0.150883 28.3481C0.143661 27.1738 0.14655 26.0009 0.150883 24.8265C0.15955 22.5097 1.34111 21.0277 3.58433 20.4759C3.75188 20.4354 3.95122 20.2578 4.01333 20.0974C4.30655 19.3362 4.77455 18.718 5.37544 18.1734C5.54733 18.0189 5.67444 17.7358 5.69177 17.5018C6.11933 11.5983 8.62111 6.82732 13.5264 3.45887C20.3514 -1.2269 29.5944 0.161206 35.0082 6.60198C37.666 9.76532 39.057 13.4241 39.3069 17.5379C39.3199 17.7545 39.4441 18.0203 39.6059 18.1633C40.214 18.7007 40.6777 19.3218 40.9767 20.0815C41.0446 20.2549 41.2641 20.4441 41.4461 20.486C43.5767 20.9829 44.8247 22.5082 44.8463 24.6994C44.8579 25.9272 44.8564 27.155 44.8463 28.3842C44.829 30.5827 43.6012 32.1051 41.4721 32.6251C41.293 32.6684 41.0734 32.8533 41.0084 33.0223C40.461 34.4595 39.4672 35.3854 37.9867 35.8043C37.8263 35.8491 37.614 35.9849 37.5692 36.1235C36.4801 39.5657 34.039 41.7496 30.9161 43.2909C28.6353 44.4161 26.1986 44.9592 23.6708 45.1123C23.3646 45.1311 23.1999 45.2235 23.0511 45.5023C22.5773 46.3878 21.8046 46.8355 20.8064 46.863C20.0308 46.8847 19.2537 46.8803 18.478 46.8644C16.9989 46.8355 15.8737 45.6843 15.8852 44.2298C15.8953 42.8027 17.022 41.6832 18.4823 41.6601C19.2219 41.6485 19.9629 41.6586 20.7039 41.6572C21.7526 41.6558 22.5282 42.1151 23.0757 43.0092C23.1667 43.158 23.392 43.3299 23.5451 43.3212C27.0161 43.1262 30.2155 42.1527 32.9354 39.9037C34.2658 38.8044 35.2769 37.464 35.8027 35.7653V35.761ZM5.59211 26.544C5.59211 28.2773 5.58777 30.0121 5.59355 31.7454C5.59933 33.1754 6.81411 34.2588 8.23111 34.1129C9.547 33.9771 10.4194 32.979 10.4252 31.5432C10.4382 28.2383 10.4296 24.9334 10.4267 21.6285C10.4267 21.4668 10.4093 21.3035 10.3862 21.1432C10.2129 19.9024 9.11077 18.978 7.89311 19.0488C6.583 19.1253 5.59788 20.1494 5.59355 21.4523C5.58777 23.1495 5.59355 24.8482 5.59211 26.5454V26.544ZM39.4066 26.5945C39.4066 24.8424 39.4181 23.0918 39.4022 21.3397C39.3892 19.9978 38.108 18.9014 36.7777 19.0618C35.43 19.2235 34.5763 20.2217 34.5734 21.6849C34.5648 24.9537 34.5706 28.2224 34.572 31.4898C34.572 31.6515 34.5807 31.8148 34.6009 31.9751C34.7699 33.3314 35.8431 34.1909 37.2572 34.1071C38.459 34.0363 39.4051 32.9747 39.4066 31.6862C39.4094 29.989 39.4066 28.2918 39.4066 26.5931V26.5945ZM8.55033 17.2577C9.03711 9.8881 15.1283 3.76365 22.4213 3.74343C25.5644 3.73476 28.3869 4.72132 30.8367 6.68721C34.2094 9.3941 35.9803 12.9734 36.4223 17.2504H37.5302C36.8889 11.4654 34.3467 6.88798 29.1597 4.16665C23.9308 1.42221 18.738 1.88154 13.9583 5.33954C9.94711 8.24143 7.94655 12.335 7.48722 17.2577H8.54889H8.55033ZM41.2612 30.7892C42.2723 30.6101 43.0494 29.7275 43.074 28.6543C43.1058 27.2489 43.1072 25.842 43.074 24.4365C43.048 23.3648 42.2651 22.4851 41.2627 22.3118V30.7878L41.2612 30.7892ZM3.73455 22.2901C2.64544 22.5819 1.94344 23.4153 1.92466 24.4799C1.90011 25.868 1.89722 27.2561 1.92466 28.6442C1.94633 29.7131 2.69888 30.5812 3.73311 30.7964V22.2915L3.73455 22.2901ZM19.6639 43.4194C19.2854 43.4194 18.907 43.4035 18.53 43.4238C18.0086 43.4512 17.6503 43.8094 17.6561 44.2659C17.6619 44.7035 17.9984 45.0647 18.4968 45.082C19.2522 45.1094 20.0091 45.1094 20.7631 45.082C21.273 45.0647 21.5937 44.7223 21.6023 44.2716C21.6124 43.8008 21.2716 43.4512 20.7429 43.4223C20.3847 43.4021 20.0236 43.418 19.6639 43.418V43.4194Z" fill="white"></path></svg>