<svg xmlns="http://www.w3.org/2000/svg" width="45" height="44" viewBox="0 0 45 44" fill="none"><path d="M14.6861 10.7452C14.7771 10.5993 14.8724 10.4563 14.9577 10.309C16.0959 8.34743 17.2298 6.38298 18.3694 4.42287C19.3806 2.68087 21.0446 2.22443 22.7808 3.21676C24.8752 4.41421 26.9653 5.61598 29.054 6.8221C30.8668 7.86932 31.2972 9.48565 30.2486 11.3114C29.1277 13.2629 28.001 15.21 26.8772 17.1585C26.7906 17.3088 26.7111 17.4648 26.5681 17.732C26.8093 17.6135 26.948 17.5558 27.0766 17.4807C29.0742 16.3323 31.0676 15.1797 33.0652 14.0313C34.7971 13.0361 36.4683 13.4911 37.4766 15.2331C38.6769 17.3044 39.8743 19.3772 41.0689 21.4529C42.0988 23.2425 41.6698 24.8748 39.8931 25.9104C37.7943 27.1339 35.6898 28.3458 33.5924 29.6862H34.1341C36.3687 29.6862 38.6032 29.6848 40.8363 29.6862C42.8976 29.6891 44.121 30.9183 44.1224 32.9882C44.1224 35.3845 44.1253 37.7809 44.1224 40.1772C44.1196 42.1662 42.8759 43.4026 40.8739 43.4026C29.8831 43.4026 18.8909 43.4055 7.90011 43.4026C3.87589 43.4026 0.875775 40.3895 0.874331 36.3552C0.871442 25.3818 0.874331 14.4083 0.874331 3.43487C0.874331 1.36932 2.09633 0.155985 4.17489 0.154541C6.55389 0.154541 8.93144 0.154541 11.3104 0.154541C13.3717 0.154541 14.5893 1.38232 14.5922 3.45799C14.5951 5.70987 14.5922 7.96321 14.5922 10.2151C14.5922 10.3855 14.5922 10.556 14.5922 10.725C14.624 10.7322 14.6543 10.738 14.6861 10.7452ZM23.1347 41.6578V31.4455H15.326V41.6578H23.1347ZM24.9373 31.4441V41.639H32.746V31.4441H24.9373ZM33.5202 27.6192C35.4139 26.5243 37.2498 25.467 39.0813 24.3995C39.9422 23.8983 40.1098 23.2743 39.6129 22.4091C38.3866 20.2728 37.1559 18.1393 35.918 16.0102C35.4341 15.1782 34.8029 15.0107 33.9651 15.4902C32.4051 16.3829 30.8509 17.2857 29.2938 18.1855C29.0006 18.3545 28.7088 18.525 28.3679 18.7229C30.0882 21.6941 31.7869 24.6278 33.5202 27.6206V27.6192ZM12.8603 9.74421C12.8719 9.56798 12.8878 9.42787 12.8878 9.28776C12.8892 7.30743 12.8921 5.32854 12.8878 3.34821C12.8849 2.33999 12.4169 1.88643 11.387 1.88498C8.95744 1.8821 6.52789 1.8821 4.09833 1.88498C3.08289 1.88498 2.60766 2.35732 2.60622 3.36554C2.60333 5.34587 2.60478 7.32476 2.60622 9.3051C2.60622 9.44376 2.62066 9.58243 2.62933 9.74421H12.8618H12.8603ZM34.5241 41.6736C36.6648 41.6736 38.752 41.6736 40.8378 41.6736C41.9283 41.6736 42.3906 41.2186 42.392 40.1411C42.3934 37.7448 42.3949 35.3499 42.392 32.9535C42.392 31.8803 41.924 31.4181 40.8363 31.4166C38.9094 31.4138 36.9811 31.4166 35.0542 31.4166H34.5256V41.6751L34.5241 41.6736ZM25.5859 15.886C26.6707 14.0082 27.7237 12.1882 28.7709 10.3639C29.3024 9.43799 29.1392 8.84432 28.2047 8.30265C26.1189 7.0951 24.0302 5.89043 21.9401 4.6901C21.0084 4.15565 20.4104 4.31599 19.876 5.24043C18.8952 6.93765 17.9188 8.63921 16.9438 10.3393C16.8658 10.4765 16.7979 10.6195 16.7083 10.7943C19.668 12.4915 22.5973 14.1729 25.5844 15.886H25.5859ZM2.62066 19.3324C2.72755 19.3555 2.77955 19.3758 2.83011 19.3758C5.02711 19.3787 7.22411 19.3873 9.42111 19.3642C9.59589 19.3628 9.83278 19.175 9.93244 19.0074C10.7096 17.7118 11.3754 16.341 12.2407 15.1089C13.0423 13.9663 12.8213 12.766 12.8502 11.5411H2.61922V19.3324H2.62066ZM26.8671 19.5737C24.5574 20.9069 22.3099 22.204 20.045 23.5112C21.2121 25.5349 22.3272 27.4849 23.4698 29.4204C23.5579 29.5692 23.8424 29.6703 24.0374 29.6732C25.6032 29.6934 27.1762 29.5909 28.7333 29.7122C30.0853 29.8177 30.9578 29.0044 32.0093 28.4483C30.2847 25.4728 28.5903 22.5492 26.8671 19.5737ZM11.881 19.0825C11.9503 19.123 11.9966 19.1519 12.0428 19.1779C13.961 20.2843 15.8749 21.3951 17.8032 22.4828C17.9448 22.5622 18.2192 22.5319 18.3738 22.4466C19.9814 21.5598 21.5776 20.6541 23.1737 19.747C23.3094 19.669 23.4582 19.5708 23.5362 19.4422C23.9262 18.7994 24.2946 18.1437 24.6947 17.4503C21.7292 15.7155 18.7984 14.001 15.8243 12.2619C14.5099 14.534 13.2084 16.7873 11.881 19.0825ZM13.5233 31.473C13.4439 31.4484 13.3933 31.4195 13.3442 31.421C11.3798 31.421 9.41678 31.4195 7.45233 31.434C7.15044 31.4369 6.84277 31.499 6.54666 31.5712C4.03622 32.1894 2.35055 34.5453 2.625 37.0428C2.91244 39.6644 5.05311 41.6303 7.69066 41.6679C9.22178 41.6895 10.7529 41.6736 12.2854 41.6736C12.6942 41.6736 13.103 41.6736 13.5233 41.6736V31.4744V31.473ZM10.9797 20.6093C9.22322 23.6513 7.50144 26.6341 5.77966 29.6169C5.80278 29.6429 5.82733 29.6703 5.85044 29.6963C9.30844 27.7001 12.7679 25.7039 16.288 23.6715C14.4897 22.6344 12.7636 21.6378 10.9797 20.6079V20.6093ZM2.64811 21.1308V31.642C4.705 28.0756 6.69255 24.6292 8.71044 21.1308H2.64811ZM21.6108 29.6544C20.5708 27.8662 19.5654 26.1401 18.5457 24.3851C15.5123 26.1372 12.5411 27.8532 9.56989 29.5707C9.58578 29.5981 9.60167 29.6255 9.61755 29.6544H21.6108Z" fill="white"></path><path d="M7.74444 33.1254C9.66844 33.134 11.1923 34.6738 11.1837 36.6036C11.175 38.5175 9.60488 40.0645 7.69533 40.0428C5.81322 40.0211 4.27344 38.464 4.27344 36.5819C4.27344 34.6695 5.83199 33.1181 7.74444 33.1268V33.1254ZM9.45177 36.501C9.44888 35.5564 8.67033 34.7821 7.7271 34.785C6.79399 34.7879 6.00966 35.578 6.00966 36.5169C6.00966 37.4515 6.7781 38.2416 7.67222 38.2257C8.67466 38.2084 9.45466 37.4515 9.45177 36.501Z" fill="white"></path></svg>