<?xml version="1.0" encoding="UTF-8"?>
<svg xmlns="http://www.w3.org/2000/svg" width="104" height="104" viewBox="0 0 104 104" fill="none">
  <g clip-path="url(#clip0_38_570)">
    <path d="M102.704 51.9981C102.704 80.0006 80.0006 102.7 52.0019 102.7C23.9994 102.7 1.30017 80.0006 1.30017 51.9981C1.30017 23.9994 23.9994 1.30014 52.0019 1.30014C80.0006 1.30014 102.704 23.9994 102.704 51.9981Z" fill="#8A5CC4"></path>
    <path d="M49.0823 16.6129V87.3985C49.0823 88.7214 50.3482 89.9531 52.3668 89.9531C53.5073 89.9531 54.9215 88.539 54.9215 87.3985V16.6129C54.9215 15.0885 53.5529 14.0621 51.6369 14.0621C50.4965 14.0621 49.0823 15.4763 49.0823 16.6129Z" fill="white"></path>
    <path d="M57.8373 50.7284C57.8373 58.6851 59.1412 66.0564 61.559 73.4657C62.5779 76.6058 63.475 79.5824 64.5623 82.502C65.5127 85.0529 66.8052 89.9531 69.1508 89.9531C71.1846 89.9531 72.4354 88.9495 72.4354 86.851C72.4354 85.9919 69.9529 79.8599 69.5918 78.9323C63.1633 62.3308 62.0456 50.314 66.8965 33.5186C68.2992 28.664 69.8997 23.9158 71.7815 19.2436C72.3061 17.9359 72.4354 18.3084 72.4354 16.6129C72.4354 14.4346 68.9721 12.9444 67.25 15.0809C66.8242 15.6093 66.5543 16.3468 66.2844 17.0311C64.319 21.9922 63.2811 25.2577 61.6008 30.4127C59.8141 35.906 57.8373 45.1933 57.8373 50.7284Z" fill="white"></path>
    <path d="M31.5684 16.6129C31.5684 18.164 31.6406 17.8751 32.169 19.1144L34.4119 25.0829C36.3698 30.139 39.4338 41.4069 39.9433 46.9154C40.4869 52.766 40.3918 55.7883 39.2172 61.6617C38.6051 64.7182 37.9474 67.577 37.1035 70.4966C36.2823 73.344 35.4612 76.1382 34.4614 78.7993C33.9824 80.0766 33.5186 81.4452 32.9749 82.7872C32.686 83.5095 32.5226 84.0227 32.2222 84.7716C31.6938 86.0793 31.5684 85.7068 31.5684 87.3985C31.5684 88.7214 32.8343 89.9531 34.8529 89.9531C37.1795 89.9531 38.5063 85.0757 39.392 82.6351C40.4869 79.6204 41.3727 76.7692 42.4029 73.6025C43.3913 70.5613 44.163 67.174 44.8435 64.0035C47.1168 53.3819 46.3451 45.6799 43.7562 35.2597C43.3875 33.7885 42.9427 32.074 42.4485 30.5496C40.7606 25.368 39.7266 22.091 37.7725 17.1604C36.8107 14.7426 36.2595 14.0621 34.123 14.0621C32.9179 14.0621 31.5684 15.4078 31.5684 16.6129Z" fill="white"></path>
    <path d="M36.1759 49.7589L22.6993 40.8062C21.8363 40.2322 20.7947 40.1752 19.8709 40.658C18.9509 41.1408 18.4149 42.0227 18.4149 43.053V49.1013H15.5067C13.8872 49.1013 12.5604 50.409 12.5604 52.0057C12.5604 53.6024 13.8834 54.9101 15.5067 54.9101H18.4149V60.9622C18.4149 61.9887 18.9509 62.8706 19.8709 63.3534C20.7947 63.8362 21.8363 63.783 22.6993 63.2052L36.1759 54.2524C36.9552 53.7316 37.3848 52.9333 37.3848 52.0057C37.3848 51.0781 36.9552 50.2798 36.1759 49.7589ZM24.3225 48.5614L30.3366 52.0095L24.3225 55.4499V48.5614Z" fill="white"></path>
    <path d="M67.7215 49.7627L81.1981 40.8062C82.0611 40.2322 83.1027 40.1789 84.0265 40.6617C84.9465 41.1446 85.4825 42.0265 85.4825 43.0529V49.1051H88.3907C90.0102 49.1051 91.3369 50.4128 91.3369 52.0095C91.3369 53.6061 90.014 54.9101 88.3907 54.9101H85.4825V60.9622C85.4825 61.9924 84.9465 62.8706 84.0265 63.3534C83.1027 63.8362 82.0611 63.783 81.1981 63.209L67.7215 54.2524C66.9421 53.7354 66.5126 52.9371 66.5126 52.0095C66.5126 51.0781 66.9421 50.2798 67.7215 49.7627ZM79.5748 48.5652L73.5607 52.0095L79.5748 55.4499V48.5652Z" fill="white"></path>
  </g>
  <defs>
    <clipPath id="clip0_38_570">
      <rect width="104" height="104" fill="white"></rect>
    </clipPath>
  </defs>
</svg>
