<svg xmlns="http://www.w3.org/2000/svg" width="19" height="19" viewBox="0 0 19 19" fill="none"><path d="M14.1738 3.15401C13.9545 3.15401 13.7401 3.21817 13.5578 3.33836C13.3754 3.45856 13.2333 3.6294 13.1494 3.82928C13.0655 4.02916 13.0435 4.2491 13.0863 4.46129C13.1291 4.67349 13.2347 4.8684 13.3898 5.02138C13.5448 5.17436 13.7424 5.27854 13.9575 5.32075C14.1725 5.36296 14.3955 5.34129 14.5981 5.2585C14.8007 5.17571 14.9738 5.0355 15.0957 4.85561C15.2175 4.67573 15.2825 4.46424 15.2825 4.24789C15.2825 3.95777 15.1657 3.67954 14.9578 3.4744C14.7499 3.26926 14.4678 3.15401 14.1738 3.15401ZM18.4241 5.36C18.4061 4.60367 18.2625 3.85537 17.999 3.1449C17.7641 2.537 17.3984 1.98655 16.9272 1.53143C16.4697 1.06418 15.9104 0.705712 15.2918 0.483129C14.5735 0.215276 13.8142 0.0703819 13.0465 0.0546938C12.0671 -5.09376e-08 11.753 0 9.23975 0C6.72654 0 6.41239 -5.09376e-08 5.43297 0.0546938C4.66529 0.0703819 3.90596 0.215276 3.18771 0.483129C2.5702 0.707965 2.01143 1.06613 1.55228 1.53143C1.07867 1.98281 0.71532 2.53455 0.489707 3.1449C0.218207 3.85349 0.0713401 4.60263 0.0554384 5.36C-5.16311e-08 6.32626 0 6.63619 0 9.11564C0 11.5951 -5.16311e-08 11.905 0.0554384 12.8713C0.0713401 13.6287 0.218207 14.3778 0.489707 15.0864C0.71532 15.6967 1.07867 16.2485 1.55228 16.6999C2.01143 17.1652 2.5702 17.5233 3.18771 17.7482C3.90596 18.016 4.66529 18.1609 5.43297 18.1766C6.41239 18.2313 6.72654 18.2313 9.23975 18.2313C11.753 18.2313 12.0671 18.2313 13.0465 18.1766C13.8142 18.1609 14.5735 18.016 15.2918 17.7482C15.9104 17.5256 16.4697 17.1671 16.9272 16.6999C17.4005 16.2464 17.7665 15.6955 17.999 15.0864C18.2625 14.3759 18.4061 13.6276 18.4241 12.8713C18.4241 11.905 18.4795 11.5951 18.4795 9.11564C18.4795 6.63619 18.4795 6.32626 18.4241 5.36ZM16.7609 12.7619C16.7542 13.3405 16.648 13.9138 16.4468 14.4574C16.2992 14.8541 16.0623 15.2126 15.7538 15.5057C15.4541 15.807 15.0915 16.0403 14.6912 16.1894C14.1402 16.3879 13.5591 16.4927 12.9726 16.4993C12.0486 16.5449 11.7068 16.554 9.27671 16.554C6.84665 16.554 6.50478 16.554 5.58081 16.4993C4.97181 16.5106 4.36541 16.418 3.7883 16.2258C3.40557 16.0691 3.05961 15.8364 2.77192 15.5422C2.46525 15.2493 2.23125 14.8906 2.08818 14.4939C1.8626 13.9425 1.73748 13.3562 1.71859 12.7619C1.71859 11.8503 1.66315 11.5131 1.66315 9.11564C1.66315 6.71823 1.66315 6.38095 1.71859 5.46939C1.72273 4.87783 1.8322 4.29159 2.04198 3.73741C2.20465 3.35265 2.45432 3.00967 2.77192 2.73469C3.05264 2.42127 3.39957 2.17234 3.7883 2.00544C4.35151 1.80494 4.94511 1.70014 5.54385 1.69551C6.46782 1.69551 6.80969 1.64082 9.23975 1.64082C11.6698 1.64082 12.0117 1.64082 12.9356 1.69551C13.5222 1.70215 14.1033 1.80694 14.6542 2.00544C15.0741 2.15918 15.451 2.40912 15.7538 2.73469C16.0566 3.01471 16.2932 3.35705 16.4468 3.73741C16.6521 4.2925 16.7584 4.87849 16.7609 5.46939C16.8071 6.38095 16.8163 6.71823 16.8163 9.11564C16.8163 11.5131 16.8071 11.8503 16.7609 12.7619ZM9.23975 4.43932C8.30266 4.44112 7.38714 4.71691 6.60887 5.23185C5.8306 5.74678 5.2245 6.47775 4.86716 7.3324C4.50982 8.18704 4.41727 9.12701 4.6012 10.0335C4.78514 10.94 5.23731 11.7724 5.90057 12.4255C6.56384 13.0786 7.40844 13.5231 8.32766 13.7028C9.24687 13.8825 10.1995 13.7893 11.065 13.4351C11.9306 13.0809 12.6704 12.4815 13.1908 11.7127C13.7112 10.9439 13.989 10.0401 13.989 9.11564C13.9902 8.50043 13.8681 7.89105 13.6298 7.32256C13.3914 6.75406 13.0415 6.23766 12.6001 5.80306C12.1588 5.36847 11.6346 5.02425 11.0579 4.79021C10.4812 4.55616 9.86333 4.43691 9.23975 4.43932ZM9.23975 12.1512C8.63121 12.1512 8.03633 11.9731 7.53035 11.6396C7.02437 11.306 6.63 10.8319 6.39712 10.2773C6.16424 9.72261 6.10331 9.11227 6.22203 8.52344C6.34075 7.93461 6.63379 7.39374 7.0641 6.96921C7.4944 6.54469 8.04264 6.25559 8.63949 6.13846C9.23634 6.02133 9.85498 6.08145 10.4172 6.3112C10.9794 6.54095 11.46 6.93002 11.798 7.4292C12.1361 7.92839 12.3166 8.51528 12.3166 9.11564C12.3166 9.51427 12.237 9.909 12.0824 10.2773C11.9277 10.6456 11.7011 10.9802 11.4154 11.2621C11.1297 11.5439 10.7905 11.7675 10.4172 11.9201C10.0439 12.0726 9.6438 12.1512 9.23975 12.1512Z" fill="white"></path></svg>