<svg xmlns="http://www.w3.org/2000/svg" width="14" height="15" viewBox="0 0 14 15" fill="none"><path fill-rule="evenodd" clip-rule="evenodd" d="M0.293665 0.391932C0.386556 0.298805 0.496907 0.224919 0.618398 0.174506C0.739888 0.124093 0.870131 0.0981445 1.00167 0.0981445C1.1332 0.0981445 1.26344 0.124093 1.38493 0.174506C1.50642 0.224919 1.61677 0.298805 1.70967 0.391932L7.00167 5.68593L12.2937 0.391932C12.3866 0.298956 12.497 0.225203 12.6185 0.174885C12.74 0.124567 12.8702 0.0986681 13.0017 0.0986681C13.1332 0.0986681 13.2634 0.124567 13.3848 0.174885C13.5063 0.225203 13.6167 0.298956 13.7097 0.391932C13.8026 0.484907 13.8764 0.595286 13.9267 0.716764C13.977 0.838243 14.0029 0.968444 14.0029 1.09993C14.0029 1.23142 13.977 1.36162 13.9267 1.4831C13.8764 1.60458 13.8026 1.71496 13.7097 1.80793L8.41566 7.09993L13.7097 12.3919C13.8026 12.4849 13.8764 12.5953 13.9267 12.7168C13.977 12.8382 14.0029 12.9684 14.0029 13.0999C14.0029 13.2314 13.977 13.3616 13.9267 13.4831C13.8764 13.6046 13.8026 13.715 13.7097 13.8079C13.6167 13.9009 13.5063 13.9747 13.3848 14.025C13.2634 14.0753 13.1332 14.1012 13.0017 14.1012C12.8702 14.1012 12.74 14.0753 12.6185 14.025C12.497 13.9747 12.3866 13.9009 12.2937 13.8079L7.00167 8.51393L1.70967 13.8079C1.61669 13.9009 1.50631 13.9747 1.38483 14.025C1.26335 14.0753 1.13315 14.1012 1.00167 14.1012C0.870177 14.1012 0.739977 14.0753 0.618498 14.025C0.497019 13.9747 0.386641 13.9009 0.293665 13.8079C0.200689 13.715 0.126936 13.6046 0.0766182 13.4831C0.0263 13.3616 0.000401497 13.2314 0.000401497 13.0999C0.000401497 12.9684 0.0263 12.8382 0.0766182 12.7168C0.126936 12.5953 0.200689 12.4849 0.293665 12.3919L5.58767 7.09993L0.293665 1.80793C0.200538 1.71504 0.126652 1.60469 0.0762396 1.4832C0.0258267 1.36171 -0.00012207 1.23147 -0.00012207 1.09993C-0.00012207 0.968397 0.0258267 0.838155 0.0762396 0.716664C0.126652 0.595174 0.200538 0.484823 0.293665 0.391932Z" fill="#8160EC"></path></svg>