<svg xmlns="http://www.w3.org/2000/svg" width="21" height="16" viewBox="0 0 21 16" fill="none"><path d="M18.375 0.239014H2.625C1.92904 0.239714 1.26179 0.500104 0.769667 0.963048C0.277545 1.42599 0.000744481 2.05368 0 2.70838V13.2914C0.000744481 13.9461 0.277545 14.5738 0.769667 15.0367C1.26179 15.4997 1.92904 15.7601 2.625 15.7608H18.375C19.071 15.7601 19.7382 15.4997 20.2303 15.0367C20.7225 14.5738 20.9993 13.9461 21 13.2914V2.70838C20.9993 2.05368 20.7225 1.42599 20.2303 0.963048C19.7382 0.500104 19.071 0.239714 18.375 0.239014ZM17.7103 4.32361L10.9603 9.26235C10.8287 9.35861 10.6667 9.41086 10.5 9.41086C10.3333 9.41086 10.1713 9.35861 10.0397 9.26235L3.28969 4.32361C3.21038 4.26727 3.14377 4.19667 3.09372 4.1159C3.04367 4.03514 3.01118 3.94582 2.99815 3.85314C2.98511 3.76046 2.99179 3.66626 3.01778 3.57603C3.04378 3.4858 3.08858 3.40133 3.14958 3.32752C3.21058 3.25372 3.28656 3.19206 3.37312 3.14612C3.45967 3.10018 3.55506 3.07087 3.65376 3.05992C3.75245 3.04896 3.85248 3.05656 3.94802 3.08228C4.04357 3.10801 4.13272 3.15133 4.21031 3.20975L10.5 7.81159L16.7897 3.20975C16.947 3.09802 17.1447 3.04902 17.34 3.07334C17.5354 3.09766 17.7128 3.19335 17.8338 3.33971C17.9547 3.48608 18.0096 3.67135 17.9865 3.85547C17.9634 4.03959 17.8642 4.20776 17.7103 4.32361Z" fill="white"></path></svg>