<svg xmlns="http://www.w3.org/2000/svg" width="19" height="19" viewBox="0 0 19 19" fill="none"><path d="M0.440918 9.15013C0.489146 6.55333 1.41847 4.38474 3.23075 2.64622C5.04303 0.907693 7.20404 0.0237903 9.71563 0C12.4201 0.0475807 14.6368 0.958934 16.3637 2.73406C18.0907 4.50919 18.9662 6.64849 18.9903 9.15013C18.9421 11.7232 18.0128 13.8862 16.2005 15.6376C14.3882 17.3871 12.2272 18.2746 9.71563 18.2984C8.84566 18.2984 7.97755 18.1667 7.10758 17.905C7.27638 17.6433 7.44518 17.345 7.61398 17.0119C7.80689 16.6075 8.04803 15.8444 8.33926 14.7244C8.4116 14.4151 8.52104 13.9979 8.66573 13.4727C8.83453 13.7581 9.1239 14.0198 9.5357 14.2596C10.6227 14.7592 11.769 14.7116 12.9766 14.1168C14.2324 13.4013 15.1024 12.2941 15.5847 10.7935C16.0187 9.2215 15.9649 7.76114 15.4214 6.41607C14.8779 5.06917 13.9059 4.09926 12.5055 3.50267C10.7433 3.00307 9.02744 3.05614 7.36171 3.66371C5.69597 4.27128 4.53663 5.3144 3.88369 6.79123C3.71489 7.33841 3.61287 7.88193 3.57577 8.41812C3.53867 8.95432 3.55722 9.47771 3.62956 9.99012C3.70191 10.5025 3.88369 10.9619 4.17306 11.3663C4.46243 11.7707 4.85012 12.0818 5.3324 12.2959C5.45297 12.3435 5.54943 12.3435 5.62177 12.2959C5.71823 12.2484 5.81468 12.058 5.91114 11.725C6.0076 11.3919 6.0447 11.165 6.02058 11.046C5.99647 10.9985 5.94824 10.9143 5.8759 10.7953C5.3695 9.98463 5.19884 9.13366 5.3695 8.24061C5.5383 7.34756 5.913 6.58993 6.49174 5.97138C7.38582 5.18447 8.43015 4.75624 9.62474 4.68487C10.8193 4.6135 11.8414 4.93558 12.6854 5.64929C13.1436 6.17268 13.4404 6.80404 13.5721 7.54337C13.7038 8.2827 13.7056 8.99092 13.5721 9.66986C13.4385 10.3488 13.2029 10.9857 12.8653 11.5822C12.2606 12.5119 11.5483 12.9877 10.7284 13.0115C10.2461 12.9877 9.85289 12.8029 9.55054 12.457C9.24818 12.1111 9.15729 11.7122 9.27972 11.2602C9.32794 10.9985 9.47263 10.4861 9.71377 9.72293C9.95492 8.95981 10.0885 8.38884 10.1126 8.0082C10.0402 7.10233 9.61732 6.63751 8.84381 6.61372C8.23909 6.68509 7.79391 6.9541 7.50268 7.4171C7.21146 7.88009 7.05564 8.41263 7.03153 9.00739C7.10387 9.69914 7.21331 10.1749 7.358 10.4366C7.09274 11.509 6.88684 12.3673 6.74216 13.0097C6.69393 13.1762 6.56037 13.6886 6.34334 14.5469C6.12632 15.4052 6.00574 16.0603 5.98163 16.5123V17.5134C4.26766 16.7264 2.91356 15.59 1.92487 14.1004C0.936188 12.6107 0.440918 10.96 0.440918 9.15013Z" fill="white"></path></svg>