<svg xmlns="http://www.w3.org/2000/svg" width="33" height="50" viewBox="0 0 33 50" fill="none"><path d="M0.552483 49.4258C0.0310386 49.0503 0.0989276 48.4941 0.0989276 47.9554C0.100372 35.7657 0.0989276 23.576 0.0989276 11.3864C0.0989276 10.9545 -0.00362737 10.4937 0.328595 10.1355C0.675262 9.7628 1.06526 9.43058 1.41482 9.0608C2.07059 8.36458 2.71048 7.65391 3.3576 6.94902C3.95126 6.30191 4.53337 5.6418 5.15015 5.0178C5.26426 4.90225 5.51704 4.89069 5.70626 4.88925C6.60759 4.87625 7.50748 4.88347 8.45937 4.88347C8.45937 4.71014 8.45937 4.56858 8.45937 4.42702C8.45937 3.29747 8.45648 2.16791 8.45937 1.03691C8.46226 0.340691 8.67315 0.13269 9.36215 0.13269C16.9123 0.13269 24.4624 0.13269 32.0139 0.13269C32.6842 0.13269 32.8907 0.337802 32.908 1.00802C32.9109 1.10047 32.908 1.19436 32.908 1.2868C32.908 15.3239 32.908 29.361 32.908 43.3981C32.908 43.531 32.9167 43.6654 32.9037 43.7968C32.8503 44.3182 32.6278 44.5277 32.1006 44.532C31.1718 44.5378 30.243 44.5335 29.2652 44.5335V45.3496C29.2652 46.2538 29.2507 47.158 29.2709 48.0608C29.2825 48.5678 29.2767 49.0517 28.8665 49.4258H0.552483ZM1.41626 11.5164V47.9481H28.0258V6.42758H6.16126C6.16126 6.5908 6.16126 6.73236 6.16126 6.87536C6.16126 8.1118 6.16704 9.3468 6.15837 10.5832C6.15404 11.2694 5.89548 11.5135 5.21226 11.5164C4.90604 11.5178 4.60126 11.5164 4.29504 11.5164C3.34026 11.5164 2.38548 11.5164 1.41626 11.5164ZM9.74926 4.89214C9.95148 4.89214 10.1089 4.89214 10.2649 4.89214C13.1885 4.89214 16.1135 4.89214 19.037 4.89214C22.1469 4.89214 25.2568 4.89214 28.3667 4.89214C29.0615 4.89214 29.2594 5.0958 29.2666 5.80069C29.2666 5.92058 29.2666 6.04047 29.2666 6.15891C29.2666 18.2662 29.2666 30.375 29.2666 42.4824V43.0168C29.9296 43.0168 30.5406 42.9937 31.1473 43.0255C31.5243 43.0443 31.6413 42.9431 31.6413 42.5488C31.6311 29.0447 31.6326 15.542 31.6326 2.03791C31.6326 1.89636 31.6326 1.7548 31.6326 1.61036H9.74782V4.88925L9.74926 4.89214ZM4.84971 7.41125C4.02204 8.28658 3.27526 9.07669 2.47215 9.92747H4.84971V7.41125Z" fill="white"></path><path d="M16.384 9.96943C19.0013 9.96943 21.6186 9.98677 24.2345 9.95788C24.9206 9.95065 25.1951 10.2959 25.1922 10.9141C25.1864 12.1361 25.1922 13.3581 25.1907 14.5801C25.1907 15.1665 24.9264 15.6158 24.1565 15.6114C18.9767 15.5811 13.7955 15.5869 8.6143 15.6057C7.95419 15.6085 7.63352 15.3702 7.64074 14.6364C7.65086 13.3884 7.65086 12.139 7.64074 10.891C7.63497 10.2887 7.90941 9.95065 8.57385 9.95788C11.1767 9.98532 13.7811 9.96943 16.384 9.96943ZM8.93641 14.0457H23.8907V11.4601H8.93641V14.0457Z" fill="white"></path><path d="M11.0264 38.7283C13.1266 38.7283 15.2269 38.7283 17.3271 38.7283C17.9482 38.7283 18.1678 38.9377 18.1706 39.5661C18.1779 41.3875 18.1952 43.209 18.1634 45.029C18.149 45.8263 17.7705 45.9216 17.2664 45.9216C13.079 45.9115 8.89153 45.9159 4.70409 45.9159C4.11909 45.9159 3.88798 45.7165 3.88509 45.1402C3.87353 43.2653 3.87498 41.3919 3.88509 39.517C3.88798 38.9291 4.10753 38.7297 4.68675 38.7283C6.79998 38.7269 8.9132 38.7283 11.0279 38.7283H11.0264ZM16.8071 40.271H5.11286V44.4483H16.8071V40.271Z" fill="white"></path><path d="M14.5099 19.8234C17.7657 19.8234 21.0215 19.8234 24.2773 19.8234C24.8334 19.8234 25.1757 20.1051 25.1844 20.5658C25.1931 21.0801 24.8334 21.4181 24.2701 21.4181C17.7715 21.4181 11.2729 21.4166 4.77439 21.4238C4.4205 21.4238 4.13306 21.3011 3.98428 21.0122C3.8225 20.6987 3.78206 20.3217 4.0825 20.0545C4.22839 19.9245 4.46528 19.8349 4.66172 19.8335C6.36328 19.8162 8.06339 19.8234 9.76495 19.8234C11.3466 19.8234 12.9283 19.8234 14.5085 19.8234H14.5099Z" fill="white"></path><path d="M14.4773 25.763C11.2216 25.763 7.96578 25.7529 4.71 25.7731C4.164 25.776 3.94011 25.4697 3.89389 25.1057C3.82022 24.5222 4.05712 24.255 4.64934 24.2506C5.80489 24.2434 6.96189 24.2478 8.11745 24.2478C13.4994 24.2478 18.8814 24.2478 24.2634 24.2478C24.8643 24.2478 25.0391 24.3546 25.1474 24.7793C25.2904 25.3369 24.9582 25.7615 24.3646 25.7615C21.0683 25.7644 17.7736 25.7615 14.4773 25.7615V25.763Z" fill="white"></path><path d="M14.5583 28.6085C17.8257 28.6085 21.093 28.6085 24.3603 28.6085C24.9944 28.6085 25.292 29.0115 25.1432 29.6269C25.0652 29.9504 24.8601 30.0877 24.5553 30.1209C24.4903 30.1281 24.4224 30.1238 24.356 30.1238C17.8083 30.1238 11.2592 30.1238 4.71155 30.1238C3.96766 30.1238 3.62244 29.5503 4.02111 28.9191C4.12655 28.753 4.42411 28.6259 4.63644 28.623C6.39 28.5999 8.14211 28.61 9.89566 28.61C11.4499 28.61 13.0041 28.61 14.5583 28.61V28.6085Z" fill="white"></path><path d="M14.5454 33.0487C17.8012 33.0487 21.0569 33.0487 24.3127 33.0487C24.6421 33.0487 24.9728 33.0574 25.1144 33.4243C25.2632 33.8128 25.1592 34.1696 24.8371 34.418C24.6984 34.5249 24.4759 34.5596 24.2896 34.5596C21.8716 34.5683 19.4522 34.5654 17.0342 34.5654C12.9421 34.5654 8.8485 34.5524 4.75639 34.5784C4.16272 34.5827 3.78716 34.0873 3.89839 33.5803C3.96772 33.2625 4.14394 33.0906 4.46028 33.0588C4.60472 33.0444 4.75205 33.0487 4.89794 33.0487C8.11328 33.0487 11.3301 33.0487 14.5454 33.0487Z" fill="white"></path><path d="M18.608 42.3047C18.608 41.428 18.6051 40.5497 18.608 39.673C18.6109 38.9175 18.8015 38.7283 19.5469 38.7283C21.156 38.7283 22.7636 38.7269 24.3727 38.7283C24.952 38.7283 25.1831 38.9349 25.1874 39.5126C25.199 41.3601 25.199 43.2075 25.1874 45.0564C25.1831 45.6847 24.926 45.9159 24.3049 45.9159C22.6957 45.9159 21.0881 45.9159 19.479 45.9159C18.8391 45.9159 18.6181 45.7064 18.6109 45.0564C18.6007 44.1392 18.608 43.222 18.608 42.3047ZM19.9051 44.4454H23.8845V40.2681H19.9051V44.4454Z" fill="white"></path></svg>