<svg xmlns="http://www.w3.org/2000/svg" width="11" height="20" viewBox="0 0 11 20" fill="none"><path fill-rule="evenodd" clip-rule="evenodd" d="M0.468875 0.468876C0.538544 0.399031 0.621307 0.343617 0.712425 0.305807C0.803543 0.267997 0.901225 0.248535 0.999876 0.248535C1.09853 0.248535 1.19621 0.267997 1.28733 0.305807C1.37844 0.343617 1.46121 0.399031 1.53088 0.468876L10.5309 9.46888C10.6007 9.53854 10.6561 9.62131 10.6939 9.71243C10.7318 9.80354 10.7512 9.90122 10.7512 9.99988C10.7512 10.0985 10.7318 10.1962 10.6939 10.2873C10.6561 10.3784 10.6007 10.4612 10.5309 10.5309L1.53088 19.5309C1.39005 19.6717 1.19904 19.7508 0.999876 19.7508C0.800712 19.7508 0.609705 19.6717 0.468875 19.5309C0.328045 19.39 0.248928 19.199 0.248928 18.9999C0.248928 18.8007 0.328045 18.6097 0.468875 18.4689L8.93938 9.99988L0.468875 1.53088C0.399031 1.46121 0.343616 1.37844 0.305806 1.28733C0.267997 1.19621 0.248535 1.09853 0.248535 0.999876C0.248535 0.901225 0.267997 0.803543 0.305806 0.712426C0.343616 0.621308 0.399031 0.538544 0.468875 0.468876Z" fill="#FFF852"></path></svg>