<svg xmlns="http://www.w3.org/2000/svg" width="20" height="21" viewBox="0 0 20 21" fill="none"><g clip-path="url(#clip0_6_107)"><path fill-rule="evenodd" clip-rule="evenodd" d="M13.0509 13.153C13.167 13.0368 13.3049 12.9446 13.4566 12.8817C13.6084 12.8188 13.771 12.7864 13.9353 12.7864C14.0995 12.7864 14.2622 12.8188 14.414 12.8817C14.5657 12.9446 14.7036 13.0368 14.8197 13.153L19.6322 17.9655C19.8667 18.1999 19.9985 18.5178 19.9987 18.8494C19.9988 19.181 19.8672 19.4991 19.6328 19.7336C19.3984 19.9682 19.0804 20.1 18.7488 20.1001C18.4173 20.1002 18.0992 19.9686 17.8647 19.7342L13.0522 14.9217C12.9359 14.8056 12.8437 14.6678 12.7808 14.516C12.7179 14.3643 12.6855 14.2016 12.6855 14.0374C12.6855 13.8731 12.7179 13.7104 12.7808 13.5587C12.8437 13.4069 12.9359 13.2691 13.0522 13.153H13.0509Z" fill="#333333"></path><path fill-rule="evenodd" clip-rule="evenodd" d="M8.125 15.1003C9.02784 15.1003 9.92184 14.9225 10.7559 14.577C11.5901 14.2315 12.348 13.7251 12.9864 13.0867C13.6248 12.4483 14.1312 11.6904 14.4767 10.8563C14.8222 10.0222 15 9.12818 15 8.22534C15 7.3225 14.8222 6.42851 14.4767 5.59439C14.1312 4.76028 13.6248 4.00239 12.9864 3.36398C12.348 2.72558 11.5901 2.21917 10.7559 1.87367C9.92184 1.52817 9.02784 1.35034 8.125 1.35034C6.30164 1.35034 4.55295 2.07467 3.26364 3.36398C1.97433 4.6533 1.25 6.40198 1.25 8.22534C1.25 10.0487 1.97433 11.7974 3.26364 13.0867C4.55295 14.376 6.30164 15.1003 8.125 15.1003ZM16.25 8.22534C16.25 10.3802 15.394 12.4469 13.8702 13.9706C12.3465 15.4943 10.2799 16.3503 8.125 16.3503C5.97012 16.3503 3.90349 15.4943 2.37976 13.9706C0.856024 12.4469 0 10.3802 0 8.22534C0 6.07046 0.856024 4.00383 2.37976 2.4801C3.90349 0.956366 5.97012 0.100342 8.125 0.100342C10.2799 0.100342 12.3465 0.956366 13.8702 2.4801C15.394 4.00383 16.25 6.07046 16.25 8.22534Z" fill="#333333"></path></g><defs><clipPath id="clip0_6_107"><rect width="20" height="20" fill="white" transform="translate(0 0.100342)"></rect></clipPath></defs></svg>