<svg xmlns="http://www.w3.org/2000/svg" width="61" height="44" viewBox="0 0 61 44" fill="none"><path d="M0.980469 42.1287C1.37914 41.483 2.03202 41.5335 2.73258 41.5682C2.73258 41.1782 2.73258 40.8388 2.73258 40.4993C2.73258 39.0737 3.08936 38.6504 4.45725 38.4381C4.53669 37.7953 4.52658 37.1294 4.72158 36.5285C4.91802 35.9233 5.3268 35.3889 5.62291 34.814C5.74714 34.5713 5.90891 34.3041 5.90891 34.0484C5.9248 28.2244 5.92191 22.4019 5.92191 16.5779V16.0449C4.92091 16.0449 3.96758 16.0434 3.01569 16.0449C2.39602 16.0463 1.74747 16.0954 1.37336 15.4599C0.976136 14.7839 1.40658 14.2538 1.74602 13.7164C3.90114 10.3075 6.07358 6.91021 8.19836 3.48254C8.78769 2.53065 9.54458 2.11176 10.6597 2.11609C16.3681 2.14065 22.0751 2.12332 27.7836 2.13632C28.188 2.13632 28.4668 2.03665 28.7022 1.70154C28.955 1.34187 29.2482 1.00387 29.5574 0.690428C30.1192 0.118428 30.879 0.124206 31.4539 0.680317C31.5781 0.800206 31.711 0.922983 31.7934 1.07032C32.2931 1.95143 33.0226 2.16521 34.0294 2.15509C39.4865 2.09876 44.945 2.13921 50.4036 2.11898C51.4696 2.11465 52.2106 2.51476 52.7797 3.42765C54.9406 6.90009 57.1405 10.3494 59.3259 13.806C59.388 13.9028 59.4516 13.9995 59.5094 14.0992C60.1391 15.158 59.6581 16.0203 58.4116 16.042C57.5464 16.0579 56.6826 16.0449 55.8174 16.0449C55.6079 16.0449 55.397 16.0449 55.1399 16.0449V41.5278C55.3104 41.5379 55.4938 41.5581 55.6772 41.5581C56.7534 41.561 57.8295 41.5552 58.9056 41.561C59.6177 41.5653 60.0337 41.9033 60.0236 42.4464C60.0135 42.9708 59.6162 43.277 58.9301 43.2885C58.8536 43.2885 58.777 43.2885 58.699 43.2885C39.9025 43.2885 21.1059 43.2885 2.30936 43.2958C1.75614 43.2958 1.27802 43.2308 0.981913 42.7035V42.1272L0.980469 42.1287ZM30.5136 6.78598C30.3504 6.97376 30.2362 7.09943 30.1279 7.23087C27.4788 10.426 24.8254 13.6182 22.1936 16.8278C21.9971 17.0675 21.8541 17.4344 21.8541 17.7435C21.8354 25.4699 21.8397 33.1962 21.8397 40.9225V41.5205H25.1041V40.7954C25.1041 36.6253 25.1041 32.4538 25.1041 28.2836C25.1041 26.962 25.6328 26.4232 26.9357 26.4232C29.3002 26.4218 31.6648 26.468 34.0279 26.4059C35.4218 26.3698 35.9317 27.2523 35.923 28.2966C35.8855 32.4855 35.9071 36.6759 35.9071 40.8662C35.9071 41.0872 35.9071 41.3082 35.9071 41.522H39.1716V40.8546C39.1716 37.7607 39.1716 34.6666 39.1745 31.5712C39.1745 31.343 39.186 31.1075 39.2452 30.8894C39.3608 30.4633 39.6815 30.2466 40.1076 30.2799C40.5308 30.3116 40.8182 30.5659 40.8804 31.005C40.9107 31.213 40.902 31.4268 40.902 31.6376C40.902 34.7316 40.902 37.8256 40.902 40.9211C40.902 41.1233 40.902 41.327 40.902 41.5306H53.3257V16.0506C52.8562 16.0506 52.4186 16.0579 51.9809 16.0492C51.2616 16.0362 50.8701 15.7098 50.8875 15.1493C50.9034 14.6076 51.2659 14.3231 51.9766 14.3216C53.629 14.3173 55.2829 14.3217 56.9354 14.3188C57.1159 14.3188 57.2965 14.2985 57.5738 14.2826C57.3311 13.8984 57.1751 13.5633 56.9368 13.3019C56.7707 13.1199 56.4919 12.9306 56.2622 12.9292C51.5534 12.9075 46.8445 12.9133 42.1356 12.9162C42.0012 12.9162 41.8655 12.9538 41.6791 12.9812C41.89 13.2412 42.0735 13.4189 42.1991 13.6312C42.54 14.2104 43.0239 14.3664 43.6869 14.3361C44.9522 14.2798 46.2234 14.3115 47.4916 14.326C48.0636 14.3318 48.3958 14.6481 48.4146 15.1421C48.4334 15.6318 48.1112 15.9828 47.5595 16.0391C47.2735 16.068 46.9831 16.0506 46.6957 16.0506C45.9041 16.0506 45.1126 16.0506 44.2921 16.0506C44.7313 17.2698 44.3022 17.8938 43.1019 17.9053C42.3811 17.9125 41.6604 17.9053 40.9049 17.9053V18.6232C40.9049 21.2564 40.9049 23.8896 40.9049 26.5229C40.9049 26.715 40.9121 26.9085 40.8905 27.0992C40.837 27.5629 40.5684 27.8373 40.1032 27.8662C39.6396 27.8937 39.3319 27.6568 39.2279 27.2032C39.1817 27.001 39.1774 26.7843 39.1774 26.5749C39.1745 23.6152 39.1831 20.6555 39.1629 17.6959C39.1615 17.42 39.0387 17.095 38.8654 16.8783C37.8571 15.6188 36.8171 14.3838 35.7872 13.1415C34.0467 11.0428 32.3061 8.94398 30.5179 6.79032L30.5136 6.78598ZM7.67836 33.4172C9.04336 33.0864 10.3491 33.1471 11.4628 33.9675C12.1489 34.4731 12.7931 34.879 13.6641 34.6638C13.8938 34.6074 14.1798 34.5395 14.3141 34.3749C15.1476 33.3551 16.189 32.6791 17.5035 32.643C18.3586 32.6199 19.2209 32.8466 20.0688 32.9608V17.9024C19.3798 17.9024 18.7284 17.9024 18.0784 17.9024C16.7061 17.8995 16.3349 17.4214 16.6715 16.081H7.67691V33.4158L7.67836 33.4172ZM26.8765 28.1796V41.5133H34.1334V28.1796H26.8765ZM24.4801 6.68343C24.2042 6.68343 24.002 6.68343 23.7984 6.68343C22.0304 6.68343 20.2624 6.68632 18.4944 6.67909C18.2474 6.67909 17.9888 6.66754 17.7562 6.59387C17.3605 6.46965 17.1236 6.13598 17.2362 5.75176C17.32 5.46721 17.5829 5.19421 17.8357 5.01365C17.9946 4.89954 18.282 4.95443 18.5117 4.95443C20.7217 4.95154 22.9331 4.89521 25.1402 4.98043C26.0329 5.01509 26.3911 4.54565 26.8389 3.85809H26.1441C21.0525 3.85809 15.9594 3.85809 10.8677 3.85809C9.91869 3.85809 9.76847 3.97076 9.44925 4.95298C10.0949 4.95298 10.7247 4.95154 11.353 4.95298C12.2558 4.95732 13.16 4.94576 14.0614 4.97609C14.5568 4.99343 14.8341 5.30254 14.8471 5.79654C14.8587 6.26454 14.6088 6.55632 14.1451 6.63576C13.9386 6.67187 13.7262 6.68054 13.5154 6.68054C11.9207 6.68343 10.326 6.67765 8.72991 6.68921C8.53491 6.68921 8.26047 6.71521 8.1608 6.83943C7.88058 7.18609 7.67258 7.58909 7.37791 8.06576H8.1738C12.7671 8.06576 17.3605 8.01954 21.9509 8.09754C23.0862 8.11632 23.859 7.81587 24.4007 6.85676C24.4094 6.84087 24.4166 6.82209 24.4801 6.68198V6.68343ZM30.5035 2.22443C26.6381 6.88709 22.8262 11.4862 18.9985 16.1041C20.011 16.3496 20.6321 16.0362 21.2431 15.2793C23.9659 11.8979 26.7609 8.57709 29.5328 5.23609C30.2767 4.33909 30.7288 4.33332 31.4582 5.21154C34.3154 8.65654 37.171 12.103 40.0252 15.5494C40.5785 16.2168 41.084 16.3569 41.9724 16.0593C38.1662 11.4674 34.3688 6.88565 30.5049 2.22443H30.5035ZM20.1049 38.4395C20.1049 37.4718 20.1194 36.5372 20.0919 35.6026C20.0876 35.4409 19.9345 35.2618 19.8074 35.1303C18.5406 33.813 16.3652 34.1539 15.4682 35.802C15.0046 36.6542 14.8486 36.7206 13.9169 36.4693C12.9087 36.1963 11.9424 36.7813 11.7387 37.7895C11.6246 38.3543 11.7156 38.4742 12.289 38.4742C14.707 38.4771 17.1236 38.4756 19.5416 38.4742C19.7091 38.4742 19.8767 38.454 20.1049 38.4381V38.4395ZM53.6175 8.06576C53.4817 7.82743 53.3907 7.70176 53.3344 7.56309C53.0426 6.85676 52.5486 6.65454 51.77 6.66032C46.9326 6.70365 42.0951 6.68198 37.2577 6.68198C37.0367 6.68198 36.8171 6.68198 36.482 6.68198C36.6857 6.94487 36.8272 7.09509 36.9327 7.26843C37.3155 7.90543 37.847 8.09032 38.601 8.08454C43.3417 8.04554 48.0838 8.06432 52.8259 8.06432H53.6175V8.06576ZM4.51214 40.2379V41.5278H20.0702V40.2379H4.51214ZM21.9292 9.85398C21.7588 9.82365 21.6909 9.80054 21.623 9.80054C16.6094 9.79765 11.5957 9.7962 6.58202 9.80343C6.44625 9.80343 6.25414 9.85687 6.1848 9.95365C5.9248 10.3162 5.7038 10.7062 5.45103 11.115C5.59258 11.1496 5.64603 11.1728 5.69803 11.1742C10.6351 11.1771 15.5722 11.1785 20.5094 11.1742C20.6509 11.1742 20.8372 11.1366 20.9254 11.0428C21.259 10.6845 21.5624 10.2974 21.9307 9.85543L21.9292 9.85398ZM55.5863 11.1785C55.4418 10.9258 55.3392 10.7856 55.2771 10.6296C54.9955 9.92043 54.4841 9.7702 53.7431 9.77598C49.1137 9.81354 44.4842 9.79476 39.8534 9.79476H39.0777C39.6742 10.621 40.1119 11.2349 41.2444 11.2132C45.777 11.1265 50.3111 11.1771 54.8452 11.1771C55.0518 11.1771 55.2598 11.1771 55.5863 11.1771V11.1785ZM3.4288 14.3159C8.36158 14.3159 13.1441 14.3159 17.9281 14.3115C18.0538 14.3115 18.2228 14.2928 18.295 14.2133C18.646 13.8248 18.9725 13.4116 19.3235 12.987C19.2065 12.9437 19.1718 12.9191 19.1371 12.9191C14.2954 12.9148 9.45502 12.9119 4.61325 12.9162C4.47747 12.9162 4.28536 12.9696 4.21602 13.0679C3.95314 13.4348 3.72925 13.8291 3.4288 14.3159ZM34.1724 3.85665C34.6201 4.59187 35.0506 4.98621 35.936 4.97754C40.9324 4.92409 45.9301 4.95154 50.9279 4.95154C51.1446 4.95154 51.3598 4.95154 51.5981 4.95154C51.3194 4.10365 50.8543 3.82343 50.0208 3.83498C46.2927 3.88554 42.5631 3.85665 38.835 3.85665C37.3184 3.85665 35.8002 3.85665 34.1724 3.85665ZM6.3538 38.4237H9.76991C10.1252 37.4328 10.4416 36.5516 10.7897 35.5781C10.2654 34.9006 8.7328 34.762 7.78525 35.2646C6.62102 35.8829 6.06636 37.0615 6.35525 38.4237H6.3538Z" fill="white"></path><path d="M50.1867 25.8093C50.1867 27.1728 50.1939 28.5378 50.1852 29.9014C50.178 31.0512 49.5945 31.6174 48.4346 31.6217C47.474 31.6246 46.5135 31.6304 45.5529 31.6203C44.5403 31.6102 43.9337 31.0281 43.9294 30.0083C43.9149 27.2219 43.9135 24.4356 43.9294 21.6507C43.9351 20.6266 44.5216 20.0719 45.5601 20.0589C46.5597 20.0459 47.5592 20.0459 48.5574 20.0589C49.6132 20.0734 50.1737 20.6411 50.1838 21.7157C50.1968 23.0793 50.1867 24.4443 50.1867 25.8078V25.8093ZM48.4201 29.8638V21.8269H45.6887V29.8638H48.4201Z" fill="white"></path><path d="M30.4859 21.0196C29.6987 21.0196 28.9115 21.034 28.1257 21.0152C27.2778 20.995 26.7708 20.5545 26.7419 19.7181C26.7029 18.5683 26.6726 17.4099 26.7722 16.2673C26.934 14.4127 28.1271 13.2875 29.976 13.0939C32.0502 12.8772 33.7114 13.8537 34.136 15.6246C34.2891 16.2659 34.2559 16.9563 34.279 17.6251C34.3007 18.239 34.2906 18.8529 34.2819 19.4668C34.266 20.5371 33.7937 21.008 32.7306 21.0167C31.9824 21.0225 31.2341 21.0167 30.4859 21.0167V21.0196ZM32.5414 19.2602C32.5414 18.265 32.5702 17.3261 32.5312 16.3901C32.5024 15.7011 32.1398 15.1291 31.4725 14.9601C30.9164 14.82 30.2924 14.8229 29.7189 14.9038C29.0559 14.9977 28.5807 15.4816 28.533 16.1446C28.4579 17.1687 28.5128 18.2015 28.5128 19.2588H32.5414V19.2602Z" fill="white"></path><path d="M17.0874 25.8728C17.0874 27.1988 17.0932 28.5248 17.0874 29.8508C17.0817 31.0497 16.514 31.6188 15.3295 31.6231C14.369 31.626 13.4084 31.6318 12.4479 31.6217C11.4599 31.6116 10.8402 31.0396 10.833 30.0617C10.8142 27.2378 10.8128 24.4125 10.833 21.5886C10.8402 20.6295 11.4368 20.0777 12.4103 20.0618C13.4287 20.0459 14.447 20.0474 15.4653 20.0618C16.4967 20.0762 17.0701 20.6367 17.0831 21.668C17.1004 23.0706 17.0874 24.4731 17.0874 25.8757V25.8728ZM15.331 21.8356H12.5981V29.8465H15.331V21.8356Z" fill="white"></path><path d="M29.079 34.6551C29.0631 35.0032 29.0674 35.3296 29.027 35.6503C28.9678 36.1125 28.6832 36.3682 28.2152 36.3768C27.7501 36.3855 27.4135 36.1486 27.3832 35.6835C27.3384 35.0003 27.3428 34.3098 27.3861 33.6252C27.415 33.1803 27.766 32.952 28.1805 32.9463C28.6225 32.9405 28.9548 33.1759 29.0183 33.6483C29.0645 33.9877 29.0602 34.3329 29.0775 34.6536L29.079 34.6551Z" fill="white"></path></svg>