<svg xmlns="http://www.w3.org/2000/svg" width="45" height="45" viewBox="0 0 45 45" fill="none"><path d="M19.3972 44.9761C16.3465 44.9761 13.2959 44.979 10.2452 44.9761C7.46464 44.9732 5.65908 43.1749 5.65764 40.403C5.65475 34.3493 5.66631 28.2956 5.65042 22.242C5.64608 20.7643 6.16753 19.5712 7.27542 18.5962C11.4195 14.9461 15.5478 11.2786 19.6904 7.62564C21.3977 6.12053 23.6236 6.08298 25.3353 7.58376C29.5488 11.2772 33.7391 14.9966 37.9309 18.7132C38.8813 19.5568 39.3638 20.6386 39.3652 21.9083C39.3753 26.8223 39.371 31.7349 39.3681 36.6489C39.3681 37.2555 39.0518 37.621 38.5476 37.6325C38.032 37.6441 37.7142 37.296 37.6911 36.6879C37.6853 36.5275 37.6896 36.3672 37.6896 36.2069C37.6896 31.823 37.6896 27.4391 37.6896 23.0566C37.6896 22.7201 37.6896 22.3821 37.6896 22.0455C37.6896 21.1731 37.3386 20.4725 36.6857 19.8962C32.559 16.2504 28.4394 12.5974 24.3141 8.9502C23.1325 7.90587 21.8773 7.92031 20.6914 8.96898C16.6369 12.5512 12.5881 16.1392 8.52053 19.707C7.74053 20.3916 7.36931 21.1789 7.37219 22.2261C7.39386 28.2798 7.38231 34.3334 7.38375 40.3871C7.38375 42.2345 8.39486 43.2456 10.2394 43.2456C16.4361 43.2456 22.6342 43.2456 28.8309 43.2471C29.0547 43.2471 29.283 43.2485 29.5011 43.2919C29.9185 43.3756 30.1713 43.7411 30.1265 44.1874C30.0846 44.6164 29.8723 44.9111 29.4144 44.9616C29.2396 44.9804 29.062 44.9775 28.8857 44.9775C25.7224 44.9775 22.5605 44.9775 19.3972 44.9775V44.9761Z" fill="white"></path><path d="M32.1033 22.4124C31.9141 23.1346 31.7942 23.8843 31.5226 24.5748C30.6907 26.6923 29.7893 28.7824 28.9356 30.8928C28.4026 32.2086 28.5615 33.4639 29.3502 34.6469C29.5958 35.0152 29.863 35.1004 30.2833 34.9069C31.1948 34.4894 32.0484 34.6368 32.762 35.3416C34.4404 36.9999 36.1117 38.6653 37.767 40.3466C38.6914 41.2855 38.6467 42.5956 37.702 43.5201C37.4145 43.8003 37.13 44.0834 36.831 44.3506C35.9528 45.1335 34.7524 45.1451 33.9146 44.3246C32.1828 42.6303 30.4639 40.9186 28.7667 39.1896C28.1065 38.5165 27.9982 37.6831 28.3868 36.828C28.5514 36.4654 28.5168 36.2228 28.264 35.9223C26.8195 34.202 26.5465 32.278 27.3713 30.2081C28.1961 28.1396 29.057 26.0842 29.9005 24.023C30.6184 22.2694 30.3396 20.8741 29.0079 19.5409C28.5312 19.0642 28.0589 18.5832 27.5735 18.1138C27.1243 17.6775 26.7271 17.6848 26.275 18.1152C26.1594 18.2264 26.0511 18.3449 25.9341 18.4546C25.6755 18.6973 25.6813 18.9313 25.8994 19.2115C27.0232 20.6545 26.9568 21.6628 25.664 22.9656C22.5772 26.077 19.4919 29.1869 16.4037 32.2968C15.1788 33.5303 13.6823 33.5274 12.4675 32.2895C11.9172 31.7276 11.364 31.1686 10.8223 30.5981C9.81843 29.5408 9.81843 28.0992 10.8454 27.0621C14.042 23.8352 17.2458 20.6141 20.4568 17.4002C21.4823 16.3732 22.8704 16.3111 23.9696 17.237C24.2802 17.4999 24.5185 17.5201 24.7858 17.211C24.9114 17.0651 25.053 16.9336 25.1916 16.8008C26.2186 15.8243 27.6819 15.82 28.693 16.8123C29.3574 17.4638 30.0103 18.1296 30.6343 18.8201C31.5414 19.8254 31.9878 21.02 32.1033 22.4081V22.4124ZM25.0328 20.994C24.91 20.7788 24.8349 20.5606 24.6904 20.4075C24.1314 19.8095 23.5551 19.2289 22.9773 18.6496C22.5382 18.2105 22.0731 18.2076 21.6311 18.6395C21.1487 19.1104 20.6778 19.5929 20.2025 20.0695C17.5202 22.7649 14.8364 25.4602 12.1555 28.1555C11.6225 28.6914 11.624 28.9803 12.1584 29.5292C12.6958 30.081 13.2273 30.6385 13.7719 31.1831C14.1864 31.5962 14.6761 31.6092 15.0863 31.1975C18.293 27.9822 21.4953 24.7625 24.6919 21.5385C24.8305 21.3999 24.9056 21.1991 25.0313 20.994H25.0328ZM31.2887 36.4091C31.1428 36.4625 31.0142 36.4741 30.9405 36.5434C30.591 36.8728 30.2357 37.2006 29.9309 37.569C29.8615 37.6528 29.9265 37.9532 30.0276 38.0558C31.6974 39.7429 33.3831 41.4155 35.0644 43.0911C35.2724 43.2991 35.4775 43.3078 35.6913 43.1012C35.9571 42.8455 36.22 42.5855 36.4944 42.34C36.818 42.0511 36.8035 41.7954 36.4973 41.4906C34.8925 39.896 33.3008 38.2898 31.6989 36.6922C31.5804 36.5752 31.4215 36.4986 31.2872 36.4076L31.2887 36.4091Z" fill="white"></path><path d="M7.38733 10.2863C7.38733 11.5068 7.37866 12.7259 7.39166 13.9465C7.396 14.3827 7.24722 14.7019 6.91355 14.9894C5.25822 16.4122 3.61877 17.8537 1.97211 19.288C1.86377 19.3834 1.75544 19.4816 1.63555 19.5596C1.26722 19.7979 0.820885 19.7416 0.543552 19.431C0.279219 19.1349 0.253219 18.6366 0.518997 18.3232C0.693774 18.1166 0.908996 17.9433 1.11555 17.7642C2.48344 16.5725 3.847 15.3779 5.22789 14.2007C5.53411 13.9393 5.67133 13.6692 5.667 13.256C5.64822 10.8799 5.65689 8.50382 5.65833 6.12771C5.65833 4.86382 6.35455 4.16471 7.62422 4.15893C9.03689 4.15316 10.4496 4.15027 11.8622 4.15893C12.9557 4.16616 13.5782 4.71071 13.7674 5.79838C13.8613 6.33427 14.1762 6.43827 14.6139 6.06127C16.2403 4.65438 17.8567 3.23449 19.486 1.83049C21.423 0.160712 23.6056 0.16649 25.5267 1.83049C31.6641 7.14893 37.8016 12.4688 43.939 17.7873C44.0719 17.9028 44.2091 18.0155 44.3362 18.1383C44.7363 18.5254 44.7768 19.0064 44.4445 19.379C44.1181 19.7459 43.6198 19.769 43.198 19.4094C42.1984 18.5543 41.2076 17.6862 40.2138 16.8238C34.9401 12.2478 29.6679 7.67038 24.3913 3.09871C23.1549 2.02693 21.9098 2.03993 20.6733 3.1016C18.3478 5.09927 16.0222 7.09549 13.688 9.08449C13.4872 9.25494 13.246 9.42971 12.9976 9.48171C12.4689 9.59438 12.0572 9.20438 12.0428 8.61071C12.0254 7.92027 12.0399 7.22982 12.037 6.53938C12.0341 5.97749 11.9489 5.8836 11.4043 5.88071C10.2647 5.87493 9.125 5.88505 7.98533 5.87638C7.56211 5.87349 7.37577 6.0396 7.38155 6.47871C7.39744 7.74693 7.38733 9.01516 7.38733 10.2834V10.2863Z" fill="white"></path></svg>