<svg xmlns="http://www.w3.org/2000/svg" width="24" height="19" viewBox="0 0 24 19" fill="none"><path d="M23.4411 2.21909C22.5743 2.59007 21.6576 2.83531 20.7197 2.94718C21.7092 2.36393 22.4508 1.44638 22.8068 0.364729C21.8769 0.910869 20.8589 1.29566 19.7972 1.50237C19.0875 0.743077 18.1424 0.23765 17.1101 0.0653595C16.0779 -0.106931 15.0169 0.063661 14.0935 0.55038C13.1702 1.0371 12.4366 1.81241 12.008 2.75473C11.5794 3.69705 11.48 4.75306 11.7252 5.75716C9.84497 5.66333 8.00574 5.18032 6.32703 4.3395C4.64831 3.49867 3.16767 2.31885 1.98127 0.876668C1.56515 1.59357 1.34649 2.40546 1.34705 3.23159C1.34557 3.9988 1.53641 4.75446 1.90258 5.4313C2.26874 6.10813 2.79886 6.68514 3.44575 7.11095C2.69388 7.09077 1.95808 6.89173 1.30092 6.53075V6.58764C1.30656 7.66258 1.68837 8.70262 2.38177 9.53182C3.07517 10.361 4.0376 10.9285 5.10626 11.1382C4.69488 11.2617 4.26779 11.3268 3.83781 11.3316C3.54018 11.3282 3.24328 11.3015 2.9499 11.252C3.25422 12.1767 3.84314 12.9848 4.63471 13.5638C5.42628 14.1429 6.38113 14.4642 7.3664 14.4829C5.70266 15.7744 3.64857 16.4793 1.53155 16.4851C1.1461 16.4864 0.760953 16.4636 0.378418 16.4169C2.53988 17.7937 5.05876 18.5246 7.63162 18.5215C9.40708 18.5397 11.1684 18.2087 12.8128 17.5478C14.4571 16.8869 15.9515 15.9094 17.2086 14.6723C18.4657 13.4352 19.4604 11.9634 20.1345 10.3429C20.8086 8.72233 21.1487 6.9855 21.1348 5.23384C21.1348 5.04044 21.1348 4.83567 21.1348 4.63089C22.0396 3.96515 22.8201 3.14902 23.4411 2.21909Z" fill="white"></path></svg>