<svg xmlns="http://www.w3.org/2000/svg" width="62" height="47" viewBox="0 0 62 47" fill="none"><g clip-path="url(#clip0_203_2083)"><path d="M60.6307 7.97459C60.2751 6.60637 59.5814 5.359 58.6187 4.3567C57.656 3.3544 56.4579 2.63215 55.1437 2.26185C50.3324 0.895752 30.9686 0.895752 30.9686 0.895752C30.9686 0.895752 11.6037 0.937103 6.79244 2.3032C5.47821 2.67352 4.28009 3.39581 3.31739 4.39816C2.3547 5.40051 1.66102 6.64792 1.30544 8.0162C-0.149868 16.9162 -0.714407 30.4779 1.3454 39.0219C1.70102 40.3901 2.39471 41.6375 3.35741 42.6398C4.3201 43.6421 5.5182 44.3644 6.8324 44.7346C11.6437 46.1007 31.008 46.1007 31.008 46.1007C31.008 46.1007 50.3721 46.1007 55.1832 44.7346C56.4974 44.3644 57.6956 43.6421 58.6583 42.6398C59.6211 41.6375 60.3148 40.3902 60.6704 39.0219C62.2054 30.1092 62.6784 16.5559 60.6307 7.97459Z" fill="#FF0000"></path><path d="M24.8047 33.1849L40.8685 23.4981L24.8047 13.8114V33.1849Z" fill="white"></path></g><defs><clipPath id="clip0_203_2083"><rect width="62" height="45.3853" fill="white" transform="translate(0 0.895752)"></rect></clipPath></defs></svg>