<svg xmlns="http://www.w3.org/2000/svg" width="27" height="19" viewBox="0 0 27 19" fill="none"><path d="M26.3723 6.42536C26.4314 4.73837 26.0575 3.06401 25.2852 1.55774C24.7613 0.939676 24.0341 0.522583 23.2304 0.379136C19.9063 0.0815692 16.5685 -0.0403937 13.2312 0.0137699C9.90611 -0.042852 6.58029 0.0751752 3.26788 0.36735C2.613 0.484876 2.00695 0.787924 1.5237 1.23951C0.448516 2.21775 0.329051 3.89137 0.209586 5.30569C0.0362577 7.84859 0.0362577 10.4001 0.209586 12.943C0.244148 13.739 0.364286 14.5292 0.56798 15.3002C0.712025 15.8955 1.00346 16.4462 1.41618 16.9031C1.90272 17.3786 2.52288 17.6989 3.1962 17.8224C5.77176 18.1361 8.36689 18.266 10.9614 18.2114C15.1427 18.2703 18.8102 18.2114 23.1468 17.8813C23.8367 17.7654 24.4743 17.4447 24.9746 16.962C25.3091 16.6319 25.5589 16.2279 25.7033 15.7834C26.1306 14.4901 26.3404 13.1364 26.3246 11.7762C26.3723 11.1162 26.3723 7.13252 26.3723 6.42536ZM10.5313 12.4834V5.18782L17.6036 8.85327C15.6205 9.93758 13.0043 11.1633 10.5313 12.4834Z" fill="white"></path></svg>