<?xml version="1.0" encoding="UTF-8"?>
<svg xmlns="http://www.w3.org/2000/svg" width="104" height="104" viewBox="0 0 104 104" fill="none">
  <g clip-path="url(#clip0_21_670)">
    <path d="M102.701 51.9982C102.701 80.0005 80.0006 102.701 51.9983 102.701C23.996 102.701 1.29919 80.0005 1.29919 51.9982C1.29919 23.9995 23.996 1.29916 51.9983 1.29916C80.0006 1.29916 102.701 23.9995 102.701 51.9982Z" fill="#8A5CC4"></path>
    <path d="M55.3936 38.2552H35.4216C33.5606 38.2552 32.0508 36.7453 32.0508 34.8844V34.5648C32.0508 32.7039 33.5606 31.194 35.4216 31.194H55.3936C57.2546 31.194 58.7644 32.7039 58.7644 34.5648V34.8844C58.7644 36.7453 57.2546 38.2552 55.3936 38.2552Z" fill="#FEFEFE"></path>
    <path d="M45.0705 81.3524C43.0481 81.3524 41.4048 79.7091 41.4048 77.6831C41.4048 75.6606 43.0481 74.0209 45.0705 74.0209C47.0965 74.0209 48.7363 75.6606 48.7363 77.6831C48.7363 79.7091 47.0965 81.3524 45.0705 81.3524ZM39.2524 73.4134C37.8619 73.4134 36.7313 72.2863 36.7313 70.8923C36.7313 69.4984 37.8619 68.3677 39.2524 68.3677C40.6464 68.3677 41.777 69.4984 41.777 70.8923C41.777 72.2863 40.6464 73.4134 39.2524 73.4134ZM33.4658 86.0224C30.4181 86.0224 27.9461 83.5504 27.9461 80.4991C27.9461 77.4514 30.4181 74.9794 33.4658 74.9794C36.5171 74.9794 38.989 77.4514 38.989 80.4991C38.989 83.5504 36.5171 86.0224 33.4658 86.0224ZM51.1907 70.4394V63.9541C48.2272 63.8944 45.7482 62.4688 42.7952 61.9597C39.3226 61.3663 34.6526 61.2961 31.1168 62.353L36.805 48.8346V38.2552L53.4976 38.35V49.4807L54.1331 50.9589V48.954C54.1331 48.954 54.5193 48.8557 55.19 48.659V36.6646L35.1091 36.5452V48.4905L21.2396 81.4507C21.043 81.8756 19.3857 85.6396 20.7796 88.087C21.3906 89.1649 22.4651 89.7899 23.9608 89.9444L62.0896 89.948C62.1634 89.9585 62.3003 89.9655 62.4899 89.9655C63.3607 89.9655 65.2813 89.7759 66.3839 88.2344C66.9141 87.4936 67.1669 86.5631 67.1388 85.45C63.2589 84.1368 54.2876 80.1375 51.1907 70.4394Z" fill="#FEFEFE"></path>
    <path d="M60.1479 52.3424V67.2968C62.49 73.4801 68.6487 76.1487 71.2119 77.0125C79.4107 74.1508 81.8862 68.4134 82.4023 66.9176V52.23C78.1502 50.6113 74.3194 48.5537 71.6543 46.9771C67.5848 49.5158 63.2975 51.2609 60.1479 52.3424Z" fill="#FEFEFE"></path>
    <path d="M84.523 67.4232C83.8945 69.379 81.1031 76.0082 71.563 79.1894L71.2294 79.3018L70.5236 79.0736C67.6409 78.1045 60.6535 75.0602 58.0411 67.8621L57.9744 67.4899V50.7798L58.7223 50.5305C61.9316 49.4736 66.6753 47.6162 71.0468 44.7896L71.6191 44.4209L72.1985 44.7721C74.9267 46.4188 79.1683 48.7398 83.8629 50.4568L84.5757 50.7166L84.523 67.4232ZM71.5594 38.8591C65.3305 43.5677 57.381 46.1695 54.5544 46.9947C53.8838 47.1913 53.494 47.2931 53.494 47.2931V49.2981V62.2897V68.775C56.5945 78.4731 65.5657 82.476 69.4457 83.7892C70.5763 84.1684 71.2785 84.3264 71.2785 84.3264C86.4226 79.9303 89.0561 68.2097 89.0561 68.2097V47.2931C80.0286 44.6211 71.5594 38.8591 71.5594 38.8591Z" fill="#FEFEFE"></path>
    <path d="M48.1078 28.2621C46.0326 28.2621 44.3507 26.5802 44.3507 24.5051C44.3507 22.4299 46.0326 20.7445 48.1078 20.7445C50.1829 20.7445 51.8648 22.4299 51.8648 24.5051C51.8648 26.5802 50.1829 28.2621 48.1078 28.2621Z" fill="#FEFEFE"></path>
    <path d="M43.1113 17.8161C41.6682 17.8161 40.4989 16.6469 40.4989 15.2002C40.4989 13.7571 41.6682 12.5879 43.1113 12.5879C44.5509 12.5879 45.7237 13.7571 45.7237 15.2002C45.7237 16.6469 44.5509 17.8161 43.1113 17.8161Z" fill="#FEFEFE"></path>
    <path d="M54.9126 17.8161C51.8649 17.8161 49.3929 15.3442 49.3929 12.2964C49.3929 9.25217 51.8649 6.78375 54.9126 6.78375C57.9569 6.78375 60.4253 9.25217 60.4253 12.2964C60.4253 15.3442 57.9569 17.8161 54.9126 17.8161Z" fill="#FEFEFE"></path>
  </g>
  <defs>
    <clipPath id="clip0_21_670">
      <rect width="104" height="104" fill="white"></rect>
    </clipPath>
  </defs>
</svg>
