<?xml version="1.0" encoding="UTF-8"?>
<svg xmlns="http://www.w3.org/2000/svg" width="104" height="104" viewBox="0 0 104 104" fill="none">
  <g clip-path="url(#clip0_19_482)">
    <path fill-rule="evenodd" clip-rule="evenodd" d="M52.0085 102.699C80.0066 102.699 102.699 80.0066 102.699 52.0085C102.699 23.9934 80.0066 1.30063 52.0085 1.30063C24.0105 1.30063 1.30063 23.9934 1.30063 52.0085C1.30063 80.0066 24.0105 102.699 52.0085 102.699Z" fill="#8A5CC4"></path>
    <path d="M26.6974 24.387C24.986 24.387 23.6169 25.7732 23.6169 27.4675V79.4418H75.5912C77.3026 79.4418 78.6717 78.0556 78.6717 76.3614V68.5233V66.9659V47.2509V45.6936V24.387H26.6974Z" fill="#FEFEFE"></path>
    <path d="M61.1644 65.6139H84.7813C90.7711 64.4844 92.3284 59.7097 92.7392 57.1769H65.6482C65.2374 60.5141 63.5774 63.4918 61.1644 65.6139Z" fill="#FEFEFE"></path>
    <path fill-rule="evenodd" clip-rule="evenodd" d="M94.5019 53.9253H64.1079C63.218 53.9253 62.4821 54.6441 62.4821 55.5511C62.4821 60.7194 58.6144 64.9979 53.6001 65.6139H52.1797C52.0428 65.6139 51.8887 65.6311 51.7518 65.6653C49.3046 65.5284 47.114 64.5187 45.4369 62.9613L43.0752 65.1861C45.4882 67.5136 48.7569 68.934 52.3508 68.934C52.83 68.934 53.3092 68.9169 53.7884 68.8656H84.9353C85.0209 68.8656 85.1236 68.8484 85.2091 68.8313C93.9371 67.274 96.179 59.453 96.1277 55.534C96.1277 54.6441 95.3918 53.9253 94.5019 53.9253ZM84.7813 65.6139H61.1644C63.5945 63.4918 65.2374 60.5141 65.6482 57.1769H92.7392C92.3284 59.7097 90.7711 64.4844 84.7813 65.6139ZM83.2239 16.857C80.4344 13.9306 75.8137 13.8108 72.8873 16.6003L42.2024 45.8476V31.1469C42.2024 30.2399 41.4836 29.5211 40.5766 29.5211C39.6867 29.5211 38.9508 30.2399 38.9508 31.1469V48.9452L41.0386 46.9429L19.5267 67.4451C16.6003 70.2346 16.4976 74.8553 19.2871 77.7818C20.7076 79.2878 22.6414 80.0408 24.5753 80.0408C26.3893 80.0408 28.2034 79.3734 29.6067 78.0214L82.9672 27.1766C85.8937 24.4041 86.0135 19.7663 83.2239 16.857Z" fill="#8A5CC4"></path>
    <path d="M21.0156 78.569C20.3653 78.569 19.7321 78.3123 19.2529 77.816C18.3117 76.8405 18.363 75.3003 19.3214 74.3762L76.2415 20.1257C77.217 19.2016 78.7573 19.2358 79.6985 20.2113C80.6227 21.1867 80.5884 22.727 79.613 23.6511L22.6928 77.9016C22.2136 78.3465 21.6146 78.569 21.0156 78.569Z" fill="#FEFEFE"></path>
  </g>
  <defs>
    <clipPath id="clip0_19_482">
      <rect width="104" height="104" fill="white"></rect>
    </clipPath>
  </defs>
</svg>
