<?xml version="1.0" encoding="UTF-8"?>
<svg xmlns="http://www.w3.org/2000/svg" width="104" height="104" viewBox="0 0 104 104" fill="none">
  <g clip-path="url(#clip0_32_4202)">
    <path fill-rule="evenodd" clip-rule="evenodd" d="M51.9985 1.30169C80.0014 1.30169 102.698 23.9986 102.698 52.0015C102.698 80.0014 80.0014 102.701 51.9985 102.701C23.9986 102.701 1.29871 80.0014 1.29871 52.0015C1.29871 23.9986 23.9986 1.30169 51.9985 1.30169Z" fill="#8A5CC4"></path>
    <path fill-rule="evenodd" clip-rule="evenodd" d="M48.3911 44.3266C50.8953 44.3266 52.9245 46.3558 52.9245 48.857C52.9245 51.3612 50.8953 53.3904 48.3911 53.3904C45.8869 53.3904 43.8607 51.3612 43.8607 48.857C43.8607 46.3558 45.8869 44.3266 48.3911 44.3266ZM48.3911 46.6294C49.6206 46.6294 50.6187 47.6305 50.6187 48.857C50.6187 50.0896 49.6206 51.0846 48.3911 51.0846C47.1615 51.0846 46.1635 50.0896 46.1635 48.857C46.1635 47.6305 47.1615 46.6294 48.3911 46.6294Z" fill="#FEFEFE"></path>
    <path d="M50.9433 8.07469C53.673 8.07469 56.1471 9.18399 57.9358 10.9727C59.7245 12.7614 60.8308 15.2325 60.8308 17.9621C60.8308 20.6948 59.7245 23.1689 57.9358 24.9576C56.3906 26.4938 54.3494 27.5279 52.0737 27.7864V37.8963C55.4406 38.1759 58.4649 39.658 60.7195 41.9157C63.2418 44.4349 64.796 47.904 64.796 51.734C64.796 54.4245 64.0294 56.9377 62.7036 59.0631L71.563 67.1739C73.2825 65.7128 75.5131 64.832 77.9482 64.832C80.6778 64.832 83.1519 65.9413 84.9406 67.727C86.7293 69.5157 87.8356 71.9898 87.8356 74.7195C87.8356 77.4491 86.7293 79.9232 84.9406 81.7119C83.1429 83.4976 80.6718 84.6069 77.9482 84.6069C75.2185 84.6069 72.7444 83.4976 70.9557 81.7119C69.17 79.9232 68.0607 77.4491 68.0607 74.7195C68.0607 72.543 68.7672 70.5288 69.9637 68.8934L61.2937 60.951C61.1104 61.1584 60.924 61.3568 60.7286 61.5492C58.2124 64.0685 54.7372 65.6287 50.9073 65.6287C47.0804 65.6287 43.6052 64.0715 41.092 61.5583C40.9146 61.3839 40.7433 61.2005 40.5749 61.0141L31.932 68.9295C33.1105 70.5559 33.8049 72.558 33.8049 74.7195C33.8049 77.4491 32.6986 79.9232 30.9099 81.7119C29.1152 83.4976 26.6411 84.6069 23.9205 84.6069C21.1878 84.6069 18.7137 83.4976 16.928 81.7119C15.1393 79.9232 14.03 77.4491 14.03 74.7195C14.03 71.9958 15.1393 69.5247 16.931 67.733C18.7137 65.9413 21.1878 64.832 23.9205 64.832C26.3705 64.832 28.6162 65.7279 30.3417 67.2039L39.153 59.1353C37.8002 56.9888 37.0155 54.4486 37.0155 51.734C37.0155 47.904 38.5728 44.4319 41.092 41.9157C43.3466 39.661 46.3679 38.1789 49.7288 37.8963V27.7804C47.4832 27.5009 45.469 26.4727 43.9509 24.9576C42.1652 23.1689 41.0559 20.6918 41.0559 17.9621C41.0559 15.2415 42.1652 12.7674 43.9569 10.9757C45.7396 9.18399 48.2137 8.07469 50.9433 8.07469ZM82.2771 70.3905C81.1708 69.2842 79.6407 68.5988 77.9482 68.5988C76.2557 68.5988 74.7255 69.2842 73.6192 70.3905C72.5099 71.4908 71.8245 73.024 71.8245 74.7195C71.8245 76.409 72.5129 77.9421 73.6192 79.0514C74.7255 80.1577 76.2587 80.8431 77.9482 80.8431C79.6467 80.8431 81.1768 80.1607 82.2771 79.0574C83.3864 77.9421 84.0718 76.412 84.0718 74.7195C84.0718 73.03 83.3864 71.4968 82.2771 70.3905ZM28.2464 70.3905C27.1401 69.2842 25.61 68.5988 23.9205 68.5988C22.225 68.5988 20.6948 69.2842 19.5885 70.3905C18.4792 71.4908 17.7938 73.024 17.7938 74.7195C17.7938 76.409 18.4822 77.9421 19.5885 79.0514C20.6948 80.1577 22.228 80.8431 23.9205 80.8431C25.613 80.8431 27.1461 80.1607 28.2464 79.0574C29.3557 77.9421 30.0381 76.412 30.0381 74.7195C30.0381 73.03 29.3557 71.4968 28.2464 70.3905ZM58.0711 44.5731C56.2403 42.7424 53.706 41.612 50.9073 41.612C48.1055 41.612 45.5712 42.7454 43.7404 44.5762C41.9127 46.4039 40.7793 48.9352 40.7793 51.734C40.7793 54.5357 41.9127 57.067 43.7435 58.9008C45.5742 60.7285 48.1085 61.8619 50.9073 61.8619C53.7091 61.8619 56.2403 60.7316 58.0681 58.9038C59.8989 57.073 61.0322 54.5357 61.0322 51.734C61.0322 48.9352 59.8989 46.4009 58.0711 44.5731ZM55.2753 13.6332C54.166 12.5269 52.6358 11.8415 50.9433 11.8415C49.2538 11.8415 47.7207 12.5269 46.6144 13.6332C45.5051 14.7365 44.8197 16.2666 44.8197 17.9621C44.8197 19.6546 45.5081 21.1878 46.6144 22.2941C47.7207 23.4004 49.2538 24.0888 50.9433 24.0888C52.6388 24.0888 54.172 23.4034 55.2753 22.3031C56.3786 21.1878 57.064 19.6546 57.064 17.9621C57.064 16.2726 56.3786 14.7425 55.2753 13.6332Z" fill="#FEFEFE"></path>
    <path fill-rule="evenodd" clip-rule="evenodd" d="M46.422 16.9821C46.422 17.8208 47.3299 18.2237 47.9341 17.5924C48.6887 16.7957 47.8349 16.5552 48.7909 15.6023C49.7409 14.6493 49.9814 15.5031 50.775 14.7485C51.3161 14.2314 50.9794 13.2334 50.1677 13.2334C48.0514 13.2334 46.422 14.8657 46.422 16.9821Z" fill="#FEFEFE"></path>
    <path fill-rule="evenodd" clip-rule="evenodd" d="M19.2728 74.1814C19.2728 75.0231 20.1837 75.4229 20.785 74.7916C21.5425 73.995 20.6888 73.7545 21.6417 72.8015C22.5947 71.8515 22.8352 72.7023 23.6288 71.9477C24.1699 71.4337 23.8302 70.4356 23.0186 70.4356C20.9052 70.4356 19.2728 72.065 19.2728 74.1814Z" fill="#FEFEFE"></path>
    <path fill-rule="evenodd" clip-rule="evenodd" d="M73.9438 74.1814C73.9438 75.0231 74.8547 75.4229 75.456 74.7916C76.2135 73.995 75.3598 73.7545 76.3127 72.8015C77.2657 71.8515 77.5062 72.7023 78.2998 71.9477C78.841 71.4337 78.5013 70.4356 77.6926 70.4356C75.5762 70.4356 73.9438 72.065 73.9438 74.1814Z" fill="#FEFEFE"></path>
  </g>
  <defs>
    <clipPath id="clip0_32_4202">
      <rect width="104" height="104" fill="white"></rect>
    </clipPath>
  </defs>
</svg>
