<?xml version="1.0" encoding="UTF-8"?>
<svg xmlns="http://www.w3.org/2000/svg" width="104" height="104" viewBox="0 0 104 104" fill="none">
  <g clip-path="url(#clip0_19_503)">
    <path fill-rule="evenodd" clip-rule="evenodd" d="M52.0011 102.699C80.0008 102.699 102.701 79.9986 102.701 52.0011C102.701 23.9991 80.0008 1.30093 52.0011 1.30093C24.0013 1.30093 1.30093 23.9991 1.30093 52.0011C1.30093 79.9986 24.0013 102.699 52.0011 102.699Z" fill="#8A5CC4"></path>
    <path d="M38.0425 57.8108C38.0208 57.8239 35.7859 58.8316 33.7682 57.889C31.1142 56.6467 28.1952 55.639 24.2229 58.0758C21.9033 59.4962 20.7609 58.4906 20.6241 58.3538C20.1636 57.8695 19.397 57.8347 18.904 58.2799C18.3957 58.7382 18.3566 59.5179 18.8084 60.0196C18.8779 60.0978 19.9942 61.2988 21.9902 61.2988C22.961 61.2988 24.1403 61.0143 25.5108 60.1716C28.4515 58.3712 30.4344 59.051 32.7214 60.1195C35.8141 61.5616 38.9612 60.1021 39.0937 60.0392C39.7061 59.7503 39.9646 59.0184 39.6736 58.4037C39.3912 57.7913 38.6549 57.5263 38.0425 57.8108ZM37.9904 62.8213C37.9708 62.8344 35.7338 63.8421 33.7183 62.8995C31.0686 61.6594 28.1474 60.6495 24.1729 63.0863C21.849 64.5089 20.7066 63.5055 20.5741 63.3643C20.1115 62.8756 19.3492 62.8452 18.8562 63.2905C18.3458 63.7465 18.3045 64.5262 18.7606 65.0301C18.8258 65.1061 19.9399 66.3094 21.9381 66.3094C22.9111 66.3094 24.0926 66.0227 25.4608 65.1865C28.4037 63.3838 30.3845 64.055 32.6758 65.13C35.7598 66.5743 38.9069 65.1148 39.0415 65.0497C39.6562 64.7586 39.9146 64.0289 39.6258 63.4143C39.3391 62.804 38.6093 62.5368 37.9904 62.8213ZM37.9382 67.8362C37.9165 67.8449 35.6817 68.8504 33.6683 67.9057C31.0186 66.6677 28.0931 65.66 24.123 68.0925C21.8034 69.5194 20.6653 68.5116 20.5285 68.377C20.0681 67.8861 19.2992 67.8514 18.8019 68.3031C18.2958 68.757 18.2567 69.5346 18.7107 70.0406C19.2297 70.6162 20.3417 71.3003 21.8859 71.3003C22.8959 71.3003 24.086 71.0093 25.4109 70.1948C28.3472 68.3922 30.3323 69.0676 32.6215 70.1427C35.7077 71.5826 38.8613 70.1232 38.9916 70.058C39.6084 69.7691 39.8712 69.0329 39.578 68.4204C39.287 67.8079 38.555 67.5451 37.9382 67.8362ZM85.6086 46.2695C85.6086 33.8725 75.5615 23.8297 63.1688 23.8297C51.1845 23.8297 41.4263 33.2318 40.7942 45.0641L40.7617 45.0511C40.7356 45.7635 40.69 46.1957 40.4728 46.7321L37.278 51.912C36.5395 53.1044 37.1759 54.6725 38.5377 55.0156L41.65 55.7975H41.6434C42.4492 55.9799 43.1312 56.2753 43.3788 56.7835L43.394 56.7662C43.5764 57.1093 43.748 57.459 43.95 57.7956C44.0173 57.8673 44.1085 57.9324 44.2084 57.9933C47.5249 60.0696 50.1398 59.6091 52.9024 56.4295C53.5757 55.6607 54.7442 55.5716 55.5217 56.2492C56.2927 56.9204 56.3709 58.0953 55.7041 58.8664C53.4085 61.5052 50.8739 62.8604 48.2003 62.9495C51.8078 66.1856 56.4599 68.2705 61.5921 68.6289L61.5443 68.6463C62.6802 68.6745 63.2101 69.0503 63.1688 69.7474V76.6909C63.1688 78.6021 64.7348 80.1724 66.6504 80.1724H73.8306C75.744 80.1724 77.3056 78.6021 77.3056 76.6909V65.3668C77.2882 64.4763 77.5553 63.664 78.1765 62.9364C78.3546 62.7779 78.524 62.6107 78.6999 62.4434C78.8041 62.3522 78.8845 62.2566 79.0018 62.1676L78.9866 62.1698C83.0719 58.1062 85.6086 52.4854 85.6086 46.2695ZM60.5126 44.5038C58.1431 46.7538 55.6672 47.8832 53.1717 47.8832C50.9999 47.8832 48.8106 47.0275 46.6583 45.3117C45.8525 44.6754 45.7222 43.5069 46.3586 42.7055C46.9949 41.9019 48.1612 41.7737 48.967 42.4123C52.1575 44.9468 54.8462 44.7687 57.9564 41.8107C58.7035 41.1048 59.8719 41.1352 60.5778 41.8802C61.2858 42.6229 61.2533 43.7957 60.5126 44.5038Z" fill="#FEFEFE"></path>
  </g>
  <defs>
    <clipPath id="clip0_19_503">
      <rect width="104" height="104" fill="white"></rect>
    </clipPath>
  </defs>
</svg>
