<?xml version="1.0" encoding="UTF-8"?>
<svg xmlns="http://www.w3.org/2000/svg" width="104" height="104" viewBox="0 0 104 104" fill="none">
  <g clip-path="url(#clip0_22_2470)">
    <path fill-rule="evenodd" clip-rule="evenodd" d="M102.704 51.8275C102.798 79.8215 80.1873 102.61 52.1829 102.704C24.1785 102.798 1.41119 80.1873 1.29621 52.1829C1.21258 24.1785 23.8231 1.40074 51.8275 1.30666C79.8319 1.21258 102.61 23.8335 102.704 51.8275Z" fill="#8A5CC4"></path>
    <path d="M83.5638 34.2869C83.3965 32.3007 82.1735 30.555 80.4278 29.6142L55.8311 16.3699C54.0645 15.4186 51.9634 15.3977 50.1863 16.3072L25.3075 29.1438C23.3736 30.1473 22.1297 32.1126 22.046 34.2869C21.6174 44.7715 22.9346 75.3997 51.0122 88.1737C52.4756 88.8322 54.1795 88.7172 55.5698 87.9019C63.0753 83.5115 86.3757 67.1103 83.5638 34.2869Z" fill="#FEFEFE"></path>
    <path fill-rule="evenodd" clip-rule="evenodd" d="M53.3328 46.2872C52.0888 46.2872 50.939 46.4231 49.8205 46.6531V41.3324H61.4864V35.9071H43.8307V51.5139H50.9808C55.0262 51.5139 57.2005 53.0401 57.2005 55.8207C57.2005 58.758 54.8067 60.4619 51.7648 60.4619C48.6811 60.4619 46.6845 58.8835 44.9806 56.3224L40.6529 59.3434C42.6391 63.2007 46.5486 66.0335 51.9425 66.0335C58.3504 66.0335 63.5666 61.9045 63.5666 55.7789C63.5666 49.5696 58.4026 46.2872 53.3328 46.2872Z" fill="#8A5CC4"></path>
  </g>
  <defs>
    <clipPath id="clip0_22_2470">
      <rect width="104" height="104" fill="white"></rect>
    </clipPath>
  </defs>
</svg>
