<?xml version="1.0" encoding="UTF-8"?>
<svg xmlns="http://www.w3.org/2000/svg" width="104" height="104" viewBox="0 0 104 104" fill="none">
  <path d="M102.699 51.9972C102.699 79.9958 79.9987 102.696 52.0001 102.696C23.9987 102.696 1.30005 79.9958 1.30005 51.9972C1.30005 23.9958 23.9987 1.30276 52.0001 1.30276C79.9987 1.30276 102.699 23.9958 102.699 51.9972Z" fill="#8A5CC4"></path>
  <path d="M25.545 69.3555L27.6692 67.2332L34.9023 74.4682C35.171 74.7351 35.5738 74.8625 35.9671 74.7304C36.1722 74.6658 36.3652 74.5984 36.5647 74.3952C36.6958 74.2678 36.7651 74.2032 36.8325 74.0027L46.0586 51.3613C46.2619 50.7628 45.9921 50.1006 45.4639 49.8356C44.9347 49.5687 44.2005 49.9049 43.9336 50.4312L35.305 71.5433L29.3297 65.569L31.4585 63.4439C31.7179 63.1817 31.923 62.7171 31.7844 62.3163C31.6533 61.9182 31.3246 61.5867 30.9247 61.4556L22.9582 59.3305C22.1575 59.0636 21.2968 59.9262 21.4972 60.7934L23.6204 68.7608C23.7543 69.1551 24.0793 69.4894 24.4858 69.6205C24.8108 69.8182 25.2781 69.6205 25.545 69.3555Z" fill="#FEFEFE"></path>
  <path d="M80.3836 55.9429L72.7477 59.0617C72.3525 59.1956 72.0856 59.5956 72.0856 59.9936C72.0238 60.4581 72.2195 60.7897 72.5529 61.1212L74.8709 62.9176L74.6124 63.1779L68.3009 71.7428L59.3389 50.6972C59.1385 50.0988 58.3396 49.8347 57.8161 50.0988C57.2129 50.2992 56.9479 51.0934 57.2129 51.6273L66.9073 74.6003C66.9794 74.6668 67.0384 74.7314 66.971 74.7979C51.1739 71.3476 34.1725 73.335 19.8308 80.9052C18.706 81.5065 18.2424 82.8973 18.84 84.0277C19.4384 85.1572 20.8292 85.6199 21.9625 85.0214C40.2826 75.4647 63.2566 75.4647 81.8465 85.0214C82.8411 85.4907 83.9706 85.2884 84.7002 84.5569C84.8997 84.3584 85.0308 84.2272 85.1647 83.9584C85.7623 82.8346 85.2977 81.4372 84.1682 80.8359C79.2569 78.3147 74.014 76.39 68.6325 75.1294C68.7036 75.062 68.8357 75.062 68.9022 74.9983L69.0305 74.8672L76.4678 64.639C76.5352 64.5725 76.5352 64.4404 76.5951 64.3767L79.0564 66.3014C79.3908 66.4999 79.7907 66.6338 80.2552 66.4334C80.4557 66.3641 80.5203 66.2995 80.6505 66.1712C80.8509 65.9708 80.9183 65.7713 80.9839 65.4369L82.1115 57.2701C82.178 56.8046 81.9804 56.4759 81.647 56.1424C81.3211 55.809 80.7844 55.8118 80.3836 55.9429Z" fill="#FEFEFE"></path>
  <path d="M79.3776 58.9165L78.796 63.0964L75.5452 60.5181L79.3776 58.9165Z" fill="#8A5CC4"></path>
  <path d="M28.2683 63.3053L25.2723 66.3004L24.2046 62.1674L28.2683 63.3053Z" fill="#8A5CC4"></path>
  <path d="M61.9145 45.0919C67.6809 39.9904 68.2326 31.0884 63.1386 25.2236C60.5874 22.339 57.02 20.7028 53.4583 20.4874C49.8984 20.2692 46.1512 21.4464 43.2665 23.9948C37.4973 29.0991 36.9513 38.0049 42.0462 43.8687C47.2413 49.6445 56.1425 50.1915 61.9145 45.0919Z" fill="#FEFEFE"></path>
  <path d="M33.7435 38.0854C34.5021 37.885 35.2785 38.3374 35.4761 39.0913C35.6784 39.8527 35.228 40.6263 34.4712 40.8268C33.7154 41.0291 32.9371 40.5795 32.7339 39.8228C32.5344 39.0613 32.9868 38.2877 33.7435 38.0854Z" fill="#FEFEFE"></path>
  <path d="M37.1284 45.2511C37.8852 45.0507 38.6616 45.503 38.862 46.257C39.0624 47.0184 38.6148 47.792 37.8533 47.9924C37.0994 48.1957 36.3211 47.7452 36.1207 46.9884C35.9203 46.2251 36.3698 45.4515 37.1284 45.2511Z" fill="#FEFEFE"></path>
  <path d="M34.2193 29.2555C34.991 29.4157 35.4781 30.1649 35.3198 30.9357C35.1643 31.7018 34.4122 32.1916 33.6461 32.0305C32.8744 31.8751 32.3808 31.1258 32.5438 30.3569C32.7049 29.5889 33.456 29.0944 34.2193 29.2555Z" fill="#FEFEFE"></path>
  <path d="M38.5987 21.5747C39.2168 22.0617 39.318 22.9515 38.8338 23.5668C38.3486 24.1821 37.457 24.2861 36.8436 23.7991C36.2254 23.3167 36.1187 22.4195 36.6038 21.8089C37.0964 21.1935 37.9881 21.0877 38.5987 21.5747Z" fill="#FEFEFE"></path>
  <path d="M45.9545 16.6653C46.2879 17.3789 45.9816 18.2171 45.2699 18.5534C44.5627 18.8849 43.717 18.5805 43.3855 17.8687C43.0502 17.1616 43.3565 16.314 44.0682 15.9834C44.7772 15.6519 45.6258 15.9582 45.9545 16.6653Z" fill="#FEFEFE"></path>
  <path d="M54.7264 15.5695C54.7068 16.3581 54.0559 16.9706 53.2757 16.9537C52.4909 16.9312 51.8727 16.2813 51.8905 15.4927C51.9102 14.7116 52.5648 14.0944 53.3469 14.1159C54.1326 14.1356 54.7527 14.7912 54.7264 15.5695Z" fill="#FEFEFE"></path>
  <path d="M63.0655 18.5197C62.6927 19.2146 61.8377 19.4712 61.1455 19.1031C60.4581 18.7323 60.1959 17.8772 60.5639 17.1832C60.9301 16.4901 61.788 16.2279 62.4801 16.6016C63.1741 16.9724 63.4364 17.8303 63.0655 18.5197Z" fill="#FEFEFE"></path>
  <path d="M69.1974 24.8874C68.555 25.3416 67.6755 25.1889 67.2203 24.5493C66.7708 23.9105 66.9206 23.0264 67.5613 22.5712C68.1944 22.1189 69.0841 22.2697 69.5365 22.9103C69.9916 23.5509 69.8409 24.4369 69.1974 24.8874Z" fill="#FEFEFE"></path>
  <path d="M71.831 33.3258C71.0564 33.4457 70.3381 32.9193 70.2135 32.1411C70.0983 31.3675 70.6265 30.6454 71.4076 30.5217C72.1794 30.4037 72.9005 30.9348 73.0195 31.7084C73.1384 32.4876 72.6064 33.2116 71.831 33.3258Z" fill="#FEFEFE"></path>
  <path d="M70.4084 42.0527C69.6619 41.812 69.2564 41.0206 69.4924 40.2714C69.7331 39.5249 70.5339 39.1138 71.2831 39.3545C72.023 39.5942 72.4351 40.3922 72.1953 41.1386C71.9565 41.8851 71.1529 42.2953 70.4084 42.0527Z" fill="#FEFEFE"></path>
  <path d="M65.8145 48.6827C65.069 48.442 64.6626 47.6487 64.8977 46.8995C65.1402 46.1558 65.941 45.7456 66.6902 45.9826C67.4311 46.2223 67.845 47.0212 67.6025 47.7677C67.3599 48.5141 66.5591 48.9271 65.8145 48.6827Z" fill="#FEFEFE"></path>
</svg>
