<?xml version="1.0" encoding="UTF-8"?>
<svg xmlns="http://www.w3.org/2000/svg" width="104" height="104" viewBox="0 0 104 104" fill="none">
  <g clip-path="url(#clip0_23_3672)">
    <path d="M12 52C12 74.0914 29.9086 92 52 92C74.0914 92 92 74.0914 92 52C92 29.9086 74.0914 12 52 12C29.9086 12 12 29.9086 12 52Z" fill="white"></path>
    <path fill-rule="evenodd" clip-rule="evenodd" d="M81.4559 44.3779L76.2764 58.4969C76.0523 59.1319 75.3675 59.4432 74.745 59.2191C74.1349 58.9825 73.8112 58.2977 74.0353 57.6877L79.1774 43.6309C80.5096 39.0491 76.0648 37.0819 75.878 36.9947L56.5048 29.7111C51.1013 27.4949 49.1341 30.6698 48.9349 31.0433L41.0785 51.3503C38.6258 55.7578 40.9914 57.5631 41.0163 57.5756C41.5517 57.9616 41.6637 58.7086 41.2777 59.244C41.0412 59.5677 40.6677 59.742 40.3066 59.742C40.207 59.742 40.1074 59.7171 40.0078 59.6922C39.9082 59.7171 39.821 59.742 39.7214 59.742H30.3959C29.7485 59.742 29.2006 59.1942 29.2006 58.5467C29.2006 57.8869 29.7485 57.3515 30.3959 57.3515H38.0281C37.4554 55.8948 37.3185 53.8653 38.4515 51.3503H24.8056C24.1457 51.3503 23.6103 50.8274 23.6103 50.155C23.6103 49.4951 24.1457 48.9598 24.8056 48.9598H39.4475L41.7882 42.9212H33.1973C32.5374 42.9212 32.002 42.3734 32.002 41.726C32.002 41.0536 32.5374 40.5307 33.1973 40.5307H42.722L46.7809 30.0473C46.8681 29.8605 49.8562 24.3947 57.3888 27.4825L76.762 34.7785C79.0903 35.7621 83.0122 38.9993 81.4559 44.3779ZM72.4043 45.4487L64.0873 65.9424C63.8881 66.4404 64.025 66.9758 64.4359 67.3244C64.8468 67.6482 65.4195 67.698 65.8428 67.4116L69.7025 64.8717C70.0885 64.6226 70.5491 64.523 70.9974 64.6226C71.4207 64.7223 71.8067 64.9837 72.0557 65.3697C72.3669 65.8055 72.4167 66.3906 72.2175 66.9011C72.0681 67.2248 71.8565 67.4987 71.3833 67.8474L58.0114 81.1944C57.8869 81.3065 57.7997 81.4434 57.7375 81.5928L56.3679 84.9794L37.2437 77.2227L51.2631 42.6473C51.6118 41.7882 52.6078 41.3649 53.4793 41.7135C54.3384 42.0621 54.7369 43.0457 54.3882 43.9173L48.9473 57.3266C48.6983 57.9242 48.9847 58.6339 49.6072 58.8829C50.2173 59.1319 50.9145 58.8331 51.1635 58.223L56.6045 44.8137L58.0612 41.203L58.6215 39.8584C58.9576 38.9868 59.9537 38.576 60.8252 38.9121C61.6843 39.2732 62.0827 40.2568 61.7341 41.1159L61.7092 41.1657L54.2762 59.493C54.0396 60.0906 54.3384 60.8128 54.9361 61.0493C55.5586 61.3108 56.2558 60.9871 56.4924 60.3894L63.9503 42.0248C63.9503 41.9999 63.9503 41.9999 63.9628 41.975L65.0833 39.2109C65.4444 38.3518 66.4404 37.9161 67.2995 38.2771C68.1586 38.6258 68.557 39.6094 68.196 40.4685L67.063 43.2823L59.6175 61.6594C59.3809 62.257 59.6549 62.9667 60.2774 63.2157C60.8875 63.4647 61.5847 63.1535 61.8337 62.5558L69.2792 44.1787C69.6278 43.3196 70.6238 42.8963 71.4954 43.2574C72.3545 43.5936 72.7529 44.5772 72.4043 45.4487ZM21.5933 32.6121C21.5933 31.9647 22.1287 31.4293 22.801 31.4293H24.457L26.835 29.0637V27.3829C26.835 26.7105 27.3704 26.1876 28.0303 26.1876C28.6777 26.1876 29.2255 26.7105 29.2255 27.3829V29.0637L31.5912 31.4293H33.1973C33.8572 31.4293 34.3926 31.9647 34.3926 32.6121C34.3926 33.2844 33.8572 33.8074 33.1973 33.8074H31.5912L29.0139 36.3971V37.692C29.0139 38.3643 28.4785 38.8872 27.8186 38.8872C27.1587 38.8872 26.6234 38.3643 26.6234 37.692V35.9738L24.457 33.8074H22.801C22.1287 33.8074 21.5933 33.2844 21.5933 32.6121ZM35.6874 21.6307H37.6422L40.4311 18.8417V16.8745C40.4311 16.2022 40.9665 15.6793 41.6264 15.6793C42.2862 15.6793 42.8092 16.2022 42.8092 16.8745V18.8417L45.5981 21.6307H47.4906C48.1505 21.6307 48.6859 22.1536 48.6859 22.8259C48.6859 23.4858 48.1505 24.0087 47.4906 24.0087H45.5981L42.5851 27.0342V28.5781C42.5851 29.238 42.0497 29.7734 41.3898 29.7734C40.7299 29.7734 40.1945 29.238 40.1945 28.5781V26.5611L37.6422 24.0087H35.6874C35.0275 24.0087 34.4922 23.4858 34.4922 22.8259C34.4922 22.1536 35.0275 21.6307 35.6874 21.6307ZM51.6989 1C23.7099 1 1 23.6975 1 51.7114C1 79.7128 23.7099 102.41 51.6989 102.41C79.7003 102.41 102.41 79.7128 102.41 51.7114C102.41 23.6975 79.7003 1 51.6989 1ZM41.7633 24.4943L43.1702 23.0625C43.1578 22.9878 43.1204 22.9131 43.1204 22.8259C43.1204 22.7388 43.1578 22.6516 43.1702 22.5769L41.6264 21.0206L39.8335 22.8259L41.4147 24.4196C41.5392 24.4196 41.6513 24.4445 41.7633 24.4943ZM28.0925 33.9319L29.238 32.7864C29.238 32.7366 29.2006 32.6868 29.2006 32.6121C29.2006 32.5623 29.238 32.5125 29.238 32.4503L28.0303 31.2425L26.6483 32.6121L27.9182 33.907C27.9805 33.907 28.0427 33.9194 28.0925 33.9319Z" fill="#8A5CC4"></path>
  </g>
  <defs>
    <clipPath id="clip0_23_3672">
      <rect width="104" height="104" fill="white"></rect>
    </clipPath>
  </defs>
</svg>
