<?xml version="1.0" encoding="UTF-8"?>
<svg xmlns="http://www.w3.org/2000/svg" width="104" height="104" viewBox="0 0 104 104" fill="none">
  <g clip-path="url(#clip0_35_214)">
    <path d="M102.699 52C102.699 79.9976 79.9976 102.699 52 102.699C24.0024 102.699 1.30078 79.9976 1.30078 52C1.30078 24.0024 24.0024 1.30078 52 1.30078C79.9976 1.30078 102.699 24.0024 102.699 52Z" fill="#8A5CC4"></path>
    <path fill-rule="evenodd" clip-rule="evenodd" d="M30.3101 48.4177C39.5085 45.3619 41.408 31.2496 44.0405 18.3554C54.457 20.6472 64.8632 22.5984 75.2694 24.9005C72.4408 49.4088 63.294 66.8041 42.9565 71.5529H84.9014V78.6762H79.4711L72.864 85.6446H66.5253L73.1531 78.6762H64.5329L57.9361 85.6446H51.5974L58.2148 78.6762H49.7495L43.1527 85.6446H36.814L43.4314 78.6762H35.2242L28.6171 85.6446H22.2784L28.9061 78.6762H17.7153V71.6768V71.5529V48.4177C21.917 48.4177 26.3252 49.7391 30.3101 48.4177ZM49.1507 26.3871C55.2416 27.6157 61.3222 28.9474 67.4235 30.1759C68.7862 37.8463 56.8108 65.9472 36.4217 66.9176H23.8063V54.0441C26.5214 54.0441 29.2674 54.4364 31.9619 54.0441C38.0941 53.1459 43.5347 46.2291 49.1507 26.3871Z" fill="white"></path>
    <path fill-rule="evenodd" clip-rule="evenodd" d="M81.5049 55.572C83.9 50.1418 84.5813 44.567 79.5537 38.5483C80.7822 37.485 82.0108 36.4114 83.2496 35.3377C88.7934 40.9434 90.0632 50.7405 85.242 58.1838L88.3082 60.2382L78.604 62.654L77.5613 52.7123C78.8724 53.6621 80.1938 54.6222 81.5049 55.572Z" fill="white"></path>
  </g>
  <defs>
    <clipPath id="clip0_35_214">
      <rect width="104" height="104" fill="white"></rect>
    </clipPath>
  </defs>
</svg>
