<?xml version="1.0" encoding="UTF-8"?>
<svg xmlns="http://www.w3.org/2000/svg" width="104" height="104" viewBox="0 0 104 104" fill="none">
  <path fill-rule="evenodd" clip-rule="evenodd" d="M52 102.699C80.0002 102.699 102.699 80.0002 102.699 52C102.699 23.9971 80.0002 1.30078 52 1.30078C23.9998 1.30078 1.3008 23.9971 1.3008 52C1.3008 80.0002 23.9998 102.699 52 102.699Z" fill="#8A5CC4"></path>
  <path d="M69.1859 55.3804H67.4824C67.7685 55.0201 67.9566 54.591 67.9566 54.1061V45.4589C67.9566 42.5209 65.4981 40.1392 62.4699 40.1392H46.3862C46.4445 40.2875 46.5001 40.4385 46.5054 40.6081L46.8339 52.9458C46.8525 53.8147 46.1477 54.5406 45.247 54.5618H45.2046C44.325 54.5618 43.6044 53.8863 43.5806 53.0226L43.2547 40.6902C43.2521 40.4942 43.2918 40.3087 43.3501 40.1392H41.1804L41.3579 46.6431C41.3817 47.5174 40.669 48.2406 39.7789 48.2645H39.7312C38.8516 48.2645 38.131 47.5863 38.1045 46.7279L37.9323 40.1392H35.148L35.4818 52.5881C35.5083 53.4571 34.7956 54.183 33.9001 54.2068H33.8551C32.9729 54.2068 32.2549 53.5286 32.2311 52.6702L31.8946 40.1392H29.6931C27.1736 40.1392 25.131 42.1155 25.131 44.5608V53.7856C25.131 54.4029 25.3907 54.946 25.7722 55.3804H24.5085C23.4408 55.3804 22.5851 56.215 22.5851 57.2429V63.4104C22.5851 64.4357 23.4408 65.2755 24.5085 65.2755H69.1859C70.2456 65.2755 71.1145 64.4357 71.1145 63.4104V57.2429C71.1145 56.215 70.2456 55.3804 69.1859 55.3804ZM81.203 30.1461C81.2083 30.1381 81.2083 30.1302 81.2083 30.1222C81.2083 30.1143 81.203 30.1064 81.203 30.1011L81.1553 20.9054C81.1606 20.8789 81.1765 20.8577 81.1765 20.8365C81.195 19.496 80.0929 18.3939 78.7127 18.3674L40.1445 17.7236H40.1021C38.7377 17.7236 37.6171 18.778 37.6012 20.108C37.58 21.4485 38.6741 22.5506 40.0597 22.5718L76.1614 23.1811L76.1826 27.6717L70.2588 27.6399C68.815 27.6134 67.7552 28.7128 67.7394 30.056C67.7341 31.3912 68.8494 32.488 70.2297 32.496L76.2144 32.5278L76.4131 69.4825C76.421 70.8231 77.5364 71.8987 78.914 71.8987H78.9299C80.3128 71.8907 81.4255 70.7992 81.4149 69.4587L81.203 30.1461ZM28.6175 70.8072C30.411 71.0059 36.8991 70.839 38.3509 70.8072C40.1498 71.3423 40.4545 71.9941 40.8095 73.8433C41.0717 75.2156 41.1247 75.4328 41.3658 77.1787C41.6016 78.8716 40.881 82.9674 40.4492 85.1928C40.3087 85.7518 40.4465 86.1756 41.0135 86.279H52.7736C53.2796 86.1995 53.4492 85.8339 53.3405 85.2113C53.0862 83.2323 52.4345 78.0371 52.5484 77.078C52.6888 75.9123 52.7736 75.4964 52.9961 74.2433C53.1418 73.4035 53.6849 72.5875 54.228 71.9729C54.8665 71.239 55.8309 70.8072 56.8535 70.8072H65.6279C67.0876 70.8072 68.5421 67.8771 68.5421 67.8771H25.7112C25.7112 67.8771 26.8292 70.6032 28.6175 70.8072Z" fill="#FEFEFE"></path>
</svg>
