<?xml version="1.0" encoding="UTF-8"?>
<svg xmlns="http://www.w3.org/2000/svg" width="104" height="104" viewBox="0 0 104 104" fill="none">
  <path d="M102.7 51.9998C102.7 80.0019 80.0008 102.7 51.9991 102.7C24.0007 102.7 1.29956 80.0019 1.29956 51.9998C1.29956 23.9993 24.0007 1.29944 51.9991 1.29944C80.0008 1.29944 102.7 23.9993 102.7 51.9998Z" fill="#8A5CC4"></path>
  <path fill-rule="evenodd" clip-rule="evenodd" d="M59.7597 35.7356H57.1625C55.8857 35.7356 54.8489 34.6996 54.8489 33.4228C54.8489 32.9012 55.0241 32.3977 55.347 31.9898L59.287 26.3518C60.0167 25.3077 61.4574 25.0515 62.5022 25.782C62.6848 25.9095 62.8487 26.0632 62.9867 26.2368L67.2816 31.6382C68.0739 32.6341 67.9076 34.0934 66.9109 34.8857C66.2274 35.4292 65.3249 35.5207 64.5702 35.2026C65.057 36.4984 65.3379 37.8614 65.2407 39.2567C65.1141 41.0721 64.4018 42.4991 63.5629 44.0721C62.9794 45.1663 62.4476 46.1845 62.3448 47.4443C62.1939 49.2949 63.0004 51.2669 63.8474 52.8747C64.4411 54.0038 64.0069 55.4016 62.8786 55.9961C61.7503 56.5901 60.3522 56.1563 59.7573 55.0281C58.4777 52.5959 57.4538 49.8356 57.6946 47.0428C57.8622 45.0951 58.5849 43.5933 59.4878 41.8997C60.8143 39.4097 60.9709 38.103 59.7597 35.7356Z" fill="white"></path>
  <path fill-rule="evenodd" clip-rule="evenodd" d="M49.6118 45.8911H47.8142C46.7511 45.8911 45.8887 45.0287 45.8887 43.9664C45.8887 43.535 46.0323 43.1174 46.2982 42.7791L49.2176 38.6015C49.8254 37.7319 51.0245 37.5186 51.8942 38.1268C52.0471 38.2329 52.1823 38.3608 52.2976 38.5056L55.4837 42.5124C56.1442 43.3416 56.0054 44.5561 55.1758 45.2157C54.7274 45.5722 54.1661 45.6952 53.6412 45.6018C53.9265 46.4726 54.0795 47.3803 54.0147 48.3087C53.9188 49.6891 53.3846 50.7683 52.7464 51.9646C52.33 52.7464 51.9407 53.4846 51.8671 54.385C51.759 55.7124 52.3503 57.1458 52.9577 58.2987C53.4522 59.2384 53.0916 60.4014 52.152 60.8968C51.2131 61.3909 50.0484 61.0307 49.5539 60.0906C48.5843 58.2489 47.8178 56.1664 47.9995 54.0515C48.1274 52.5753 48.6697 51.4397 49.354 50.1561C50.2835 48.4119 50.4147 47.5102 49.6118 45.8911Z" fill="white"></path>
  <path fill-rule="evenodd" clip-rule="evenodd" d="M39.2184 34.1124H36.6195C35.3435 34.1124 34.3071 33.0764 34.3071 31.8C34.3071 31.2792 34.4815 30.7758 34.8041 30.3679L38.7441 24.729C39.4737 23.6845 40.9144 23.4287 41.9585 24.1584C42.1418 24.2863 42.3049 24.4401 42.4437 24.6145L46.7394 30.0154C47.5318 31.0117 47.3651 32.471 46.3691 33.263C45.6848 33.8065 44.782 33.8987 44.0272 33.5798C44.5141 34.876 44.7949 36.2382 44.6978 37.6335C44.5715 39.449 43.8597 40.8759 43.0212 42.4489C42.4376 43.5431 41.9059 44.5621 41.8027 45.8219C41.6517 47.6721 42.4587 49.645 43.3049 51.2524C43.8989 52.381 43.4651 53.7788 42.3369 54.3737C41.2082 54.9673 39.8104 54.5343 39.2159 53.4057C37.9351 50.9735 36.9121 48.2128 37.1521 45.4201C37.3196 43.4719 38.0428 41.9701 38.9456 40.2765C40.2726 37.7865 40.4292 36.4794 39.2184 34.1124Z" fill="white"></path>
  <path fill-rule="evenodd" clip-rule="evenodd" d="M37.3694 72.4954C37.545 71.234 38.7133 70.3502 39.9747 70.5246C41.2382 70.699 42.1232 71.8677 41.9476 73.1311C41.8832 73.5917 41.8237 74.2962 42.0083 74.7341C42.1171 74.9927 42.3579 75.1712 42.593 75.3083C43.6926 75.9465 44.0701 77.3637 43.4328 78.4637C42.7946 79.5656 41.3745 79.944 40.2734 79.3046C39.1366 78.6437 38.267 77.7478 37.7526 76.5268C37.216 75.2529 37.1816 73.847 37.3694 72.4954Z" fill="white"></path>
  <path fill-rule="evenodd" clip-rule="evenodd" d="M49.0052 74.3662C49.8392 73.4148 51.3095 73.3169 52.2621 74.1497C53.2159 74.9834 53.3147 76.4572 52.4794 77.4099C51.9788 77.9805 51.4373 78.6482 51.2799 79.4066C51.0755 80.396 51.3341 81.8068 51.5183 82.7946C51.7522 84.0467 50.925 85.2555 49.6725 85.4902C48.4196 85.7253 47.2104 84.8973 46.9765 83.6436C46.6633 81.967 46.4059 80.1662 46.7551 78.4762C47.0939 76.8393 47.9198 75.6017 49.0052 74.3662Z" fill="white"></path>
  <path fill-rule="evenodd" clip-rule="evenodd" d="M60.1946 73.8754C60.2659 72.6115 61.363 71.6274 62.628 71.697C63.893 71.7662 64.8789 72.8677 64.8084 74.1327C64.7664 74.866 64.7672 75.6535 65.0007 76.3577C65.2394 77.0788 65.7246 77.7773 66.1658 78.3896C66.9108 79.4252 66.6752 80.8691 65.6405 81.6133C64.6061 82.3579 63.163 82.1224 62.4184 81.0888C61.6802 80.0638 61.0097 79.0152 60.6099 77.8081C60.1837 76.5196 60.1186 75.2205 60.1946 73.8754Z" fill="white"></path>
  <path fill-rule="evenodd" clip-rule="evenodd" d="M19.0413 53.8957L51.7867 65.9598L84.8076 53.9969L67.5018 47.4916C66.0376 46.9413 65.2926 45.2978 65.8434 43.8337C66.3941 42.37 68.0372 41.627 69.5013 42.1765L94.0077 51.3887C94.7851 51.6817 95.3937 52.2981 95.677 53.0795C96.2104 54.5517 95.4472 56.183 93.9749 56.716L52.8291 71.6201C52.1825 71.8831 51.4496 71.8896 50.7956 71.6488L10.0112 56.6233C9.24475 56.3408 8.63853 55.7423 8.34433 54.9803C7.7806 53.5218 8.51065 51.8715 9.96994 51.3086L31.0774 43.1696C32.5355 42.6079 34.1834 43.3367 34.7471 44.7948C35.3108 46.2529 34.5808 47.9036 33.1215 48.4665L19.0413 53.8957Z" fill="white"></path>
</svg>
