<?xml version="1.0" encoding="UTF-8"?>
<svg xmlns="http://www.w3.org/2000/svg" width="104" height="104" viewBox="0 0 104 104" fill="none">
  <g clip-path="url(#clip0_37_463)">
    <path d="M102.695 51.9948C102.695 80.0024 80.0024 102.695 51.9948 102.695C23.9976 102.695 1.30536 80.0024 1.30536 51.9948C1.30536 23.9976 23.9976 1.29491 51.9948 1.29491C80.0024 1.29491 102.695 23.9976 102.695 51.9948Z" fill="#FBD9CA"></path>
    <path fill-rule="evenodd" clip-rule="evenodd" d="M102.695 51.9948C102.695 80.0024 79.992 102.695 51.9948 102.695C23.9976 102.695 1.29492 80.0024 1.29492 51.9948C1.29492 23.9976 23.9976 1.29491 51.9948 1.29491C79.992 1.29491 102.695 23.9976 102.695 51.9948Z" fill="#8A5CC4"></path>
    <path fill-rule="evenodd" clip-rule="evenodd" d="M77.8721 48.486C54.052 26.9216 53.8223 26.9738 52.9451 26.9529C52.3081 26.9634 52.0157 26.9842 39.8394 37.354V30.6183C39.8394 29.4487 38.8891 28.488 37.709 28.488C36.529 28.488 35.5787 29.4487 35.5787 30.6183V40.5808C35.5787 40.7061 35.6309 40.8105 35.6414 40.9254C33.1768 43.0453 30.3468 45.468 27.0887 48.2667C26.3786 48.8724 26.295 49.9375 26.9007 50.6477C27.5064 51.3578 28.582 51.4309 29.2817 50.8252C29.4905 50.6477 29.6994 50.4701 29.9082 50.2926L30.0962 68.1185C30.1171 70.0609 31.7253 71.6273 33.6885 71.6273H46.2826V56.1719C46.2826 54.9814 47.2538 54.0102 48.4442 54.0102H56.4852C57.6757 54.0102 58.6364 54.9814 58.6364 56.1719L58.8766 71.6273H71.6899C72.6716 71.6273 73.5905 71.2513 74.2693 70.5517C74.9481 69.8729 75.3032 68.9748 75.2927 68.0349L75.1152 50.5328C75.2718 50.6894 75.4494 50.8461 75.6164 50.9923C75.9297 51.2742 76.337 51.4204 76.7443 51.4204C77.2038 51.4204 77.6632 51.2325 77.987 50.867C78.6135 50.1777 78.5613 49.1126 77.8721 48.486Z" fill="#FEFEFE"></path>
    <path fill-rule="evenodd" clip-rule="evenodd" d="M16.0715 52.4229C16.9487 52.4229 17.6901 51.7442 17.7528 50.8565C18.63 38.4713 26.0966 27.4124 37.2495 21.9926C42.6485 19.3714 48.5278 18.2123 54.4279 18.5569C55.0545 19.8414 56.3808 20.6768 57.8114 20.6768C58.3858 20.6768 58.9288 20.541 59.4509 20.2904C60.7354 19.6638 61.5604 18.3376 61.5604 16.9174C61.5604 16.3326 61.4351 15.7791 61.1845 15.2674C60.3177 13.4712 57.9472 12.6776 56.1719 13.5339C55.4305 13.8889 54.877 14.4842 54.5115 15.1839C48.0683 14.8392 41.6564 16.1028 35.7771 18.9642C23.5485 24.9061 15.3509 37.0407 14.3798 50.6163C14.3171 51.5457 15.0168 52.3498 15.9462 52.4125C15.9879 52.4229 16.0297 52.4229 16.0715 52.4229Z" fill="#FEFEFE"></path>
    <path fill-rule="evenodd" clip-rule="evenodd" d="M67.6695 84.5868C62.8762 86.9156 57.7697 88.0956 52.4856 88.0956C39.1919 88.0956 27.3184 80.7438 21.3869 68.9226C22.1075 68.2229 22.546 67.2622 22.546 66.2283C22.546 65.6644 22.4103 65.111 22.1597 64.5888C21.2825 62.7718 18.9537 61.9677 17.1367 62.8553C15.8626 63.4819 15.0272 64.8081 15.0272 66.2283C15.0272 66.8131 15.163 67.3666 15.4032 67.8783C15.9566 68.9957 17.0427 69.7371 18.2541 69.9146L18.1392 69.9773C24.478 83.0308 37.9596 91.4686 52.4856 91.4686C58.2918 91.4686 63.8892 90.1737 69.1941 87.5943L68.5153 86.0488L67.6695 84.5868Z" fill="#FEFEFE"></path>
    <path fill-rule="evenodd" clip-rule="evenodd" d="M84.1795 74.5095C88.4089 68.1916 90.6332 60.8503 90.6332 53.2688C90.6332 47.4522 89.3383 41.8548 86.7902 36.6021C83.8349 30.5452 79.3445 25.3656 73.7785 21.6271C73.0162 21.1049 71.9615 21.3138 71.4393 22.0866C70.9276 22.8593 71.126 23.9036 71.8988 24.4257C76.9636 27.8301 81.0676 32.5503 83.7514 38.0745C86.0801 42.8573 87.2602 47.9743 87.2602 53.2688C87.2602 60.1402 85.2447 66.8027 81.4435 72.5358C80.6812 72.3896 79.8875 72.4627 79.1774 72.8073C77.893 73.4339 77.068 74.7601 77.068 76.1908C77.068 76.7651 77.1933 77.3186 77.4439 77.8407C78.0705 79.1148 79.3967 79.9398 80.817 79.9398C81.3913 79.9398 81.9448 79.8144 82.4669 79.5638C83.7514 78.9477 84.5764 77.611 84.5764 76.1803C84.5764 75.6164 84.4511 75.0525 84.2004 74.5408C84.19 74.5304 84.19 74.5199 84.1795 74.5095Z" fill="#FEFEFE"></path>
  </g>
  <defs>
    <clipPath id="clip0_37_463">
      <rect width="104" height="104" fill="white"></rect>
    </clipPath>
  </defs>
</svg>
