<?xml version="1.0" encoding="UTF-8"?>
<svg xmlns="http://www.w3.org/2000/svg" width="104" height="104" viewBox="0 0 104 104" fill="none">
  <path d="M102.701 51.9981C102.701 79.9967 80.0005 102.701 51.998 102.701C23.9994 102.701 1.29932 79.9967 1.29932 51.9981C1.29932 23.9955 23.9994 1.29938 51.998 1.29938C80.0005 1.29938 102.701 23.9955 102.701 51.9981Z" fill="#8A5CC4"></path>
  <path fill-rule="evenodd" clip-rule="evenodd" d="M67.5284 44.0268L67.5206 61.9612L53.317 69.1972V51.2822L67.5284 44.0268ZM50.6288 69.1777C50.2126 69.0571 49.4073 68.5825 48.9599 68.3607L44.2098 65.9137C42.0896 64.8672 39.981 63.7585 37.8686 62.6809C36.7287 62.1012 36.7131 62.2218 36.5342 61.5371C36.3513 60.8369 36.4758 45.0772 36.4797 44.0034L50.6288 51.2355V69.1777ZM37.7518 41.3541C38.3043 41.1557 39.0045 40.7472 39.5531 40.4555L51.9982 34.1415L64.5017 40.4866C65.0541 40.7861 65.7155 41.1596 66.2485 41.3541C66.124 41.5097 66.2485 41.4008 66.0345 41.5525L64.4706 42.3617C62.5293 43.3343 52.255 48.6796 51.9982 48.6796C51.7998 48.6796 45.5092 45.4428 44.8128 45.0655C44.4082 44.8476 38.0475 41.7237 37.7518 41.3541ZM74.0991 40.6383C74.5893 40.3893 75.6358 39.9108 75.9976 39.6385C77.0519 38.8449 76.4839 36.2111 74.1536 37.386L70.3216 39.3467C69.174 39.9303 69.6525 39.9069 68.4971 39.3234L53.317 31.5077C53.3287 29.9477 53.317 28.3838 53.317 26.8238C53.317 25.3882 53.4921 23.6142 51.9165 23.6804C50.4032 23.7387 50.6288 25.4349 50.6288 26.9171C50.6288 28.4188 50.6794 30.0372 50.6171 31.5272C50.3643 31.7723 44.1398 34.9156 43.2878 35.3397C40.8174 36.569 38.4171 37.8606 35.9701 39.0861C34.6474 39.7474 34.7641 39.9303 34.13 39.5996C33.5192 39.2767 32.9473 38.981 32.3287 38.6737C30.7765 37.8995 29.3877 36.7869 28.4618 37.6466C27.9794 38.094 27.8938 39.1289 28.3606 39.7163C28.6174 40.0431 33.2313 42.4278 33.7759 42.5796L33.7682 61.4204C33.3402 61.541 30.6637 62.9765 30.0179 63.2994C29.4499 63.5795 28.6135 63.9102 28.2556 64.3498C27.7265 65.0034 27.9054 65.8904 28.4267 66.3883C29.3215 67.2442 30.7181 66.1355 32.2704 65.3535C35.1259 63.918 34.1261 63.9919 35.9117 64.8828C38.3938 66.1238 40.798 67.4154 43.2878 68.6603C44.1203 69.0766 50.3604 72.2199 50.6171 72.4689C50.6638 73.6905 50.4693 77.4952 50.8156 78.0788C51.3835 79.0436 52.6557 78.993 53.1497 78.0438C53.4726 77.4291 53.3248 73.3287 53.317 72.4884L68.2637 64.7933C69.2829 64.2837 69.1506 63.9997 70.1582 64.5521L73.8618 66.4623C74.5582 66.8435 75.2701 67.0264 75.8459 66.4078C76.4139 65.7931 76.3672 64.8789 75.7836 64.3109C75.4841 64.0191 70.7029 61.5566 70.2205 61.4204L70.2283 42.5796L74.0991 40.6383Z" fill="white"></path>
  <path fill-rule="evenodd" clip-rule="evenodd" d="M50.625 88.427C50.0336 88.2053 49.4073 87.8202 48.816 87.5167C48.1896 87.1938 47.6528 86.9448 47.0148 86.5986C45.019 85.5093 44.0192 87.4389 44.9062 88.5827C45.2797 89.0651 47.6605 90.1116 48.4153 90.5278C49.0144 90.8585 51.4964 92.2318 52.08 92.2007C52.4262 92.1812 58.7947 89.0534 59.1642 88.4776C59.6622 87.7034 59.3276 86.8709 58.8024 86.4546C58.145 85.9411 57.4408 86.3457 56.8728 86.6608C56.3943 86.9215 53.6478 88.3726 53.3171 88.4154C53.321 86.9721 53.3171 85.5326 53.3171 84.0893C53.3171 83.3346 53.6127 81.2222 51.9127 81.2961C51.3719 81.3194 50.9051 81.7123 50.73 82.1714C50.5355 82.6771 50.6289 87.6606 50.625 88.427Z" fill="white"></path>
  <path fill-rule="evenodd" clip-rule="evenodd" d="M19.0004 72.1927C20.4126 71.1929 22.6068 70.6755 23.023 69.7846C23.272 69.2399 23.1709 68.5436 22.8635 68.1351C21.7587 66.6684 18.9966 69.3605 17.0436 69.9052C17.0864 68.2635 17.1136 66.26 17.0514 64.626C16.9775 62.7703 14.8961 62.6653 14.441 64.0541C14.2659 64.5871 14.3554 68.3841 14.3554 69.2438C14.3554 70.8739 14.0403 72.8813 15.2074 73.5115C16.1216 74.0056 21.2841 76.7833 21.9182 76.7483C22.599 76.7094 23.132 76.1336 23.1748 75.41C23.2565 74.0912 21.9415 73.7761 20.5877 73.068L19.3739 72.4417C19.1405 72.325 19.1483 72.3444 19.0004 72.1927Z" fill="white"></path>
  <path fill-rule="evenodd" clip-rule="evenodd" d="M86.9526 69.9052C84.9957 69.3567 82.2375 66.6685 81.1365 68.1351C80.8097 68.5669 80.7203 69.2827 81.0082 69.843C81.4127 70.6405 83.6964 71.2707 84.9996 72.1927L83.354 73.0992C82.7938 73.3831 82.2997 73.6243 81.7279 73.9317C80.1056 74.8031 80.872 76.6783 82.0819 76.7483C82.7043 76.7833 87.8668 74.0134 88.7888 73.5115C89.3685 73.2003 89.598 72.6673 89.6408 71.7375C89.6875 70.6949 89.6758 64.416 89.5591 64.0542C89.1039 62.6692 86.9876 62.7314 86.9448 64.7194C86.9098 66.3845 86.9098 68.244 86.9526 69.9052Z" fill="white"></path>
  <path fill-rule="evenodd" clip-rule="evenodd" d="M50.6287 15.573C50.6248 16.4094 50.4925 20.6109 50.7765 21.2217C51.2161 22.1709 52.4766 22.3304 53.0952 21.3618C53.5036 20.7237 53.3169 16.4911 53.3169 15.5846C53.6398 15.6235 56.4019 17.0785 56.8727 17.3392C57.4406 17.6543 58.1487 18.0589 58.8023 17.5415C59.3236 17.1291 59.6659 16.2927 59.1641 15.5185C58.7945 14.9466 52.4299 11.8149 52.0798 11.7954C51.4729 11.7643 45.2056 15.0322 44.9099 15.4134C44.019 16.5611 45.0188 18.4907 47.0146 17.4014C47.6565 17.0513 48.1933 16.7984 48.8158 16.4794C49.4032 16.1798 50.0412 15.7869 50.6287 15.573Z" fill="white"></path>
  <path fill-rule="evenodd" clip-rule="evenodd" d="M17.0474 34.0909C19.0004 34.6433 21.7625 37.3237 22.8635 35.8649C23.1708 35.4525 23.2719 34.76 23.023 34.2154C22.774 33.6785 22.4122 33.5812 21.8247 33.2856C21.0389 32.8927 19.6734 32.2819 19.0004 31.8034C19.1988 31.6011 20.2492 31.1109 20.5293 30.9592C21.8675 30.2472 23.2019 29.9438 23.1786 28.6678C23.1669 27.9481 22.6884 27.3801 22.0815 27.2711C21.3151 27.1311 19.4011 28.341 18.6891 28.6989C17.6115 29.2396 16.5067 29.8932 15.4329 30.3601C13.9896 30.9903 14.3553 31.8734 14.3553 34.2932C14.3553 35.2658 14.2425 38.7204 14.4137 39.4167C14.7599 40.8445 16.7868 40.8017 17.0241 39.2611C17.1797 38.2419 17.0669 35.2774 17.0474 34.0909Z" fill="white"></path>
  <path fill-rule="evenodd" clip-rule="evenodd" d="M85.311 28.6989C84.5991 28.341 82.6851 27.1311 81.9148 27.2711C81.3079 27.3801 80.8294 27.9481 80.8216 28.6678C80.7982 29.9438 82.1287 30.2472 83.4709 30.9592C83.751 31.1109 83.9844 31.2393 84.2723 31.3832C84.5602 31.5272 84.8014 31.6011 84.9998 31.8034C84.3307 32.2741 82.9535 32.9004 82.1754 33.2856C81.5841 33.5812 81.2262 33.6746 80.9772 34.2154C80.7243 34.7561 80.8255 35.4525 81.1367 35.861C82.2454 37.3276 85.0037 34.6355 86.9527 34.0909C86.9294 35.2619 86.8205 38.2613 86.9761 39.2611C87.2134 40.8056 89.2403 40.8367 89.5865 39.4167C89.7577 38.7165 89.641 35.2696 89.641 34.2932C89.641 31.8656 90.0066 30.9903 88.5633 30.3601C87.4896 29.8932 86.3886 29.2396 85.311 28.6989Z" fill="white"></path>
  <path fill-rule="evenodd" clip-rule="evenodd" d="M37.6312 19.0587C36.8221 19.2882 35.4682 20.113 34.6513 20.5176C33.9743 20.8521 29.1114 23.3147 28.9014 23.5481C28.0416 24.5051 28.738 26.3336 30.2085 25.9796L33.1263 24.5051C33.9121 24.1044 38.5649 21.8169 38.8839 21.4707C39.7709 20.502 38.954 18.6852 37.6312 19.0587Z" fill="white"></path>
  <path fill-rule="evenodd" clip-rule="evenodd" d="M65.8165 19.0509C64.4666 19.4166 64.3849 21.1322 65.5325 21.7663C66.5012 22.2993 67.4466 22.77 68.423 23.2602C69.4034 23.7465 70.3682 24.2211 71.3252 24.7463C71.9671 25.1003 73.7528 26.1741 74.5075 25.964C75.6902 25.6372 75.8224 23.8788 74.6865 23.2524C73.7256 22.7272 72.7218 22.2876 71.7804 21.7663C70.8545 21.2528 69.8158 20.7471 68.8782 20.2802C68.2324 19.9612 66.5323 18.8603 65.8165 19.0509Z" fill="white"></path>
  <path fill-rule="evenodd" clip-rule="evenodd" d="M75.4336 79.7555C75.6125 79.028 75.2002 78.39 74.8189 78.1682C74.177 77.7948 73.6751 78.0204 73.1227 78.3278C72.1851 78.8491 71.1892 79.3353 70.2244 79.8177L65.8673 82.0469C65.3265 82.3426 64.9258 82.4982 64.7858 83.1907C64.5835 84.1555 65.2254 85.5715 67.0772 84.6379C68.0342 84.1593 69.0379 83.6731 69.9832 83.1518C70.9091 82.6421 71.9323 82.1442 72.8893 81.6657C74.0953 81.0665 75.1963 80.7164 75.4336 79.7555Z" fill="white"></path>
  <path fill-rule="evenodd" clip-rule="evenodd" d="M28.5356 79.5726C28.59 80.3196 29.0335 80.6075 29.5432 80.8642L36.8025 84.5795C37.2966 84.8285 37.8023 85.1436 38.417 84.879C39.2301 84.5289 39.942 83.0467 38.2419 82.1091C36.0283 80.8915 33.1456 79.5999 30.9826 78.39C30.4496 78.0904 29.9867 77.7909 29.2942 78.106C28.8351 78.3161 28.4811 78.8413 28.5356 79.5726Z" fill="white"></path>
  <path fill-rule="evenodd" clip-rule="evenodd" d="M86.9994 56.4252C87.1901 57.2539 88.2832 57.9191 89.1274 57.1839C89.8394 56.5575 89.641 55.3982 89.641 54.2117C89.641 52.9162 89.8005 48.0416 89.5904 47.1429C89.3842 46.2637 88.2793 45.6841 87.4857 46.3765C86.7427 47.0223 86.9489 48.1155 86.9489 49.3254C86.9489 50.6209 86.7894 55.5305 86.9994 56.4252Z" fill="white"></path>
  <path fill-rule="evenodd" clip-rule="evenodd" d="M14.4059 56.4252C14.6082 57.2772 15.6975 57.9152 16.534 57.1838C17.2498 56.5575 17.0475 55.4021 17.0475 54.2116C17.0475 52.9201 17.207 48.0377 16.9969 47.1429C16.7868 46.2443 15.6859 45.6957 14.8922 46.3765C14.1492 47.0068 14.3554 48.1194 14.3554 49.3254C14.3554 50.6092 14.1998 55.546 14.4059 56.4252Z" fill="white"></path>
</svg>
