<?xml version="1.0" encoding="UTF-8"?>
<svg xmlns="http://www.w3.org/2000/svg" width="104" height="104" viewBox="0 0 104 104" fill="none">
  <path d="M102.7 52.0061C102.7 80.0028 80.0028 102.7 51.9938 102.7C23.9971 102.7 1.30042 80.0028 1.30042 52.0061C1.30042 23.9972 23.9971 1.30046 51.9938 1.30046C80.0028 1.30046 102.7 23.9972 102.7 52.0061Z" fill="#8A5CC4"></path>
  <path d="M20.0957 76.3836C20.8686 77.4019 20.6846 78.8373 19.6663 79.6102C18.6603 80.3831 17.2126 80.1991 16.452 79.1808L20.0957 76.3836ZM7.25061 52.0061H11.8513V52.8649L11.8881 53.7114L11.9249 54.5702L11.9862 55.4045L12.0721 56.251L12.1703 57.0853L12.2807 57.9073L12.4156 58.7293L12.5629 59.5512L12.7224 60.361L12.8941 61.1707L13.0904 61.9681L13.3112 62.7656L13.5321 63.5508L13.7774 64.3237L14.0351 65.0966L14.305 65.8695L14.5994 66.6302L14.8939 67.3785L15.2129 68.1147L15.5441 68.8508L15.8876 69.5869L16.2557 70.3107L16.6237 71.0223L17.0163 71.7216L17.4212 72.4086L17.826 73.0957L18.2554 73.7704L18.6971 74.4452L19.151 75.1077L19.6172 75.7457L20.0957 76.3836L16.452 79.1808L15.9122 78.4693L15.3969 77.7454L14.8816 77.0216L14.3909 76.2732L13.9124 75.5248L13.4585 74.7519L13.0045 73.979L12.5751 73.1938L12.158 72.4086L11.7531 71.5989L11.3728 70.7892L11.0048 69.9672L10.649 69.1452L10.3055 68.2987L9.98648 67.4522L9.67977 66.6056L9.3976 65.7346L9.12769 64.8635L8.87005 63.9924L8.63695 63.1091L8.41612 62.2135L8.21982 61.3179L8.03579 60.41L7.8763 59.5022L7.72908 58.582L7.6064 57.6619L7.49598 56.7295L7.4101 55.7971L7.33649 54.8524L7.28742 53.9077L7.25061 52.9508V52.0061ZM51.9938 7.25067V11.8514L49.9327 11.9004L47.8961 12.0599L45.8841 12.3053L43.9089 12.6611L41.9582 13.115L40.0566 13.6548L38.1917 14.2805L36.376 15.0044L34.5971 15.8018L32.8672 16.6974L31.1742 17.6544L29.5547 18.7094L27.9721 19.8259L26.4631 21.0159L25.0031 22.2796L23.6045 23.6046L22.2795 25.0032L21.0159 26.4631L19.8258 27.9722L18.7094 29.5548L17.6543 31.1865L16.6973 32.8673L15.8017 34.5971L15.0043 36.3761L14.2805 38.1918L13.6548 40.0566L13.1149 41.9582L12.661 43.9089L12.3052 45.8842L12.0599 47.8962L11.9004 49.9328L11.8513 52.0061H7.25061L7.29968 49.6996L7.48371 47.43L7.76589 45.1848L8.15848 42.9888L8.66149 40.8173L9.26264 38.6948L9.96195 36.6092L10.7594 34.5849L11.655 32.5974L12.6487 30.6712L13.7284 28.7941L14.8939 26.9784L16.133 25.224L17.4703 23.531L18.8689 21.9115L20.3534 20.3534L21.9115 18.8689L23.5309 17.4703L25.2239 16.1331L26.9783 14.8939L28.7941 13.7284L30.6589 12.6488L32.5973 11.6551L34.5725 10.7595L36.6091 9.96201L38.6948 9.2627L40.8172 8.64928L42.9887 8.15854L45.1848 7.76595L47.4299 7.4715L49.6996 7.29975L51.9938 7.25067ZM79.328 16.5625L76.5185 20.2062L75.8805 19.7155L75.2303 19.2493L74.5678 18.7831L73.8931 18.3414L73.2183 17.8997L72.5312 17.4826L71.8319 17.0777L71.1204 16.6851L70.4088 16.3048L69.685 15.9368L68.9611 15.5932L68.2127 15.2497L67.4644 14.9307L66.716 14.624L65.9553 14.3296L65.1824 14.0597L64.4095 13.802L63.6243 13.5567L62.8269 13.3236L62.0294 13.115L61.232 12.9064L60.41 12.7347L59.6003 12.5629L58.7783 12.4157L57.944 12.2808L57.1098 12.1703L56.2755 12.0722L55.429 11.9863L54.5825 11.925L53.7237 11.8882L52.8649 11.8514H51.9938V7.25067H52.963L53.92 7.28748L54.8646 7.33655L55.8216 7.41016L56.754 7.49604L57.6986 7.60646L58.6188 7.72914L59.5512 7.87636L60.4591 8.04812L61.3792 8.23215L62.2748 8.42845L63.1704 8.64928L64.066 8.89465L64.9493 9.15229L65.8204 9.42219L66.6914 9.71664L67.5502 10.0234L68.3968 10.3423L69.2433 10.6858L70.0776 11.0416L70.8995 11.422L71.7215 11.8146L72.519 12.2194L73.3164 12.6365L74.1139 13.0782L74.8868 13.5321L75.6474 13.9983L76.4081 14.4891L77.1565 14.9798L77.8926 15.4951L78.6164 16.0226L79.328 16.5625ZM79.328 16.5625C80.334 17.3354 80.518 18.7831 79.7451 19.7891C78.9722 20.7951 77.5245 20.9791 76.5185 20.2062L79.328 16.5625Z" fill="#FEFEFE"></path>
  <path d="M82.7877 26.23C81.978 25.2486 82.1007 23.8009 83.0699 22.9789C84.0513 22.1692 85.499 22.2918 86.321 23.2733L82.7877 26.23ZM96.7492 52.0061H92.1608L92.1485 51.086L92.1117 50.1659L92.0627 49.258L91.9891 48.3624L91.9032 47.4668L91.7928 46.5712L91.6578 45.6879L91.5106 44.8168L91.3511 43.9457L91.1548 43.0747L90.9585 42.2159L90.7377 41.3694L90.4923 40.5228L90.2347 39.6886L89.9525 38.8666L89.658 38.0446L89.3513 37.2349L89.0201 36.4374L88.6766 35.64L88.3208 34.8548L87.9405 34.0819L87.5479 33.3212L87.143 32.5606L86.7136 31.8122L86.2842 31.0761L85.8303 30.3522L85.3518 29.6407L84.8733 28.9291L84.3703 28.2421L83.855 27.555L83.3275 26.8803L82.7877 26.23L86.321 23.2733L86.9222 24.0094L87.5111 24.7578L88.0754 25.5185L88.6398 26.2914L89.1796 27.0766L89.6948 27.874L90.2101 28.6837L90.6886 29.5057L91.1671 30.3277L91.621 31.1742L92.0627 32.033L92.4798 32.8918L92.8847 33.7629L93.265 34.6462L93.633 35.5418L93.9765 36.4497L94.3078 37.3576L94.6145 38.29L94.8967 39.2224L95.1666 40.1548L95.412 41.0994L95.6451 42.0564L95.8536 43.0256L96.0377 43.9948L96.2094 44.9763L96.3444 45.9578L96.4671 46.9515L96.5775 47.9453L96.6511 48.9513L96.7124 49.9696L96.7492 50.9756V52.0061ZM52.006 96.7493V92.1486L54.0671 92.0996L56.1037 91.9401L58.1157 91.6947L60.091 91.3389L62.0417 90.885L63.9433 90.3452L65.8081 89.7195L67.6238 88.9956L69.4028 88.1982L71.1326 87.3148L72.8134 86.3456L74.4451 85.3028L76.0278 84.1741L77.5368 82.9841L78.9967 81.7204L80.3953 80.3954L81.7203 78.9968L82.984 77.5369L84.174 76.0278L85.3027 74.4452L86.3455 72.8258L87.3148 71.1327L88.1981 69.4029L88.9955 67.6362L89.7194 65.8082L90.3451 63.9434L90.8849 62.0418L91.3388 60.0911L91.6946 58.1158L91.9522 56.1161L92.0995 54.0672L92.1608 52.0061H96.7492L96.7002 54.3003L96.5284 56.57L96.234 58.8151L95.8414 61.0235L95.3506 63.1827L94.7372 65.3052L94.0379 67.3908L93.2404 69.4274L92.3448 71.4026L91.3511 73.341L90.2715 75.2058L89.106 77.0216L87.8668 78.776L86.5296 80.469L85.131 82.0885L83.6465 83.6466L82.0884 85.1311L80.4689 86.5297L78.7759 87.8669L77.0215 89.106L75.2058 90.2716L73.3287 91.3512L71.4025 92.3449L69.415 93.2405L67.3907 94.038L65.3051 94.7373L63.1826 95.3507L61.0111 95.8415L58.8151 96.234L56.5699 96.5285L54.3002 96.7002L52.006 96.7493ZM24.8927 87.6093L27.6776 83.9533L28.3156 84.4318L28.9658 84.898L29.6283 85.3519L30.2908 85.7813L30.9656 86.2107L31.6526 86.6278L32.3397 87.0204L33.039 87.413L33.7505 87.7811L34.4744 88.1368L35.1982 88.4804L35.9343 88.8116L36.6704 89.1306L37.4188 89.425L38.1795 89.7072L38.9401 89.9894L39.713 90.2348L40.4859 90.4801L41.2711 90.701L42.0686 90.9218L42.866 91.1058L43.6635 91.2898L44.4732 91.4493L45.2829 91.5966L46.1049 91.7192L46.9392 91.8419L47.7611 91.9278L48.6077 92.0137L49.4419 92.075L50.2885 92.1118L51.1472 92.1486H52.006V96.7493H51.0491L50.1044 96.7125L49.1598 96.6634L48.2151 96.6021L47.2949 96.504L46.3625 96.4058L45.4424 96.2831L44.5223 96.1359L43.6144 95.9764L42.7188 95.7924L41.8232 95.5961L40.9276 95.3752L40.0443 95.1421L39.1732 94.8845L38.3021 94.6269L37.4433 94.3324L36.5968 94.038L35.7503 93.719L34.916 93.3755L34.094 93.032L33.2721 92.6639L32.4623 92.2713L31.6649 91.8787L30.8674 91.4616L30.0823 91.0322L29.3093 90.5905L28.5487 90.1243L27.8003 89.6581L27.0519 89.1674L26.3281 88.6644L25.6043 88.1491L24.8927 87.6093ZM24.8927 87.6093C23.8867 86.8486 23.6904 85.401 24.4633 84.3949C25.2239 83.3767 26.6716 83.1804 27.6776 83.9533L24.8927 87.6093Z" fill="#FEFEFE"></path>
  <path d="M78.3833 11.0539L71.243 20.3902L80.7266 20.243L78.3833 11.0539Z" fill="#FEFEFE"></path>
  <path d="M24.4143 92.8111L32.5974 82.1007L22.9789 83.2294L24.4143 92.8111Z" fill="#FEFEFE"></path>
  <path d="M40.1793 18.1819C40.1793 17.409 40.805 16.771 41.5902 16.771C42.3631 16.771 43.0011 17.409 43.0011 18.1819H40.1793ZM40.1793 24.2671V18.1819H43.0011V24.2671H40.1793ZM43.0011 24.2671C43.0011 25.0523 42.3631 25.678 41.5902 25.678C40.805 25.678 40.1793 25.0523 40.1793 24.2671H43.0011Z" fill="#FEFEFE"></path>
  <path d="M24.905 26.8435C24.3529 26.2914 24.3529 25.4081 24.905 24.856C25.4571 24.3039 26.3527 24.3039 26.9048 24.856L24.905 26.8435ZM27.9844 29.9351L24.905 26.8435L26.9048 24.856L29.9842 27.9354L27.9844 29.9351ZM29.9842 27.9354C30.5363 28.4874 30.5363 29.383 29.9842 29.9351C29.4321 30.4872 28.5365 30.4872 27.9844 29.9351L29.9842 27.9354Z" fill="#FEFEFE"></path>
  <path d="M55.5517 23.8499C56.1038 23.2979 56.9994 23.2979 57.5514 23.8499C58.1035 24.402 58.1035 25.2854 57.5514 25.8374L55.5517 23.8499ZM52.4723 26.9293L55.5517 23.8499L57.5514 25.8374L54.4598 28.9291L52.4723 26.9293ZM54.4598 28.9291C53.9077 29.4812 53.0121 29.4812 52.4723 28.9291C51.9202 28.377 51.9202 27.4814 52.4723 26.9293L54.4598 28.9291Z" fill="#FEFEFE"></path>
  <path d="M17.593 44.0071C16.8078 44.0071 16.1821 43.3691 16.1821 42.5962C16.1821 41.811 16.8078 41.1853 17.593 41.1853V44.0071ZM23.8622 44.0071H17.593V41.1853H23.8622V44.0071ZM23.8622 41.1853C24.6474 41.1853 25.2731 41.811 25.2731 42.5962C25.2731 43.3691 24.6474 44.0071 23.8622 44.0071V41.1853Z" fill="#FEFEFE"></path>
  <path d="M26.9048 58.6802C26.3527 59.2323 25.4571 59.2323 24.905 58.6802C24.3529 58.1281 24.3529 57.2325 24.905 56.6804L26.9048 58.6802ZM30.0333 55.5517L26.9048 58.6802L24.905 56.6804L28.0335 53.552L30.0333 55.5517ZM28.0335 53.552C28.5856 52.9999 29.4812 52.9999 30.0333 53.552C30.5731 54.1041 30.5731 54.9996 30.0333 55.5517L28.0335 53.552Z" fill="#FEFEFE"></path>
  <path d="M49.8591 29.1377C47.5403 27.7023 44.8045 26.8557 41.86 26.8557C33.5052 26.8557 26.7207 33.6402 26.7207 41.995C26.7207 48.3624 30.2786 53.6501 35.8239 55.883C37.3329 44.9149 49.7977 45.97 49.7977 45.97C49.994 45.6143 50.1903 45.2707 50.3989 44.9518C50.4357 44.8781 50.4848 44.8291 50.5216 44.7677C50.6197 44.6328 50.7056 44.5101 50.8037 44.3874C50.9755 44.142 51.1595 43.8967 51.3436 43.6758C51.4417 43.5531 51.5521 43.4305 51.6625 43.32C51.8343 43.1237 52.0183 42.9274 52.2024 42.7557C52.3128 42.6453 52.4355 42.5349 52.5459 42.4367C52.7299 42.2772 52.9139 42.13 53.098 41.9828C53.2084 41.8846 53.3311 41.7988 53.4537 41.7129C53.6378 41.5779 53.8218 41.4675 54.0058 41.3448C54.1162 41.2835 54.2389 41.2099 54.3493 41.1363C54.5334 41.0258 54.7297 40.9277 54.9137 40.8418C55.0241 40.7805 55.1223 40.7314 55.2327 40.6823C55.429 40.5842 55.6253 40.5106 55.8216 40.4369C55.9074 40.4001 55.9933 40.3633 56.0792 40.3265C56.3614 40.2284 56.6313 40.1425 56.8767 40.0689C56.3 35.4559 53.6378 31.4932 49.8591 29.1377Z" fill="#FEFEFE"></path>
  <path d="M77.1196 48.5955C75.6229 48.1661 73.8071 47.9698 71.5865 48.117C71.5865 48.117 68.8507 41.2221 61.5264 41.9828C61.5264 41.9828 60.4468 41.9214 58.95 42.3386C58.7046 42.3999 58.4593 42.4858 58.2139 42.5717C58.128 42.6085 58.0421 42.6453 57.9685 42.6698C57.7845 42.7434 57.6127 42.817 57.4287 42.9029C57.3306 42.9397 57.2324 43.0011 57.122 43.0501C56.9502 43.136 56.7785 43.2219 56.6067 43.32C56.5086 43.3814 56.3982 43.455 56.2877 43.5163C56.116 43.6267 55.9442 43.7372 55.7725 43.8598C55.6743 43.9335 55.5639 44.0193 55.4535 44.1052C55.2817 44.2279 55.11 44.3751 54.9505 44.5223C54.8401 44.6205 54.7296 44.7186 54.6315 44.8168C54.4597 44.9763 54.288 45.148 54.1285 45.3321C54.0303 45.4425 53.9322 45.5529 53.834 45.6633C53.6623 45.8719 53.4905 46.0927 53.331 46.3135C53.2452 46.4362 53.1593 46.5466 53.0734 46.6693C52.8526 47.0129 52.6195 47.3809 52.4109 47.7858C52.4109 47.7858 41.2466 46.9515 39.8602 57.073C39.7743 57.711 39.7253 58.3857 39.713 59.1096C39.6885 63.9066 43.7248 67.3049 47.9942 68.6177C48.7181 68.8385 49.4665 68.998 50.2148 69.1084C53.1961 69.5378 56.3736 69.2556 59.3181 69.2556H69.2187C70.7523 69.2556 72.5312 69.501 74.0525 69.2556C74.0525 69.2556 84.1986 67.5503 83.9409 58.0054C83.9409 58.0054 84.2844 50.6566 77.1196 48.5955Z" fill="#FEFEFE"></path>
  <path d="M49.945 82.0026C52.2024 82.0517 53.6255 79.7697 52.9017 77.9908C52.2024 76.2855 51.1228 74.8501 50.0186 73.3533C48.9144 74.8255 47.8471 76.2487 47.16 77.9172C47.0619 78.1626 46.9883 78.4325 46.9515 78.6901C46.7674 80.4077 48.1538 81.9535 49.945 82.0026Z" fill="#FEFEFE"></path>
  <path d="M59.8456 87.1676C62.103 87.229 63.5262 84.947 62.7901 83.1558C62.103 81.4628 61.0234 80.0151 59.907 78.5306C58.8151 79.9906 57.7477 81.4137 57.0607 83.0822C56.9625 83.3399 56.8766 83.6098 56.8521 83.8674C56.6681 85.585 58.0544 87.1186 59.8456 87.1676Z" fill="#FEFEFE"></path>
  <path d="M70.2003 82.113C72.4454 82.1744 73.8808 79.8801 73.1447 78.1012C72.4454 76.4082 71.3658 74.9605 70.2616 73.4637C69.1575 74.9359 68.0901 76.3591 67.4153 78.0276C67.3049 78.273 67.2313 78.5429 67.2068 78.8128C67.0105 80.5304 68.3968 82.0639 70.2003 82.113Z" fill="#FEFEFE"></path>
</svg>
