<?xml version="1.0" encoding="UTF-8"?>
<svg xmlns="http://www.w3.org/2000/svg" width="104" height="104" viewBox="0 0 104 104" fill="none">
  <g clip-path="url(#clip0_30_3976)">
    <path fill-rule="evenodd" clip-rule="evenodd" d="M102.687 52C102.687 79.9902 79.9902 102.687 52 102.687C24.0097 102.687 1.2915 79.9902 1.2915 52C1.2915 23.9886 24.0097 1.29153 52 1.29153C79.9902 1.29153 102.687 23.9886 102.687 52Z" fill="#8A5CC4"></path>
    <path fill-rule="evenodd" clip-rule="evenodd" d="M36.925 69.0651C34.3419 69.0651 32.881 69.1075 30.3615 68.3029C24.0732 66.2704 22.2947 62.2687 20.0927 62.2687C18.4625 62.2687 17.4038 63.3274 17.2556 64.5766V65.2329C17.3403 65.9951 17.7638 66.7997 18.5895 67.456L21.4478 69.7638C21.7866 70.0391 22.1042 70.2085 22.4853 70.4837L24.666 71.8388C30.5732 75.4381 41.1807 75.5652 47.2149 71.8811C48.2735 71.2459 49.6286 70.4837 50.6025 69.7003C52.7833 67.9218 55.324 65.6987 57.5048 64.1108C61.1677 61.4642 64.153 60.9137 68.9592 60.9137C71.2882 60.9137 73.6172 61.5277 75.6074 62.4169C77.3647 63.2003 79.0586 64.4283 80.5406 65.6352C82.3191 67.0961 82.5097 67.7101 84.4364 67.7101C85.0081 67.7101 85.7279 67.1808 86.0455 66.8632C86.4478 66.4397 86.6807 65.9528 86.7442 65.4235V64.7036C86.6384 63.9202 86.1726 63.1368 85.4103 62.5228C82.3191 60.0668 82.7002 60.1938 79.3338 58.1401C73.4478 54.5619 65.0634 54.6254 58.5846 57.1873C56.1498 58.1612 53.8419 59.9186 51.8305 61.5489C51.3224 61.9723 50.7931 62.3534 50.3273 62.7769L47.2996 65.2964C46.982 65.5293 46.8126 65.6352 46.495 65.8681C44.039 67.6254 40.7361 69.0651 36.925 69.0651Z" fill="#FEFEFE"></path>
    <path fill-rule="evenodd" clip-rule="evenodd" d="M35.9722 54.1596C30.552 54.1596 27.1856 52.4234 23.3322 49.2899C22.21 48.3795 20.7068 46.4951 18.6954 47.5961C17.8908 48.0407 17.3615 48.8029 17.2556 49.671V50.3485C17.3403 51.0472 17.7214 51.7671 18.4836 52.3811L21.7019 55.0065C23.5439 56.3404 25.3647 57.3778 27.6514 58.2671C32.1188 60.0244 38.9787 60.0668 43.5944 58.5212C49.2051 56.658 52.0423 53.3762 56.0651 50.2215C56.298 50.0521 56.4038 49.9251 56.6791 49.7345C60.8077 46.6433 65.5081 45.3306 70.6742 46.0717C71.5634 46.1987 72.368 46.3257 73.0455 46.5375C74.9087 47.1303 75.3745 47.2997 77.0683 48.2313C78.5928 49.0782 80.6253 50.7085 81.9592 51.8941C83.9706 53.6726 86.7442 52.7199 86.7442 49.8192C86.7442 48.4853 85.4527 47.6808 84.6058 46.9397C84.267 46.6433 83.9918 46.4104 83.653 46.1352C82.9755 45.6059 82.4038 45.2036 81.7051 44.6743C81.3664 44.4414 81.1123 44.2508 80.7524 44.0179C76.2849 41.1596 72.7703 40.4609 66.9266 40.4609C62.6921 40.4609 57.7377 42.1335 54.4136 44.6319C53.2703 45.4788 50.7507 47.3844 49.798 48.2948C49.2898 48.7606 48.7817 49.1417 48.2312 49.5863C47.723 50.0098 47.2361 50.412 46.7068 50.772C43.5732 52.9739 40.609 54.1596 35.9722 54.1596Z" fill="#FEFEFE"></path>
    <path d="M19.6481 34.3209C18.3354 34.3209 17.2556 33.2199 17.2556 31.8648C17.2556 30.5098 18.3354 29.4088 19.6481 29.4088H84.3517C85.6644 29.4088 86.7442 30.5098 86.7442 31.8648C86.7442 33.2199 85.6644 34.3209 84.3517 34.3209H19.6481Z" fill="#FEFEFE"></path>
  </g>
  <defs>
    <clipPath id="clip0_30_3976">
      <rect width="104" height="104" fill="white"></rect>
    </clipPath>
  </defs>
</svg>
