<?xml version="1.0" encoding="UTF-8"?>
<svg xmlns="http://www.w3.org/2000/svg" width="104" height="104" viewBox="0 0 104 104" fill="none">
  <g clip-path="url(#clip0_19_497)">
    <path fill-rule="evenodd" clip-rule="evenodd" d="M52.0061 102.697C80.0066 102.697 102.697 80.0066 102.697 52.0061C102.697 23.9934 80.0066 1.30292 52.0061 1.30292C24.0057 1.30292 1.30292 23.9934 1.30292 52.0061C1.30292 80.0066 24.0057 102.697 52.0061 102.697Z" fill="#8A5CC4"></path>
    <path d="M62.4295 47.8147L61.5691 47.1755C62.1345 47.0526 62.663 46.7945 63.0441 46.3274L66.8914 41.5951C69.0055 39.0015 68.5139 35.2649 65.7974 33.249L46.3028 18.7694C44.0534 17.0854 40.7961 17.4788 39.0507 19.6298L34.7732 24.8784C34.3061 25.4561 34.134 26.1567 34.1955 26.8328L33.5932 26.3903C32.6344 25.6773 31.2701 25.8371 30.5326 26.7467L27.5457 30.4096C26.8082 31.3315 26.9803 32.6344 27.9267 33.3351L56.7753 54.7718C57.7218 55.4724 59.0984 55.3003 59.8359 54.403L62.8228 50.7278C63.5603 49.8182 63.3882 48.5153 62.4295 47.8147ZM39.4563 30.803C39.1982 30.803 38.9278 30.7169 38.7065 30.5571C38.178 30.1515 38.0797 29.4263 38.4976 28.9223L44.2992 21.7686C44.7172 21.2646 45.4792 21.1909 46.0201 21.5719C46.5486 21.9652 46.647 22.7027 46.229 23.2067L40.4151 30.3482C40.1815 30.6432 39.8128 30.803 39.4563 30.803ZM45.4424 35.2403C45.1843 35.2403 44.9138 35.1542 44.6926 34.9944C44.164 34.6011 44.0657 33.8636 44.4713 33.3596L50.2853 26.2182C50.7032 25.7142 51.4653 25.6159 52.0061 26.0215C52.5347 26.4148 52.633 27.1401 52.2151 27.644L46.4011 34.7855C46.1553 35.0805 45.7988 35.2403 45.4424 35.2403ZM51.4161 39.6899C51.158 39.6899 50.8999 39.6038 50.6663 39.444C50.1501 39.0384 50.0518 38.3132 50.4574 37.8092L56.2714 30.6678C56.6893 30.1515 57.4514 30.0655 57.9799 30.4588C58.5207 30.8521 58.6191 31.5896 58.2011 32.0936L52.3872 39.2351C52.1413 39.5301 51.7849 39.6899 51.4161 39.6899ZM58.3732 43.6724C58.1274 43.9797 57.7709 44.1272 57.4022 44.1272C57.1441 44.1272 56.8859 44.0411 56.6524 43.8813C56.1239 43.488 56.0255 42.7628 56.4434 42.2465L62.2574 35.1051C62.6753 34.6011 63.4374 34.5151 63.966 34.8961C64.4945 35.3017 64.5928 36.0269 64.1749 36.5309L58.3732 43.6724ZM26.4394 39.7022C27.0417 40.2799 28.7503 41.5336 30.2744 42.6399C32.4746 44.2255 33.1507 47.1018 31.8723 49.4372C31.6757 49.8059 31.4667 50.1624 31.2701 50.4697C30.4711 51.7849 27.644 54.2924 26.083 55.6445C24.6571 56.8737 23.3419 58.2134 22.1865 59.6885C21.449 60.6103 20.65 61.7289 19.8757 62.9949C16.434 68.9933 20.1215 71.7343 20.1215 71.7343C20.1215 71.7343 23.8459 75.6062 29.6107 69.0916C33.1507 65.0845 33.5809 63.9168 34.6626 62.0485C35.5721 60.4628 38.1534 56.8122 38.768 55.9272C40.538 53.4197 44.164 52.8666 46.6593 54.7226L51.0597 57.9922C52.0307 58.7051 54.6734 57.3653 54.6734 57.3653L26.1813 36.199C26.1813 36.199 25.3578 38.6697 26.4394 39.7022ZM81.1497 22.2725L59.1353 21.9652C57.9553 21.953 57.4145 23.3911 58.3487 24.0917L68.9564 32.1059C70.1855 33.0892 71.1689 34.3799 71.5622 35.8672C72.0293 37.5634 72.0047 39.8865 70.0626 42.3449L65.822 47.7778C65.6868 47.9499 65.6868 48.1834 65.7974 48.3801C66.4366 49.597 66.0678 50.3222 65.7237 50.8507C64.7649 52.2766 61.4584 56.2959 61.4584 56.2959C60.7332 57.2178 60.3399 58.3364 60.3399 59.4795V83.9891C60.3399 85.2552 61.4216 86.2754 62.7491 86.2754H63.2899C64.6297 86.2754 65.6991 85.2552 65.6991 83.9891V60.2293C65.6991 59.1476 66.6087 58.2872 67.7272 58.2872C68.858 58.2872 69.7799 59.1476 69.7799 60.2293V68.7843C69.7799 70.0503 70.8493 71.0706 72.1768 71.0706H72.5701C73.9222 71.0706 74.9916 70.0258 74.9793 68.7474L74.8195 59.9466V39.8251C74.8195 38.5467 75.9012 37.5265 77.2164 37.5265C78.5562 37.5265 79.6256 38.5467 79.6256 39.8251V68.2803C79.6256 69.8537 80.9654 71.1443 82.6124 71.1443C84.2595 71.1443 85.587 69.8537 85.587 68.2803V26.5255C85.587 24.1778 83.5958 22.2725 81.1497 22.2725Z" fill="#FEFEFE"></path>
  </g>
  <defs>
    <clipPath id="clip0_19_497">
      <rect width="104" height="104" fill="white"></rect>
    </clipPath>
  </defs>
</svg>
