<?xml version="1.0" encoding="UTF-8"?>
<svg xmlns="http://www.w3.org/2000/svg" width="104" height="104" viewBox="0 0 104 104" fill="none">
  <g clip-path="url(#clip0_35_248)">
    <path d="M102.7 51.9972C102.7 80.0021 80.0022 102.7 51.9973 102.7C23.9979 102.7 1.30054 80.0021 1.30054 51.9972C1.30054 23.9979 23.9979 1.30049 51.9973 1.30049C80.0022 1.30049 102.7 23.9979 102.7 51.9972Z" fill="#8A5CC4"></path>
    <mask id="mask0_35_248" style="mask-type:luminance" maskUnits="userSpaceOnUse" x="1" y="1" width="102" height="102">
      <path d="M102.7 51.9972C102.7 80.0021 80.0022 102.7 51.9973 102.7C23.9979 102.7 1.30054 80.0021 1.30054 51.9972C1.30054 23.9979 23.9979 1.30049 51.9973 1.30049C80.0022 1.30049 102.7 23.9979 102.7 51.9972Z" fill="white"></path>
    </mask>
    <g mask="url(#mask0_35_248)">
      <path fill-rule="evenodd" clip-rule="evenodd" d="M33.4237 81.0859H34.4574L53.17 125.942H55.9321C54.376 121.807 37.8809 82.0251 37.3863 81.0859H40.493C40.6042 82.3919 56.7824 120.117 59.1278 125.942H62.04C59.8391 120.467 43.6998 82.2641 43.4275 81.0859H46.3508C46.4786 81.6305 62.8958 121.373 64.6965 125.942H67.5698C66.4249 123.157 49.4353 81.7417 49.2796 81.0859H52.203C52.3419 81.6805 69.2149 122.918 70.4098 125.942H73.6332L55.1318 81.0859H58.0607L76.6732 125.942H79.502L60.9896 81.0859H63.9184L82.5143 125.942H85.6599C83.3146 120.117 67.1363 82.403 67.0307 81.0859H67.1641H69.954C70.193 82.1029 86.3991 120.745 88.461 125.942H91.6955C89.4391 120.162 73.2164 82.5308 72.8829 81.0859H75.8118C76.0063 81.9195 92.229 120.634 94.3298 125.942H97.3532C95.2301 120.462 79.5076 82.5364 78.7407 81.0859H81.6695L100.382 125.942H103.15C101.588 121.807 85.093 82.0251 84.5984 81.0859H87.7051C87.8163 82.3919 103.995 120.117 106.34 125.942H109.252C107.051 120.467 90.9119 82.2641 90.6396 81.0859H93.5684C93.6962 81.6305 110.108 121.373 111.909 125.942H114.782C113.637 123.157 96.6474 81.7417 96.4917 81.0859H114.382V77.2455H67.1641H33.4237H-13.7939V81.0859H4.99086C5.1298 81.6805 22.0028 122.918 23.1921 125.942H26.4211L7.91973 81.0859H10.8486L29.4611 125.942H32.29L13.7775 81.0859H16.7008L35.3022 125.942H38.4478C36.1025 120.117 19.9242 82.403 19.8131 81.0859H22.7419C22.9809 82.1029 39.187 120.745 41.2489 125.942H44.4778C42.227 120.162 26.0043 82.5308 25.6708 81.0859H28.5997C28.7942 81.9195 45.0169 120.634 47.1177 125.942H50.1411C48.0181 120.462 32.2955 82.5364 31.5286 81.0859H33.4237Z" fill="white"></path>
      <path fill-rule="evenodd" clip-rule="evenodd" d="M30.4171 63.9072L32.2066 62.2233L47.6679 77.5901L15.1113 77.6123V77.7179H96.0694V77.6346H65.558L78.5906 64.5019L76.7177 62.8124C75.7396 63.3292 74.5002 64.9743 73.5387 65.8524L62.4457 77.0844L58.372 73.1051C59.3112 72.8161 63.9074 67.842 64.9577 66.7916C65.5746 66.1747 66.7973 65.2911 67.0196 64.4574C66.625 63.8683 65.9526 63.0124 65.1912 62.8124L56.6324 71.2711L45.5616 60.2948L47.4845 58.4607C46.7398 58.4052 46.1396 58.1717 45.5338 57.9439L41.7213 56.9991C40.9599 56.8101 40.7042 56.5878 39.9373 56.4044C39.9373 59.0387 41.5546 61.3841 41.7657 63.9072C42.5271 63.7071 43.1996 62.8513 43.5942 62.2566L54.6205 73.194L50.7747 77.1288C49.2797 74.9447 34.5797 61.4396 34.2629 60.2503L35.9469 58.4552L28.4052 56.4044C28.4941 57.4493 29.9836 63.0013 30.4171 63.9072ZM54.1648 77.5901L58.9666 77.6346L56.6324 75.2115L54.1648 77.5901Z" fill="white"></path>
    </g>
    <path d="M57.127 23.5143C57.3493 23.6755 57.3326 23.7811 57.4883 24.0479L59.1055 26.9045C59.3167 27.3213 59.5168 27.6715 59.6946 28.105C61.0563 31.3895 61.7843 33.9683 60.3393 37.6196C59.9169 38.6756 59.2667 39.5537 58.5331 40.2873C58.1107 40.7041 57.8551 40.9875 57.3716 41.3266C55.8765 42.3825 54.3093 43.0328 52.2474 43.0328C52.2808 42.6715 52.542 42.5715 52.9699 42.0435C54.0814 40.6652 55.2041 39.4092 56.0433 37.7197C56.6491 36.5025 56.9881 35.8523 57.3549 34.4796C58.1441 31.5674 57.8829 28.0494 57.4105 25.1038C57.3549 24.7815 57.2104 23.6922 57.127 23.5143ZM51.436 46.3673C53.4145 46.3673 54.137 46.3507 56.0599 45.706C60.0392 44.3777 62.8236 41.1876 63.9907 37.2084C64.7354 34.6574 64.4131 30.9727 63.4183 28.4495C62.3512 25.7596 61.9733 25.2928 60.6839 22.9697C60.4171 22.4917 60.1893 22.086 59.9114 21.6248L56.9381 16.3839C56.1822 14.8945 55.6098 13.7885 54.954 12.2657C54.7372 11.76 54.5372 11.3098 54.3093 10.7985L53.1533 7.88628C53.0533 7.57505 52.2196 5.04633 52.0029 4.89072C51.8195 5.0241 51.7528 5.28531 51.6694 5.52984L50.3078 9.29236C49.6353 10.9652 47.8958 15.0001 47.0621 16.3728C46.7898 16.8174 46.6175 17.2342 46.3452 17.6899C46.0729 18.1457 45.9006 18.5514 45.6283 19.0071C44.111 21.5469 41.6434 25.5707 40.632 28.4051C40.2151 29.5611 39.7427 31.2839 39.6483 32.5455C39.2703 37.4918 41.2878 41.7378 45.1725 44.3332C46.6175 45.3003 49.0407 46.3673 51.436 46.3673Z" fill="white"></path>
  </g>
  <defs>
    <clipPath id="clip0_35_248">
      <rect width="104" height="104" fill="white"></rect>
    </clipPath>
  </defs>
</svg>
