<?xml version="1.0" encoding="UTF-8"?>
<svg xmlns="http://www.w3.org/2000/svg" width="104" height="104" viewBox="0 0 104 104" fill="none">
  <path fill-rule="evenodd" clip-rule="evenodd" d="M52 1.30058C24.0023 1.30058 1.30054 23.9946 1.30054 51.9922C1.30054 79.9898 24.0023 102.699 52 102.699C79.9976 102.699 102.699 79.9898 102.699 51.9922C102.699 23.9946 79.9976 1.30058 52 1.30058Z" fill="#8A5CC4"></path>
  <path fill-rule="evenodd" clip-rule="evenodd" d="M50.4346 61.2754C54.126 61.2754 58.0122 57.8487 59.9436 54.5856C60.4343 53.7601 61.2364 51.6807 61.2364 50.4736C61.984 50.6761 62.6538 51.634 63.199 52.1713L68.8608 57.8332C71.166 60.1384 74.655 62.6383 74.655 67.0307C74.655 71.096 71.057 74.7018 66.9917 74.7018C62.5993 74.7018 60.0994 71.205 57.7941 68.9076L52.218 63.3236C51.2601 62.3657 50.9252 62.2178 50.4346 61.2754ZM47.9891 56.2211C47.9891 51.3147 51.2211 48.0359 56.182 48.0359C56.182 52.7944 52.7554 56.2211 47.9891 56.2211ZM29.3448 37.055C29.3448 32.9585 32.9896 29.3839 37.0159 29.3839C41.4006 29.3839 43.9005 32.8806 46.2057 35.1781C47.3661 36.3385 53.246 42.0626 53.7444 42.8025C50.6682 43.5189 48.3863 44.5781 46.4627 46.5017C44.5391 48.4331 43.4799 50.7072 42.7634 53.7834L31.4865 42.5766C30.3339 41.2215 29.3448 39.4926 29.3448 37.055ZM24.1191 36.1827C24.1191 40.4038 24.5085 42.2106 27.0708 45.5983C27.9274 46.7276 39.4614 58.1135 40.1701 58.6431C43.0516 60.7926 43.2852 59.8736 43.8849 61.3767C45.092 64.3672 52.9033 71.5088 55.707 74.3046C56.5169 75.1224 57.467 76.2127 58.3471 76.8902C61.7971 79.5771 63.7285 79.9275 67.8561 79.9275C69.4215 79.9275 71.5165 79.2266 72.5678 78.7126C76.454 76.7968 79.8885 72.3343 79.8885 67.903C79.8885 63.6819 79.4913 61.8751 76.9291 58.4873L66.5088 47.9892C65.5431 47.0235 64.8734 46.3382 63.8142 45.4581L61.4623 43.9784C60.9249 43.7526 60.8548 43.8383 60.5511 43.4878C59.71 42.5143 60.7146 42.195 56.1353 37.6157L45.6528 27.1877C44.5235 26.3076 43.7759 25.8014 42.4208 25.194C33.6671 21.261 24.1191 28.3247 24.1191 36.1827Z" fill="#FEFEFE"></path>
  <path fill-rule="evenodd" clip-rule="evenodd" d="M42.7635 79.0553C45.2478 79.0553 45.6294 76.6098 46.5796 73.9775C46.9923 72.8249 47.2961 72.6069 47.2961 71.2128C47.2961 68.8609 43.4255 67.5058 42.1327 70.582C41.5953 71.8592 39.9676 75.9011 40.3492 77.1005C40.653 78.0818 41.4629 79.0553 42.7635 79.0553Z" fill="#FEFEFE"></path>
  <path fill-rule="evenodd" clip-rule="evenodd" d="M24.8123 60.9328C24.8123 62.2801 25.5677 63.0978 26.6268 63.4794C27.8495 63.9077 28.8464 63.347 29.9367 62.9187C32.0862 62.0932 35.0923 61.7193 35.0923 59.1883C35.0923 57.8565 34.0176 56.5715 32.3042 56.5715C31.4631 56.5715 28.7919 57.693 27.8418 58.0356C26.3854 58.5496 24.8123 59.0714 24.8123 60.9328Z" fill="#FEFEFE"></path>
  <path fill-rule="evenodd" clip-rule="evenodd" d="M68.7284 44.7183C68.7284 46.05 69.8031 47.335 71.5165 47.335C72.3965 47.335 74.9977 46.2136 75.9867 45.8709C77.4431 45.3725 79.0162 44.8117 79.0162 42.9816C79.0162 41.6265 78.2608 40.8087 77.1939 40.4349C75.979 39.9988 74.9821 40.5673 73.884 40.9879C71.7423 41.8212 68.7284 42.195 68.7284 44.7183Z" fill="#FEFEFE"></path>
  <path fill-rule="evenodd" clip-rule="evenodd" d="M56.5325 32.3511C56.5325 35.474 60.5043 36.1594 61.6881 33.3246C62.2254 32.0473 63.8609 28.0132 63.4793 26.8061C62.8407 24.7578 59.5698 23.1847 58.0355 27.7484C57.6773 28.8309 56.5325 31.4554 56.5325 32.3511Z" fill="#FEFEFE"></path>
  <path fill-rule="evenodd" clip-rule="evenodd" d="M30.9102 70.1692C30.9102 72.2486 31.798 73.1286 33.8774 73.1286C35.0845 73.1286 36.4941 71.2907 37.2262 70.5586C38.9317 68.8531 39.804 68.6116 39.804 66.5089C39.804 65.0915 38.5268 64.2426 36.8368 64.2426C35.6296 64.2426 34.22 66.0806 33.4802 66.8126C32.7481 67.5447 30.9102 68.9543 30.9102 70.1692Z" fill="#FEFEFE"></path>
  <path fill-rule="evenodd" clip-rule="evenodd" d="M64.1958 36.8758C64.1958 38.9552 65.0836 39.843 67.163 39.843C68.3779 39.843 69.7875 38.0051 70.5196 37.273C72.2174 35.5675 73.0896 35.326 73.0896 33.2155C73.0896 31.7981 71.8202 30.957 70.1224 30.957C68.9153 30.957 67.5057 32.7872 66.7736 33.527C66.0337 34.2591 64.1958 35.6687 64.1958 36.8758Z" fill="#FEFEFE"></path>
</svg>
