<?xml version="1.0" encoding="UTF-8"?>
<svg xmlns="http://www.w3.org/2000/svg" width="104" height="104" viewBox="0 0 104 104" fill="none">
  <g clip-path="url(#clip0_14_311)">
    <path d="M102.697 52.0062C102.697 79.9942 80.0067 102.697 51.9938 102.697C23.9933 102.697 1.30261 79.9942 1.30261 52.0062C1.30261 24.0057 23.9933 1.30261 51.9938 1.30261C80.0067 1.30261 102.697 24.0057 102.697 52.0062Z" fill="#8A5CC4"></path>
    <path fill-rule="evenodd" clip-rule="evenodd" d="M65.5908 48.1727L73.9153 48.2223C74.2626 48.731 74.1386 48.9915 74.672 49.3016C75.3792 49.7234 86.8548 49.587 87.9341 49.587C90.5022 49.6118 93.0702 49.6118 95.6259 49.6366C99.174 49.6738 98.7398 49.711 98.777 44.9967C98.777 44.24 98.8887 41.7836 98.6653 41.2501C98.2435 40.2452 96.8541 40.4313 95.6259 40.4189L76.5453 40.3197C75.9871 40.3072 75.3171 40.2452 74.8457 40.4437C74.2502 40.7042 74.3247 40.9772 73.9773 41.5603L65.7273 41.523C64.896 40.3321 65.566 40.8531 64.0897 40.2204C58.9659 37.9997 61.7077 34.1538 65.0201 31.623C65.5908 31.1888 66.4592 30.9283 66.5585 30.1591C66.6577 29.3527 66.0126 28.2982 65.4047 28.1865C64.1517 27.9508 58.3208 31.7098 57.4896 32.355C54.9836 34.2779 52.9862 36.4117 52.9118 39.8606C52.8746 41.8456 52.8994 43.8554 52.887 45.8528C52.8498 49.0411 52.6637 48.8798 53.3088 51.5471C53.5321 52.4652 53.3832 53.1723 53.0234 53.9415C52.552 54.934 52.6885 55.269 52.6885 56.5344C52.6761 57.2415 52.5768 58.8667 52.6885 59.4746C52.8746 60.4919 53.8298 60.4175 54.8968 60.4175C56.8817 60.4175 58.9039 60.4795 60.8889 60.4671C62.8739 60.4423 62.3528 59.0404 62.39 55.8148C62.4272 53.5197 60.8889 53.0359 62.1171 50.7904C63.3825 48.4704 64.7968 49.8475 65.5908 48.1727ZM55.0456 43.1358L55.0084 49.5498C55.0084 50.1577 55.4054 50.7656 55.5047 51.5099C55.6411 52.4156 55.4798 52.9366 55.455 53.7802C56.5096 53.7678 57.7377 53.7802 57.5268 55.0456C57.3283 56.2242 55.9141 55.9265 54.8347 55.9265L54.8223 58.2712L60.2314 58.3084L60.2438 56.1002L59.9088 55.9389C58.755 55.4178 58.7178 54.6859 59.6607 53.8174C59.4374 52.031 59.5987 50.6663 60.4299 49.3885C61.0129 48.4828 62.1419 47.5524 63.4321 47.143L63.4693 42.2426C61.7821 41.7836 59.884 40.208 59.3629 38.6821C58.5814 36.4614 59.6979 34.1166 60.7276 32.7892C60.1073 33.0373 58.9411 33.9429 58.3953 34.3896C54.7727 37.3546 55.0704 38.496 55.0456 43.1358ZM76.1856 47.3663L96.6059 47.4904L96.6307 42.5776L76.2352 42.4659L76.1856 47.3663ZM65.5784 46.014L74.0517 46.0761V44.4261V43.7189L65.6032 43.6693L65.5784 46.014Z" fill="white"></path>
    <path fill-rule="evenodd" clip-rule="evenodd" d="M81.5326 60.0949C81.0115 60.4919 46.0016 73.5927 45.6418 73.5927C45.2573 73.6051 10.2598 60.5043 9.75111 60.0949C10.4955 59.6607 34.7741 51.9441 35.8535 51.5843C38.0245 50.84 40.1956 50.1452 42.4039 49.4505C42.9994 49.2644 45.22 48.4704 45.6418 48.4704C46.5723 48.4704 48.1975 49.6118 49.0535 49.1279C49.4381 48.917 49.7482 48.2843 49.4753 47.7261C49.2272 47.2422 48.6317 47.1182 48.0982 46.9445C46.6591 46.4979 46.1133 45.9644 44.5749 46.4855C42.379 47.2298 40.2328 47.9121 38.0245 48.6193C29.3279 51.3983 20.5196 54.4129 11.885 57.0926C10.8553 57.4028 5.85561 58.8543 5.47102 59.3754C4.47854 60.678 6.4511 61.2239 7.30712 61.5464L23.1372 67.5013C27.3305 69.0521 31.4865 70.6028 35.655 72.2032C37.764 73.0096 39.8854 73.7788 41.9696 74.5852C42.9621 74.9574 44.1035 75.4536 45.0712 75.7638C46.014 76.0491 47.4159 75.2799 48.3712 74.9326C56.8197 71.8062 65.169 68.5806 73.6299 65.4295C75.1062 64.8836 85.639 61.1866 85.9367 60.4671C86.5198 59.0776 84.6217 58.7799 83.7036 58.4821L67.2408 53.1599C64.7844 52.3535 65.1069 54.202 65.3054 54.5246C65.8389 55.4054 79.7461 59.1272 81.5326 60.0949Z" fill="white"></path>
    <path fill-rule="evenodd" clip-rule="evenodd" d="M50.9268 61.6208C49.8475 62.2287 48.9791 62.849 47.8873 63.4818C45.8652 64.6355 47.2919 66.1242 48.4704 65.6404C48.7806 65.5163 49.6738 64.9084 49.9716 64.71C51.2618 63.8912 52.6141 63.3825 52.5024 62.3776C52.428 61.6208 51.6092 61.2363 50.9268 61.6208Z" fill="white"></path>
    <path fill-rule="evenodd" clip-rule="evenodd" d="M46.0636 53.4825C45.4557 53.6562 45.0588 54.2765 45.4433 55.0085C45.6667 55.4303 49.252 57.4649 50.1204 57.1795C50.6415 57.0182 50.9764 56.2987 50.6539 55.6536C50.3561 55.0581 46.5971 53.3212 46.0636 53.4825Z" fill="white"></path>
    <path fill-rule="evenodd" clip-rule="evenodd" d="M43.4087 58.631C42.1061 59.0156 42.2922 60.616 43.7809 60.7276C44.426 60.7772 47.2422 60.8144 47.726 60.6284C48.7681 60.2438 48.6565 58.6682 47.205 58.5814C46.6219 58.5441 43.7809 58.5317 43.4087 58.631Z" fill="white"></path>
  </g>
  <defs>
    <clipPath id="clip0_14_311">
      <rect width="104" height="104" fill="white"></rect>
    </clipPath>
  </defs>
</svg>
