<?xml version="1.0" encoding="UTF-8"?>
<svg xmlns="http://www.w3.org/2000/svg" width="104" height="104" viewBox="0 0 104 104" fill="none">
  <g clip-path="url(#clip0_21_682)">
    <path d="M102.698 51.9961C102.698 79.9976 79.9977 102.698 51.9962 102.698C23.9947 102.698 1.30176 79.9976 1.30176 51.9961C1.30176 23.9946 23.9947 1.30167 51.9962 1.30167C79.9977 1.30167 102.698 23.9946 102.698 51.9961Z" fill="#8A5CC4"></path>
    <mask id="mask0_21_682" style="mask-type:luminance" maskUnits="userSpaceOnUse" x="1" y="1" width="102" height="102">
      <path d="M102.698 51.9961C102.698 79.9976 79.9977 102.698 51.9962 102.698C23.9947 102.698 1.30176 79.9976 1.30176 51.9961C1.30176 23.9946 23.9947 1.30167 51.9962 1.30167C79.9977 1.30167 102.698 23.9946 102.698 51.9961Z" fill="white"></path>
    </mask>
    <g mask="url(#mask0_21_682)">
      <path d="M86.8276 88.9446H17.1649C15.2359 87.1254 13.4559 85.1494 11.8328 83.0479H92.1597C90.5365 85.1494 88.7565 87.1254 86.8276 88.9446Z" fill="#FEFEFE"></path>
      <path d="M16.3258 59.1631L34.9177 87.9331H52.0511L39.6068 59.1631H45.0173L20.6934 40.9006L10.5232 59.1631H16.3258Z" fill="#FEFEFE"></path>
      <path d="M48.248 70.8467L101.373 40.5712C102.126 43.7862 102.565 47.1266 102.667 50.5376L54.725 84.7495L48.248 70.8467Z" fill="#FEFEFE"></path>
      <path d="M73.7168 47.1031C73.7168 50.0671 71.3095 52.4744 68.3455 52.4744C65.3736 52.4744 62.9663 50.0671 62.9663 47.1031C62.9663 44.1312 65.3736 41.7239 68.3455 41.7239C71.3095 41.7239 73.7168 44.1312 73.7168 47.1031Z" fill="#FEFEFE"></path>
      <path d="M92.5751 21.7206C91.3833 23.5947 89.2896 24.8415 86.9058 24.8415C83.189 24.8415 80.1858 21.8382 80.1858 18.1214C80.1858 15.6749 81.4953 13.5342 83.4556 12.358C86.8823 15.0711 89.9561 18.2233 92.5751 21.7206Z" fill="#FEFEFE"></path>
      <path d="M57.6968 40.8378C57.6968 43.8019 55.2895 46.2092 52.3255 46.2092C49.3536 46.2092 46.9463 43.8019 46.9463 40.8378C46.9463 37.8659 49.3536 35.4586 52.3255 35.4586C55.2895 35.4586 57.6968 37.8659 57.6968 40.8378Z" fill="#FEFEFE"></path>
      <path d="M50.6552 15.62C50.6552 17.6666 49.0007 19.329 46.9541 19.329C44.9075 19.329 43.2451 17.6666 43.2451 15.62C43.2451 13.5734 44.9075 11.9189 46.9541 11.9189C49.0007 11.9189 50.6552 13.5734 50.6552 15.62Z" fill="#FEFEFE"></path>
      <path d="M65.5618 30.3226C65.5618 33.2944 63.1545 35.7017 60.1905 35.7017C57.2186 35.7017 54.8113 33.2944 54.8113 30.3226C54.8113 27.3585 57.2186 24.9512 60.1905 24.9512C63.1545 24.9512 65.5618 27.3585 65.5618 30.3226Z" fill="#FEFEFE"></path>
      <path d="M88.5684 41.473C88.5684 44.4449 86.1611 46.8522 83.1892 46.8522C80.2252 46.8522 77.8179 44.4449 77.8179 41.473C77.8179 38.509 80.2252 36.1017 83.1892 36.1017C86.1611 36.1017 88.5684 38.509 88.5684 41.473Z" fill="#FEFEFE"></path>
      <path d="M78.4293 25.3355C78.4293 27.5546 76.6258 29.3581 74.3989 29.3581C72.1719 29.3581 70.3684 27.5546 70.3684 25.3355C70.3684 23.1085 72.1719 21.305 74.3989 21.305C76.6258 21.305 78.4293 23.1085 78.4293 25.3355Z" fill="#FEFEFE"></path>
      <path d="M53.7292 24.6141C53.7292 26.2529 52.3962 27.5859 50.7495 27.5859C49.1028 27.5859 47.7776 26.2529 47.7776 24.6141C47.7776 22.9674 49.1028 21.6343 50.7495 21.6343C52.3962 21.6343 53.7292 22.9674 53.7292 24.6141Z" fill="#FEFEFE"></path>
      <path d="M73.7167 35.7017C73.7167 37.3406 72.3837 38.6736 70.7449 38.6736C69.0982 38.6736 67.7651 37.3406 67.7651 35.7017C67.7651 34.055 69.0982 32.722 70.7449 32.722C72.3837 32.722 73.7167 34.055 73.7167 35.7017Z" fill="#FEFEFE"></path>
      <path d="M88.9526 30.7068C88.9526 32.3535 87.6195 33.6865 85.9729 33.6865C84.334 33.6865 83.001 32.3535 83.001 30.7068C83.001 29.0601 84.334 27.7271 85.9729 27.7271C87.6195 27.7271 88.9526 29.0601 88.9526 30.7068Z" fill="#FEFEFE"></path>
      <path d="M79.0174 9.20577C78.9077 9.22145 78.79 9.22929 78.6803 9.22929C77.4492 9.22929 76.3906 8.48436 75.9358 7.41794C76.9865 7.97467 78.0138 8.57846 79.0174 9.20577Z" fill="#FEFEFE"></path>
      <path d="M63.6799 18.6781C63.6799 20.317 62.3469 21.65 60.7002 21.65C59.0535 21.65 57.7205 20.317 57.7205 18.6781C57.7205 17.0315 59.0535 15.6984 60.7002 15.6984C62.3469 15.6984 63.6799 17.0315 63.6799 18.6781Z" fill="#FEFEFE"></path>
      <path d="M69.4353 4.49312C68.9335 5.41055 67.9533 6.03002 66.832 6.03002C65.1853 6.03002 63.8601 4.69699 63.8601 3.0503C63.8601 2.97189 63.8601 2.89348 63.8679 2.81506C65.7656 3.26986 67.624 3.8266 69.4353 4.49312Z" fill="#FEFEFE"></path>
      <path d="M75.434 13.8087C75.434 16.2159 73.4815 18.1684 71.0742 18.1684C68.659 18.1684 66.7065 16.2159 66.7065 13.8087C66.7065 11.4014 68.659 9.44885 71.0742 9.44885C73.4815 9.44885 75.434 11.4014 75.434 13.8087Z" fill="#FEFEFE"></path>
      <path d="M46.672 28.9347C46.672 31.3498 44.7195 33.3023 42.3122 33.3023C39.9049 33.3023 37.9524 31.3498 37.9524 28.9347C37.9524 26.5274 39.9049 24.5749 42.3122 24.5749C44.7195 24.5749 46.672 26.5274 46.672 28.9347Z" fill="#FEFEFE"></path>
      <path d="M58.9123 7.33952C58.9123 8.98621 57.5793 10.3192 55.9326 10.3192C54.2937 10.3192 52.9607 8.98621 52.9607 7.33952C52.9607 5.70068 54.2937 4.3598 55.9326 4.3598C57.5793 4.3598 58.9123 5.70068 58.9123 7.33952Z" fill="#FEFEFE"></path>
      <path d="M44.0293 83.0008L28.2368 98.7855L25.5942 96.143L41.3789 80.3583L44.0293 83.0008Z" fill="#FEFEFE"></path>
      <path d="M54.2465 86.6314L38.3835 103.145L35.686 100.55L51.5491 84.0438L54.2465 86.6314Z" fill="#FEFEFE"></path>
      <path d="M68.4472 86.404L47.4873 107.317L44.8447 104.667L65.8047 83.7536L68.4472 86.404Z" fill="#FEFEFE"></path>
      <path d="M79.3546 88.4271L61.2097 106.784L58.5515 104.157L76.6964 85.8002L79.3546 88.4271Z" fill="#FEFEFE"></path>
    </g>
  </g>
  <defs>
    <clipPath id="clip0_21_682">
      <rect width="104" height="104" fill="white"></rect>
    </clipPath>
  </defs>
</svg>
