<?xml version="1.0" encoding="UTF-8"?>
<svg xmlns="http://www.w3.org/2000/svg" width="104" height="104" viewBox="0 0 104 104" fill="none">
  <g clip-path="url(#clip0_37_487)">
    <path d="M102.7 51.9984C102.7 80.0005 80.0005 102.699 51.9984 102.699C23.9995 102.699 1.30054 80.0005 1.30054 51.9984C1.30054 23.9995 23.9995 1.29736 51.9984 1.29736C80.0005 1.29736 102.7 23.9995 102.7 51.9984Z" fill="#FBD9CA"></path>
    <path fill-rule="evenodd" clip-rule="evenodd" d="M102.7 51.9984C102.7 80.0005 80.0005 102.699 51.9984 102.699C23.9995 102.699 1.30054 80.0005 1.30054 51.9984C1.30054 23.9964 23.9995 1.30051 51.9984 1.30051C80.0005 1.30051 102.7 23.9964 102.7 51.9984Z" fill="#8A5CC4"></path>
    <path d="M17.0361 31.5027C16.1396 31.5027 15.4104 30.7735 15.4104 29.8771C15.4104 28.9806 16.1396 28.2514 17.0361 28.2514H37.2098L32.6927 23.7344C32.0583 23.0999 32.0583 22.0708 32.6927 21.4364C33.3272 20.8019 34.3563 20.8019 34.9907 21.4364L42.2825 28.7281C42.9169 29.3625 42.9169 30.3916 42.2825 31.0261L34.9907 38.3178C34.3563 38.9523 33.3272 38.9523 32.6927 38.3178C32.0583 37.6833 32.0583 36.6543 32.6927 36.0198L37.2098 31.5027H17.0361ZM12.5601 73.5768C11.6636 73.5768 10.9344 72.8508 10.9344 71.9512C10.9344 71.0547 11.6636 70.3255 12.5601 70.3255H18.0052C18.9048 70.3255 19.6308 71.0547 19.6308 71.9512C19.6308 72.8508 18.9048 73.5768 18.0052 73.5768H12.5601ZM27.2634 73.5768C26.3638 73.5768 25.6378 72.8508 25.6378 71.9512C25.6378 71.0547 26.3638 70.3255 27.2634 70.3255H32.7054C33.605 70.3255 34.331 71.0547 34.331 71.9512C34.331 72.8508 33.605 73.5768 32.7054 73.5768H27.2634ZM41.9636 73.5768C41.064 73.5768 40.338 72.8508 40.338 71.9512C40.338 71.0547 41.064 70.3255 41.9636 70.3255H47.4056C48.3052 70.3255 49.0312 71.0547 49.0312 71.9512C49.0312 72.8508 48.3052 73.5768 47.4056 73.5768H41.9636ZM56.6638 73.5768C55.7642 73.5768 55.0382 72.8508 55.0382 71.9512C55.0382 71.0547 55.7642 70.3255 56.6638 70.3255H62.109C63.0054 70.3255 63.7314 71.0547 63.7314 71.9512C63.7314 72.8508 63.0054 73.5768 62.109 73.5768H56.6638ZM71.3641 73.5768C70.4644 73.5768 69.7384 72.8508 69.7384 71.9512C69.7384 71.0547 70.4644 70.3255 71.3641 70.3255H76.8092C77.7056 70.3255 78.4317 71.0547 78.4317 71.9512C78.4317 72.8508 77.7056 73.5768 76.8092 73.5768H71.3641ZM86.0643 73.5768C85.1647 73.5768 84.4386 72.8508 84.4386 71.9512C84.4386 71.0547 85.1647 70.3255 86.0643 70.3255H91.5094C92.4059 70.3255 93.135 71.0547 93.135 71.9512C93.135 72.8508 92.4059 73.5768 91.5094 73.5768H86.0643ZM19.6213 83.0403C18.7249 83.0403 17.9988 82.3111 17.9988 81.4146C17.9988 80.5182 18.7249 79.789 19.6213 79.789H25.0664C25.9661 79.789 26.6921 80.5182 26.6921 81.4146C26.6921 82.3111 25.9661 83.0403 25.0664 83.0403H19.6213ZM34.3247 83.0403C33.4251 83.0403 32.6991 82.3111 32.6991 81.4146C32.6991 80.5182 33.4251 79.789 34.3247 79.789H39.7698C40.6663 79.789 41.3923 80.5182 41.3923 81.4146C41.3923 82.3111 40.6663 83.0403 39.7698 83.0403H34.3247ZM49.0249 83.0403C48.1253 83.0403 47.3993 82.3111 47.3993 81.4146C47.3993 80.5182 48.1253 79.789 49.0249 79.789H54.47C55.3665 79.789 56.0925 80.5182 56.0925 81.4146C56.0925 82.3111 55.3665 83.0403 54.47 83.0403H49.0249ZM63.7251 83.0403C62.8255 83.0403 62.0995 82.3111 62.0995 81.4146C62.0995 80.5182 62.8255 79.789 63.7251 79.789H69.1702C70.0667 79.789 70.7959 80.5182 70.7959 81.4146C70.7959 82.3111 70.0667 83.0403 69.1702 83.0403H63.7251ZM78.4253 83.0403C77.5289 83.0403 76.7997 82.3111 76.7997 81.4146C76.7997 80.5182 77.5289 79.789 78.4253 79.789H83.8705C84.7669 79.789 85.4961 80.5182 85.4961 81.4146C85.4961 82.3111 84.7669 83.0403 83.8705 83.0403H78.4253ZM87.106 28.2514C88.0024 28.2514 88.7316 28.9806 88.7316 29.8771C88.7316 30.7735 88.0024 31.5027 87.106 31.5027H66.9322L71.4493 36.0198C72.0838 36.6543 72.0838 37.6833 71.4493 38.3178C70.8148 38.9523 69.7858 38.9523 69.1513 38.3178L61.8596 31.0261C61.2251 30.3916 61.2251 29.3625 61.8596 28.7281L69.1513 21.4364C69.7858 20.8019 70.8148 20.8019 71.4493 21.4364C72.0838 22.0708 72.0838 23.0999 71.4493 23.7344L66.9322 28.2514H87.106ZM11.6257 61.0704C10.7292 61.0704 10.0001 60.3413 10.0001 59.4448C10.0001 58.7567 10.4294 58.1664 11.0386 57.9296C11.4489 57.7339 12.7715 57.1121 14.675 57.1121C15.9692 57.1121 17.1245 57.857 18.3903 58.6746C19.4824 59.3817 20.6977 60.1645 21.7141 60.1645C22.497 60.1645 23.6807 59.1828 24.8644 58.2011C26.5027 56.8343 28.141 55.4738 30.0823 55.4738C32.0488 55.4738 33.6839 56.5344 35.158 57.4877L35.2212 57.5288C36.0387 58.0559 36.7774 58.5294 37.1214 58.5294C38.3115 58.5294 39.1322 58.138 39.3752 58.0212L39.4983 57.9675C39.7004 57.876 39.8456 57.8192 40.1707 57.8192C41.0703 57.8192 41.7963 58.5483 41.7963 59.4448C41.7963 60.1361 41.367 60.7232 40.761 60.96C40.3506 61.1557 39.0249 61.7807 37.1214 61.7807C35.8462 61.7807 34.7067 61.0547 33.4598 60.2497L33.4093 60.215C32.314 59.5111 31.1018 58.7251 30.0823 58.7251C29.3089 58.7251 28.122 59.71 26.932 60.6948C25.2906 62.0553 23.646 63.4158 21.7141 63.4158C19.7508 63.4158 18.1125 62.3583 16.6384 61.405L16.632 61.3987C15.7956 60.8558 15.0285 60.3602 14.675 60.3602C13.4881 60.3602 12.6674 60.7516 12.4212 60.8684C12.1465 60.9947 11.9856 61.0704 11.6257 61.0704ZM92.6016 57.9296C93.2076 58.1664 93.6369 58.7567 93.6369 59.4448C93.6369 60.3413 92.9109 61.0704 92.0144 61.0704C91.6514 61.0704 91.4905 60.9947 91.219 60.8621C90.9728 60.7516 90.1521 60.3602 88.962 60.3602C88.6022 60.3602 87.8383 60.8558 86.9986 61.3987C85.5214 62.3552 83.8799 63.4158 81.9228 63.4158C79.991 63.4158 78.3496 62.0553 76.7082 60.6917C75.5181 59.71 74.3313 58.7251 73.5547 58.7251C72.5352 58.7251 71.3262 59.5079 70.2372 60.2119C68.9682 61.0326 67.8129 61.7807 66.5187 61.7807C64.6121 61.7807 63.2895 61.1557 62.8792 60.96C62.2731 60.7232 61.8407 60.1361 61.8407 59.4448C61.8407 58.5483 62.5698 57.8192 63.4663 57.8192C63.7662 57.8192 63.9272 57.8728 64.1292 57.9644L64.2649 58.0212C64.508 58.138 65.3287 58.5294 66.5187 58.5294C66.8691 58.5294 67.6361 58.0338 68.4726 57.494C69.9531 56.5376 71.5945 55.4738 73.5547 55.4738C75.496 55.4738 77.1375 56.8343 78.7757 58.1948C79.9595 59.1828 81.1432 60.1645 81.9228 60.1645C82.9519 60.1645 84.1609 59.3848 85.2499 58.6809C86.5188 57.8602 87.6741 57.1121 88.962 57.1121C90.8654 57.1121 92.1912 57.7339 92.6016 57.9296ZM11.7962 50.5653C10.8997 50.5653 10.1705 49.8362 10.1705 48.9397C10.1705 48.0432 10.8997 47.314 11.7962 47.314H40.8778C42.7938 47.314 44.5363 48.0969 45.7926 49.3532C47.0521 50.6127 47.8317 52.352 47.8317 54.268V59.7794C47.8317 60.9252 48.2989 61.9638 49.0502 62.7119L49.0565 62.7213C49.8046 63.4694 50.8463 63.9366 51.9889 63.9366C53.1379 63.9366 54.1765 63.4694 54.9246 62.7213L54.9309 62.7119C55.6822 61.9638 56.1493 60.9252 56.1493 59.7794V54.268C56.1493 52.352 56.929 50.6127 58.1885 49.3532L58.2926 49.2585C59.5458 48.0558 61.2409 47.314 63.1033 47.314H92.3743C93.2708 47.314 93.9999 48.0432 93.9999 48.9397C93.9999 49.8362 93.2708 50.5653 92.3743 50.5653H63.1033C62.1153 50.5653 61.2188 50.9504 60.5559 51.5754L60.4865 51.6512C59.8141 52.3235 59.3975 53.2516 59.3975 54.268V59.7794C59.3975 61.8059 58.5673 63.6557 57.2289 65.0004L57.2194 65.0067C55.8747 66.3546 54.0218 67.1847 51.9889 67.1847C49.9624 67.1847 48.1127 66.3546 46.768 65.0162L46.7616 65.0067C45.4169 63.662 44.5836 61.8091 44.5836 59.7794V54.268C44.5836 53.2516 44.1669 52.3235 43.4946 51.6512C42.8254 50.982 41.8974 50.5653 40.8778 50.5653H11.7962Z" fill="white"></path>
  </g>
  <defs>
    <clipPath id="clip0_37_487">
      <rect width="104" height="104" fill="white"></rect>
    </clipPath>
  </defs>
</svg>
