<?xml version="1.0" encoding="UTF-8"?>
<svg xmlns="http://www.w3.org/2000/svg" width="104" height="104" viewBox="0 0 104 104" fill="none">
  <g clip-path="url(#clip0_22_2546)">
    <path fill-rule="evenodd" clip-rule="evenodd" d="M52.0085 1.30063C80.0066 1.30063 102.699 23.9934 102.699 52.0085C102.699 80.0066 80.0066 102.699 52.0085 102.699C23.9934 102.699 1.30063 80.0066 1.30063 52.0085C1.30063 23.9934 23.9934 1.30063 52.0085 1.30063Z" fill="#8A5CC4"></path>
    <path d="M74.1366 69.3447C53.5659 50.725 53.3605 50.7764 52.6075 50.7421C52.0599 50.7592 51.8032 50.7764 41.2954 59.7268V53.9253C41.2954 52.8985 40.4739 52.077 39.4471 52.077C38.4374 52.077 37.6159 52.8985 37.6159 53.9253V62.5164C37.6159 62.619 37.6501 62.7217 37.6672 62.8244C35.5451 64.6556 33.0979 66.7434 30.2741 69.1565C29.658 69.687 29.6067 70.594 30.1201 71.2101C30.6506 71.8262 31.5748 71.8947 32.1737 71.3813C32.3449 71.2101 32.5331 71.0561 32.7214 70.9021L32.8754 86.3044C32.8925 87.9816 34.2787 89.3335 35.973 89.3335H46.8573V75.9848C46.8573 74.958 47.6959 74.1023 48.7227 74.1023H55.6709C56.6977 74.1023 57.5363 74.958 57.5363 75.9848L57.7245 89.3335H68.7971C69.6528 89.3335 70.44 89.0084 71.039 88.4094C71.6037 87.8104 71.9118 87.0403 71.9118 86.2188L71.7578 71.1074C71.8947 71.2443 72.0316 71.3813 72.1856 71.5011C72.4594 71.7578 72.8188 71.8776 73.1611 71.8776C73.5547 71.8776 73.9483 71.7235 74.2392 71.3984C74.7869 70.7994 74.7355 69.8924 74.1366 69.3447Z" fill="#FEFEFE"></path>
    <path d="M24.6779 73.0926C24.8833 58.2208 36.9485 45.7621 51.9914 45.7792C67.0515 45.7963 79.1166 58.2037 79.322 73.0926C79.3562 74.9409 82.2313 74.958 82.1971 73.0926C82.026 60.6167 74.4104 49.3388 62.7046 44.855C50.879 40.337 36.9827 43.9651 28.8879 53.6857C24.3014 59.1792 21.9055 65.9733 21.8028 73.0926C21.7857 74.9409 24.6608 74.9409 24.6779 73.0926Z" fill="#FEFEFE"></path>
    <path d="M64.4502 27.1766C64.0908 26.8172 63.5261 26.8001 63.064 27.1766L51.2042 39.3786L47.7301 42.9725L36.9314 32.8241C36.572 32.4476 36.0244 32.4476 35.5623 32.8241C35.2029 33.1664 35.1858 33.7311 35.5623 34.1932L47.0627 45.0604C47.2338 45.2315 47.4734 45.3171 47.7301 45.3171C47.9868 45.3171 48.2264 45.2144 48.4489 45.0091L64.4502 28.5457C64.8096 28.1863 64.8267 27.6386 64.4502 27.1766Z" fill="#FEFEFE"></path>
    <path d="M46.806 35.2885C46.7033 35.4083 46.7033 35.6307 46.806 35.7505L47.7301 36.6576C47.7815 36.726 47.9013 36.7774 47.9526 36.7774C48.0039 36.7774 48.1237 36.726 48.1751 36.6576C48.2949 36.5549 48.2949 36.3153 48.1751 36.2126L47.2681 35.2885C47.1483 35.1344 46.9258 35.1344 46.806 35.2885Z" fill="#FEFEFE"></path>
    <path d="M65.1519 35.7505C65.2717 35.7505 65.323 35.6992 65.3743 35.6307L66.2985 34.7237C66.4012 34.621 66.4012 34.3814 66.2985 34.2788C66.1787 34.159 65.9562 34.159 65.8364 34.2788L64.9294 35.1858C64.8096 35.2885 64.8096 35.528 64.9294 35.6307C64.9807 35.7505 65.1005 35.7505 65.1519 35.7505Z" fill="#FEFEFE"></path>
    <path d="M48.8083 37.3421C48.7056 37.4619 48.7056 37.6844 48.8083 37.8042L49.7153 38.7112C49.7666 38.7625 49.8864 38.831 49.9549 38.831C50.0062 38.831 50.126 38.7625 50.1774 38.7112C50.2801 38.5914 50.2801 38.3689 50.1774 38.2662L49.2703 37.3421C49.1505 37.2223 48.9281 37.1709 48.8083 37.3421Z" fill="#FEFEFE"></path>
    <path d="M43.2292 31.1469C43.1094 31.0271 42.887 31.0271 42.7672 31.1469C42.6474 31.2496 42.6474 31.4721 42.7672 31.5919L43.6742 32.4989C43.7426 32.5674 43.8453 32.6187 43.9138 32.6187C43.9651 32.6187 44.0849 32.5674 44.1363 32.4989C44.256 32.3962 44.256 32.1567 44.1363 32.054L43.2292 31.1469Z" fill="#FEFEFE"></path>
    <path d="M52.8471 41.4494C52.7273 41.5692 52.7273 41.7916 52.8471 41.8943L53.7713 42.8185C53.8226 42.8698 53.9253 42.9212 53.9937 42.9212C54.0451 42.9212 54.1649 42.8698 54.2162 42.8185C54.336 42.6987 54.336 42.4762 54.2162 42.3564L53.3092 41.4494C53.1894 41.3296 52.9669 41.3296 52.8471 41.4494Z" fill="#FEFEFE"></path>
    <path d="M57.7416 42.5276L56.8346 43.4346C56.7319 43.5544 56.7319 43.7769 56.8346 43.8967C56.9031 43.948 57.0057 44.0165 57.0742 44.0165C57.1769 44.0165 57.2453 43.948 57.2967 43.8967L58.2037 42.9896C58.3064 42.8698 58.3064 42.6474 58.2037 42.5276C58.1524 42.4078 57.9128 42.4078 57.7416 42.5276Z" fill="#FEFEFE"></path>
    <path d="M67.8387 32.2251L66.9146 33.1321C66.8119 33.2519 66.8119 33.4744 66.9146 33.5771C66.9831 33.6455 67.0857 33.6969 67.1371 33.6969C67.2569 33.6969 67.3082 33.6455 67.3767 33.5771L68.2837 32.6701C68.4035 32.5674 68.4035 32.3278 68.2837 32.2251C68.1639 32.054 67.9585 32.054 67.8387 32.2251Z" fill="#FEFEFE"></path>
    <path d="M45.6765 34.621C45.7278 34.6724 45.8476 34.7237 45.8989 34.7237C45.9674 34.7237 46.0701 34.6724 46.1385 34.621C46.2412 34.5012 46.2412 34.2787 46.1385 34.159L45.2144 33.2519C45.1117 33.1321 44.8721 33.1321 44.7694 33.2519C44.6496 33.3546 44.6496 33.5942 44.7694 33.6969L45.6765 34.621Z" fill="#FEFEFE"></path>
    <path d="M69.8239 30.1201L68.9169 31.0271C68.7971 31.1469 68.7971 31.3694 68.9169 31.4721C68.9682 31.5406 69.088 31.5919 69.1394 31.5919C69.2591 31.5919 69.3105 31.5406 69.3618 31.4721L70.286 30.5651C70.3887 30.4453 70.3887 30.2228 70.286 30.1201C70.1662 30.0003 69.995 30.0003 69.8239 30.1201Z" fill="#FEFEFE"></path>
    <path d="M72.3225 28.0665C72.2198 27.9467 71.9973 27.9467 71.8775 28.0665L70.9705 28.9735C70.8507 29.0762 70.8507 29.3158 70.9705 29.4356C71.0219 29.4869 71.1417 29.5383 71.193 29.5383C71.2957 29.5383 71.3641 29.4869 71.4155 29.4356L72.3225 28.5114C72.4936 28.4087 72.4936 28.1863 72.3225 28.0665Z" fill="#FEFEFE"></path>
    <path d="M54.8494 43.5544C54.7296 43.6742 54.7296 43.8966 54.8494 44.0164L55.7565 44.9235C55.8078 44.9748 55.9276 45.0433 55.9789 45.0433C56.0474 45.0433 56.1672 44.9748 56.2185 44.9235C56.3212 44.8037 56.3212 44.5812 56.2185 44.4614L55.2944 43.5544C55.243 43.3832 55.0206 43.3832 54.8494 43.5544Z" fill="#FEFEFE"></path>
    <path d="M63.7828 36.3153L62.8757 37.2394C62.7559 37.3421 62.7559 37.5817 62.8757 37.6844C62.9271 37.7528 63.0469 37.8042 63.1153 37.8042C63.218 37.8042 63.2693 37.7528 63.3207 37.6844L64.2448 36.7773C64.3475 36.6575 64.3475 36.4351 64.2448 36.3153C64.1764 36.2126 63.9539 36.2126 63.7828 36.3153Z" fill="#FEFEFE"></path>
    <path d="M59.7953 40.4739L58.8882 41.398C58.7685 41.5007 58.7685 41.7232 58.8882 41.843C58.9567 41.9114 59.0594 41.9628 59.1107 41.9628C59.2305 41.9628 59.2819 41.9114 59.3332 41.843L60.2573 40.936C60.3771 40.8162 60.3771 40.5937 60.2573 40.4739C60.1375 40.3712 59.9151 40.3712 59.7953 40.4739Z" fill="#FEFEFE"></path>
    <path d="M61.7976 38.4203L60.8906 39.3444C60.7708 39.4471 60.7708 39.6867 60.8906 39.7894C60.9419 39.8578 61.0446 39.9092 61.113 39.9092C61.2157 39.9092 61.2842 39.8578 61.3355 39.7894L62.2425 38.8823C62.3623 38.7625 62.3623 38.5401 62.2425 38.4203C62.1399 38.2662 61.9003 38.2662 61.7976 38.4203Z" fill="#FEFEFE"></path>
    <path d="M37.1538 30.2912C35.3056 29.7778 33.4744 29.2644 31.6261 28.751C31.5919 28.7339 31.5577 28.7681 31.5405 28.7681C31.5063 28.7681 31.4892 28.7681 31.455 28.7681C31.4207 28.7852 31.3865 28.8195 31.3523 28.8537C31.3352 28.8708 31.3181 28.8879 31.301 28.9221C31.2838 28.9564 31.2838 28.9906 31.2838 29.0248C31.2838 29.0419 31.2667 29.0762 31.2667 29.1104C31.7459 30.9416 32.2251 32.7898 32.6872 34.6381C32.7556 34.8435 33.0123 34.9119 33.1663 34.7579C34.5354 33.4231 35.9045 32.1053 37.2736 30.7704C37.4277 30.6164 37.3592 30.3426 37.1538 30.2912Z" fill="#FEFEFE"></path>
    <path d="M44.4443 28.443C44.4443 28.4087 44.4272 28.3745 44.4101 28.3574C44.3929 28.3232 44.3758 28.3232 44.3416 28.3061C44.3245 28.2889 44.3074 28.2547 44.2731 28.2376C42.4249 27.7242 40.5766 27.2108 38.7454 26.6974C38.5229 26.646 38.3347 26.8343 38.386 27.0568C38.8652 28.8879 39.3444 30.7362 39.8236 32.5845C39.8749 32.7898 40.1487 32.8583 40.3028 32.7043C41.6719 31.3865 43.0238 30.0517 44.3929 28.7168C44.4272 28.6997 44.41 28.6654 44.4272 28.6312C44.4443 28.6141 44.4614 28.597 44.4614 28.5628C44.4614 28.5285 44.4614 28.4943 44.4443 28.443Z" fill="#FEFEFE"></path>
    <path d="M56.4923 25.739C58.4775 23.5998 58.3577 20.2284 56.2185 18.1919C55.1575 17.1993 53.737 16.7201 52.3851 16.7714C51.0502 16.8057 49.664 17.3875 48.6714 18.4657C46.6862 20.6049 46.806 23.9934 48.9452 26.0128C51.1186 27.998 54.49 27.8782 56.4923 25.739Z" fill="#FEFEFE"></path>
    <path d="M49.3388 19.0476C51.016 17.2335 53.8226 17.1308 55.6367 18.808C57.4507 20.5022 57.5363 23.3089 55.8591 25.1229C55.0377 25.9957 53.9082 26.4578 52.7787 26.5091C51.6492 26.5605 50.4854 26.1669 49.5955 25.3454C47.7986 23.6683 47.6959 20.8445 49.3388 19.0476Z" fill="#FEFEFE"></path>
    <path d="M52.6931 15.4366C52.6931 15.8644 52.3508 16.2067 51.923 16.2067C51.4951 16.2067 51.17 15.8644 51.17 15.4366C51.17 15.0258 51.4951 14.6664 51.923 14.6664C52.3508 14.6664 52.6931 15.0258 52.6931 15.4366Z" fill="#FEFEFE"></path>
    <path d="M57.8443 17.764C57.5534 18.0721 57.0571 18.0892 56.7661 17.7983C56.441 17.5073 56.441 17.011 56.7319 16.703C57.0229 16.3949 57.502 16.3949 57.8101 16.6859C58.1181 16.9768 58.1352 17.456 57.8443 17.764Z" fill="#FEFEFE"></path>
    <path d="M56.886 27.4675C56.5608 27.1937 56.5266 26.7145 56.8004 26.3893C57.0742 26.0642 57.5534 26.0299 57.8785 26.3038C58.2037 26.5776 58.2379 27.0568 57.9641 27.3819C57.6903 27.7071 57.2111 27.7413 56.886 27.4675Z" fill="#FEFEFE"></path>
    <path d="M47.7986 27.1937C48.0382 26.8514 48.5174 26.7829 48.8596 27.0397C49.2019 27.2964 49.2704 27.7755 49.0137 28.1178C48.7569 28.443 48.2778 28.5114 47.9355 28.2718C47.6103 28.0151 47.5419 27.5188 47.7986 27.1937Z" fill="#FEFEFE"></path>
    <path d="M47.3023 17.7127C47.6617 17.9523 47.7472 18.4315 47.5076 18.7908C47.2681 19.1331 46.806 19.2187 46.4466 18.9962C46.1043 18.7566 46.0016 18.2774 46.2412 17.9352C46.4808 17.5758 46.9429 17.4902 47.3023 17.7127Z" fill="#FEFEFE"></path>
    <path d="M59.2305 22.6414C58.8198 22.6585 58.4604 22.3334 58.4433 21.9055C58.4433 21.4777 58.7685 21.1183 59.1963 21.1012C59.607 21.1012 59.9664 21.4264 59.9835 21.8542C60.0006 22.282 59.6584 22.6414 59.2305 22.6414Z" fill="#FEFEFE"></path>
    <path d="M52.2653 28.905C52.231 28.4772 52.5562 28.1178 52.984 28.0836C53.4119 28.0665 53.7713 28.3916 53.7884 28.8024C53.8226 29.2302 53.4974 29.6067 53.0696 29.6238C52.6589 29.6409 52.2824 29.3158 52.2653 28.905Z" fill="#FEFEFE"></path>
    <path d="M45.762 22.3505C46.1899 22.2992 46.5664 22.6072 46.6006 23.035C46.6348 23.4629 46.3268 23.8394 45.9161 23.8736C45.4882 23.9078 45.1117 23.5998 45.0775 23.172C45.0433 22.7612 45.3513 22.3847 45.762 22.3505Z" fill="#FEFEFE"></path>
  </g>
  <defs>
    <clipPath id="clip0_22_2546">
      <rect width="104" height="104" fill="white"></rect>
    </clipPath>
  </defs>
</svg>
