<?xml version="1.0" encoding="UTF-8"?>
<svg xmlns="http://www.w3.org/2000/svg" width="104" height="104" viewBox="0 0 104 104" fill="none">
  <path fill-rule="evenodd" clip-rule="evenodd" d="M102.693 52C102.693 80 80 102.692 52 102.692C24 102.692 1.29785 80 1.29785 52C1.29785 24 24 1.29782 52 1.29782C80 1.29782 102.693 24 102.693 52Z" fill="#8A5CC4"></path>
  <path d="M86.0726 28.3099C85.8401 27.4576 85.0459 26.5569 83.4769 26.5569C82.4116 26.5569 81.075 26.9831 79.7965 27.6998C79.1186 27.9709 75.3704 30.3632 72.3486 32.3099C71.6997 32.7361 70.8571 32.678 70.5859 32.5327C69.1815 31.7385 67.1767 31.3511 64.4551 31.3511C58.4406 31.3511 48.6392 33.5593 47.4285 34.6441C45.8208 36.0775 46.9733 37.8983 47.6028 38.77L46.6246 38.7022C44.6295 38.5763 42.3631 38.431 40.6488 38.063C38.9636 37.7143 37.1428 37.8983 35.4382 38.6247C30.799 40.5714 22.2856 44.2228 17.4624 46.7022C15.2348 47.6804 13.6658 48.0775 12.7457 48.2324C11.8353 48.3971 11.1186 49.1138 10.9733 50.0339C10.8377 50.9443 11.2832 51.845 12.0968 52.2809C12.9491 52.7361 13.7626 53.1816 14.5665 53.6174C19.845 56.4939 24.4164 58.983 32.213 60.0581C32.4455 60.0775 32.6779 60.0968 32.9007 60.0968C34.0532 60.0968 35.1961 59.7094 36.2808 58.8765C37.4721 57.7433 38.8668 56.5036 40.0387 55.5448C39.9128 55.8935 39.7772 56.2615 39.6319 56.6005C39.351 57.3269 39.4479 58.1501 39.874 58.799C40.3195 59.4673 41.0556 59.8741 41.8692 59.8935L42.5956 59.9031C57.5011 59.9031 71.5157 50.2663 73.9854 38.3729L82.0726 33.569C85.1428 31.8063 86.5278 29.9952 86.0726 28.3099Z" fill="#FEFEFE"></path>
  <path d="M71.9518 77.753H28.2036C26.8671 77.753 25.792 78.8281 25.792 80.1646C25.792 81.4915 26.8671 82.5763 28.2036 82.5763H71.9518C73.2787 82.5763 74.3537 81.4915 74.3537 80.1646C74.3537 78.8281 73.2787 77.753 71.9518 77.753Z" fill="#FEFEFE"></path>
  <path d="M71.9518 66.9249H28.2036C26.8671 66.9249 25.792 68 25.792 69.3365C25.792 70.6634 26.8671 71.7385 28.2036 71.7385H71.9518C73.2787 71.7385 74.3537 70.6634 74.3537 69.3365C74.3537 68 73.2787 66.9249 71.9518 66.9249Z" fill="#FEFEFE"></path>
</svg>
