<?xml version="1.0" encoding="UTF-8"?>
<svg xmlns="http://www.w3.org/2000/svg" width="104" height="104" viewBox="0 0 104 104" fill="none">
  <g clip-path="url(#clip0_12_238)">
    <path fill-rule="evenodd" clip-rule="evenodd" d="M102.697 51.9958C102.697 80.0019 80.002 102.697 51.9959 102.697C23.9981 102.697 1.30286 80.0019 1.30286 51.9958C1.30286 23.9981 23.9981 1.3028 51.9959 1.3028C80.002 1.3028 102.697 23.9981 102.697 51.9958Z" fill="#8A5CC4"></path>
    <path d="M40.0052 29.3753C43.0665 29.3753 45.5483 26.8935 45.5483 23.8321C45.5483 20.7707 43.0665 18.289 40.0052 18.289C36.9438 18.289 34.462 20.7707 34.462 23.8321C34.462 26.8935 36.9438 29.3753 40.0052 29.3753Z" fill="#FEFEFE"></path>
    <path d="M33.9807 44.3118C36.8771 44.3118 39.2251 41.9638 39.2251 39.0674C39.2251 36.171 36.8771 33.823 33.9807 33.823C31.0843 33.823 28.7363 36.171 28.7363 39.0674C28.7363 41.9638 31.0843 44.3118 33.9807 44.3118Z" fill="#FEFEFE"></path>
    <path d="M27.7406 64.0115C30.637 64.0115 32.985 61.6635 32.985 58.7671C32.985 55.8707 30.637 53.5227 27.7406 53.5227C24.8442 53.5227 22.4962 55.8707 22.4962 58.7671C22.4962 61.6635 24.8442 64.0115 27.7406 64.0115Z" fill="#FEFEFE"></path>
    <path d="M51.4233 40.4283C54.3976 40.4283 56.8088 38.0171 56.8088 35.0428C56.8088 32.0685 54.3976 29.6574 51.4233 29.6574C48.449 29.6574 46.0378 32.0685 46.0378 35.0428C46.0378 38.0171 48.449 40.4283 51.4233 40.4283Z" fill="#FEFEFE"></path>
    <path d="M67.6212 40.2872C70.5176 40.2872 72.8656 37.9392 72.8656 35.0428C72.8656 32.1464 70.5176 29.7984 67.6212 29.7984C64.7248 29.7984 62.3768 32.1464 62.3768 35.0428C62.3768 37.9392 64.7248 40.2872 67.6212 40.2872Z" fill="#FEFEFE"></path>
    <path d="M62.0117 52.7593C64.9081 52.7593 67.2561 50.4113 67.2561 47.5149C67.2561 44.6185 64.9081 42.2705 62.0117 42.2705C59.1153 42.2705 56.7673 44.6185 56.7673 47.5149C56.7673 50.4113 59.1153 52.7593 62.0117 52.7593Z" fill="#FEFEFE"></path>
    <path d="M76.2595 57.7713C79.1559 57.7713 81.5039 55.4233 81.5039 52.5269C81.5039 49.6305 79.1559 47.2825 76.2595 47.2825C73.3631 47.2825 71.0151 49.6305 71.0151 52.5269C71.0151 55.4233 73.3631 57.7713 76.2595 57.7713Z" fill="#FEFEFE"></path>
    <path d="M45.3989 60.8831C48.332 60.8831 50.7097 58.5054 50.7097 55.5723C50.7097 52.6393 48.332 50.2615 45.3989 50.2615C42.4658 50.2615 40.0881 52.6393 40.0881 55.5723C40.0881 58.5054 42.4658 60.8831 45.3989 60.8831Z" fill="#FEFEFE"></path>
    <path d="M39.167 78.1265C42.0634 78.1265 44.4114 75.7785 44.4114 72.8822C44.4114 69.9858 42.0634 67.6378 39.167 67.6378C36.2706 67.6378 33.9226 69.9858 33.9226 72.8822C33.9226 75.7785 36.2706 78.1265 39.167 78.1265Z" fill="#FEFEFE"></path>
    <path d="M54.9086 76.7573C57.8416 76.7573 60.2193 74.3796 60.2193 71.4466C60.2193 68.5135 57.8416 66.1358 54.9086 66.1358C51.9755 66.1358 49.5978 68.5135 49.5978 71.4466C49.5978 74.3796 51.9755 76.7573 54.9086 76.7573Z" fill="#FEFEFE"></path>
    <path d="M67.5963 69.2642C70.5294 69.2642 72.9071 66.8865 72.9071 63.9534C72.9071 61.0203 70.5294 58.6426 67.5963 58.6426C64.6632 58.6426 62.2855 61.0203 62.2855 63.9534C62.2855 66.8865 64.6632 69.2642 67.5963 69.2642Z" fill="#FEFEFE"></path>
    <path d="M67.5963 85.4786C70.5294 85.4786 72.9071 83.1009 72.9071 80.1679C72.9071 77.2348 70.5294 74.8571 67.5963 74.8571C64.6632 74.8571 62.2855 77.2348 62.2855 80.1679C62.2855 83.1009 64.6632 85.4786 67.5963 85.4786Z" fill="#FEFEFE"></path>
  </g>
  <defs>
    <clipPath id="clip0_12_238">
      <rect width="104" height="104" fill="white"></rect>
    </clipPath>
  </defs>
</svg>
