<?xml version="1.0" encoding="UTF-8"?>
<svg xmlns="http://www.w3.org/2000/svg" width="104" height="104" viewBox="0 0 104 104" fill="none">
  <g clip-path="url(#clip0_31_4124)">
    <path fill-rule="evenodd" clip-rule="evenodd" d="M102.7 51.991C102.7 80.0083 80.0084 102.7 51.991 102.7C23.9917 102.7 1.2998 80.0083 1.2998 51.991C1.2998 24.0097 23.9917 1.29977 51.991 1.29977C80.0084 1.29977 102.7 24.0097 102.7 51.991Z" fill="#8A5CC4"></path>
    <path fill-rule="evenodd" clip-rule="evenodd" d="M52.009 83.691C54.5003 82.6982 60.7464 78.2031 62.8946 76.2173L64.3208 74.9717C65.6567 73.7983 67.0106 72.2278 68.2021 70.928L70.5128 68.0035C74.8273 62.0101 77.8782 55.7098 79.557 47.9833C80.1889 45.0408 80.6943 41.8455 80.8568 38.7225C80.9471 36.9894 81.1095 29.9129 80.5138 28.6853L52.0271 19.984L52.009 83.691Z" fill="#FEFEFE"></path>
    <path fill-rule="evenodd" clip-rule="evenodd" d="M20.309 26.158C25.5803 24.4791 30.8516 22.8905 36.141 21.3019C40.0583 20.1465 44.1923 18.7745 48.0556 17.6733C53.1644 16.193 50.7815 16.0847 56.0347 17.6914C59.916 18.8648 64.0681 20.2187 67.8771 21.3019C72.9318 22.728 78.5461 24.5874 83.7271 26.1399C85.5324 39.8778 81.9761 54.2114 76.091 64.3749C74.2135 67.5883 71.2529 71.7945 68.6173 74.5746L64.9346 78.167C64.6457 78.4017 64.4833 78.6003 64.1583 78.853C62.4794 80.1708 61.4866 81.1817 59.2842 82.7162C58.3996 83.3119 52.7311 87.1029 52.0812 87.1752C51.4314 87.2474 45.6004 83.33 44.7881 82.7523C43.6869 81.9761 41.6108 80.4055 40.6541 79.5209L38.3434 77.5171C38.0726 77.2644 37.9101 77.0116 37.6213 76.7589C36.5562 75.7841 34.9856 74.0871 34.0288 73.004C31.9347 70.6211 29.6962 67.3355 27.9993 64.5013C21.7893 54.1212 18.4857 38.4156 20.309 26.158ZM16.5541 22.9627C15.164 31.1585 15.6334 39.1918 17.2401 47.2071C18.7204 54.5003 21.3199 60.6561 24.5333 66.3968C26.1399 69.2671 28.0715 71.957 29.9309 74.2496L31.8084 76.5062C32.0431 76.7228 32.0431 76.7047 32.2236 76.9214L35.4911 80.2611L43.723 86.9405C44.6798 87.5904 51.3772 91.8327 52.009 91.8327C52.7131 91.8327 59.2842 87.5904 60.2951 86.9405C61.5768 86.1281 66.4871 82.3371 67.6966 81.1095C68.4367 80.3513 71.271 77.6615 71.8125 76.9394L74.1052 74.2677C76.0188 71.8486 77.7879 69.3574 79.4848 66.4149C86.3989 54.5003 89.9733 38.8308 87.482 22.9446C86.1642 22.4211 84.4492 21.9879 83.0592 21.5726C74.3038 18.8828 65.1693 16.0306 56.4138 13.431C50.8898 11.7882 53.2366 11.6799 47.5862 13.4491C46.142 13.9004 44.6256 14.3697 43.1634 14.803C40.1847 15.6695 37.2602 16.6263 34.2816 17.5108L20.9589 21.5726C19.8035 21.9517 17.5289 22.4753 16.5541 22.9627Z" fill="#FEFEFE"></path>
  </g>
  <defs>
    <clipPath id="clip0_31_4124">
      <rect width="104" height="104" fill="white"></rect>
    </clipPath>
  </defs>
</svg>
