<?xml version="1.0" encoding="UTF-8"?>
<svg xmlns="http://www.w3.org/2000/svg" width="104" height="104" viewBox="0 0 104 104" fill="none">
  <g clip-path="url(#clip0_25_3739)">
    <path d="M102.703 52C102.703 79.9969 79.9969 102.703 52 102.703C24.0031 102.703 1.29747 79.9969 1.29747 52C1.29747 24.0031 24.0031 1.29745 52 1.29745C79.9969 1.29745 102.703 24.0031 102.703 52Z" fill="#8A5CC4"></path>
    <path d="M19.0971 71.7864C20.3135 72.6581 21.5906 73.5501 22.9489 74.0975C26.6791 75.5774 30.3283 75.7801 33.5719 72.8811C34.2409 72.2729 35.8628 71.3809 35.9033 71.4417C34.4842 73.0838 33.5517 75.3138 32.0109 77.1992C31.9298 77.3209 31.7676 77.4425 31.8285 77.5641C31.9096 77.706 32.4164 77.5844 32.5583 77.5439C34.3018 77.2195 35.437 76.8749 36.917 76.5505C40.8094 75.699 43.6273 73.246 46.1209 70.0226C47.986 67.5899 49.9524 65.1977 51.8581 62.7852C52.1419 62.4405 52.9934 61.9337 53.115 62.0148C51.6351 64.6503 51.0877 69.009 49.6483 72.1107C49.5267 72.4148 49.77 72.7392 50.0943 72.6581C62.8866 69.7185 69.0292 59.2172 73.3879 47.54C72.7797 51.6959 71.6039 55.3045 70.1037 59.0955C70.0632 59.1766 69.9213 59.501 70.0226 59.6023C70.1645 59.724 70.57 59.4402 70.6511 59.3793C75.5571 56.3789 77.3411 51.9797 78.071 45.9992C78.5778 46.3439 79.9766 49.993 80.4226 51.1283C80.5037 51.331 80.747 51.5337 80.7875 51.2702C80.8078 49.993 79.5712 44.6004 79.5712 43.4043C80.5037 43.7287 82.1458 46.2019 83.1189 46.7899C83.4433 46.9926 83.4433 46.7899 83.3825 46.7088C82.7135 44.8437 81.7404 39.8565 81.2133 38.2144C81.0916 37.8292 81.0713 37.2413 81.2944 36.9575C83.7474 33.43 85.5719 30.9162 88.0655 27.4292L88.2682 26.6183C87.0113 26.4561 85.7949 25.7871 84.8218 27.632C82.308 32.4569 79.4495 37.0994 75.5368 40.8702C62.7041 53.2569 48.6347 63.2312 31.2811 66.0491C27.2873 66.6979 23.2936 66.9614 19.2998 65.9072C18.6713 65.745 18.5497 65.2179 19.9485 65.5018C20.1715 65.5423 21.3068 65.6437 21.4082 65.6437C21.6515 65.6437 21.7326 65.6234 21.9758 65.6234C32.5786 65.4004 40.9513 62.9474 50.2971 57.7778C59.6429 52.6082 68.1575 46.3844 75.0706 38.032C75.5368 37.4643 75.4355 36.5926 74.8678 36.106C73.5501 35.0316 72.0296 33.4097 70.8741 32.6799C70.8538 32.6596 70.8335 32.6394 70.793 32.6191C70.6308 32.5583 70.6713 32.7813 70.6713 32.7813C70.6713 32.8016 70.6916 32.8218 70.6916 32.8421C71.0768 33.653 72.1513 35.4573 72.4148 36.025L65.6639 34.3828C65.6234 34.3828 65.4409 34.4842 65.6031 34.6058C65.745 34.7072 69.3131 37.1805 70.2862 39.0862C66.4749 38.7618 63.6367 37.7076 59.8659 37.6468C56.1154 37.586 51.777 37.8901 47.9049 39.1673C47.8238 39.1875 47.6819 39.37 48.0468 39.4511C49.8308 39.8565 50.8647 41.7419 52.2636 42.3704C52.2636 42.492 39.4105 41.4986 28.8686 48.5131C28.7064 48.6144 28.7673 48.878 28.9497 48.8982C34.8694 49.7092 41.9244 51.5135 46.952 54.9193C46.5466 55.0207 46.1411 54.9801 45.7559 54.899C43.6476 54.3922 41.5392 53.8651 39.4308 53.3786C32.3353 51.7567 25.8277 52.9326 19.9891 57.4534C17.8807 59.0955 16.6035 61.2242 15.9345 63.7988C15.1844 66.8195 16.563 69.9821 19.0971 71.7864Z" fill="white"></path>
  </g>
  <defs>
    <clipPath id="clip0_25_3739">
      <rect width="104" height="104" fill="white"></rect>
    </clipPath>
  </defs>
</svg>
