<?xml version="1.0" encoding="UTF-8"?>
<svg xmlns="http://www.w3.org/2000/svg" width="104" height="104" viewBox="0 0 104 104" fill="none">
  <g clip-path="url(#clip0_35_263)">
    <path d="M102.7 52C102.7 80.0119 80.012 102.7 52.0001 102.7C24.0036 102.7 1.30005 80.0119 1.30005 52C1.30005 24.0036 24.0036 1.3 52.0001 1.3C80.012 1.3 102.7 24.0036 102.7 52Z" fill="#8A5CC4"></path>
    <path d="M68.0643 39.2167L63.7464 35.3786L65.9131 34.4191L64.6286 34.7131L63.8702 35.2548L65.9131 34.4191L64.6286 34.7131L65.9131 34.4036L63.8857 35.2548L64.6286 34.7131L65.9131 34.4036H65.9286V40.1762H65.9131L67.2131 39.8822L67.956 39.3405L65.9131 40.1762L67.2131 39.8822L67.956 39.3405L67.1976 39.8822L65.9131 40.1762L67.956 39.3405L67.1976 39.8822L65.9131 40.1762L67.956 39.3405L65.9131 40.1917L68.0643 39.2167ZM63.7464 35.3786L64.6131 34.4191H65.9131L63.7464 35.3786ZM67.6 39.6345L64.1798 34.9917L63.9941 35.1464L64.5976 34.7286L63.8548 35.2703L63.3131 36.0286L64.5976 34.7286L63.8548 35.2703L64.6131 34.7286L64.9845 34.5738L64.3036 34.8988L63.8548 35.2703L64.6131 34.7286L63.8702 35.2703V35.2548L63.7464 35.3786L68.0643 39.2167L67.9405 39.3405L67.5071 39.7119L66.8107 40.0369L67.1821 39.8822L67.9405 39.3405V39.356L66.8107 40.0524L67.925 39.356L67.1821 39.8976L68.4667 38.5976L67.925 39.356L67.1821 39.8976L67.7857 39.4798L67.6 39.6345ZM67.7857 39.4798L67.7083 39.5572L67.6 39.6345L67.7857 39.4798ZM66.7488 40.1453L64.2262 34.9607L64.2572 34.9453H64.2417L64.1952 34.9762L64.2262 34.9607L64.2417 34.9453L64.2107 34.9762L64.2262 34.9607H64.2107L64.1952 34.9762L64.1488 35.0072L64.1643 34.9917L64.2107 34.9607L64.1798 34.9917L67.6 39.6345L67.5845 39.65L67.5381 39.681L67.4917 39.7119L67.5071 39.6964L67.4298 39.7584L67.3988 39.7738V39.7893L67.3524 39.8048L67.3369 39.8203H67.3214L67.2905 39.8512H67.275L67.2441 39.8822L67.2131 39.8976L67.1667 39.9286L67.1357 39.9441H67.1202L67.0893 39.975H67.0738L67.0119 40.006L66.9964 40.0214L66.9655 40.0369L66.8726 40.0833L66.8417 40.0988L66.7952 40.1143V40.1298L66.7333 40.1607L66.7024 40.1762L66.7488 40.1453ZM44.4167 51.2417L41.8476 46.0726L42.3274 45.8405L42.8536 45.5774L43.4417 45.2834L44.0762 44.9738L44.7571 44.6334L45.4691 44.2619L46.2274 43.8905L47.0167 43.5036L47.8369 43.0857L48.6881 42.6679L49.5393 42.25L50.4214 41.8167L51.3036 41.3679L52.1857 40.9345L53.0833 40.4857L53.9655 40.0369L54.8631 39.6036L55.7298 39.1703L56.581 38.7524L57.4167 38.3345L58.2214 37.9322L58.9952 37.5453L59.7381 37.1738L60.45 36.8179L61.1155 36.4929L61.7345 36.1833L62.3071 35.9048L62.8179 35.6572L63.2667 35.425L63.6536 35.2393L63.9786 35.0845L64.2262 34.9607L66.7488 40.1453L66.5012 40.2691L66.1917 40.4238L65.8202 40.6095L65.3714 40.8262L64.8607 41.0738L64.2881 41.3524L63.6845 41.6619L63.0191 41.9869L62.3071 42.3429L61.5643 42.7143L60.7905 43.1012L59.9857 43.5036L59.15 43.906L58.2988 44.3393L57.4167 44.7726L56.55 45.206L55.6524 45.6548L54.7548 46.0881L53.8726 46.5369L52.9905 46.9703L52.1083 47.4036L51.2571 47.8369L50.406 48.2548L49.6012 48.6572L48.8119 49.0595L48.0536 49.431L47.3262 49.7869L46.6452 50.1274L46.0107 50.4524L45.4226 50.731L44.8964 51.0095L44.4321 51.2417H44.4167ZM43.1322 51.8762L40.4393 46.7691L40.5012 46.7536L40.4548 46.7691L40.5012 46.7381L40.5786 46.7072L40.5321 46.7381L40.5476 46.7226L40.5786 46.7072L40.625 46.6917V46.6762L40.6714 46.6607L40.7024 46.6453L40.7179 46.6298L40.7798 46.6143L40.8107 46.5834L40.8417 46.5679L40.9036 46.5524L40.9655 46.5214L41.0119 46.4905L41.0429 46.475L41.0893 46.4441L41.1667 46.4131L41.2286 46.3822L41.2905 46.3512L41.3524 46.3203L41.4143 46.2893L41.4762 46.2583L41.5536 46.2119L41.631 46.181L41.6929 46.15L41.7702 46.1191L41.8476 46.0726L44.4167 51.2417L44.3548 51.2726L44.2774 51.3191L44.1845 51.35L44.1071 51.3964L44.0607 51.4274L43.9833 51.4584L43.9214 51.4893L43.8441 51.5203L43.7822 51.5512L43.7357 51.5822L43.6893 51.5976L43.6274 51.6286L43.5655 51.6595L43.5191 51.6905L43.4726 51.706L43.4417 51.7214L43.3798 51.7524L43.3488 51.7679L43.3179 51.7833L43.2714 51.8143L43.2405 51.8298H43.225L43.1786 51.8607H43.1631L43.1322 51.8762L43.1167 51.8917L43.0393 51.9226L43.0857 51.9072L43.1322 51.8762ZM40.4393 46.7691H40.4702L40.5012 46.7536L40.4393 46.7691ZM42.6833 52.0774L39.9905 46.9857L40.0214 46.9703L40.0988 46.9238L40.1298 46.9083L40.0833 46.9393L40.1762 46.8929L40.2226 46.8774H40.2071L40.2381 46.8619H40.2536L40.2845 46.8464L40.3155 46.831L40.3619 46.8155L40.3929 46.8L40.4083 46.7845H40.4393H40.4238L40.4393 46.7691H40.4548L40.4857 46.7536L40.4393 46.7845H40.4238L40.4548 46.7691H40.4393L43.1322 51.8762L43.0857 51.9072L43.0238 51.9381H43.0083L42.9774 51.9536L42.9155 51.9845L42.8536 52.0155L42.7607 52.0619H42.7452L42.6833 52.0929L42.6369 52.1083L42.5905 52.1238L42.575 52.1393H42.5905V52.1238H42.606H42.6214L42.575 52.1393L42.5905 52.1238H42.606L42.6679 52.0929L42.6833 52.0774ZM39.9905 46.9857L40.0214 46.9703L40.0524 46.9548L39.9905 46.9857ZM41.7238 52.4798L39.8512 47.0167L40.0524 46.9548L40.0369 46.9703H40.006H40.0214L40.006 46.9857L39.9595 47.0012L39.9905 46.9857L40.006 46.9703V46.9857H39.975L39.9595 47.0012L39.9905 46.9857L40.006 46.9703L39.975 46.9857L39.9441 47.0012L39.9905 46.9857L40.006 46.9703L39.9595 47.0012L39.9905 46.9857L40.006 46.9703H40.0214L40.006 46.9857H39.9905L42.6833 52.0774L42.6524 52.1083L42.5905 52.1238L42.575 52.1393H42.5595L42.5441 52.1548L42.4667 52.1857L42.4512 52.2012L42.4048 52.2322L42.3274 52.2631H42.3119L42.25 52.2941L42.2191 52.3095L42.1571 52.325L42.1262 52.3405L42.0798 52.356L42.0643 52.3714L41.9869 52.3869L41.9405 52.4179H41.925L41.8941 52.4334L41.8321 52.4488L41.7857 52.4643H41.7702L41.7393 52.4798L41.6774 52.4953L41.631 52.5107H41.6155L41.5536 52.5417H41.5226L41.7238 52.4798ZM39.8512 47.0167L39.9595 46.9857L40.0524 46.9548L39.8512 47.0167ZM40.5321 52.6964V46.9238L40.0369 46.9703L39.9905 46.9857L40.0214 46.9703H40.0524L39.9595 46.9857L40.0988 46.9548L39.9905 46.9857H40.006L39.9286 47.0012H39.9441L40.0214 46.9703L39.9286 47.0012L39.9595 46.9857L39.8667 47.0167L39.9131 47.0012H39.9441L39.8667 47.0167L39.8357 47.0322L39.8512 47.0167L41.7238 52.4798L41.6774 52.4953L41.5845 52.5262H41.6L41.5536 52.5417L41.5691 52.5262L41.4607 52.5572L41.4298 52.5726L41.3214 52.6036L41.3833 52.5726V52.5881L41.2905 52.6036H41.275L41.1512 52.6345H41.1357L41.2595 52.6191H41.2441L41.1357 52.6345H41.1048V52.65L40.981 52.6655L41.0738 52.65L41.0119 52.6655L40.5321 52.6964ZM41.0119 52.6655L40.7643 52.6964H40.5321L41.0119 52.6655ZM40.5167 46.9238H40.5321V52.6964H40.5167L40.0833 46.9703L40.5167 46.9238ZM40.0833 46.9703L40.3 46.9238H40.5167L40.0833 46.9703ZM40.8262 52.681L40.0369 46.9703L39.9441 46.9857L40.1143 46.9548L39.7429 47.0322L39.8202 47.0167L40.1298 46.9548L40.0833 46.9703L39.7429 47.0322H39.7583L40.1143 46.9548L39.7738 47.0322L39.8512 47.0012L40.1607 46.9548H40.1143L39.7738 47.0167L40.1298 46.9548L39.8048 47.0167L40.1762 46.9548H40.1917L40.0833 46.9703L40.9345 52.6655L40.8262 52.681H40.8107L41.1976 52.6191L40.8571 52.681L41.1821 52.6191L40.8417 52.681L40.7952 52.6964L41.1048 52.6345L41.1667 52.6191L40.8107 52.681L41.1512 52.6191L40.8107 52.6964H40.7643L41.0738 52.65L41.1357 52.6345L40.7488 52.6964L40.9191 52.681H40.8262ZM40.9191 52.681H40.8726H40.8262H40.9191ZM38.2726 52.0774V46.3048L40.0524 46.9238L40.0833 46.9393L40.0988 46.9548L40.1143 46.9703H40.1298H40.1452V46.9857L40.1143 46.9703H40.0833H40.0679H40.0524H40.0369L40.8262 52.681L40.6714 52.7119L40.5167 52.7274H40.3619L40.2071 52.7429H40.0524H39.9131L39.7429 52.7274L39.5881 52.7119L39.4488 52.6964L39.2941 52.681L39.1548 52.6655L39 52.6345L38.8452 52.6036L38.706 52.5726L38.5667 52.5262L38.4429 52.4953L38.3036 52.4488L38.1643 52.4024L38.025 52.356L37.9012 52.2941L37.7619 52.2322L37.6381 52.1857L37.5143 52.1238L37.3905 52.0619L37.2821 51.9845L37.1583 51.9226L37.0345 51.8453L36.9262 51.7833L36.8179 51.706L36.7095 51.6286L36.6012 51.5512L36.4929 51.4738L38.2726 52.0774ZM38.2726 46.3048H39.2631L40.0524 46.9238L38.2726 46.3048ZM38.2726 46.3048V52.0774L36.4929 51.4584L38.2726 46.3048ZM38.2726 52.0774H37.2667L36.4929 51.4584L38.2726 52.0774ZM33.8619 46.2893L39.6191 46.1345V46.15V46.1655V46.181L39.6345 46.1964V46.2119V46.2429V46.2583L39.65 46.2893V46.3203V46.3357L39.6655 46.3667L39.681 46.3976V46.4131L39.6964 46.4441L39.7119 46.4905L39.7274 46.5214L39.7429 46.5369L39.7583 46.5679L39.7738 46.5988L39.7893 46.6298L39.8048 46.6607L39.8202 46.6762L39.8512 46.7226L39.8667 46.7381L39.8821 46.7691L39.9131 46.7845L39.9286 46.8155L39.9441 46.831L39.975 46.8619L39.9905 46.8774L40.006 46.8929L40.0214 46.9083L40.0524 46.9238L36.4929 51.4584L36.3381 51.35L36.1988 51.2262L36.0595 51.1024L35.9202 50.9631L35.7964 50.8393L35.6726 50.7L35.5488 50.5607L35.425 50.4214L35.3012 50.2667L35.1929 50.1274L35.1 49.9881L34.9917 49.8334L34.8833 49.6786L34.7905 49.5238L34.6976 49.3536L34.6202 49.1988L34.5274 49.0286L34.45 48.8583L34.3881 48.7036L34.3107 48.5179L34.2488 48.3476L34.1869 48.1774L34.125 47.9917L34.0786 47.806L34.0321 47.6203L33.9857 47.4345L33.9548 47.2488L33.9238 47.0631L33.8929 46.8619L33.8774 46.6607L33.8619 46.475V46.2738V46.2893ZM39.6191 46.1345V46.15V46.0726V46.1345ZM34.3262 44.5405H40.0988L39.6036 46.15H39.6191V46.1345V46.1191V46.1036V46.1345L33.8619 46.2893L33.8464 46.181V46.0881L33.8619 45.9643V45.856V45.7631L33.8774 45.6393V45.5619L33.8929 45.4536L33.9083 45.3298L33.9238 45.2369L33.9393 45.1286L33.9548 45.0048L33.9857 44.9119L34.0012 44.8036L34.0321 44.6953L34.0631 44.5869L34.0941 44.4941L34.125 44.3703L34.156 44.2619L34.2024 44.1536L34.2333 44.0607L34.2798 43.9524L34.3262 43.8441L34.3726 43.7512L34.4036 43.6429L34.4655 43.5345L34.5274 43.4262L34.5738 43.3179L34.6202 43.2405L34.6821 43.1322L34.7595 43.0238L34.8214 42.931L34.3262 44.5405ZM40.0988 44.5405V45.4226L39.6036 46.15L40.0988 44.5405ZM40.0988 44.5405H34.3262L35.1774 42.4976L40.0988 44.5405ZM34.3262 44.5405V43.3488L35.1774 42.4976L34.3262 44.5405ZM34.775 42.9929L39.6655 46.0572L38.381 47.156L38.1333 47.2643L39.2631 46.5679L39.8048 45.8095V45.825L39.2631 46.5679L39.7893 45.825L38.5048 47.125L39.2476 46.5834L35.1774 42.4976L35.9202 41.956L34.6357 43.2405L34.481 43.6274V43.6119L34.6357 43.2405L35.1774 42.4822L36.3071 41.7857L36.075 41.8786L34.775 42.9929ZM39.6655 46.0572L39.2012 46.8L38.381 47.156L39.6655 46.0572ZM35.1619 42.4667L39.6345 46.1191L39.5726 46.181L39.6191 46.1345L39.5571 46.1964V46.2119L39.6345 46.1036L39.5881 46.1655L39.5417 46.2274L39.6191 46.1191V46.1345L39.5726 46.181L39.6036 46.15L39.5881 46.1655L39.6655 46.0572L39.6345 46.1191L39.5726 46.181L39.6191 46.1191V46.1345L39.65 46.0881L39.6036 46.15L39.6345 46.1191L39.6655 46.0572L39.6345 46.1036V46.1191L39.65 46.0726V46.0881L39.6964 46.0262L39.65 46.0726L39.6036 46.15L39.681 46.0417L39.6655 46.0572L34.775 42.9929L34.7905 42.9774L34.8679 42.8536L34.8214 42.9155L34.806 42.9619L34.8524 42.8845V42.8691L34.8988 42.8226V42.8072L34.8679 42.8536L34.9143 42.7762L34.9607 42.7298L34.9143 42.7917L34.9298 42.7607L34.9762 42.6988L35.0381 42.6214L34.9917 42.6833L34.9607 42.7298L35.0536 42.606V42.5905L35.1 42.5286L35.0691 42.575H35.0845L35.1774 42.4512L35.131 42.4976L35.1 42.5441L35.1929 42.4357V42.4203L35.1464 42.4822L35.2083 42.4203L35.2238 42.4048L35.1619 42.4667ZM39.6345 46.1191L39.6036 46.15L39.5726 46.181L39.6345 46.1191ZM36.7095 41.1357L39.7429 46.0417L39.7274 46.0572H39.7119L39.6964 46.0726H39.681L39.6655 46.0881H39.65V46.1036L39.6191 46.1345L39.6345 46.1036V46.1191L35.1619 42.4667L35.2083 42.4203L35.2548 42.3584L35.2857 42.3274L35.3167 42.281L35.3631 42.2345L35.4095 42.1726L35.456 42.1262L35.5024 42.0953L35.5488 42.0333L35.5798 42.0024L35.6417 41.956L35.7036 41.8941L35.7191 41.8631L35.781 41.8167L35.8274 41.7703L35.8738 41.7393L35.9202 41.6929L35.9667 41.6464L36.0286 41.6L36.0905 41.5691L36.1369 41.5226L36.1988 41.4762L36.2298 41.4453L36.2762 41.4143L36.3536 41.3679L36.4 41.3369L36.4464 41.306L36.4929 41.2595L36.5702 41.2131L36.6321 41.1822L36.6631 41.1512L36.725 41.1203L36.7095 41.1357ZM37.6071 40.625L40.95 45.3298L40.7024 45.4845L40.656 45.5L40.6405 45.5155L40.5941 45.5464L40.5321 45.5774L40.5012 45.5929L40.4702 45.6083L40.4238 45.6393L40.4083 45.6548L40.3619 45.6857L40.3155 45.7012H40.3L40.2536 45.7322L40.2226 45.7631H40.2071L40.1607 45.7941L40.1298 45.8095L40.0988 45.825L40.0524 45.856H40.0369L40.0214 45.8714L39.9905 45.8869L39.975 45.9024L39.9286 45.9179L39.9131 45.9334L39.8821 45.9488L39.8357 45.9798L39.8512 45.9643L39.8202 45.9953L39.7893 46.0107L39.7583 46.0262L39.7429 46.0417L36.7095 41.1357L36.7405 41.1048H36.756L36.8024 41.0738L36.8333 41.0429H36.8643L36.9262 40.9964L36.9417 40.981H36.9571L37.0036 40.95L37.0345 40.9345L37.0655 40.9191L37.1119 40.8881L37.1429 40.8726L37.1893 40.8417L37.2202 40.8262L37.2512 40.8107L37.2821 40.7798H37.2976L37.3595 40.7488L37.3905 40.7179H37.4214L37.4679 40.6869L37.5143 40.656L37.5298 40.6405L37.5917 40.6095L37.6226 40.5941L37.6536 40.5786L37.7155 40.5476L37.731 40.5322L37.7619 40.5167L37.8238 40.4857L37.8548 40.4703L37.6071 40.625ZM40.95 45.3298L40.8262 45.4072L40.7024 45.4845L40.95 45.3298ZM40.981 45.2988L40.95 45.3298L37.6071 40.625L37.6381 40.5941L37.9941 40.3774L40.981 45.2988ZM37.6381 40.5941L37.8083 40.4703L37.9941 40.3774L37.6381 40.5941ZM39.5881 39.5726L42.1881 44.7107H42.2036L42.1417 44.7417L42.0798 44.7726L42.0179 44.8036L41.956 44.8345L41.8941 44.8655L41.8321 44.8964L41.7857 44.9274L41.7238 44.9583L41.6619 44.9893L41.6 45.0203L41.5536 45.0357L41.5071 45.0667L41.4452 45.0976L41.4143 45.1131L41.3524 45.1441L41.2905 45.175L41.2441 45.206L41.1976 45.2214L41.1667 45.2369L41.1202 45.2679L41.0583 45.2988L41.0119 45.3143L40.981 45.3453L40.9191 45.3607L40.8881 45.3917L40.8571 45.4072L40.8262 45.4226L40.7798 45.4381L40.7333 45.4691H40.7024L40.6714 45.5L40.625 45.5155L37.9941 40.3774L38.025 40.3619L38.056 40.3464L38.1179 40.3155L38.1488 40.3L38.1798 40.2845L38.2262 40.2691L38.2726 40.2381L38.3191 40.2226L38.35 40.2072L38.3964 40.1762L38.4429 40.1607L38.4738 40.1453L38.5202 40.1143L38.5821 40.0833L38.6286 40.0524L38.675 40.0369L38.7214 40.006L38.7679 39.9905L38.8452 39.9441L38.8917 39.9286L38.9381 39.8976L39 39.8667L39.0464 39.8512L39.0929 39.8203L39.1548 39.7893L39.2167 39.7584L39.2786 39.7274L39.3405 39.6964L39.3869 39.6655L39.4488 39.6345L39.5107 39.6036L39.5726 39.5726H39.5881ZM39.5726 39.5726H39.5881L39.4333 39.65L39.5726 39.5726ZM58.6857 30.1012L60.9917 35.3941L61.0691 35.3631L60.5893 35.5798L60.0786 35.8274L59.5524 36.0905L58.9952 36.3536L58.4226 36.6322L57.8345 36.9107L57.231 37.2048L56.6119 37.5143L55.9774 37.8238L55.3274 38.1333L54.6774 38.4584L54.0119 38.7833L53.3464 39.1238L52.681 39.4488L52.0155 39.7738L51.35 40.1143L50.6845 40.4393L50.0191 40.7798L49.3691 41.1048L48.7191 41.4298L48.0691 41.7548L47.45 42.0643L46.831 42.3738L46.2274 42.6833L45.6548 42.9619L45.0821 43.256L44.5405 43.5345L44.0143 43.7976L43.5191 44.0453L43.0548 44.2774L42.606 44.5095L42.1881 44.7107L39.5881 39.5726L40.006 39.356L40.4393 39.1393L40.9191 38.8917L41.4143 38.6441L41.9405 38.381L42.4822 38.1024L43.0548 37.8238L43.6429 37.5298L44.231 37.2203L44.85 36.9107L45.4845 36.5857L46.1345 36.2762L46.7845 35.9512L47.4345 35.6107L48.1 35.2857L48.7655 34.9453L49.4464 34.6203L50.1119 34.2798L50.7929 33.9548L51.4583 33.6143L52.1238 33.2893L52.7738 32.9643L53.4238 32.6393L54.0738 32.3298L54.6929 32.0203L55.3119 31.7262L55.9 31.4322L56.4881 31.1536L57.0452 30.8905L57.5869 30.6274L58.1131 30.3798L58.6083 30.1476L58.6857 30.1012ZM58.6083 30.1476L58.6548 30.1167L58.6857 30.1012L58.6083 30.1476ZM58.7012 30.0857L61.1619 35.3167L61.3941 35.1774H61.4095L61.2083 35.2857L61.3941 35.1929L61.3167 35.2393H61.3012L61.3941 35.1929L61.1929 35.3012L61.3012 35.2393H61.2857L61.1774 35.3012L61.2857 35.2548L61.0536 35.3631L61.1619 35.3167L60.9452 35.4095L61.0381 35.3786L61.2702 35.2548L61.1464 35.3167L60.9143 35.425L60.9917 35.3941L58.6857 30.1012L58.7631 30.0703L58.5464 30.1631L58.7786 30.0703L58.5619 30.1631L58.7941 30.0548L58.5774 30.1631L58.4691 30.2095L58.7012 30.1012L58.7941 30.0548L58.5774 30.1476H58.5929L58.7012 30.1012L58.4845 30.2095L58.5929 30.1476L58.4845 30.1941H58.5L58.6083 30.1476V30.1322L58.4226 30.2405L58.6238 30.1322L58.4381 30.2405V30.225H58.4536L58.7012 30.0857ZM58.4536 30.225L58.5774 30.1476L58.7012 30.0857L58.4536 30.225ZM61.3786 28.8941L63.5452 34.2334L63.4988 34.2488L63.4524 34.2798H63.4214L63.3595 34.3107L63.3131 34.3262L63.2667 34.3572L63.2048 34.3726L63.1274 34.4036L63.081 34.4345L63.0191 34.4655L62.9572 34.481L62.8952 34.5119L62.8024 34.5583L62.7405 34.5738L62.6786 34.6203L62.6012 34.6512L62.5238 34.6822L62.431 34.7131L62.3536 34.7595L62.2762 34.7905L62.1833 34.8369L62.106 34.8679L62.0131 34.9143L61.9202 34.9607L61.8429 34.9917L61.75 35.0381L61.6417 35.0845L61.5488 35.131L61.456 35.1774L61.3476 35.2238L61.2548 35.2703L61.1619 35.3167L58.7012 30.0857L58.8095 30.0393L58.9179 29.9929L59.0107 29.9464L59.1191 29.9L59.2119 29.8536L59.3048 29.8072L59.4131 29.7607L59.506 29.7143L59.5988 29.6679L59.6917 29.6369L59.7845 29.5905L59.8774 29.5441L59.9548 29.5131L60.0476 29.4667L60.125 29.4357L60.2179 29.3893L60.2952 29.3583L60.3881 29.3119L60.4655 29.281L60.5429 29.25L60.6202 29.2036L60.6976 29.1726L60.775 29.1417L60.8524 29.1107L60.9143 29.0798L60.9762 29.0488L61.0536 29.0179L61.131 28.9869L61.1929 28.9714L61.2548 28.9405L61.3167 28.9095L61.3786 28.8786V28.8941ZM65.9286 40.1762V34.4036L64.2262 34.9607L64.2107 34.9762L64.1798 34.9917L64.1643 35.0226L64.1488 35.0536L64.1333 35.0845V35.0691V35.0381V34.9762L64.1179 34.9143V34.8524L64.0869 34.775L64.0714 34.6822L64.025 34.6048L63.9941 34.5274L63.9476 34.45L63.9012 34.3726L63.8548 34.3262L63.8083 34.2798L63.7774 34.2334L63.7464 34.2179L63.7155 34.2024L63.7 34.1869H63.6845L63.6381 34.2024L63.5452 34.2334L61.3786 28.8941L61.9667 28.6774L62.5857 28.5226L63.2048 28.4453L63.8083 28.4143L64.4119 28.4607L65 28.5691L65.5726 28.7238L66.0988 28.9405L66.5941 29.2036L67.0583 29.4976L67.4917 29.8226L67.8786 30.1786L68.2191 30.55L68.5441 30.9524L68.8226 31.3703L69.0857 31.8036L69.3024 32.2369L69.4881 32.7012L69.6429 33.181L69.7512 33.6607L69.8441 34.156L69.8905 34.6667L69.906 35.1774L69.8595 35.7036L69.7822 36.2453L69.6429 36.7714L69.4572 37.2976L69.2095 37.8238L68.9 38.3345L68.5286 38.7988L68.0952 39.2476L67.6155 39.6345L65.9286 40.1762ZM67.6155 39.6345L66.8572 40.1762H65.9286L67.6155 39.6345Z" fill="#8A5CC4"></path>
    <path d="M65.9285 37.2976C65.913 37.2976 65.913 37.2976 65.913 37.2976C65.8976 37.2976 65.8976 37.3131 65.8821 37.3131C65.7583 37.406 65.619 37.4834 65.4797 37.5607C63.2976 38.6131 47.8368 46.3048 43.1321 48.6572C42.2809 49.075 41.7857 49.3226 41.7857 49.3226C41.6154 49.4155 41.4452 49.4774 41.3368 49.5238C41.1666 49.6322 40.9654 49.7095 40.7952 49.756C40.7023 49.7869 40.6095 49.8024 40.5321 49.8179H40.5166C40.4857 49.8179 40.4547 49.8179 40.4237 49.8334C39.6345 49.9417 38.8916 49.6786 38.2726 49.1988C37.3749 48.5024 36.7714 47.3417 36.7404 46.2119C36.7249 45.6393 36.8642 45.0512 37.2047 44.5405C37.2202 44.5405 37.2202 44.525 37.2202 44.525C37.2821 44.4476 37.3285 44.3703 37.3904 44.2929C37.6071 44.0298 37.8857 43.7976 38.2261 43.581C38.4892 43.4262 38.8452 43.225 39.2785 42.9774L39.3095 42.9464C39.6809 42.7607 40.2226 42.4822 40.888 42.1417C45.144 39.975 54.7702 35.1464 59.8309 32.7476C59.8618 32.7322 59.8928 32.7167 59.9237 32.7012C61.038 32.175 61.9202 31.7881 62.4618 31.556C66.0833 30.0857 68.544 35.3941 65.9285 37.2976Z" fill="white"></path>
    <path d="M68.0334 37.5143L63.6072 43.2095L63.4989 37.5917L63.5453 37.5607L63.5608 37.5453L63.5917 37.5143L63.6227 37.4834L63.6381 37.4679L63.6846 37.4369L63.7155 37.406L63.7465 37.375L63.7774 37.3441L63.7929 37.3286L63.8239 37.3131L63.8703 37.2667L63.8858 37.2512L63.9167 37.2357L63.9477 37.1893L63.9786 37.1738L63.9941 37.1429L64.0405 37.1119L64.056 37.0965L64.0715 37.0655L64.1179 37.0345L64.1489 37.0036L64.1643 36.9881L64.1798 36.9726L64.2262 36.9262L64.2572 36.8953L64.2727 36.8643L64.3036 36.8334L64.35 36.7869L64.381 36.7715L64.3965 36.756L69.6119 41.7238L69.5655 41.7703L69.5191 41.8167L69.5036 41.8322L69.4727 41.8631L69.4262 41.9095L69.3798 41.9715L69.3334 42.0179L69.3024 42.0488L69.256 42.0798L69.1941 42.1417L69.1631 42.1726L69.1322 42.2191L69.0858 42.2655L69.0238 42.3119L68.9929 42.3429L68.9465 42.3893L68.9 42.4357L68.8536 42.4822L68.7917 42.5286L68.7453 42.575L68.7143 42.606L68.6679 42.6524L68.606 42.7143L68.5441 42.7607L68.4977 42.8072L68.4512 42.8536L68.4048 42.8845L68.3429 42.931L68.2965 42.9774L68.25 43.0238L68.1881 43.0703L68.1262 43.1167L68.0334 37.5143ZM63.6072 43.2095L60.0786 40.4548L63.4989 37.5917L63.6072 43.2095ZM66.3619 45.3453L63.6072 43.2095L68.0334 37.5143L70.7881 39.65L71.3453 44.8036L66.3619 45.3453ZM71.3453 44.8036L69.1167 47.481L66.3619 45.3453L71.3453 44.8036ZM67.3215 44.0607L71.7477 38.3655L72.5369 43.2095L72.506 43.2715L72.4596 43.3334L72.4286 43.3798L72.3977 43.4107L72.3667 43.4726L72.3203 43.5191L72.2739 43.5965L72.2584 43.6274L72.2119 43.6738L72.181 43.7357L72.1346 43.7976L72.0881 43.8595L72.0727 43.875L72.0417 43.9215L71.9953 43.9834L71.9489 44.0453L71.9179 44.0917L71.8869 44.1381L71.8405 44.1845L71.8096 44.231L71.7786 44.2774L71.7322 44.3393L71.6858 44.3857L71.6548 44.4322L71.6239 44.4786L71.5774 44.525L71.531 44.5869L71.5 44.6179L71.4846 44.6488L71.4227 44.7262L71.3762 44.7726L71.3453 44.8036L65.8048 40.1917L65.8358 40.1607L65.8512 40.1298L65.8977 40.0834L65.9286 40.0369H65.9441L65.9596 40.006L65.975 39.975L66.0215 39.9286L66.0369 39.9131L66.0524 39.8976L66.0834 39.8512L66.0989 39.8203L66.1143 39.7893L66.1453 39.7584L66.1762 39.7274L66.1917 39.7119L66.2072 39.6965L66.2227 39.65L66.2691 39.5881L66.2846 39.5726L66.3155 39.5417L66.331 39.5107L66.3465 39.4798L66.3774 39.4334L66.3929 39.4179L66.4238 39.3869L66.4393 39.356L66.4703 39.3095L66.5012 39.2631L66.5167 39.2322L66.5477 39.2012L67.3215 44.0607ZM71.7477 38.3655L74.4096 40.4238L72.5369 43.2095L71.7477 38.3655ZM69.2096 36.3845L71.7477 38.3655L67.3215 44.0607L64.7834 42.0798L64.3965 36.756L69.2096 36.3845ZM64.3965 36.756L66.6405 34.3881L69.2096 36.3845L64.3965 36.756Z" fill="#8A5CC4"></path>
    <path d="M66.9965 39.2322C66.6715 39.5881 66.2691 39.975 65.8203 40.3619L68.5751 42.4976C68.9001 42.1107 69.2251 41.6774 69.5346 41.2131L66.9965 39.2322Z" fill="white"></path>
    <path d="M72.243 61.2393L65.3096 59.2429L68.7144 56.6429H68.7763H68.8227L68.8692 56.6274H68.9156H68.962H69.0084H69.0858H69.1323H69.1787H69.2406H69.2715H69.3025H69.3799H69.4263H69.4882H69.5346H69.5656H69.6275H69.6739H69.7203H69.7823H69.8287H69.8751H69.9215L69.968 56.6429H70.0144H70.0763H70.1227H70.1692H70.2156H70.262H70.3084L70.1227 63.8548H70.1073H70.0608H70.0144H69.968L69.9215 63.8393H69.9061H69.8596H69.8132H69.7823H69.7358H69.6894H69.6739H69.6275H69.5811H69.5656H69.4882H69.4418H69.4263H69.3799H69.3644H69.318H69.2406H69.2251H69.1787H69.1323H69.1013H69.0549H69.0084H68.962H68.9156H68.8692L68.8382 63.8548L72.243 61.2393ZM65.3096 59.2429L66.0525 56.6893L68.7144 56.6429L65.3096 59.2429ZM64.3811 62.4929L65.3096 59.2429L72.243 61.2393L71.3144 64.4893L67.5846 67.0893L64.3811 62.4929ZM67.5846 67.0893L63.1584 66.7643L64.3811 62.4929L67.5846 67.0893ZM65.9906 62.9881L73.0477 64.4274L68.9311 67.2595L68.8382 67.2441L68.7608 67.2286H68.6989L68.6215 67.2131L68.5442 67.1976H68.4823L68.4049 67.1822L68.343 67.1667H68.2811L68.2037 67.1512H68.1573L68.0954 67.1357H68.0489H68.0025L67.9406 67.1203H67.8942L67.8477 67.1048H67.8168H67.7858H67.7549H67.7084L67.662 67.0893H67.6001H67.5846L68.1108 59.8929H68.1263H68.1418H68.1573H68.1727H68.1882L68.2656 59.9084H68.343L68.4049 59.9238H68.4358H68.4823H68.5132L68.5906 59.9393H68.6525L68.7299 59.9548H68.7763L68.8382 59.9703H68.9156L68.993 59.9857L69.0858 60.0012H69.1632L69.2406 60.0167L69.318 60.0322L69.4263 60.0476H69.5037L69.5965 60.0631L69.7049 60.0786L69.7977 60.0941L69.9061 60.1096L70.0144 60.125L70.1073 60.156L65.9906 62.9881ZM73.0477 64.4274L72.3513 67.8322L68.9311 67.2595L73.0477 64.4274ZM73.7596 60.9607L73.0477 64.4274L65.9906 62.9881L66.687 59.5215L70.3084 56.6429L73.7596 60.9607ZM70.3084 56.6429L74.6108 56.7512L73.7596 60.9607L70.3084 56.6429Z" fill="#8A5CC4"></path>
    <path d="M70.2155 60.2488C69.7667 60.2334 69.2715 60.2334 68.7762 60.2488L67.8477 63.4834C67.8477 63.4834 68.5131 63.5453 69.5191 63.7L70.2155 60.2488Z" fill="white"></path>
    <path d="M84.794 31.85L79.0368 31.4786L79.0523 31.2929V31.1226L79.0678 30.9524V30.7667L79.0523 30.5965V30.4107L79.0368 30.2405L79.0213 30.0703L79.0059 29.9L78.9904 29.7143L78.9749 29.5441L78.944 29.3738L78.913 29.1881L78.8821 29.0179L78.8511 28.8476L78.8047 28.6774L78.7582 28.5072L78.7118 28.3369L78.6654 28.1667L78.619 27.9965L78.557 27.8262L78.4951 27.656L78.4332 27.4857L78.3713 27.331L78.294 27.1607L78.2166 26.9905L78.1392 26.8203L78.0618 26.6655L77.969 26.4953L77.8916 26.3405L77.7987 26.1703L77.6904 26.0155L82.6118 22.9976L82.7666 23.2607L82.9213 23.5084L83.0606 23.7715L83.1999 24.0345L83.3237 24.3131L83.463 24.5762L83.5713 24.8393L83.6951 25.1179L83.8035 25.381L83.9118 25.6595L84.0047 25.9381L84.0975 26.2012L84.1904 26.4798L84.2678 26.7738L84.3451 27.0524L84.4071 27.3155L84.4844 27.6095L84.5309 27.8881L84.5928 28.1667L84.6392 28.4453L84.6856 28.7393L84.7166 29.0179L84.7475 29.2965L84.7785 29.5905L84.794 29.8691L84.8094 30.1476L84.8249 30.4417V30.7203V30.9988V31.2774L84.8094 31.5715L84.794 31.85ZM77.257 44.2619L74.2237 39.3405L74.5023 39.1703L74.7654 38.9845L75.0285 38.7988L75.2761 38.6131L75.5082 38.4119L75.7404 38.2107L75.9725 37.9941L76.1892 37.7774L76.4059 37.5607L76.607 37.3286L76.7928 37.1119L76.994 36.8643L77.1642 36.6322L77.3344 36.3845L77.5047 36.1369L77.6594 35.8893L77.8142 35.6262L77.9535 35.3631L78.0773 35.1L78.2011 34.8369L78.3249 34.5738L78.4332 34.2953L78.5261 34.0167L78.619 33.7381L78.6963 33.4595L78.7737 33.181L78.8356 32.9024L78.8975 32.6238L78.944 32.3298L78.9904 32.0512L79.0213 31.7572L79.0368 31.4786L84.794 31.85L84.763 32.3143L84.7166 32.7631L84.6392 33.2274L84.5618 33.6762L84.4844 34.125L84.3761 34.5738L84.2523 35.0226L84.1285 35.4715L83.9737 35.9048L83.819 36.3381L83.6487 36.7715L83.463 37.1893L83.2773 37.6072L83.0606 38.025L82.844 38.4429L82.6118 38.8453L82.3642 39.2476L82.1011 39.6345L81.838 40.0215L81.5594 40.3929L81.2654 40.7643L80.9559 41.1203L80.6309 41.4762L80.3059 41.8322L79.9654 42.1726L79.6094 42.4976L79.238 42.8072L78.8666 43.1167L78.4797 43.4262L78.0773 43.7048L77.6749 43.9834L77.257 44.2619ZM63.1892 45.5619L65.294 40.1917L65.557 40.2845L65.8201 40.3774L66.0832 40.4548L66.3618 40.5322L66.6404 40.6095L66.9035 40.656L67.182 40.7179L67.4606 40.7643L67.7392 40.7953L68.0332 40.8262L68.3118 40.8417L68.5904 40.8572H68.8844H69.163L69.457 40.8417L69.7356 40.8262L70.0297 40.7953L70.3082 40.7643L70.6023 40.7179L70.8809 40.656L71.1749 40.5941L71.4535 40.5322L71.7475 40.4548L72.0261 40.3619L72.3047 40.2691L72.5832 40.1607L72.8618 40.0524L73.1404 39.9286L73.419 39.7893L73.6975 39.65L73.9606 39.4953L74.2237 39.3405L77.257 44.2619L76.8392 44.5095L76.4213 44.7417L75.988 44.9584L75.5701 45.1595L75.1368 45.3453L74.7035 45.531L74.2547 45.7012L73.8213 45.856L73.3725 45.9798L72.9237 46.1036L72.4749 46.2274L72.0261 46.3203L71.5773 46.3976L71.1285 46.475L70.6797 46.5369L70.2309 46.5834L69.7666 46.6143L69.3178 46.6298H68.869H68.4201L67.9713 46.5988L67.5225 46.5679L67.0737 46.5214L66.6249 46.475L66.1916 46.3976L65.7428 46.3203L65.3094 46.2119L64.8761 46.1036L64.4428 45.9953L64.0249 45.856L63.607 45.7167L63.1892 45.5465V45.5619ZM55.869 39.4334L60.7749 36.4155L60.8832 36.5857L60.9916 36.756L61.0999 36.9107L61.2082 37.0655L61.332 37.2048L61.4404 37.3595L61.5642 37.5143L61.688 37.6536L61.8118 37.7929L61.9356 37.9322L62.0749 38.0715L62.1987 38.1953L62.338 38.3345L62.4773 38.4584L62.6166 38.5822L62.7559 38.6905L62.8951 38.8143L63.0499 38.9226L63.1892 39.031L63.344 39.1393L63.4987 39.2476L63.6535 39.356L63.8082 39.4488L63.963 39.5417L64.1178 39.6345L64.288 39.7274L64.4428 39.8048L64.613 39.8822L64.7832 39.975L64.9535 40.0369L65.1237 40.1143L65.294 40.1917L63.1892 45.5619L62.9106 45.4381L62.632 45.3298L62.369 45.206L62.0904 45.0822L61.8273 44.9429L61.5642 44.8036L61.3011 44.6643L61.0535 44.525L60.7904 44.3703L60.5428 44.2L60.2951 44.0453L60.0475 43.875L59.7999 43.7048L59.5523 43.5191L59.3201 43.3334L59.088 43.1476L58.8559 42.9465L58.6237 42.7453L58.4071 42.5441L58.1749 42.3429L57.9582 42.1262L57.757 41.8941L57.5404 41.6774L57.3392 41.4453L57.138 41.2131L56.9368 40.9655L56.7511 40.7334L56.5654 40.4857L56.3797 40.2226L56.2094 39.9595L56.0237 39.7119L55.869 39.4334ZM60.3725 18.8036L64.4582 22.8893L63.994 23.2607L63.5761 23.5393L63.1737 23.8488L62.8023 24.1584L62.4463 24.4988L62.1059 24.8393L61.7809 25.1953L61.4868 25.5667L61.2082 25.9536L60.9451 26.3405L60.6975 26.7429L60.4809 27.1607L60.2797 27.5786L60.094 28.0119L59.9392 28.4453L59.7999 28.8786L59.6761 29.3274L59.5832 29.7762L59.5059 30.225L59.4594 30.6738L59.4285 31.1381L59.413 31.5869L59.4285 32.0357L59.4594 32.5L59.5213 32.9488L59.5987 33.3976L59.6916 33.8465L59.8154 34.2798L59.9547 34.7286L60.1249 35.1619L60.3261 35.5798L60.5428 35.9976L60.7749 36.4155L55.869 39.4334L55.482 38.7679L55.1261 38.0869L54.8166 37.3905L54.538 36.6786L54.2904 35.9667L54.0892 35.2548L53.9344 34.5274L53.8106 33.8L53.7178 33.0572L53.6559 32.3298L53.6404 31.5869L53.6559 30.8595L53.7178 30.1322L53.7951 29.4048L53.919 28.6929L54.0737 27.981L54.2594 27.2691L54.4761 26.5726L54.7392 25.8917L55.0178 25.2107L55.3428 24.5453L55.6832 23.8953L56.0701 23.2607L56.4725 22.6417L56.9213 22.0536L57.3856 21.4655L57.8963 20.8929L58.4225 20.3512L58.9797 19.8405L59.5678 19.3453L60.1868 18.8655L60.8368 18.4322L60.3725 18.8036ZM64.4582 22.8893L64.2416 23.0905L63.994 23.2607L64.4582 22.8893ZM64.4582 22.8738V22.8893L60.3725 18.8036L60.8368 18.4322L64.4582 22.8738ZM60.3725 18.8036L60.5892 18.5869L60.8368 18.4322L60.3725 18.8036ZM61.2237 18.1845L64.2416 23.0905V23.106H64.2261L64.2106 23.1214H64.1951V23.1369L64.2261 23.106L64.1951 23.1214L64.1487 23.1524L64.1332 23.1679L64.1797 23.1369H64.1642L64.1487 23.1524L64.1332 23.1679L64.0713 23.1988L64.1487 23.1524L64.1023 23.1834H64.0868H64.1178L64.0559 23.2143L64.0713 23.1988V23.2143L64.0249 23.2298L64.0094 23.2453L64.0404 23.2298H64.0249L64.0094 23.2453L63.994 23.2607L60.8368 18.4322V18.4167H60.8523H60.8678V18.4012L60.9142 18.3703H60.9297L60.8987 18.3857L60.9142 18.3703L60.9606 18.3548V18.3393L60.9916 18.3238H61.007L60.9761 18.3393L61.0844 18.2774L61.038 18.2929L61.1154 18.2465L61.0844 18.2619L61.1463 18.231L61.1618 18.2155L61.1309 18.231L61.1928 18.2L61.2082 18.1845H61.2237ZM64.2416 23.0905V23.106L64.2725 23.0905H64.2416ZM80.7547 20.5679L76.5451 24.5143L76.2666 24.2203L75.9571 23.9417L75.6475 23.6786L75.3225 23.431L74.9975 23.1988L74.6571 22.9822L74.3011 22.781L73.9451 22.5953L73.5737 22.4095L73.2023 22.2548L72.8154 22.1155L72.4285 21.9917L72.0416 21.8834L71.6392 21.7905L71.2368 21.7131L70.819 21.6512L70.4166 21.6048L69.9987 21.5738H69.5809L69.163 21.5893L68.7451 21.6048L68.3273 21.6512L67.9094 21.7131L67.4916 21.7905L67.0737 21.8834L66.6559 22.0072L66.2535 22.1465L65.8356 22.3012L65.4332 22.4715L65.0309 22.6572L64.644 22.8584L64.2416 23.0905L61.2237 18.1845L61.8273 17.8286L62.4463 17.5036L63.0654 17.2095L63.6999 16.931L64.3499 16.6988L64.9844 16.4822L65.6344 16.2964L66.2999 16.1417L66.9499 16.0179L67.5999 15.925L68.2654 15.8631L68.9309 15.8167L69.5809 15.8012L70.2463 15.8167L70.8963 15.8631L71.5463 15.925L72.1963 16.0179L72.8309 16.1417L73.4654 16.2964L74.0999 16.4667L74.7035 16.6679L75.3225 16.9L75.9261 17.1476L76.5142 17.4262L77.0868 17.7357L77.6594 18.0607L78.2166 18.4167L78.7582 18.7881L79.2844 19.206L79.7951 19.6238L80.2749 20.0881L80.7547 20.5679ZM82.6118 22.9976L77.6904 26.0155L77.6594 25.9691L77.6285 25.9072L77.5975 25.8607L77.5666 25.8143L77.5356 25.7679L77.5047 25.706L77.4737 25.6595L77.4428 25.6131L77.3963 25.5667L77.3654 25.5203L77.3344 25.4738L77.3035 25.4274L77.257 25.3655L77.2261 25.3191L77.1951 25.2726L77.1487 25.2262L77.1178 25.1953L77.0868 25.1488L77.0559 25.1024L77.0094 25.056L76.9785 25.0095L76.932 24.9631L76.9011 24.9167L76.8547 24.8703L76.8237 24.8238L76.7773 24.7774L76.7463 24.731L76.7154 24.7L76.669 24.6536L76.6225 24.6072L76.5916 24.5607L76.5451 24.5143L80.7547 20.5679L80.8166 20.6298L80.8785 20.7072L80.9404 20.7691L81.0023 20.831L81.0642 20.9084L81.1261 20.9857L81.188 21.0631L81.2654 21.125L81.3118 21.2024L81.3737 21.2798L81.4356 21.3417L81.4975 21.4191L81.5594 21.4965L81.6059 21.5584L81.6678 21.6357L81.7297 21.7286L81.7916 21.806L81.8535 21.8834L81.9154 21.9607L81.9618 22.0226L82.0237 22.1L82.0701 22.1774L82.132 22.2703L82.194 22.3476L82.2404 22.425L82.3023 22.5024L82.3487 22.5798L82.4106 22.6726L82.457 22.75L82.5035 22.8274L82.5654 22.9203L82.6118 22.9976Z" fill="#8A5CC4"></path>
    <path d="M80.1511 24.5143C81.513 26.7274 82.0856 29.2191 81.9154 31.6643C81.6523 35.6417 79.4856 39.4953 75.7404 41.8012C72.1189 44.0298 67.8475 44.2929 64.2415 42.8691C61.8427 41.925 59.7535 40.2536 58.3142 37.9322C54.8011 32.1905 56.6273 24.6227 62.4154 20.8465C62.5237 20.7691 62.632 20.7072 62.7404 20.6453C68.0177 17.3953 74.6725 18.3238 78.6499 22.5488C79.207 23.1369 79.7177 23.7869 80.1511 24.5143Z" fill="white"></path>
    <path d="M44.2154 53.7024L38.4427 54.0429L38.4273 53.8107L38.4118 53.5941L38.3963 53.3619L38.3654 53.1453L38.3344 52.9286L38.3035 52.7119L38.257 52.4953L38.2106 52.2631L38.1642 52.0465L38.1177 51.8298L38.0558 51.6131L37.9939 51.4119L37.932 51.1953L37.8701 50.9786L37.7927 50.7619L37.7154 50.5607L37.638 50.3441L37.5451 50.1429L37.4677 49.9262L37.3749 49.725L37.2665 49.5238L37.1737 49.3226L37.0654 49.1214L36.957 48.9203L36.8332 48.7191L36.7249 48.5179L36.6011 48.3322L36.4618 48.131L36.338 47.9453L36.1987 47.7595L36.0594 47.5584L35.9046 47.3726L40.4237 43.7822L40.6404 44.0607L40.8415 44.3393L41.0427 44.6179L41.2439 44.9119L41.4296 45.1905L41.6154 45.4845L41.8011 45.7786L41.9713 46.0726L42.1415 46.3822L42.2963 46.6762L42.4511 46.9857L42.5904 47.2798L42.7296 47.5893L42.8689 47.8988L42.9927 48.2084L43.1166 48.5334L43.2404 48.8429L43.3487 49.1679L43.4415 49.4774L43.5344 49.8024L43.6273 50.1119L43.7201 50.4369L43.7975 50.7619L43.8594 51.0869L43.9213 51.4119L43.9832 51.7369L44.0451 52.0619L44.0915 52.3869L44.1225 52.7274L44.1535 53.0524L44.1844 53.3774L44.2154 53.7024ZM37.2356 69.1476L33.6451 64.6286L33.9546 64.381L34.2487 64.1179L34.5427 63.8393L34.8213 63.5607L35.0999 63.2822L35.363 62.9881L35.6106 62.6941L35.8427 62.3845L36.0749 62.075L36.2916 61.7655L36.5082 61.4405L36.7094 61.1155L36.8951 60.7905L37.0654 60.45L37.2356 60.125L37.3904 59.7845L37.5451 59.4286L37.6844 59.0881L37.8082 58.7322L37.9165 58.3762L38.0249 58.0203L38.1177 57.6643L38.1951 57.3084L38.2725 56.9524L38.3344 56.581L38.3808 56.225L38.4118 55.8536L38.4427 55.4976L38.4582 55.1262L38.4737 54.7703L38.4582 54.3988L38.4427 54.0429L44.2154 53.7024L44.2308 54.2441V54.7857V55.3119L44.1999 55.8536L44.1689 56.3953L44.107 56.9214L44.0296 57.4476L43.9368 57.9893L43.8439 58.5155L43.7201 59.0417L43.5808 59.5679L43.4261 60.0786L43.2713 60.5893L43.0856 61.1L42.8844 61.6107L42.6677 62.106L42.4511 62.6012L42.2035 63.0964L41.9404 63.5762L41.6773 64.056L41.3832 64.5357L41.0737 65L40.7642 65.4488L40.4237 65.8976L40.0832 66.331L39.7118 66.7643L39.3404 67.1822L38.9535 67.6L38.5356 68.0024L38.1177 68.3893L37.6844 68.7762L37.2356 69.1476ZM21.1249 72.6607L22.5642 67.0738L22.9201 67.1512L23.2606 67.2286L23.6011 67.2905L23.957 67.3369L24.313 67.3834L24.6689 67.4143L25.0249 67.4453L25.3808 67.4607H25.7368L26.0927 67.4453L26.4487 67.4298L26.8201 67.3988L27.1761 67.3679L27.532 67.3214L27.888 67.2595L28.2439 67.1822L28.5999 67.1048L28.9558 67.0119L29.3118 66.9191L29.6523 66.8107L30.0082 66.6869L30.3487 66.5476L30.6892 66.4084L31.0296 66.2536L31.3701 66.0834L31.7106 65.9131L32.0356 65.7274L32.3606 65.5262L32.6856 65.325L33.0106 65.1084L33.3201 64.8762L33.6451 64.6286L37.2356 69.1476L36.7868 69.4881L36.338 69.8131L35.8737 70.1381L35.4094 70.4322L34.9296 70.7262L34.4654 70.9893L33.9701 71.2369L33.4904 71.4845L32.9951 71.7012L32.4844 71.9024L31.9892 72.1036L31.4785 72.2738L30.9677 72.4441L30.457 72.5834L29.9463 72.7226L29.4356 72.831L28.9094 72.9393L28.3832 73.0167L27.8725 73.0941L27.3463 73.156L26.8201 73.1869L26.2939 73.2179L25.7832 73.2334L25.257 73.2179L24.7308 73.2024L24.2046 73.1714L23.6939 73.125L23.1677 73.0631L22.657 72.9857L22.1463 72.8929L21.6356 72.7845L21.1249 72.6607ZM11.7927 66.625L16.3118 63.0345L16.4665 63.2203L16.6213 63.406L16.7915 63.5917L16.9463 63.7774L17.1165 63.9476L17.2868 64.1179L17.4725 64.2881L17.6427 64.4429L17.8285 64.5976L17.9987 64.7524L18.1844 64.9072L18.3701 65.0464L18.5713 65.1857L18.757 65.325L18.9582 65.4643L19.1439 65.5881L19.3451 65.7119L19.5463 65.8357L19.7475 65.9441L19.9642 66.0679L20.1654 66.1607L20.382 66.2691L20.5832 66.3774L20.7999 66.4703L21.0165 66.5476L21.2332 66.6405L21.4499 66.7179L21.6665 66.7953L21.8987 66.8726L22.1154 66.95L22.3475 67.0119L22.5642 67.0738L21.1249 72.6607L20.7999 72.5679L20.4594 72.475L20.1344 72.3667L19.8094 72.2584L19.4844 72.15L19.1594 72.0262L18.8344 71.9024L18.5094 71.7631L18.1999 71.6238L17.8749 71.4691L17.5654 71.3143L17.2558 71.1595L16.9463 70.9893L16.6523 70.8191L16.3427 70.6334L16.0487 70.4476L15.7546 70.2619L15.4606 70.0607L15.1665 69.8595L14.888 69.6429L14.6094 69.4262L14.3308 69.2095L14.0523 68.9774L13.7892 68.7453L13.5261 68.4976L13.263 68.25L13.0154 67.9869L12.7523 67.7393L12.5046 67.4607L12.2725 67.1976L12.0249 66.9191L11.7927 66.625ZM14.0213 42.2191L18.8344 45.4072L18.2927 46.0107L17.813 46.4441L17.3642 46.8774L16.9463 47.3262L16.5439 47.806L16.1725 48.2857L15.832 48.781L15.507 49.2917L15.213 49.8179L14.9499 50.3595L14.7023 50.9012L14.5011 51.4429L14.3154 52L14.1451 52.5726L14.0213 53.1298L13.913 53.7024L13.8356 54.2905L13.7737 54.8631L13.7582 55.4357V56.0238L13.7892 56.5964L13.8356 57.1691L13.9285 57.7417L14.0368 58.2988L14.1761 58.856L14.3463 59.4131L14.532 59.9548L14.7642 60.4964L15.0118 61.0226L15.2904 61.5334L15.5999 62.0441L15.9404 62.5393L16.3118 63.0345L11.7927 66.625L11.2511 65.9131L10.7558 65.1703L10.2915 64.4119L9.87369 63.6381L9.48679 62.8488L9.16179 62.0441L8.86774 61.2238L8.62012 60.4036L8.40345 59.5679L8.23322 58.7167L8.10941 57.881L8.03202 57.0298L7.9856 56.1786V55.3274L8.01655 54.4762L8.09393 53.625L8.21774 52.7893L8.3725 51.9536L8.55822 51.1179L8.79036 50.2976L9.06893 49.4774L9.37845 48.6881L9.73441 47.8988L10.1213 47.125L10.5392 46.3512L11.0035 45.6238L11.5142 44.8964L12.0404 44.1845L12.6285 43.5036L13.232 42.8536L13.882 42.2191L14.563 41.6155L14.0213 42.2191ZM18.8344 45.4072L18.6023 45.7476L18.2927 46.0107L18.8344 45.4072ZM14.563 41.6155L18.2927 46.0107L17.7201 46.3976L16.4356 46.6917H16.4201L18.463 45.856L19.3142 43.8131L18.8344 45.4072L14.0213 42.2191L13.5415 43.8131L14.3927 41.7703L16.4201 40.9345L13.5415 43.8131L16.4201 40.9191H16.4356L15.1356 41.2286L14.563 41.6155ZM18.2927 46.0107L18.0296 46.2274L17.7201 46.3976L18.2927 46.0107ZM14.9808 41.2595L18.5868 45.7786L18.5404 45.8095L18.5249 45.825L18.5558 45.7941L18.4785 45.856L18.432 45.8869V45.9024L18.4475 45.8869L18.4011 45.9179L18.3856 45.9334L18.4165 45.9024L18.4011 45.9179V45.9334L18.3546 45.9643L18.3392 45.9798L18.3856 45.9334L18.3392 45.9643L18.2927 46.0107L18.3082 45.9953L18.3392 45.9798H18.3237V45.9953L18.2927 46.0107L14.563 41.6155L14.5785 41.6L14.6249 41.5536L14.6713 41.5226L14.6404 41.5381L14.6249 41.5536H14.6404L14.7177 41.4762H14.7332L14.7023 41.4917H14.7177V41.4762L14.7796 41.4298L14.7642 41.4453L14.8106 41.4143V41.3988L14.7951 41.4143L14.8415 41.3834L14.857 41.3679L14.8261 41.3988L14.9035 41.3369L14.9189 41.3214L14.857 41.3679L14.9035 41.3214H14.9189L14.9344 41.306L14.9654 41.275H14.9808V41.2595ZM37.9165 41.2286L34.2332 45.6703L33.8308 45.3453L33.413 45.0512L32.9796 44.7572L32.5308 44.4941L32.0665 44.2619L31.6023 44.0298L31.138 43.8286L30.6582 43.6429L30.163 43.4881L29.6677 43.3488L29.1725 43.225L28.6618 43.1322L28.1511 43.0548L27.6404 42.9929L27.1142 42.9619L26.6035 42.9464L26.0773 42.9619L25.5511 42.9929L25.0249 43.0393L24.5142 43.1167L23.988 43.225L23.4773 43.3334L22.9511 43.4881L22.4404 43.6429L21.9451 43.8286L21.4344 44.0453L20.9392 44.2774L20.4594 44.525L19.9796 44.8036L19.4999 45.0976L19.0356 45.4226L18.5868 45.7786L14.9808 41.2595L15.6308 40.7643L16.2963 40.3L16.9927 39.8667L17.6737 39.4643L18.3856 39.0929L19.0975 38.7679L19.8249 38.4584L20.5677 38.1953L21.3106 37.9476L22.0535 37.7464L22.8118 37.5762L23.5701 37.4369L24.3285 37.3131L25.0868 37.2357L25.8451 37.1893H26.6189L27.3773 37.2048L28.1356 37.2512L28.8939 37.3286L29.6368 37.4369L30.3796 37.5917L31.1225 37.7619L31.8499 37.9631L32.5773 38.2107L33.2892 38.4738L34.0011 38.7834L34.682 39.1084L35.363 39.4798L36.0285 39.8667L36.6785 40.2845L37.313 40.7488L37.9165 41.2286ZM40.4237 43.7822L35.9046 47.3726V47.3881L35.8737 47.3262L35.8118 47.2643L35.7654 47.2024L35.7189 47.1405L35.6725 47.0786L35.6261 47.0322L35.5642 46.9703L35.5177 46.9084L35.4713 46.8619L35.4249 46.8L35.363 46.7381L35.3165 46.6917L35.2701 46.6453L35.2082 46.5834L35.1618 46.5369L35.1154 46.475L35.0535 46.4131L35.007 46.3667L34.9451 46.3203L34.8987 46.2584L34.8523 46.2119L34.7904 46.1655L34.7285 46.1036L34.682 46.0572L34.6201 46.0107L34.5737 45.9643L34.5118 45.9179L34.4499 45.856L34.4035 45.825L34.357 45.7631L34.2951 45.7167L34.2332 45.6703L37.9165 41.2286L38.0094 41.306L38.0868 41.3679L38.1642 41.4453L38.257 41.5226L38.3344 41.5845L38.4273 41.6619L38.5046 41.7393L38.582 41.8167L38.6749 41.8941L38.7523 41.956L38.8296 42.0334L38.907 42.1262L38.9844 42.2036L39.0618 42.2655L39.1546 42.3584L39.232 42.4357L39.2939 42.5131L39.3868 42.5905L39.4642 42.6679L39.5415 42.7607L39.6189 42.8381L39.6808 42.9155L39.7582 42.9929L39.8356 43.0857L39.913 43.1786L39.9904 43.256L40.0677 43.3488L40.1296 43.4262L40.207 43.5191L40.2689 43.5964L40.3463 43.6893L40.4237 43.7822Z" fill="#8A5CC4"></path>
    <path d="M38.1643 45.5774C40.1298 48.0381 41.1667 50.9322 41.3214 53.8727C41.6 58.6703 39.5726 63.5917 35.4405 66.8881C31.4322 70.0917 26.3714 71.0358 21.8524 69.8596C18.85 69.0858 16.1107 67.3988 14.0524 64.8298C8.99168 58.5 10.075 49.1834 16.4203 43.8131C16.4203 43.8131 16.4203 43.8131 16.4357 43.8131C16.5441 43.7203 16.6679 43.6119 16.7762 43.5191C22.6262 38.8608 30.7048 39 36.075 43.4572C36.8333 44.0762 37.5298 44.7881 38.1643 45.5774Z" fill="white"></path>
    <path d="M68.7452 41.2905L74.5023 41.6929L74.4869 42.0024L74.4559 42.4357L74.4249 42.9774L74.3785 43.6274L74.3321 44.3548L74.2857 45.1595L74.2238 46.0417L74.1773 46.9857L74.1154 47.9917L74.0535 49.0441L73.9761 50.1429L73.9142 51.2726L73.8368 52.4179L73.7749 53.5786L73.6976 54.7548L73.6357 55.931L73.5583 57.0917L73.4964 58.2524L73.419 59.3667L73.3571 60.4655L73.2952 61.5179L73.2333 62.5238L73.1714 63.4679L73.1249 64.3345L73.0785 65.1548L73.0321 65.8822L73.0011 66.5167L72.9702 67.0429L72.9392 67.4762L72.9238 67.8012L72.9083 68.0024V68.0643L67.1357 67.7238L67.1511 67.6619L67.1666 67.4607L67.1821 67.1357L67.1976 66.7024L67.2285 66.1607L67.2749 65.5262L67.3214 64.7988L67.3678 63.9941L67.4142 63.1119L67.4761 62.1679L67.538 61.1774L67.5999 60.1095L67.6618 59.0262L67.7392 57.8965L67.8011 56.7512L67.863 55.5905L67.9404 54.4143L68.0178 53.2381L68.0797 52.0774L68.1571 50.9167L68.219 49.7869L68.2809 48.7036L68.3583 47.6512L68.4202 46.6453L68.4666 45.6857L68.5285 44.8036L68.5749 43.9834L68.6214 43.256L68.6678 42.6215L68.6988 42.0643L68.7297 41.6155L68.7452 41.2905ZM67.7857 41.5072L62.0595 40.7179L62.1833 40.0679L62.369 39.4488L62.6321 38.8453L62.9416 38.2726L63.313 37.7465L63.7154 37.2822L64.1797 36.8798L64.6595 36.5238L65.1547 36.2298L65.6809 35.9822L66.1916 35.7965L66.7333 35.6572L67.2595 35.5643L67.7857 35.5024H68.3118L68.8226 35.5179L69.3488 35.5798L69.8595 35.6881L70.3702 35.8274L70.8654 36.0131L71.3452 36.2298L71.8249 36.5084L72.2738 36.8179L72.7226 37.1893L73.1249 37.5917L73.4964 38.056L73.8214 38.5822L74.0999 39.1393L74.3166 39.7429L74.4559 40.3774L74.5178 41.0274L74.5023 41.6929L68.7452 41.2905L68.7607 41.3215L68.7761 41.3524L68.7916 41.3988L68.8071 41.4143L68.7761 41.3988L68.7297 41.3679L68.6678 41.3524L68.5904 41.3215L68.513 41.2905L68.4202 41.275H68.3273L68.2345 41.2595H68.1416L68.0642 41.275L67.9868 41.2905L67.9249 41.306L67.8785 41.3215L67.8476 41.3369L67.8321 41.3524H67.8166V41.3679L67.8011 41.4143L67.7857 41.5072ZM66.1142 66.4703L60.4035 67.2441L60.3726 66.7179L60.4035 66.331L60.419 65.8667L60.4499 65.325L60.4809 64.706L60.5118 64.0405L60.5583 63.2976L60.5892 62.5084L60.6357 61.6726L60.6976 60.775L60.744 59.8619L60.7904 58.9024L60.8523 57.9274L60.9142 56.9215L60.9607 55.9L61.0226 54.8631L61.0845 53.8262L61.1464 52.7893L61.2238 51.7524L61.2857 50.731L61.3476 49.725L61.4095 48.75L61.4714 47.7905L61.5333 46.8619L61.5952 45.9643L61.6571 45.1131L61.719 44.3238L61.7809 43.5655L61.8428 42.8691L61.9047 42.2345L61.9511 41.6774L62.013 41.1667L62.0595 40.7179L67.7857 41.5072L67.7392 41.8322L67.6928 42.2655L67.6464 42.7762L67.5845 43.3798L67.538 44.0453L67.4761 44.7572L67.4142 45.5465L67.3523 46.3822L67.2904 47.2643L67.2285 48.1774L67.1666 49.1215L67.1047 50.0965L67.0428 51.1024L66.9809 52.1238L66.919 53.1453L66.8571 54.1822L66.7952 55.2036L66.7333 56.2405L66.6714 57.2465L66.6095 58.2524L66.563 59.2274L66.5011 60.1869L66.4547 61.1L66.4083 61.9822L66.3618 62.8179L66.3154 63.6072L66.269 64.3345L66.238 65.0155L66.2071 65.6191L66.1761 66.1607L66.1607 66.625L66.1452 66.9965L66.1142 66.4703ZM60.4035 67.2441L60.3726 66.981V66.7179L60.4035 67.2441ZM60.4035 67.275V67.2441L66.1142 66.4703L66.1297 66.5167L66.1452 66.9345L60.4035 67.275ZM66.1297 66.5167L66.1452 66.7179V66.9345L66.1297 66.5167ZM66.1452 68.0334L60.388 68.2036V68.1417V68.1107L60.3726 68.0488V67.9869V67.956V67.925V67.8631V67.8167V67.7857V67.7238V67.7084V67.6774V67.6155V67.5845V67.5381V67.5072V67.4607V67.4143V67.3524V67.3215V67.2905V67.2286V67.1976V67.1512V67.0893V67.0584V67.0119V66.95V66.9036L60.388 66.8572L66.1452 66.9345V66.981V67.0274V67.0584V67.1048V67.1667V67.1822V67.2286V67.275V67.2905V67.3679V67.3988V67.4143V67.4607V67.5072V67.5381V67.5845V67.6155V67.631V67.6619V67.7238V67.7393V67.7703V67.8012V67.8167V67.8476V67.9096V67.9405V67.9715V68.0334ZM67.0892 68.2655L72.8619 68.4976V68.4822L72.7999 69.1322L72.6607 69.7822L72.4595 70.3857L72.1809 70.9738L71.8559 71.5L71.4845 71.9798L71.0666 72.3976L70.6178 72.7691L70.1535 73.0941L69.6738 73.3572L69.163 73.5738L68.6678 73.7595L68.1571 73.8834L67.6309 73.9762L67.1202 74.0381L66.594 74.0536L66.0678 74.0226L65.5571 73.9607L65.0309 73.8679L64.5047 73.7131L63.994 73.5274L63.4988 73.2798L63.0035 73.0012L62.5392 72.6453L62.0904 72.2584L61.6726 71.7941L61.3011 71.2834L60.9916 70.7262L60.744 70.1381L60.5583 69.5036L60.4345 68.8536L60.388 68.2036L66.1452 68.0334L66.1607 68.1262V68.1726V68.1572L66.1761 68.1726L66.2071 68.1881L66.238 68.2036L66.2999 68.2345L66.3618 68.25L66.4547 68.2655L66.5321 68.281H66.6404H66.7333L66.8261 68.2655L66.9035 68.25L66.9809 68.2345L67.0583 68.2036L67.1047 68.1881L67.1357 68.1726L67.1511 68.1572L67.1357 68.1881L67.1202 68.2191L67.1047 68.25L67.0892 68.281V68.2655ZM70.1999 65.0155L69.7976 70.7726L72.8773 68.0179V68.0488V68.0643V68.0798V68.1572V68.1726V68.1417V68.1572V68.1726V68.1881V68.2191L72.8619 68.2345V68.25V68.2655V68.281V68.2965V68.3119V68.3274V68.3429V68.3584V68.3738V68.3893V68.3429V68.3584V68.4357V68.4512V68.4667V68.4203V68.4357V68.5131V68.4976L67.0892 68.2655V68.2191V68.281V68.2655L67.1047 68.1881V68.1726L67.0892 68.2191L67.1047 68.1262V68.1107V68.0953V68.0798V68.0643V68.0488V68.0334V68.0179V68.0024V67.9869V67.9715V67.956V67.9405V67.925V67.8631V67.8476V67.8786V67.8631V67.8476L67.1202 67.7857V67.7703L70.1999 65.0155ZM67.1202 67.7703L67.244 64.8143L70.1999 65.0155L67.1202 67.7703ZM69.8285 70.7726H69.7976L70.1999 65.0155H70.2309L72.9083 68.0643L69.8285 70.7726ZM72.9083 68.0643L72.7226 70.9738L69.8285 70.7726L72.9083 68.0643Z" fill="#8A5CC4"></path>
    <path d="M70.0298 67.8941C70.0298 67.8941 71.4227 44.3393 71.6239 41.4917C71.887 37.8238 65.4798 37.0345 64.9227 41.1048C64.4274 44.7881 63.437 63.2357 63.2667 66.8572V66.9036C63.2513 67.3988 63.2513 67.8167 63.2667 68.1107C63.3905 72.2274 69.8441 72.0572 69.9834 68.3738C69.9834 68.25 69.9834 68.0953 69.9989 67.8941H70.0298Z" fill="white"></path>
    <path d="M72.9083 63.4524L67.1976 62.6322L69.6428 65.8977L69.55 65.8822L69.3024 65.8512L68.8845 65.7893L68.3119 65.7119L67.6155 65.6191L66.7797 65.4953L65.8357 65.356L64.7833 65.2167L63.6381 65.0465L62.4155 64.8762L61.1 64.6905L59.7381 64.5048L58.3143 64.3036L56.844 64.0869L55.3583 63.8703L53.8262 63.6536L52.3095 63.4369L50.7774 63.2203L49.2452 63.0036L47.7595 62.8024L46.2893 62.5857L44.8655 62.3846L43.4881 62.1834L42.1726 61.9977L40.9345 61.8274L39.7893 61.6572L38.7214 61.5179L37.7774 61.3786L36.9416 61.2548L36.2297 61.1465L35.6416 61.0691L35.2083 61.0072L36.075 55.2965L36.4928 55.3584L37.05 55.4357L37.7619 55.5441L38.5976 55.6679L39.5416 55.7917L40.6095 55.9465L41.7547 56.1167L42.9928 56.2869L44.3083 56.4727L45.6702 56.6738L47.094 56.875L48.5643 57.0917L50.0655 57.2929L51.5821 57.5096L53.1143 57.7262L54.6464 57.9429L56.1631 58.1596L57.6643 58.3762L59.119 58.5774L60.5428 58.7786L61.9202 58.9798L63.2202 59.1655L64.4583 59.3357L65.6036 59.506L66.6559 59.6453L67.6 59.7846L68.4202 59.9084L69.1321 60.0012L69.6893 60.0786L70.1071 60.1405L70.3702 60.1715L70.4476 60.1869L72.9083 63.4524ZM70.4476 60.1869L73.3107 60.5893L72.9083 63.4524L70.4476 60.1869ZM66.2536 69.2869L67.1976 62.6322L72.9083 63.4524L71.9643 70.0917L68.7297 72.5524L66.2536 69.2869ZM71.9643 70.0917L71.5619 72.9238L68.7297 72.5524L71.9643 70.0917ZM34.125 67.6155L35.2702 61.9667L35.7809 62.0596L36.4464 62.1834L37.2357 62.3072L38.1488 62.4619L39.1547 62.6167L40.269 62.7869L41.4607 62.9726L42.7143 63.1584L44.0452 63.3441L45.4226 63.5453L46.8464 63.7465L48.3012 63.9476L49.7869 64.1643L51.2881 64.3655L52.7893 64.5822L54.275 64.7834L55.7452 64.9846L57.2 65.1857L58.6238 65.3715L60.0012 65.5572L61.3166 65.7429L62.5702 65.9131L63.7464 66.0679L64.8452 66.2227L65.8512 66.3465L66.7643 66.4703L67.5536 66.5786L68.219 66.656L68.7607 66.7334L69.1476 66.7798L69.3952 66.8262H69.4726L68.7297 72.5524L68.6369 72.5369L68.3893 72.506L68.0024 72.4596L67.4607 72.3822L66.7952 72.2893L66.0059 72.181L65.0928 72.0726L64.0869 71.9334L62.9881 71.7786L61.7964 71.6238L60.5428 71.4536L59.2274 71.2834L57.85 71.0976L56.4262 70.8965L54.9714 70.6953L53.4857 70.4941L52 70.2929L50.4833 70.0762L48.9976 69.875L47.5119 69.6584L46.0416 69.4572L44.6178 69.256L43.225 69.0548L41.8786 68.8536L40.6095 68.6679L39.4024 68.4976L38.2726 68.3119L37.2357 68.1572L36.3071 68.0024L35.4714 67.8631L34.744 67.7393L34.125 67.6155ZM36.075 55.2965L35.2083 61.0072L35.0226 60.9762H34.8524L34.7286 60.9917L34.6202 61.0072L34.5428 61.0226L34.4809 61.0536L34.419 61.0691L34.3881 61.1L34.3571 61.131L34.3262 61.1619L34.2952 61.1774L34.2797 61.2084L34.2643 61.2393L34.2488 61.2703L34.2333 61.3012V61.3322V61.3631V61.3786V61.4096V61.425V61.4405L34.2488 61.456V61.4715L34.2643 61.5024L34.2952 61.5334L34.3416 61.5798L34.4036 61.6262L34.4964 61.6881L34.6202 61.7655L34.7905 61.8274L35.0071 61.9048L35.2702 61.9667L34.125 67.6155L33.444 67.4607L32.7786 67.2441L32.144 66.9655L31.5405 66.656L30.9988 66.2846L30.4881 65.8667L30.0238 65.4024L29.6059 64.9072L29.2655 64.381L28.9714 63.8238L28.7547 63.2512L28.6 62.6476L28.4916 62.0596L28.4607 61.456L28.4762 60.8679L28.5536 60.2798L28.6928 59.7072L28.8786 59.15L29.1262 58.6084L29.4202 58.0976L29.7607 57.6179L30.1631 57.1536L30.5964 56.7512L31.0762 56.3643L31.6178 56.0393L32.175 55.7607L32.7786 55.5286L33.3976 55.3584L34.0476 55.25L34.7131 55.2036L35.394 55.2191L36.075 55.2965Z" fill="#8A5CC4"></path>
    <path d="M35.6416 58.1441C39.3559 58.7012 70.0452 63.05 70.0452 63.05L69.1011 69.6893C69.1011 69.6893 39.9904 65.8512 34.6976 64.7988C29.4047 63.731 30.8595 57.4322 35.6416 58.1441Z" fill="white"></path>
    <path d="M84.4072 67.6774L78.6346 67.6155V67.4143V67.1976V66.9964L78.6191 66.7798L78.6037 66.5786L78.5882 66.3619L78.5572 66.1607L78.5418 65.9595L78.5108 65.7429L78.4644 65.5417L78.4334 65.3405L78.387 65.1238L78.3406 64.9226L78.2941 64.7214L78.2322 64.5203L78.1858 64.3191L78.1084 64.1179L78.0465 63.9167L77.9846 63.7155L77.9072 63.5143L77.8298 63.3286L77.737 63.1274L77.6596 62.9262L77.5668 62.7405L77.4739 62.5393L77.381 62.3536L77.2727 62.1679L77.1644 61.9822L77.056 61.7964L76.9322 61.6107L76.8239 61.425L76.7001 61.2393L81.4358 57.9429L81.6215 58.2214L81.8072 58.5155L81.9775 58.7941L82.1477 59.0726L82.3179 59.3667L82.4727 59.6607L82.6275 59.9393L82.7668 60.2488L82.906 60.5429L83.0453 60.8369L83.1691 61.131L83.2929 61.4405L83.4013 61.7345L83.5096 62.0441L83.6025 62.3536L83.7108 62.6631L83.7882 62.9726L83.881 63.2822L83.9584 63.5917L84.0203 63.9012L84.0822 64.2107L84.1441 64.5203L84.206 64.8453L84.2525 65.1548L84.2834 65.4643L84.3299 65.7893L84.3453 66.0988L84.3763 66.4083L84.3918 66.7333L84.4072 67.0429V67.3524V67.6774ZM76.7465 81.9619L73.4656 77.2262L73.7751 77.0095L74.0691 76.7774L74.3632 76.5453L74.6572 76.2976L74.9203 76.05L75.1834 75.7869L75.431 75.5238L75.6787 75.2607L75.9108 74.9822L76.1429 74.7036L76.3596 74.425L76.5608 74.131L76.762 73.8369L76.9477 73.5274L77.1179 73.2333L77.2882 72.9238L77.4584 72.6143L77.5977 72.2893L77.737 71.9643L77.8608 71.6548L77.9846 71.3298L78.0929 70.9893L78.2013 70.6643L78.2787 70.3238L78.3715 69.9988L78.4334 69.6583L78.4953 69.3179L78.5418 68.9774L78.5882 68.6369L78.6191 68.2964L78.6346 67.956V67.6155L84.4072 67.6774L84.3918 68.1881L84.3763 68.6988L84.3299 69.225L84.2679 69.7203L84.1906 70.231L84.0977 70.7417L84.0048 71.2524L83.881 71.7476L83.7418 72.2429L83.6025 72.7381L83.4322 73.2333L83.262 73.7131L83.0608 74.1929L82.8596 74.6726L82.6275 75.1369L82.3953 75.6012L82.1477 76.0655L81.8846 76.5143L81.606 76.9631L81.312 77.3964L81.0025 77.8298L80.6929 78.2476L80.3525 78.6655L80.012 79.0679L79.6406 79.4703L79.2691 79.8572L78.8822 80.2441L78.4798 80.6L78.0775 80.956L77.6441 81.3119L77.2108 81.6369L76.7465 81.9619ZM61.1465 84.2833L62.9572 78.8048L63.2822 78.8976L63.5918 78.9905L63.9168 79.0679L64.2417 79.1453L64.5668 79.2072L64.9072 79.2536L65.2322 79.3L65.5572 79.3464L65.8977 79.3619L66.2382 79.3774L66.5632 79.3929L66.9037 79.3774H67.2441L67.5846 79.3464L67.9251 79.3155L68.2501 79.2691L68.5906 79.2226L68.931 79.1607L69.2715 79.0833L69.612 79.006L69.937 78.9131L70.2775 78.8048L70.6025 78.6964L70.9275 78.5726L71.2525 78.4488L71.5775 78.2941L71.9025 78.1548L72.2275 77.9845L72.537 77.8143L72.8465 77.6286L73.156 77.4274L73.4656 77.2262L76.7465 81.9619L76.3132 82.2714L75.8489 82.55L75.3846 82.8286L74.9203 83.0762L74.456 83.3238L73.9763 83.5405L73.4965 83.7572L73.0168 83.9583L72.537 84.1286L72.0418 84.2988L71.5465 84.4536L71.0513 84.5929L70.556 84.7167L70.0608 84.8095L69.5656 84.9024L69.0548 84.9798L68.5596 85.0572L68.0489 85.1036L67.5537 85.1345L67.0429 85.15H66.5477H66.0525L65.5417 85.1191L65.0465 85.0881L64.5513 85.0417L64.056 84.9643L63.5608 84.8869L63.0656 84.7941L62.5858 84.6857L62.106 84.5619L61.6263 84.4226L61.1465 84.2833ZM52.6191 77.9226L57.3703 74.6262L57.4941 74.8274L57.6334 74.9976L57.7727 75.1834L57.912 75.3691L58.0668 75.5393L58.2215 75.7095L58.3608 75.8798L58.5156 76.0345L58.6858 76.1893L58.8406 76.3441L58.9953 76.4988L59.1656 76.6536L59.3358 76.7929L59.506 76.9322L59.6763 77.0714L59.862 77.1953L60.0322 77.3345L60.2179 77.4583L60.4037 77.5822L60.5894 77.6905L60.7751 77.7988L60.9608 77.9072L61.1465 78.0155L61.3477 78.1238L61.5489 78.2167L61.7346 78.3095L61.9358 78.4024L62.137 78.4953L62.3382 78.5726L62.5394 78.65L62.756 78.7274L62.9572 78.8048L61.1465 84.2833L60.837 84.175L60.5275 84.0512L60.2179 83.9429L59.9084 83.8191L59.5989 83.6798L59.3048 83.5405L58.9953 83.4012L58.7013 83.2464L58.4072 83.0917L58.1132 82.9369L57.8346 82.7667L57.5406 82.5964L57.262 82.4107L56.9834 82.225L56.7048 82.0393L56.4418 81.8381L56.1632 81.6369L55.9001 81.4357L55.637 81.2191L55.3739 81.0024L55.1263 80.7703L54.8787 80.5381L54.631 80.306L54.3834 80.0583L54.1513 79.8107L53.9191 79.5631L53.687 79.3L53.4703 79.0369L53.2537 78.7583L53.037 78.4798L52.8203 78.2012L52.6191 77.9226ZM57.3084 53.95L59.8775 59.1036L60.2953 58.8405L59.831 59.2119L59.3822 59.5988L58.9489 60.0012L58.5465 60.4036L58.1751 60.8369L57.8191 61.2857L57.4941 61.7345L57.1846 62.2143L56.906 62.6941L56.6429 63.1893L56.4108 63.6845L56.1941 64.1953L56.0084 64.706L55.8537 65.2322L55.7144 65.7738L55.606 66.3L55.5132 66.8417L55.4513 67.3679L55.4203 67.9095V68.4512L55.4358 68.9929L55.4822 69.5345L55.5441 70.0607L55.637 70.6024L55.7608 71.1286L55.9156 71.6393L56.0858 72.1655L56.287 72.6762L56.5191 73.1714L56.7668 73.6667L57.0453 74.1464L57.3703 74.6262L52.6191 77.9226L52.1548 77.1953L51.7215 76.4524L51.3191 75.6941L50.9787 74.9357L50.6691 74.1464L50.406 73.3572L50.1739 72.5524L49.9882 71.7476L49.8489 70.9429L49.7406 70.1381L49.6787 69.3179L49.6477 68.4976L49.6632 67.6774L49.7096 66.8726L49.8025 66.0679L49.9263 65.2631L50.0965 64.4584L50.2977 63.6691L50.5298 62.8953L50.8084 62.1214L51.1334 61.3631L51.4739 60.6203L51.8608 59.8929L52.2787 59.1655L52.7429 58.4691L53.2227 57.7881L53.7489 57.1381L54.306 56.5036L54.9096 55.8845L55.5287 55.2964L56.1941 54.7393L56.8751 54.1976L57.3084 53.95ZM56.8751 54.1976L57.0763 54.0583L57.3084 53.95L56.8751 54.1976ZM56.8751 54.2131L60.3108 58.8405L61.1775 57.8036L61.4715 56.5191L58.5929 59.4131L59.8775 59.1036L57.3084 53.95L58.5929 53.6405L55.7144 56.5191L56.0084 55.2345L56.8751 54.2131ZM56.0084 55.2345L56.3179 54.6155L56.8751 54.2131L56.0084 55.2345ZM57.3084 53.9036L60.5894 58.6393L60.6048 58.6238L60.5739 58.6393V58.6548L60.6048 58.6238L60.5429 58.6703L60.5739 58.6548L60.512 58.6857L60.4965 58.7012L60.5429 58.6703L60.5275 58.6857L60.4656 58.7322L60.4965 58.7012L60.481 58.7167L60.4656 58.7322L60.4191 58.7631L60.4037 58.7786L60.4346 58.7476L60.4191 58.7631L60.4037 58.7786L60.3418 58.8095L60.3727 58.7941L60.4037 58.7786L60.3572 58.8095H60.3418V58.825L60.3572 58.8095H60.3418V58.825H60.3263L60.3108 58.8405L56.8751 54.2131L56.8906 54.1976V54.1822H56.906L56.9215 54.1667L56.9525 54.1357H56.9679L57.0144 54.1048L57.0608 54.0738L57.0298 54.0893L57.0453 54.0738H57.0608L57.1072 54.0274H57.1227L57.0917 54.0429H57.1072V54.0274L57.1691 53.9964L57.1846 53.981L57.1537 54.0119V53.9964L57.2156 53.9655V53.95L57.1846 53.981L57.2465 53.9345H57.262L57.231 53.95L57.2775 53.9191L57.3084 53.9036ZM79.2072 55.3583L75.2298 59.5369L74.8739 59.2119L74.5025 58.9024L74.1156 58.6083L73.7132 58.3298L73.3108 58.0667L72.8775 57.8345L72.4596 57.6179L72.0108 57.4167L71.5775 57.231L71.1132 57.0762L70.6644 56.9369L70.1846 56.8131L69.7203 56.7048L69.2406 56.6119L68.7608 56.55L68.2656 56.5036L67.7703 56.4881L67.2906 56.4726L66.7953 56.5036L66.3001 56.5345L65.8048 56.5964L65.3096 56.6738L64.8298 56.7667L64.3346 56.8905L63.8548 57.0298L63.3751 57.2L62.8953 57.3857L62.4156 57.5869L61.9513 57.8191L61.487 58.0667L61.0382 58.3453L60.5894 58.6393L57.3084 53.9036L57.9584 53.4703L58.6239 53.0679L59.3048 52.6964L60.0013 52.356L60.6977 52.0464L61.3941 51.7679L62.106 51.5357L62.8334 51.3191L63.5608 51.1488L64.2882 50.9941L65.0156 50.8703L65.7429 50.7929L66.4858 50.731L67.2132 50.7155H67.9406L68.6679 50.7464L69.3953 50.8238L70.1227 50.9167L70.8346 51.0405L71.5465 51.1953L72.2429 51.381L72.9394 51.5976L73.6358 51.8453L74.3013 52.1238L74.9668 52.4179L75.6168 52.7583L76.2513 53.1143L76.8858 53.5012L77.4894 53.9191L78.0775 54.3679L78.6501 54.8476L79.2072 55.3583ZM81.4358 57.9429L76.7001 61.2393L76.6537 61.1774L76.6072 61.1155L76.5608 61.0536L76.5298 61.0072L76.4834 60.9607L76.4525 60.8988L76.3906 60.8214L76.3596 60.775L76.3132 60.7286L76.2668 60.6667L76.2203 60.6203L76.1739 60.5584L76.1429 60.4964L76.0965 60.45L76.0501 60.3881L76.0037 60.3417L75.9572 60.2953L75.9108 60.2333L75.8644 60.1869L75.8179 60.1405L75.7715 60.0786L75.7251 60.0322L75.6787 59.9703L75.6322 59.9238L75.5858 59.8774L75.5394 59.831L75.4775 59.7691L75.431 59.7226L75.3846 59.6762L75.3227 59.6298L75.2918 59.5833L75.2298 59.5369L79.2072 55.3583L79.2846 55.4203L79.362 55.5131L79.4394 55.575L79.5168 55.6524L79.5941 55.7298L79.656 55.7917L79.7334 55.8691L79.8108 55.9464L79.8882 56.0238L79.9501 56.1167L80.0275 56.1786L80.0894 56.256L80.1668 56.3488L80.2287 56.4262L80.306 56.5036L80.3834 56.5964L80.4453 56.6738L80.5227 56.7512L80.5846 56.8286L80.662 56.9214L80.7239 56.9988L80.7858 57.0762L80.8477 57.1691L80.9251 57.2619L80.987 57.3393L81.0489 57.4167L81.1108 57.4941L81.1882 57.5869L81.2501 57.6953L81.312 57.7726L81.3739 57.8655L81.4358 57.9429Z" fill="#8A5CC4"></path>
    <path d="M79.0679 59.5988C80.7548 62.0441 81.5596 64.8453 81.5286 67.6465C81.4822 72.2119 79.2381 76.7465 75.106 79.5941C71.1131 82.3643 66.2536 82.9369 62.0596 81.5441C59.2738 80.6155 56.7667 78.8357 54.9869 76.2667C50.6072 69.9524 52.2322 61.1929 58.5929 56.5191C58.7012 56.4417 58.825 56.3488 58.9488 56.2715C64.7679 52.2322 72.4286 52.8822 77.2262 57.4476C77.8917 58.0822 78.5107 58.7941 79.0679 59.5988Z" fill="white"></path>
  </g>
  <defs>
    <clipPath id="clip0_35_263">
      <rect width="104" height="104" fill="white"></rect>
    </clipPath>
  </defs>
</svg>
