<?xml version="1.0" encoding="UTF-8"?>
<svg xmlns="http://www.w3.org/2000/svg" width="104" height="104" viewBox="0 0 104 104" fill="none">
  <g clip-path="url(#clip0_1_211)">
    <path d="M101.134 51.9961C101.134 79.1302 79.1303 101.126 51.9961 101.126C24.862 101.126 2.86572 79.1302 2.86572 51.9961C2.86572 24.8619 24.862 2.86566 51.9961 2.86566C79.1303 2.86566 101.134 24.8619 101.134 51.9961Z" fill="#8A5CC4"></path>
    <path fill-rule="evenodd" clip-rule="evenodd" d="M62.3892 48.3574C62.3892 46.9518 62.0144 45.2262 61.6474 44.1252C61.3038 43.1023 60.3278 41.0097 60.2419 40.6505C60.4683 40.8144 60.9134 41.6265 61.0852 41.9467C61.3351 42.4152 61.6005 42.9149 61.8114 43.3678C63.1622 46.2881 63.6776 50.5437 61.7879 53.4172L61.702 53.5265C61.7957 52.4021 62.3892 52.3787 62.3892 48.3574ZM47.9515 57.3292C47.4908 57.2199 46.0696 56.0174 45.7651 55.6114C45.5387 55.3224 45.3825 55.2366 45.1639 54.9476C44.4143 53.9872 43.774 52.8472 43.3523 51.5822C41.2128 45.1793 45.8432 40.5177 48.5761 36.0045C48.7557 35.7156 48.8885 35.5282 49.0837 35.2471L51.9494 30.4996C51.9103 30.9837 51.6917 31.296 51.5199 31.7255C51.3481 32.1549 51.2232 32.436 51.0592 32.8343C50.7703 33.537 50.4189 34.2476 50.0597 34.9582L47.4127 40.1117C46.7958 41.3454 46.4835 41.9154 45.9447 43.3209C44.4299 47.272 44.6407 50.9029 46.2649 54.7212C46.6943 55.7441 47.4517 56.5874 47.9515 57.3292ZM52.1446 61.3271C55.182 61.3271 57.1732 61.0694 59.6953 59.414C60.4996 58.8909 61.2179 58.3599 61.8738 57.6962C63.9431 55.6192 65.575 52.5817 65.6062 49.5208C65.6062 49.0523 65.6921 48.982 65.6999 48.6385L65.4032 45.9211C64.6927 42.4152 63.1154 40.1039 61.2179 37.2382L57.0014 30.6167C56.4782 29.75 56.1269 28.8676 55.6115 28.0087C55.2133 27.345 53.7687 24.0108 53.5032 23.1909C53.3705 22.7771 53.3861 22.699 52.8239 22.699C52.3398 22.699 51.8557 24.409 51.4887 25.2601C49.3414 30.2497 47.2253 33.295 44.2269 37.8004C42.5012 40.3772 41.041 42.7431 40.432 45.804C40.2992 46.4677 40.2992 46.7879 40.2368 47.5687C39.9479 51.2308 41.5486 55.0726 43.9223 57.5478C45.8666 59.578 49.1383 61.3271 52.1446 61.3271Z" fill="#FEFEFE"></path>
    <path fill-rule="evenodd" clip-rule="evenodd" d="M13.6101 39.9634C14.1098 40.9004 19.4898 48.7556 20.6767 50.4579L23.3472 54.4245C23.6517 54.8774 23.8938 55.2444 24.2061 55.7129C24.3935 55.9862 24.495 56.1346 24.6746 56.4079C24.7683 56.5562 24.8152 56.6421 24.901 56.767L25.9786 58.3209C26.3456 58.8675 27.3216 60.5229 27.7589 60.843C28.0556 60.6244 30.9447 57.2668 31.1712 56.8373C31.6319 57.0872 32.8266 58.1569 33.2404 58.5708C33.5137 58.8441 33.6621 58.8987 33.9276 59.1564L41.3377 65.5983C41.5954 65.8482 41.7281 65.8951 41.978 66.1293C42.4465 66.5744 42.8369 66.8867 43.3367 67.3084L49.3882 72.5712C49.638 72.7977 49.7864 72.8758 50.0206 73.1022L52.6287 75.476H18.2014C17.9672 75.9679 18.4669 78.1308 18.0999 78.8882H87.7508C87.4463 78.2557 87.6571 76.8502 87.6962 76.085L87.6727 75.5697L54.3855 75.476C54.7213 74.9684 63.0607 68.1985 63.3652 67.9643C64.9035 66.7618 66.3558 65.4031 67.8941 64.2006L80.2704 53.9482C82.5114 52.0586 84.8539 50.2783 87.0402 48.334C87.6883 47.7562 90.0465 46.0305 90.3822 45.523C90.187 44.8046 89.211 44.3907 89.0158 43.6724C88.6175 43.9379 88.2427 44.2424 87.8679 44.5781L86.1735 45.9993C84.2292 47.5453 81.1605 50.3173 79.4895 51.5042L68.9872 60.2262C66.5588 62.1783 64.2319 64.2553 61.7879 66.1918C60.1091 67.527 58.5162 68.9872 56.8296 70.299C55.7442 71.1423 54.6276 72.2823 53.511 73.0319L52.5115 72.173C52.3944 72.0559 52.4881 72.134 52.3788 72.0246C52.2226 71.8607 52.3632 71.9856 52.2304 71.8763L44.422 65.1454C44.0004 64.8097 43.5943 64.3724 43.1805 64.0445L40.5569 61.7956C39.5418 60.7806 37.2071 58.9456 36.028 57.8446L34.7084 56.7202C34.1462 56.197 33.459 55.5021 32.8266 55.0882C33.5371 54.0341 35.8172 51.7697 36.3403 50.9888L22.0978 44.0628C21.6371 43.8285 21.1686 43.563 20.6611 43.3522C20.3644 43.2273 20.1614 43.118 19.9349 43.0087C19.0682 42.5948 14.2426 40.1117 13.6101 39.9634Z" fill="#FEFEFE"></path>
    <path fill-rule="evenodd" clip-rule="evenodd" d="M69.4089 37.5271C69.4089 36.2388 70.0726 34.9113 70.7207 33.8572L73.8987 29.0394C73.8206 29.3752 73.6254 29.7656 73.4771 30.0779C72.4854 32.1315 70.6817 35.2705 70.6817 37.4256C70.6817 39.0029 70.9393 40.2991 71.7905 41.5797C71.9076 41.7515 71.9388 41.7593 72.0403 41.9155C70.7598 41.5719 69.4089 39.2372 69.4089 37.5271ZM66.7775 37.5271C66.7775 39.1044 67.4958 41.2127 68.5031 42.3293C69.1512 43.0477 68.9014 42.9462 69.9399 43.727C74.5468 47.2095 81.6056 43.8207 81.6056 37.7223C81.6056 33.1466 77.2251 29.5391 75.1793 24.5418C74.1174 21.9416 74.2579 22.1368 73.2194 24.4559C72.9071 25.1508 72.6494 25.6896 72.3058 26.3767C71.7826 27.4153 70.4006 29.547 69.6666 30.6557L68.0424 33.2325C67.4412 34.271 66.7775 35.8874 66.7775 37.5271Z" fill="#FEFEFE"></path>
  </g>
  <defs>
    <clipPath id="clip0_1_211">
      <rect width="104" height="104" fill="white"></rect>
    </clipPath>
  </defs>
</svg>
