<?xml version="1.0" encoding="UTF-8"?>
<svg xmlns="http://www.w3.org/2000/svg" width="104" height="104" viewBox="0 0 104 104" fill="none">
  <path d="M97.7388 51.9887C97.7388 77.2597 77.2597 97.7614 51.9887 97.7614C26.7177 97.7614 6.23865 77.2597 6.23865 51.9887C6.23865 26.7177 26.7177 6.23865 51.9887 6.23865C77.2597 6.23865 97.7388 26.7177 97.7388 51.9887Z" fill="#8A5CC4"></path>
  <path d="M81.8709 71.88H21.1119V78.2543H81.8709V71.88Z" fill="white"></path>
  <path d="M44.959 16.3425C44.7555 15.7096 45.0946 15.0315 45.7275 14.8281C46.3604 14.6247 47.0159 14.9637 47.2193 15.5966L49.5927 22.7394C49.7962 23.3497 49.4571 24.0278 48.8242 24.2313C48.2139 24.4347 47.5358 24.0956 47.3324 23.4853L44.959 16.3425ZM54.4073 44.8685C54.2039 44.2356 54.543 43.5575 55.1533 43.3541C55.7862 43.1506 56.4643 43.4897 56.6677 44.1226L59.0185 51.2654C59.2219 51.8757 58.8829 52.5538 58.2726 52.7572C57.6397 52.9607 56.9616 52.6216 56.7581 52.0113L54.4073 44.8685ZM54.656 15.1671C54.7916 14.5116 55.4245 14.1048 56.0574 14.2404C56.7129 14.376 57.1198 15.0089 56.9842 15.6418L55.4471 23.0107C55.3115 23.6662 54.6786 24.073 54.0457 23.9374C53.4128 23.8018 52.9833 23.1689 53.1189 22.536L54.656 15.1671ZM48.5304 44.5747C48.666 43.9418 49.2989 43.5349 49.9544 43.6479C50.5873 43.7835 50.9942 44.4164 50.8585 45.0719L49.3441 52.4182C49.2085 53.0737 48.5756 53.4806 47.9427 53.3449C47.2871 53.2093 46.8803 52.5764 47.0159 51.9435L48.5304 44.5747ZM63.6297 19.0098C64.0592 18.5125 64.8051 18.4673 65.3024 18.8968C65.7996 19.3488 65.8222 20.0948 65.3928 20.5921L60.3747 26.1978C59.9453 26.6725 59.1993 26.7177 58.7021 26.2882C58.2274 25.8587 58.1822 25.0902 58.6116 24.6155L63.6297 19.0098ZM43.6027 41.4101C44.0548 40.9129 44.8007 40.8676 45.2754 41.2971C45.7727 41.7492 45.8179 42.4951 45.3884 42.9924L40.3704 48.5981C39.9183 49.0728 39.1724 49.118 38.6977 48.6886C38.2004 48.2591 38.1552 47.4905 38.5847 47.0159L43.6027 41.4101ZM69.4841 26.8081C70.0944 26.6047 70.7725 26.9437 70.9759 27.5766C71.1793 28.1869 70.8403 28.865 70.2074 29.0685L63.0646 31.4193C62.4317 31.6227 61.7762 31.2836 61.5727 30.6507C61.3693 30.0178 61.7084 29.3623 62.3187 29.1589L69.4841 26.8081ZM40.9355 36.1661C41.5458 35.9852 42.2239 36.3243 42.4273 36.9346C42.6308 37.5675 42.2917 38.2456 41.6588 38.449L34.516 40.7772C33.8831 40.9807 33.2276 40.6416 33.0242 40.0313C32.8207 39.3984 33.1598 38.7203 33.7927 38.5169L40.9355 36.1661ZM70.6143 36.5051C71.2698 36.6407 71.6766 37.251 71.541 37.9065C71.4054 38.5395 70.7725 38.9689 70.1396 38.8333L62.7707 37.2736C62.1378 37.138 61.7084 36.5051 61.844 35.8722C61.9796 35.2393 62.6125 34.8098 63.268 34.9455L70.6143 36.5051ZM41.2293 30.3117C41.8622 30.4473 42.2691 31.0802 42.1335 31.7131C41.9979 32.3686 41.3876 32.7755 40.7321 32.6399L33.3632 31.1028C32.7303 30.9672 32.3234 30.3343 32.4591 29.6788C32.5947 29.0459 33.205 28.639 33.8605 28.7746L41.2293 30.3117ZM66.7716 45.4562C67.2463 45.9083 67.2915 46.6542 66.862 47.1515C66.4099 47.6262 65.664 47.6714 65.1667 47.2193L59.5836 42.2013C59.0863 41.7718 59.0411 41.0033 59.4932 40.5286C59.9227 40.0313 60.6912 39.9861 61.1659 40.4382L66.7716 45.4562ZM44.4165 25.3841C44.9138 25.8361 44.9364 26.5821 44.5069 27.0793C44.0548 27.554 43.3089 27.5992 42.8342 27.1698L37.2285 22.1291C36.7312 21.6996 36.686 20.9311 37.1381 20.4564C37.5675 19.9591 38.3361 19.9139 38.8107 20.366L44.4165 25.3841Z" fill="white"></path>
  <path d="M22.2195 54.9498C21.903 54.543 21.9934 53.9553 22.4003 53.6614C22.8072 53.3676 23.3949 53.458 23.6887 53.8649L34.9906 69.258L38.788 63.7879C39.0819 63.381 39.647 63.2906 40.0765 63.5619C40.4833 63.8557 40.5963 64.4434 40.3025 64.8503L35.8043 71.2924C35.7365 71.4054 35.6461 71.4958 35.5557 71.5636C35.1488 71.8575 34.5611 71.767 34.2673 71.3602L22.2195 54.9498Z" fill="white"></path>
  <path d="M22.0387 70.9759H81.9613C82.4586 70.9759 82.8881 71.3828 82.8881 71.88V78.3899C82.8881 78.8872 82.4586 79.2941 81.9613 79.2941H22.0387C21.5188 79.2941 21.1119 78.8872 21.1119 78.3899V71.88C21.1119 71.3828 21.5188 70.9759 22.0387 70.9759ZM81.0346 72.8068H22.9428V77.4632H81.0346V72.8068Z" fill="white"></path>
  <path d="M51.9887 41.9752C56.5078 41.9752 60.1713 38.3118 60.1713 33.7927C60.1713 29.2736 56.5078 25.6101 51.9887 25.6101C47.4696 25.6101 43.8062 29.2736 43.8062 33.7927C43.8062 38.3118 47.4696 41.9752 51.9887 41.9752Z" fill="white"></path>
  <path fill-rule="evenodd" clip-rule="evenodd" d="M36.5277 64.0365L38.9011 62.9515L41.2971 61.8439L41.0485 64.466L40.8224 67.088L38.6751 65.5736L36.5277 64.0365Z" fill="white"></path>
  <path d="M42.4951 54.9498C42.1786 54.543 42.2691 53.9553 42.6759 53.6614C43.1054 53.3676 43.6705 53.458 43.9644 53.8649L55.2662 69.258L59.0637 63.7879C59.3575 63.381 59.9452 63.2906 60.3521 63.5619C60.759 63.8557 60.872 64.4434 60.5781 64.8503L56.08 71.2924C56.0122 71.4054 55.9218 71.4958 55.8313 71.5636C55.4245 71.8575 54.8368 71.767 54.5429 71.3602L42.4951 54.9498Z" fill="white"></path>
  <path fill-rule="evenodd" clip-rule="evenodd" d="M56.8033 64.0365L59.1767 62.9515L61.5727 61.8439L61.3467 64.466L61.0981 67.088L58.9507 65.5736L56.8033 64.0365Z" fill="white"></path>
  <path d="M62.7707 54.9498C62.4542 54.543 62.5447 53.9553 62.9741 53.6614C63.381 53.3676 63.9461 53.458 64.2399 53.8649L75.5418 69.258L79.3393 63.7879C79.6331 63.381 80.2208 63.2906 80.6277 63.5619C81.0346 63.8557 81.1476 64.4434 80.8537 64.8503L76.3556 71.2924C76.2878 71.4054 76.2199 71.4958 76.1069 71.5636C75.7001 71.8575 75.135 71.767 74.8185 71.3602L62.7707 54.9498Z" fill="white"></path>
  <path fill-rule="evenodd" clip-rule="evenodd" d="M77.0789 64.0365L79.4749 62.9515L81.8483 61.8439L81.6222 64.466L81.3736 67.088L79.2262 65.5736L77.0789 64.0365Z" fill="white"></path>
</svg>
