<?xml version="1.0" encoding="UTF-8"?>
<svg xmlns="http://www.w3.org/2000/svg" width="104" height="104" viewBox="0 0 104 104" fill="none">
  <g clip-path="url(#clip0_36_301)">
    <path d="M102.696 52C102.696 80.0022 80.0023 102.696 52.0001 102.696C23.9979 102.696 1.29688 80.0022 1.29688 52C1.29688 23.9978 23.9979 1.29678 52.0001 1.29678C80.0023 1.29678 102.696 23.9978 102.696 52Z" fill="#8A5CC4"></path>
    <path fill-rule="evenodd" clip-rule="evenodd" d="M39.1321 81.5483L14.6498 56.4248C13.923 55.6766 13.9301 54.4724 14.6783 53.7385L23.3853 45.1954C24.1263 44.4615 25.3448 44.4757 26.0715 45.2239L40.6783 60.2083L77.9219 22.4445C78.6558 21.7035 79.8671 21.6892 80.6081 22.4231L89.3152 30.9663C90.0633 31.7002 90.0776 32.9115 89.3437 33.6525C74.2952 48.929 57.1019 66.5853 41.8254 81.5768C41.0773 82.3036 39.866 82.2965 39.1321 81.5483Z" fill="white"></path>
  </g>
  <defs>
    <clipPath id="clip0_36_301">
      <rect width="104" height="104" fill="white"></rect>
    </clipPath>
  </defs>
</svg>
