<?xml version="1.0" encoding="UTF-8"?>
<svg xmlns="http://www.w3.org/2000/svg" width="104" height="104" viewBox="0 0 104 104" fill="none">
  <path fill-rule="evenodd" clip-rule="evenodd" d="M102.701 52C102.701 80.0031 80.0031 102.701 52 102.701C23.9969 102.701 1.29932 80.0031 1.29932 52C1.29932 23.9969 23.9969 1.29932 52 1.29932C80.0031 1.29932 102.701 23.9969 102.701 52Z" fill="#8A5CC4"></path>
  <path d="M73.2628 63.4909C73.9802 63.4909 74.5622 64.0729 74.5622 64.7902C74.5622 66.3061 75.1983 67.7002 76.1999 68.7017C77.2014 69.7168 78.5955 70.3394 80.1249 70.3394C80.8287 70.3394 81.4107 70.9214 81.4107 71.6387C81.4107 72.3561 80.8287 72.9381 80.1249 72.9381C78.5955 72.9381 77.2014 73.5606 76.1999 74.5622C75.1983 75.5638 74.5622 76.9578 74.5622 78.4872C74.5622 79.2046 73.9802 79.7866 73.2764 79.7866C72.559 79.7866 71.9771 79.2046 71.9771 78.4872C71.9771 76.9578 71.3409 75.5638 70.3394 74.5622C69.3378 73.5606 67.9437 72.9381 66.4143 72.9381C65.697 72.9381 65.1285 72.3561 65.1285 71.6387C65.1285 70.9214 65.697 70.3394 66.4143 70.3394C67.9437 70.3394 69.3378 69.7168 70.3394 68.7017L70.407 68.6476C71.368 67.646 71.9771 66.279 71.9771 64.7902C71.9771 64.0729 72.559 63.4909 73.2628 63.4909ZM74.3591 70.5424C73.9531 70.1229 73.5877 69.6627 73.2764 69.1754C72.9651 69.6356 72.6267 70.0687 72.2478 70.4612L72.1801 70.5424C71.7605 70.9485 71.3139 71.3139 70.8131 71.6387C71.3139 71.95 71.7605 72.3155 72.1801 72.735C72.5861 73.1411 72.9515 73.5877 73.2764 74.0885C73.5877 73.5877 73.9531 73.1411 74.3591 72.735C74.7787 72.3155 75.2389 71.95 75.7261 71.6387C75.2389 71.3139 74.7787 70.9485 74.3591 70.5424Z" fill="#FEFEFE"></path>
  <path d="M23.3337 18.6642H77.5128C79.0151 18.6642 80.3821 19.2733 81.3566 20.2613C82.3447 21.2494 82.9537 22.6028 82.9537 24.0916V27.5835H83.1161C85.4441 27.5835 87.569 28.531 89.0984 30.0604C90.6414 31.6033 91.5888 33.7147 91.5888 36.0427V41.4159C91.5888 43.7304 90.6414 45.8553 89.0984 47.3847C87.5555 48.9276 85.4441 49.8751 83.1161 49.8751H74.2374H74.1833H70.7726H70.732H62.1916C59.9449 49.8751 57.5628 50.836 55.7356 52.379C54.0979 53.773 52.9339 55.6137 52.8257 57.5763L52.6632 60.5403L56.5206 62.9224C57.1432 63.3014 57.4816 63.9511 57.4816 64.6278V88.4081C57.4816 90.2624 56.7236 91.9407 55.519 93.1588C54.2874 94.3769 52.6091 95.1348 50.7684 95.1348C48.9141 95.1348 47.2359 94.3769 46.0177 93.1588C44.7996 91.9407 44.0417 90.2624 44.0417 88.4081V64.6278C44.0417 63.8293 44.5019 63.139 45.1651 62.8142L48.6164 60.6892L48.8059 57.3597C48.9818 54.2061 50.7007 51.3639 53.1369 49.3066C55.6544 47.1817 58.9974 45.8417 62.1916 45.8417H70.732H70.7726H74.1833H74.2374H83.1161C84.3478 45.8417 85.4441 45.341 86.2426 44.5424C87.0547 43.7439 87.5419 42.634 87.5419 41.4159V36.0427C87.5419 34.8246 87.0547 33.7283 86.2426 32.9162C85.4441 32.1176 84.3342 31.6169 83.1161 31.6169H82.9537V35.5013C82.9537 36.9766 82.3447 38.33 81.3702 39.3181C80.3821 40.3061 79.0151 40.9151 77.5128 40.9151H58.3342C58.0229 42.6205 57.0891 44.177 55.8033 45.3139C54.5039 46.4373 52.8527 47.1546 51.0797 47.1546H42.8912V48.8194C42.8912 50.2946 42.2822 51.6481 41.3077 52.6226C40.3332 53.5971 38.9933 54.1926 37.5045 54.1926C37.0443 54.1926 36.5976 54.1385 36.1645 54.0302V54.1385C36.1645 55.6137 35.5555 56.9672 34.581 57.9417L34.4456 58.0635C33.4712 58.9703 32.1854 59.5252 30.7778 59.5252C29.3025 59.5252 27.949 58.9162 26.9745 57.9417C26 56.9672 25.391 55.6137 25.391 54.1385V40.9151H23.3337C21.8314 40.9151 20.4644 40.3061 19.4764 39.3181C18.5019 38.3436 17.8793 36.9766 17.8793 35.5013V24.0916C17.8793 22.6028 18.5019 21.2493 19.4764 20.2749L19.544 20.2072C20.5185 19.2598 21.8584 18.6642 23.3337 18.6642ZM54.152 40.9151H29.4378V54.1385C29.4378 54.5039 29.5867 54.8423 29.8303 55.0859C30.074 55.3295 30.4123 55.4784 30.7778 55.4784C31.1161 55.4784 31.4274 55.3566 31.6575 55.1536L31.7252 55.0859C31.9688 54.8423 32.1177 54.5039 32.1177 54.1385V49.5908V49.5367V48.8194V48.8058C32.1177 47.696 33.0245 46.7892 34.1479 46.7892C35.2577 46.7892 36.1645 47.696 36.1645 48.8058V48.8194V48.8329V48.8464C36.1645 49.1713 36.2999 49.469 36.4894 49.6991L36.557 49.7668C36.8007 50.0104 37.139 50.1593 37.5045 50.1593C37.8699 50.1593 38.2083 50.0104 38.4519 49.7668C38.6955 49.5232 38.8444 49.1848 38.8444 48.8194V45.1379C38.8444 44.0281 39.7512 43.1213 40.8746 43.1213H51.0797C51.8376 43.1213 52.5685 42.7965 53.1505 42.2821C53.5836 41.9032 53.922 41.443 54.152 40.9151ZM50.7819 64.0999H50.7413L48.075 65.7376V88.4081C48.075 89.1525 48.3728 89.8293 48.86 90.3165C49.3473 90.7902 50.024 91.1015 50.7684 91.1015C51.4993 91.1015 52.176 90.7902 52.6632 90.3165C53.1505 89.8293 53.4483 89.1525 53.4483 88.4081V65.7376L50.7819 64.0999ZM77.5128 22.6569H23.3337C22.9548 22.6569 22.6164 22.8058 22.3592 23.0495L22.3457 23.063C22.0885 23.3201 21.9261 23.6856 21.9261 24.0916V35.5013C21.9261 35.8938 22.0885 36.2592 22.3322 36.5164C22.5893 36.76 22.9412 36.9224 23.3337 36.9224H77.5128C77.8918 36.9224 78.2437 36.7736 78.5008 36.5164C78.758 36.2592 78.9204 35.8938 78.9204 35.5013V24.0916C78.9204 23.6856 78.758 23.3337 78.5008 23.0765C78.2572 22.8194 77.9053 22.6569 77.5128 22.6569Z" fill="#FEFEFE"></path>
</svg>
