<?xml version="1.0" encoding="UTF-8"?>
<svg xmlns="http://www.w3.org/2000/svg" width="102" height="102" viewBox="0 0 102 102" fill="none">
  <g clip-path="url(#clip0_10_117)">
    <path d="M101.894 51C101.894 79.1064 79.1118 101.894 51.0011 101.894C22.8928 101.894 0.106384 79.1064 0.106384 51C0.106384 22.8913 22.8928 0.106383 51.0011 0.106383C79.1118 0.106383 101.894 22.8913 101.894 51Z" fill="#8A5CC4"></path>
    <path d="M48.3608 15.0419L23.3397 27.8392C21.3893 28.8362 20.1356 30.8002 20.0439 32.9889C19.5832 43.5082 20.798 74.2639 48.9315 87.185C50.4052 87.8564 52.115 87.735 53.5062 86.926C61.0673 82.5349 84.5069 66.1556 81.8048 33.1997C81.642 31.2082 80.4181 29.4458 78.6648 28.4924L54.0196 15.113C52.2617 14.1596 50.1439 14.1321 48.3608 15.0419Z" fill="#FEFEFE"></path>
    <path d="M67.7529 56.5071C67.0424 52.8609 65.5366 49.2307 63.7122 45.9787C60.1551 39.6557 56.2772 33.5114 52.6055 27.5436C51.8194 26.2717 49.9721 26.3267 49.2799 27.649C48.2302 29.6383 47.0934 31.7903 45.858 33.8873C43.9397 37.1668 41.7578 40.2882 39.8119 43.5517C38.3061 46.0841 36.8141 48.6509 35.5993 51.3323C30.3714 62.8485 38.3107 75.2516 50.8178 75.3731C60.6502 75.4716 69.7469 66.7285 67.7529 56.5071Z" fill="#8A5CC4"></path>
    <path d="M50.5368 66.2093C49.0055 66.2093 47.6433 65.9607 46.4501 65.4635C45.2636 64.9598 44.3322 64.2737 43.6561 63.4053C42.9799 62.5369 42.6419 61.5526 42.6419 60.4522C42.6419 59.6037 42.8341 58.8248 43.2186 58.1155C43.6097 57.3996 44.14 56.8064 44.8095 56.3357C45.479 55.8584 46.228 55.5535 47.0566 55.4209V55.2817C45.9695 55.063 45.0879 54.536 44.4118 53.7008C43.7356 52.8589 43.3976 51.8812 43.3976 50.7675C43.3976 49.7135 43.7058 48.7756 44.3223 47.9536C44.9387 47.125 45.7839 46.4754 46.8578 46.0047C47.9383 45.5275 49.1646 45.2888 50.5368 45.2888C51.9089 45.2888 53.1319 45.5275 54.2058 46.0047C55.2863 46.482 56.1348 47.1349 56.7512 47.9635C57.3677 48.7855 57.6793 49.7202 57.6859 50.7675C57.6793 51.8878 57.3346 52.8655 56.6518 53.7008C55.969 54.536 55.094 55.063 54.0268 55.2817V55.4209C54.8422 55.5535 55.5813 55.8584 56.2441 56.3357C56.9137 56.8064 57.444 57.3996 57.8351 58.1155C58.2328 58.8248 58.435 59.6037 58.4416 60.4522C58.435 61.5526 58.0936 62.5369 57.4174 63.4053C56.7413 64.2737 55.8066 64.9598 54.6135 65.4635C53.4269 65.9607 52.068 66.2093 50.5368 66.2093ZM50.5368 63.0474C51.2195 63.0474 51.8161 62.9247 52.3265 62.6795C52.8369 62.4276 53.2347 62.0829 53.5197 61.6454C53.8114 61.2012 53.9572 60.6908 53.9572 60.1141C53.9572 59.5242 53.8081 59.0038 53.5098 58.553C53.2115 58.0957 52.8071 57.7377 52.2967 57.4792C51.7863 57.214 51.1996 57.0814 50.5368 57.0814C49.8805 57.0814 49.2939 57.214 48.7768 57.4792C48.2598 57.7377 47.8521 58.0957 47.5538 58.553C47.2621 59.0038 47.1163 59.5242 47.1163 60.1141C47.1163 60.6908 47.2588 61.2012 47.5439 61.6454C47.8289 62.0829 48.2299 62.4276 48.747 62.6795C49.264 62.9247 49.8606 63.0474 50.5368 63.0474ZM50.5368 53.9493C51.1068 53.9493 51.6139 53.8333 52.0581 53.6013C52.5022 53.3693 52.8502 53.0478 53.1021 52.6368C53.354 52.2259 53.4799 51.7519 53.4799 51.215C53.4799 50.6847 53.354 50.2206 53.1021 49.8229C52.8502 49.4186 52.5055 49.1037 52.068 48.8783C51.6305 48.6463 51.1201 48.5303 50.5368 48.5303C49.9601 48.5303 49.4496 48.6463 49.0055 48.8783C48.5614 49.1037 48.2134 49.4186 47.9615 49.8229C47.7162 50.2206 47.5936 50.6847 47.5936 51.215C47.5936 51.7519 47.7195 52.2259 47.9714 52.6368C48.2233 53.0478 48.5713 53.3693 49.0155 53.6013C49.4596 53.8333 49.9667 53.9493 50.5368 53.9493Z" fill="#FEFEFE"></path>
  </g>
  <defs>
    <clipPath id="clip0_10_117">
      <rect width="102" height="102" fill="white"></rect>
    </clipPath>
  </defs>
</svg>
