<?xml version="1.0" encoding="UTF-8"?>
<svg xmlns="http://www.w3.org/2000/svg" width="104" height="104" viewBox="0 0 104 104" fill="none">
  <path d="M102.7 52C102.7 80.0012 80.0049 102.7 52 102.7C23.9988 102.7 1.30029 80.0012 1.30029 52C1.30029 23.9988 23.9988 1.30029 52 1.30029C80.0049 1.30029 102.7 23.9988 102.7 52Z" fill="#8A5CC4"></path>
  <path d="M49.3694 16.1784L24.446 28.9294C22.5031 29.9215 21.2517 31.8757 21.1615 34.0591C20.703 44.5403 21.9131 75.1796 49.9406 88.0509C51.4062 88.7161 53.1124 88.5958 54.4953 87.7916C62.0302 83.4135 85.3789 67.0961 82.6881 34.2696C82.5228 32.2853 81.3052 30.5303 79.5577 29.5758L55.0064 16.2498C53.2552 15.3028 51.1469 15.2727 49.3694 16.1784Z" fill="#FEFEFE"></path>
  <path d="M68.6894 57.4868C67.9791 53.8528 66.4834 50.2375 64.6645 46.9981C61.1207 40.6996 57.2574 34.5778 53.6009 28.6326C52.8154 27.3699 50.974 27.4225 50.2863 28.7378C49.2415 30.722 48.1066 32.8641 46.8777 34.9536C44.9649 38.2193 42.7927 41.331 40.8536 44.5817C39.3541 47.1033 37.866 49.6588 36.6596 52.3308C31.451 63.8041 39.3579 76.1605 51.8196 76.2808C61.613 76.3822 70.6774 67.6673 68.6894 57.4868Z" fill="#8A5CC4"></path>
  <path d="M60.4105 60.1587H57.7009V54.2398H53.4356V60.1587H48.3434L53.7249 46.6937H49.298L42.9957 62.6428V63.789H53.4356V67.6372H57.7009V63.789H60.4105V60.1587Z" fill="#FEFEFE"></path>
</svg>
