<?xml version="1.0" encoding="UTF-8"?>
<svg xmlns="http://www.w3.org/2000/svg" width="104" height="104" viewBox="0 0 104 104" fill="none">
  <g clip-path="url(#clip0_14_328)">
    <path d="M102.7 52.0006C102.7 79.9985 80.001 102.7 51.998 102.7C23.9989 102.7 1.2998 79.9985 1.2998 52.0006C1.2998 24.0028 23.9989 1.30115 51.998 1.30115C80.001 1.30115 102.7 24.0028 102.7 52.0006Z" fill="#8A5CC4"></path>
    <path fill-rule="evenodd" clip-rule="evenodd" d="M44.0273 52.557C44.2067 52.6486 44.4068 52.6977 44.6081 52.6977C45.3116 52.6977 45.8809 52.1272 45.8809 51.4237C45.8809 51.2778 45.8563 51.1306 45.806 50.9938C45.6008 50.4181 45.4781 49.814 45.4433 49.2034C45.0844 43.1134 48.9233 40.311 51.8251 39.0679C51.7399 39.4887 51.6973 39.9186 51.6973 40.3484C51.6973 40.4685 51.7012 40.5924 51.7076 40.7124C51.8135 42.699 52.7338 44.3254 54.0543 44.8598L54.1679 44.9012C54.2596 44.9347 54.3551 44.9618 54.4493 44.9851C54.7927 45.0715 55.1464 45.1154 55.5001 45.1154C56.2087 45.1154 56.9083 44.9386 57.5331 44.603C58.2185 45.7957 58.5812 47.1498 58.5812 48.5258C58.5812 48.7078 58.5748 48.8937 58.5632 49.0744C58.4444 49.8295 58.2172 50.5666 57.8932 51.2571C57.8106 51.4301 57.7667 51.6199 57.7667 51.8122C57.7667 52.5157 58.3373 53.0862 59.0408 53.0862C59.2176 53.0862 59.3932 53.0488 59.5545 52.9778C65.1321 50.6621 68.8613 45.3103 69.0975 39.2758C70.4361 16.5122 46.8813 12.9147 46.6437 12.8811C46.5844 12.8733 46.5237 12.8695 46.4656 12.8695C45.7621 12.8695 45.1916 13.4387 45.1916 14.1422C45.1916 14.6134 45.4523 15.0458 45.868 15.2665C48.1721 16.4928 48.8652 19.3817 48.7439 21.6754C48.6161 24.0867 47.6325 26.1959 46.4669 26.6683L46.3404 26.7148C46.2875 26.7342 46.2333 26.7522 46.1791 26.7664C45.7608 26.8916 45.3245 26.9549 44.8869 26.9549C43.5871 26.9549 42.3492 26.3934 41.496 25.4137C41.2559 25.078 40.8699 24.878 40.4569 24.878C40.129 24.878 39.814 25.0045 39.5778 25.2317C33.9873 30.5731 34.8792 38.9905 34.9283 39.4048C35.8964 45.3749 39.1273 50.0464 44.0273 52.557ZM40.4969 27.9734C41.7528 28.957 43.3031 29.4914 44.8998 29.4914C45.5246 29.4914 46.1481 29.4087 46.7509 29.2487C46.898 29.2125 47.0439 29.1674 47.1872 29.1157L47.2685 29.086L47.355 29.0538C49.5584 28.1657 51.1009 25.322 51.2868 21.8097C51.2997 21.5877 51.3075 21.3618 51.3075 21.1385C51.3075 19.5056 50.9512 17.8933 50.2645 16.4128C52.637 17.1821 54.9076 18.2535 57.009 19.5934C63.8478 24.0144 67.0568 30.5873 66.5546 39.1273C66.3984 43.1456 64.3822 46.8671 61.1048 49.1957C61.1693 48.2224 61.2339 44.4339 58.5864 41.9052C58.3515 41.687 58.043 41.5657 57.7216 41.5657C57.7164 41.5657 57.7112 41.5657 57.7048 41.5657C57.6738 41.5657 57.6402 41.5657 57.608 41.5695C57.2452 41.5992 56.9122 41.7787 56.6863 42.0639C56.3856 42.3918 55.9609 42.579 55.5143 42.579C55.3426 42.579 55.1709 42.5506 55.0083 42.4964C54.5242 42.0355 54.2505 41.3953 54.2505 40.7279C54.2505 40.6776 54.2518 40.6273 54.2557 40.5769C54.2054 39.6411 54.4648 38.4755 55.3374 38.0108C55.7543 37.79 56.0138 37.3576 56.0138 36.8852C56.0138 36.1817 55.4445 35.6124 54.7411 35.6124C54.6817 35.6124 54.621 35.6163 54.5616 35.6253C54.4403 35.6421 42.5815 37.4531 42.881 48.8136C40.5408 46.9742 38.2457 43.9563 37.4492 39.0589C37.4428 38.9879 36.7703 32.4615 40.4969 27.9734Z" fill="white"></path>
    <path fill-rule="evenodd" clip-rule="evenodd" d="M85.4651 67.6764H55.074L78.3359 44.4158V47.9656C78.3359 48.6691 78.9064 49.2383 79.6086 49.2383C80.3121 49.2383 80.8827 48.6691 80.8827 47.9656V41.345C80.8827 40.6427 80.3121 40.0722 79.6086 40.0722H72.9893C72.2858 40.0722 71.7153 40.6427 71.7153 41.345C71.7153 42.0484 72.2858 42.619 72.9893 42.619H76.5391L52.0006 67.1497L25.2923 40.4427C25.0561 40.2129 24.7385 40.0851 24.4081 40.0851C23.7046 40.0851 23.134 40.6557 23.134 41.3579C23.134 41.6883 23.2631 42.0046 23.4916 42.2421L48.9259 67.6764H18.5348C17.8313 67.6764 17.2621 68.2469 17.2621 68.9504V73.4747C17.2621 74.1769 17.8313 74.7475 18.5348 74.7475H85.4651C86.1686 74.7475 86.7378 74.1769 86.7378 73.4747V68.9504C86.7378 68.2469 86.1686 67.6764 85.4651 67.6764ZM84.1923 70.2232V72.2007H19.8076V70.2232H84.1923Z" fill="white"></path>
    <path fill-rule="evenodd" clip-rule="evenodd" d="M85.4651 79.9185H18.5348C17.8313 79.9185 17.2621 80.489 17.2621 81.1912C17.2621 81.8947 17.8313 82.4653 18.5348 82.4653H85.4651C86.1686 82.4653 86.7378 81.8947 86.7378 81.1912C86.7378 80.489 86.1686 79.9185 85.4651 79.9185Z" fill="white"></path>
  </g>
  <defs>
    <clipPath id="clip0_14_328">
      <rect width="104" height="104" fill="white"></rect>
    </clipPath>
  </defs>
</svg>
