<?xml version="1.0" encoding="UTF-8"?>
<svg xmlns="http://www.w3.org/2000/svg" width="104" height="104" viewBox="0 0 104 104" fill="none">
  <g clip-path="url(#clip0_14_301)">
    <path d="M102.699 52C102.699 79.9963 80.0032 102.699 52 102.699C23.9968 102.699 1.30121 79.9963 1.30121 52C1.30121 24.0037 23.9968 1.30121 52 1.30121C80.0032 1.30121 102.699 24.0037 102.699 52Z" fill="#8A5CC4"></path>
    <path d="M51.4521 91.9947C52.856 91.5222 57.3418 87.0844 58.3416 86.0572C58.8963 85.4956 59.3278 84.9409 59.8962 84.4272C60.5811 83.8109 60.855 83.3246 61.4303 82.7631L64.3134 79.4073C68.6759 73.6547 70.7099 71.2783 74.4696 64.3134C80.8044 52.5821 85.0778 38.2826 84.8039 22.634C82.8589 22.3738 66.9638 19.7851 66.1968 19.4632L51.863 12.0121C51.2672 11.8888 39.2619 18.5934 37.6046 19.3947C36.8855 19.7371 21.141 22.3669 19.1892 22.634C19.0934 30.9685 20.0453 38.4949 22.1341 46.172C23.0449 49.5072 24.1064 52.5205 25.3186 55.616C26.5307 58.7183 27.9073 61.2659 29.2907 64.1285C31.6328 68.9635 35.9953 75.1202 39.2688 79.2635C40.9193 81.3523 42.1314 82.5371 43.6312 84.3382C43.8915 84.6395 44.0695 84.8724 44.3435 85.1532L48.2608 89.002C49.4181 89.9745 50.4659 90.9195 51.4521 91.9947Z" fill="#FEFEFE"></path>
    <path fill-rule="evenodd" clip-rule="evenodd" d="M35.0479 45.0751C35.1777 45.6408 36.884 47.1709 37.3059 47.5975L42.0956 52.3872C42.4666 52.7581 43.0369 53.2032 43.8251 52.8276C44.2795 52.6144 44.7015 52.0487 44.5484 51.3439C44.3954 50.616 42.8236 49.2713 42.3275 48.7752L37.5378 43.9809C36.4111 42.8634 34.6909 43.5033 35.0479 45.0751ZM37.3338 36.998C37.4543 37.6008 38.5532 38.5328 38.9381 38.9222C40.3151 40.2947 48.9811 49.1693 49.5978 49.3965C50.5993 49.7721 51.5869 48.9514 51.4015 47.8989C51.2855 47.2358 50.1866 46.3224 49.7833 45.9236C48.434 44.5744 39.7077 35.6441 39.1282 35.4447C38.0571 35.0784 37.1251 35.9409 37.3338 36.998ZM44.2795 33.6132C44.4093 34.2902 45.805 35.4772 46.2547 35.9269L50.488 40.1463C51.5266 40.9624 52.9594 40.1881 52.7322 38.9269C52.6116 38.236 51.2021 37.0258 50.7616 36.5854L46.5283 32.366C45.55 31.5175 44.0245 32.2315 44.2795 33.6132Z" fill="#8A5CC4"></path>
    <path fill-rule="evenodd" clip-rule="evenodd" d="M25.0263 27.8557C27.6983 27.3531 38.8123 25.8581 40.2628 25.0565C41.4333 24.4076 51.7139 18.9683 52.0257 19.0001C52.3056 19.0192 62.5926 24.5158 63.7568 25.1329C65.4363 26.0299 77.6636 27.2386 78.8914 27.9448C78.9995 33.5304 77.6 41.0627 76.1113 46.0758C74.4891 51.5597 72.5296 56.2801 70.074 60.9114C67.612 65.5619 64.8128 69.907 61.8864 73.6095C60.4295 75.4481 53.5843 83.6039 51.8793 84.38C51.5104 83.8838 50.9505 83.5021 50.5116 83.1013C49.0165 81.7399 46.8472 79.3606 45.4221 77.7574C41.1979 73.0052 36.7192 66.3571 33.7738 60.7842C31.3754 56.2419 29.2951 51.3243 27.7555 45.9231C26.4132 41.2091 24.7719 33.0533 25.0263 27.8557Z" stroke="#8A5CC4" stroke-width="6.94534" stroke-miterlimit="22.9256" stroke-linecap="round" stroke-linejoin="round"></path>
  </g>
  <defs>
    <clipPath id="clip0_14_301">
      <rect width="104" height="104" fill="white"></rect>
    </clipPath>
  </defs>
</svg>
