<?xml version="1.0" encoding="UTF-8"?>
<svg xmlns="http://www.w3.org/2000/svg" width="104" height="104" viewBox="0 0 104 104" fill="none">
  <g clip-path="url(#clip0_14_322)">
    <path d="M102.706 52.009C102.706 79.9986 80.0166 102.707 52.009 102.707C24.0014 102.707 1.29346 79.9986 1.29346 52.009C1.29346 24.0014 24.0014 1.29349 52.009 1.29349C80.0166 1.29349 102.706 24.0014 102.706 52.009Z" fill="#8A5CC4"></path>
    <path fill-rule="evenodd" clip-rule="evenodd" d="M26.5165 50.3562C26.5165 44.2301 31.5467 39.2178 37.6548 39.2178H38.9304C39.9184 39.2178 40.7269 38.4094 40.7269 37.4213V37.08C40.7269 36.0739 39.9184 35.2655 38.9304 35.2655H37.8704C29.5166 35.2655 22.6719 42.1102 22.6719 50.464V51.6676C22.6719 52.6557 23.4804 53.4642 24.4685 53.4642H24.72C25.708 53.4642 26.5165 52.6557 26.5165 51.6676V50.3562ZM68.3931 61.6562C68.3931 67.6027 63.5066 72.4892 57.5602 72.4892H56.2128C55.2068 72.4892 54.4163 73.2976 54.4163 74.2857V74.645C54.4163 75.6331 55.2068 76.4415 56.2128 76.4415H57.3446C65.5367 76.4415 72.2377 69.7226 72.2377 61.5305V60.4526C72.2377 59.4645 71.4292 58.6561 70.4412 58.6561H70.1896C69.2016 58.6561 68.3931 59.4645 68.3931 60.4526V61.6562ZM35.9302 79.5854C26.8219 79.5854 19.3484 72.1119 19.3484 63.0036V48.2004C19.3484 39.5232 26.4626 32.4091 35.1397 32.4091H60.7759C61.1891 30.9898 61.8538 29.6963 62.7162 28.5466H35.1397C24.3427 28.5466 15.4859 37.3854 15.4859 48.2004V63.0036C15.4859 74.2498 24.684 83.4479 35.9302 83.4479H60.5783C71.4472 83.4479 80.322 74.5552 80.322 63.7043V45.6493C80.322 45.1463 80.304 44.6613 80.2681 44.1942C79.1722 45.2361 77.8787 46.0625 76.4595 46.6374V63.7043C76.4595 72.4353 69.3094 79.5854 60.5783 79.5854H35.9302ZM79.8369 26.768L76.9086 19.1149C76.729 18.6837 76.3337 18.3963 75.8666 18.3963C75.4175 18.3963 75.0043 18.6837 74.8426 19.1149L71.9143 26.768C71.8604 26.9297 71.7526 27.0375 71.6089 27.0914L63.9378 30.0197C63.5066 30.1814 63.2372 30.5766 63.2372 31.0437C63.2372 31.5108 63.5066 31.906 63.9378 32.0677L71.6089 34.996C71.7526 35.0499 71.8604 35.1577 71.9143 35.3194L74.8426 42.9725C75.0043 43.4037 75.4175 43.6732 75.8666 43.6732C76.3337 43.6732 76.729 43.4037 76.9086 42.9725L79.8369 35.3194C79.8908 35.1577 79.9986 35.0499 80.1423 34.996L87.8134 32.0677C88.2446 31.906 88.5141 31.5108 88.5141 31.0437C88.5141 30.5766 88.2446 30.1814 87.8134 30.0197L80.1423 27.0914C79.9986 27.0375 79.8908 26.9297 79.8369 26.768ZM75.8666 29.4089C76.7828 29.4089 77.5014 30.1455 77.5014 31.0437C77.5014 31.942 76.7828 32.6785 75.8666 32.6785C74.9684 32.6785 74.2498 31.942 74.2498 31.0437C74.2498 30.1455 74.9684 29.4089 75.8666 29.4089Z" fill="white"></path>
  </g>
  <defs>
    <clipPath id="clip0_14_322">
      <rect width="104" height="104" fill="white"></rect>
    </clipPath>
  </defs>
</svg>
