<?xml version="1.0" encoding="UTF-8"?>
<svg xmlns="http://www.w3.org/2000/svg" width="104" height="104" viewBox="0 0 104 104" fill="none">
  <g clip-path="url(#clip0_30_3968)">
    <path fill-rule="evenodd" clip-rule="evenodd" d="M102.698 51.9985C102.698 79.9984 79.9984 102.698 52.0015 102.698C24.0016 102.698 1.29871 79.9984 1.29871 51.9985C1.29871 23.9956 24.0016 1.29868 52.0015 1.29868C79.9984 1.29868 102.698 23.9956 102.698 51.9985Z" fill="#8A5CC4"></path>
    <path fill-rule="evenodd" clip-rule="evenodd" d="M87.7003 47.5012L72.2844 15.5061C71.3645 13.5881 69.4886 12.3976 67.3963 12.3976C65.2679 12.3976 63.371 13.6151 62.4511 15.5692L47.0112 48.2678C45.8778 50.6878 46.0221 53.4866 47.399 55.7593L67.3392 88.5C68.3012 90.0752 69.9606 91.0252 71.7824 91.0252C74.022 91.0252 75.967 89.6423 76.7426 87.5109L88.1302 56.102C89.1463 53.3062 88.9869 50.1707 87.7003 47.5012Z" fill="#FEFEFE"></path>
    <path fill-rule="evenodd" clip-rule="evenodd" d="M39.153 53.0988C38.6479 52.2991 38.5968 51.292 39.0267 50.4533L53.694 21.6267C54.4726 20.0905 54.4666 18.2628 53.676 16.7386L53.0747 15.5842C51.6949 13.1342 48.7849 13.041 47.6756 15.2024L29.8517 49.2298C28.7815 51.283 28.9048 53.7631 30.1734 55.6991L51.767 88.539C51.9594 88.7946 52.1338 89.0711 52.2961 89.3267C52.9154 90.2826 53.676 91.4731 55.1129 91.4731C56.7092 91.4731 57.5149 89.9069 57.8366 89.2816L58.3476 88.0851C59.1262 86.2723 58.9549 84.1951 57.8937 82.5236L39.153 53.0988Z" fill="#FEFEFE"></path>
    <path fill-rule="evenodd" clip-rule="evenodd" d="M46.4671 85.3795C45.5262 85.0007 44.4439 85.4547 44.0591 86.4016L43.1122 88.7645C42.9829 89.0862 42.7154 89.1583 42.5711 89.1733C42.4208 89.1914 42.1472 89.1733 41.9548 88.8938L19.5705 55.9577C18.7889 54.8153 18.6807 53.3272 19.2699 52.1067L37.9956 15.1694C38.1519 14.8387 38.2902 14.8297 38.3323 14.8236C38.5457 14.7876 38.8283 14.9439 38.9335 15.0852L40.4817 17.2256C41.083 18.0463 42.2374 18.2357 43.0581 17.6375C43.8878 17.0392 44.0712 15.8818 43.4729 15.0581L41.8947 12.8786C40.9687 11.6791 39.4145 11.0057 37.9565 11.144C36.5376 11.2973 35.3441 12.1752 34.6858 13.531L15.96 50.4743C14.7876 52.9064 14.9951 55.8044 16.5162 58.038L38.9005 90.965C39.7152 92.1735 41.0649 92.871 42.4899 92.871C42.6522 92.871 42.8055 92.865 42.9619 92.8439C44.5642 92.6756 45.935 91.6414 46.5363 90.1413L47.4862 87.7785C47.868 86.8345 47.4081 85.7583 46.4671 85.3795Z" fill="#FEFEFE"></path>
  </g>
  <defs>
    <clipPath id="clip0_30_3968">
      <rect width="104" height="104" fill="white"></rect>
    </clipPath>
  </defs>
</svg>
