<?xml version="1.0" encoding="UTF-8"?>
<svg xmlns="http://www.w3.org/2000/svg" width="104" height="104" viewBox="0 0 104 104" fill="none">
  <path fill-rule="evenodd" clip-rule="evenodd" d="M51.9975 5.79535C26.5197 5.79535 5.79027 26.5197 5.79027 52.0038C5.79027 77.4752 26.5197 98.1983 51.9975 98.1983C77.479 98.1983 98.211 77.4752 98.211 52.0038C98.211 26.5197 77.479 5.79535 51.9975 5.79535ZM51.9975 102.699C24.0438 102.699 1.29993 79.955 1.29993 52.0038C1.29993 24.0425 24.0438 1.30121 51.9975 1.30121C79.9499 1.30121 102.7 24.0425 102.7 52.0038C102.7 79.955 79.9499 102.699 51.9975 102.699Z" fill="#8A5CC4"></path>
  <path fill-rule="evenodd" clip-rule="evenodd" d="M3.547 52C3.547 78.76 25.235 100.449 51.9949 100.449C78.7537 100.449 100.45 78.76 100.45 52C100.45 25.2413 78.7537 3.54953 51.9949 3.54953C25.235 3.54953 3.547 25.2413 3.547 52Z" fill="#8A5CC4"></path>
  <path d="M75.5468 9.65469L75.5405 10.1504V23.9173H74.0281V72.7117H75.5405V93.1782C75.5405 93.5651 75.5556 93.9483 75.5797 94.3276C90.4151 86.0462 100.45 70.1966 100.45 52C100.45 33.7895 90.3999 17.931 75.5468 9.65469Z" fill="#FEFEFE"></path>
  <path d="M71.7507 23.9186H70.2813V7.12437C69.3456 6.74248 68.3946 6.38588 67.4298 6.06216V97.9379C68.3946 97.6141 69.343 97.2575 70.2813 96.8769V72.713H71.7507V23.9186Z" fill="#FEFEFE"></path>
  <path d="M55.3851 56.0705L38.6883 39.3661L46.5612 31.5058C46.6194 31.9041 46.7762 32.2835 47.0405 32.6009C47.5033 33.1674 48.1634 33.4595 48.8424 33.4253L51.804 33.2976L52.5235 38.6643C52.6601 39.753 53.5882 40.5838 54.6909 40.5889L60.356 40.6888L59.8401 46.3362C59.7414 47.2669 60.2611 48.1571 61.1273 48.5605L62.3388 49.1169L55.3851 56.0705ZM51.2198 60.2422L34.5267 43.539L36.6094 41.4551L53.3088 58.1469L51.2198 60.2422ZM48.9651 62.4969C46.5195 60.5887 43.5124 59.7276 40.4093 60.05C37.143 60.3902 34.246 62.0164 32.2442 64.615C29.4989 68.2138 26.913 71.9303 24.5533 75.6606C23.1017 77.9418 20.4221 78.7726 18.6657 78.3933C17.3594 78.1239 16.5299 77.235 16.3364 75.9173C16.0329 73.7044 17.1268 71.4624 19.1095 70.2054C22.8677 67.8231 26.5842 65.2295 30.1552 62.5019C32.7551 60.5128 34.3686 57.6145 34.7138 54.3432C35.0312 51.2539 34.1701 48.233 32.2619 45.7988L32.4326 45.6293L49.1295 62.3262L48.9651 62.4969ZM51.9102 24.6343L51.6295 24.3536C51.3702 24.0842 50.9795 24.0198 50.6634 24.1614C50.6039 24.1892 50.5394 24.2423 50.4889 24.2891C50.4345 24.3005 50.4003 24.3182 50.389 24.3536H50.3649C30.4119 44.3117 29.7746 44.9553 29.7746 44.9553L29.6228 45.1083C29.284 45.446 29.284 46.0087 29.6228 46.3539C33.6972 50.4231 33.2622 57.153 28.7149 60.6292C25.2387 63.291 21.6032 65.8264 17.8412 68.2088C15.0605 69.9715 13.5621 73.1253 14.0072 76.2385C14.8847 82.3032 23.1788 82.2311 26.55 76.9239C28.9248 73.1594 31.4766 69.5011 34.1347 66.0426C37.6235 61.5017 44.3293 61.073 48.4087 65.141C48.7539 65.4862 49.3116 65.4862 49.6619 65.141C51.1085 63.6969 65.055 49.7491 65.5178 49.2813L68.9067 45.9024V41.6081C56.5497 29.2574 52.8573 25.5827 51.9102 24.6343Z" fill="#FEFEFE"></path>
  <path d="M20.6814 73.0165C20.3943 73.3086 20.3943 73.7828 20.6814 74.0762C20.9735 74.3582 21.4527 74.3582 21.7461 74.0762C21.8801 73.9358 21.9573 73.7537 21.9573 73.5552C21.9573 73.3554 21.8751 73.1632 21.7347 73.0165C21.4477 72.7294 20.9684 72.7345 20.6814 73.0165ZM21.2137 75.4621C20.7206 75.4621 20.2249 75.2825 19.843 74.907C19.1007 74.152 19.1007 72.9343 19.8379 72.1857H19.843C20.5929 71.4308 21.8106 71.4308 22.5592 72.1857C22.9272 72.5549 23.1333 73.0405 23.1333 73.5552C23.1333 74.0711 22.9348 74.5453 22.5706 74.9019C22.2026 75.2825 21.712 75.4621 21.2137 75.4621Z" fill="#FEFEFE"></path>
</svg>
