<?xml version="1.0" encoding="UTF-8"?>
<svg xmlns="http://www.w3.org/2000/svg" width="104" height="104" viewBox="0 0 104 104" fill="none">
  <g clip-path="url(#clip0_12_199)">
    <path fill-rule="evenodd" clip-rule="evenodd" d="M102.7 51.9973C102.7 79.9996 80.0049 102.7 51.9973 102.7C24.0004 102.7 1.29993 79.9996 1.29993 51.9973C1.29993 24.0004 24.0004 1.29993 51.9973 1.29993C80.0049 1.29993 102.7 24.0004 102.7 51.9973Z" fill="#8A5CC4"></path>
    <path fill-rule="evenodd" clip-rule="evenodd" d="M49.3705 16.1793L24.4462 28.9262C22.5017 29.9199 21.2555 31.8752 21.1588 34.0561C20.7022 44.5361 21.9108 75.1758 49.9399 88.0463C51.4064 88.7123 53.1092 88.5942 54.4951 87.7884C62.0261 83.4159 85.3765 67.0969 82.6853 34.2656C82.5242 32.2834 81.3048 30.5269 79.5537 29.5761L55.0054 16.2491C53.2542 15.2984 51.1432 15.2715 49.3705 16.1793Z" fill="#FEFEFE"></path>
    <path fill-rule="evenodd" clip-rule="evenodd" d="M68.687 57.4871C67.9779 53.8559 66.4792 50.2354 64.6636 46.9963C61.1183 40.7008 57.2561 34.5771 53.5981 28.6307C52.8138 27.3684 50.9767 27.4221 50.2838 28.7382C49.2363 30.7203 48.1083 32.8636 46.8782 34.9531C44.9659 38.2191 42.7904 41.3292 40.8512 44.5791C39.3525 47.1037 37.8646 49.6606 36.656 52.3303C31.4509 63.8041 39.3579 76.1589 51.8201 76.2824C61.6125 76.3791 70.6745 67.6663 68.687 57.4871Z" fill="#8A5CC4"></path>
    <path d="M52.178 69.2784C50.6931 69.2784 49.3706 69.0232 48.2105 68.5128C47.057 67.9957 46.1455 67.2865 45.476 66.3849C44.8131 65.4768 44.4717 64.4295 44.4518 63.2429H48.7872C48.8137 63.7401 48.9762 64.1776 49.2745 64.5554C49.5794 64.9266 49.9838 65.215 50.4876 65.4205C50.9914 65.6259 51.5582 65.7287 52.188 65.7287C52.8442 65.7287 53.4243 65.6127 53.9281 65.3807C54.4319 65.1487 54.8263 64.8272 55.1114 64.4162C55.3965 64.0052 55.539 63.5312 55.539 62.9943C55.539 62.4508 55.3865 61.9702 55.0816 61.5526C54.7833 61.1283 54.3524 60.7969 53.7889 60.5582C53.232 60.3196 52.5691 60.2003 51.8002 60.2003H49.9009V57.0384H51.8002C52.4498 57.0384 53.0232 56.9257 53.5204 56.7003C54.0242 56.4749 54.4153 56.1634 54.6938 55.7656C54.9722 55.3613 55.1114 54.8906 55.1114 54.3537C55.1114 53.8433 54.9888 53.3958 54.7435 53.0114C54.5048 52.6203 54.1668 52.3153 53.7292 52.0966C53.2983 51.8778 52.7945 51.7685 52.2178 51.7685C51.6344 51.7685 51.1008 51.8745 50.6169 52.0866C50.1329 52.2921 49.7451 52.5871 49.4534 52.9716C49.1618 53.3561 49.006 53.8068 48.9861 54.3239H44.8595C44.8794 53.1506 45.2141 52.1165 45.8638 51.2216C46.5134 50.3267 47.3885 49.6274 48.4889 49.1236C49.596 48.6132 50.8456 48.358 52.2377 48.358C53.6431 48.358 54.8728 48.6132 55.9268 49.1236C56.9808 49.634 57.7995 50.3234 58.3829 51.1918C58.9729 52.0535 59.2645 53.0213 59.2579 54.0952C59.2645 55.2353 58.9099 56.1866 58.1939 56.9489C57.4846 57.7112 56.5599 58.1951 55.4197 58.4006V58.5597C56.9178 58.7519 58.058 59.2723 58.8403 60.1207C59.6291 60.9626 60.0203 62.0166 60.0136 63.2827C60.0203 64.4427 59.6855 65.4735 59.0093 66.375C58.3398 67.2765 57.415 67.9858 56.235 68.5028C55.0551 69.0199 53.7027 69.2784 52.178 69.2784Z" fill="#FEFEFE"></path>
  </g>
  <defs>
    <clipPath id="clip0_12_199">
      <rect width="104" height="104" fill="white"></rect>
    </clipPath>
  </defs>
</svg>
