<?xml version="1.0" encoding="UTF-8"?>
<svg xmlns="http://www.w3.org/2000/svg" width="104" height="104" viewBox="0 0 104 104" fill="none">
  <g clip-path="url(#clip0_32_4177)">
    <path fill-rule="evenodd" clip-rule="evenodd" d="M48.3876 44.3212C50.8939 44.3212 52.9271 46.3544 52.9271 48.8607C52.9271 51.367 50.8939 53.3874 48.3876 53.3874C45.894 53.3874 43.8608 51.367 43.8608 48.8607C43.8608 46.3544 45.894 44.3212 48.3876 44.3212ZM48.3876 46.6357C49.628 46.6357 50.6254 47.6331 50.6254 48.8607C50.6254 50.0883 49.628 51.0857 48.3876 51.0857C47.16 51.0857 46.1626 50.0883 46.1626 48.8607C46.1626 47.6331 47.16 46.6357 48.3876 46.6357Z" fill="#FEFEFE"></path>
    <path d="M50.9451 8.08164C53.6816 8.08164 56.1496 9.18136 57.9398 10.9716C59.73 12.7618 60.8298 15.2298 60.8298 17.9663C60.8298 20.69 59.73 23.1708 57.9398 24.961C56.3925 26.4955 54.3465 27.5313 52.0704 27.787V37.9019C55.4463 38.1704 58.4641 39.6538 60.7275 41.9171C63.2466 44.4362 64.7938 47.9016 64.7938 51.7379C64.7938 54.4232 64.0266 56.9423 62.7095 59.065L71.5712 67.1723C73.2847 65.7145 75.5225 64.8322 77.9521 64.8322C80.6758 64.8322 83.1566 65.9447 84.9468 67.7349C86.7243 69.5124 87.8368 71.9931 87.8368 74.7168C87.8368 77.4533 86.7243 79.9213 84.9468 81.7116C83.1438 83.5018 80.6758 84.6143 77.9521 84.6143C75.2156 84.6143 72.7476 83.5018 70.9574 81.7116C69.1671 79.9213 68.0674 77.4533 68.0674 74.7168C68.0674 72.543 68.7707 70.5354 69.9728 68.8986L61.2901 60.9576C61.1111 61.1622 60.9193 61.354 60.7275 61.5458C58.2083 64.0649 54.7429 65.625 50.9067 65.625C47.0833 65.625 43.6051 64.0649 41.0988 61.5586C40.9198 61.3796 40.7407 61.2005 40.5745 61.0215L31.9302 68.9241C33.1066 70.5609 33.81 72.5558 33.81 74.7168C33.81 77.4533 32.6975 79.9213 30.9072 81.7116C29.117 83.5018 26.649 84.6143 23.9253 84.6143C21.1888 84.6143 18.7208 83.5018 16.9306 81.7116C15.1403 79.9213 14.0278 77.4533 14.0278 74.7168C14.0278 71.9931 15.1403 69.5251 16.9306 67.7349C18.7208 65.9447 21.1888 64.8322 23.9253 64.8322C26.3677 64.8322 28.6183 65.7273 30.3446 67.1978L39.1551 59.129C37.7996 56.9935 37.0196 54.4488 37.0196 51.7379C37.0196 47.9016 38.5797 44.4362 41.0988 41.9171C43.3494 39.6665 46.3672 38.1832 49.7303 37.9019V27.7743C47.4925 27.5057 45.4721 26.4699 43.9504 24.961C42.1601 23.1708 41.0604 20.69 41.0604 17.9663C41.0604 15.2426 42.1601 12.7746 43.9632 10.9716C45.7406 9.18136 48.2214 8.08164 50.9451 8.08164ZM82.2742 70.3947C81.1745 69.2822 79.64 68.6045 77.9521 68.6045C76.2642 68.6045 74.7297 69.2822 73.6172 70.3947C72.5047 71.4944 71.8269 73.0289 71.8269 74.7168C71.8269 76.4048 72.5174 77.9393 73.6172 79.0518C74.7297 80.1515 76.2642 80.842 77.9521 80.842C79.6528 80.842 81.1745 80.1643 82.2742 79.0518C83.3867 77.9393 84.0773 76.4176 84.0773 74.7168C84.0773 73.0289 83.3867 71.4944 82.2742 70.3947ZM28.2474 70.3947C27.1477 69.2822 25.6132 68.6045 23.9253 68.6045C22.2246 68.6045 20.7029 69.2822 19.5904 70.3947C18.4778 71.4944 17.8001 73.0289 17.8001 74.7168C17.8001 76.4048 18.4778 77.9393 19.5904 79.0518C20.7029 80.1515 22.2246 80.842 23.9253 80.842C25.6132 80.842 27.1477 80.1643 28.2474 79.0518C29.3599 77.9393 30.0377 76.4176 30.0377 74.7168C30.0377 73.0289 29.3599 71.4944 28.2474 70.3947ZM58.0677 44.5769C56.2391 42.7483 53.7072 41.6102 50.9067 41.6102C48.1063 41.6102 45.5744 42.7483 43.7458 44.5769C41.9172 46.4055 40.7791 48.9374 40.7791 51.7379C40.7791 54.5383 41.9172 57.0702 43.7458 58.8988C45.5744 60.7274 48.1063 61.8655 50.9067 61.8655C53.7072 61.8655 56.2391 60.7274 58.0677 58.8988C59.8963 57.0702 61.0343 54.5383 61.0343 51.7379C61.0343 48.9374 59.8963 46.4055 58.0677 44.5769ZM55.28 13.6314C54.1675 12.5317 52.633 11.8411 50.9451 11.8411C49.2571 11.8411 47.7227 12.5317 46.6102 13.6314C45.5104 14.7311 44.8199 16.2656 44.8199 17.9663C44.8199 19.6542 45.5104 21.1887 46.6102 22.2885C47.7227 23.401 49.2571 24.0915 50.9451 24.0915C52.6458 24.0915 54.1675 23.401 55.28 22.3012C56.3797 21.1887 57.0703 19.6542 57.0703 17.9663C57.0703 16.2784 56.3797 14.7439 55.28 13.6314Z" fill="#FEFEFE"></path>
    <path fill-rule="evenodd" clip-rule="evenodd" d="M46.4183 16.9817C46.4183 17.8256 47.3262 18.2221 47.94 17.5955C48.6945 16.7899 47.8377 16.5597 48.7968 15.6006C49.7431 14.6544 49.986 15.4983 50.7788 14.7439C51.3159 14.2324 50.9834 13.235 50.165 13.235C48.0551 13.235 46.4183 14.8718 46.4183 16.9817Z" fill="#FEFEFE"></path>
    <path fill-rule="evenodd" clip-rule="evenodd" d="M19.2706 74.1798C19.2706 75.0237 20.1785 75.4201 20.7923 74.7936C21.5468 74.0007 20.69 73.7578 21.6491 72.7987C22.5954 71.8525 22.8383 72.7092 23.6311 71.9548C24.1682 71.4305 23.8357 70.4331 23.0173 70.4331C20.9074 70.4331 19.2706 72.0698 19.2706 74.1798Z" fill="#FEFEFE"></path>
    <path fill-rule="evenodd" clip-rule="evenodd" d="M73.9496 74.1798C73.9496 75.0237 74.8575 75.4201 75.4585 74.7936C76.213 74.0007 75.369 73.7578 76.3153 72.7987C77.2615 71.8525 77.5045 72.7092 78.2973 71.9548C78.8472 71.4305 78.5019 70.4331 77.6963 70.4331C75.5736 70.4331 73.9496 72.0698 73.9496 74.1798Z" fill="#FEFEFE"></path>
    <path fill-rule="evenodd" clip-rule="evenodd" d="M52.0064 1.30431C79.998 1.30431 102.696 24.002 102.696 51.9936C102.696 79.998 79.998 102.696 52.0064 102.696C24.002 102.696 1.30432 79.998 1.30432 51.9936C1.30432 24.002 24.002 1.30431 52.0064 1.30431Z" fill="#8A5CC4"></path>
    <path fill-rule="evenodd" clip-rule="evenodd" d="M16.2016 77.6068H87.8111C90.5348 73.8217 92.6703 69.5891 94.0897 65.0368H9.93579C11.3424 69.5891 13.4779 73.8217 16.2016 77.6068Z" fill="#FEFEFE"></path>
    <path fill-rule="evenodd" clip-rule="evenodd" d="M55.5997 58.1316L51.7123 54.0268C49.6024 55.5357 47.403 56.904 45.114 58.1316H55.5997ZM57.1853 49.5896L65.2925 58.1316H74.1159L61.6737 45.0117C61.4819 45.2419 61.2773 45.4592 61.0855 45.6766L61.0727 45.6894C60.753 46.0347 60.4333 46.3799 60.1136 46.7124L60.1009 46.7252C59.7812 47.0705 59.4615 47.3901 59.1418 47.7226L59.1162 47.7482L59.1034 47.761C58.771 48.0807 58.4385 48.4003 58.106 48.72L58.0804 48.7456C57.7863 49.0269 57.4794 49.3082 57.1853 49.5896ZM66.226 39.1678L84.2179 58.1316H93.2202L69.717 33.3496C69.3717 34.0145 69.0137 34.6667 68.6428 35.306L68.6301 35.3188L68.6173 35.3316C68.3871 35.7408 68.1441 36.1372 67.9012 36.5464V36.5592L67.8756 36.5848C67.6454 36.9812 67.4025 37.3648 67.1595 37.7484H67.1467V37.774L67.1339 37.7868C66.8782 38.1832 66.6224 38.5668 66.3667 38.9504L66.3539 38.9632L66.3411 38.9888L66.226 39.1678Z" fill="#FEFEFE"></path>
    <path fill-rule="evenodd" clip-rule="evenodd" d="M17.1607 58.1316C44.1933 58.1316 66.4306 37.6461 69.2054 11.3552C65.3053 9.70564 61.111 8.59314 56.7249 8.12C55.5229 28.9251 38.2727 45.4337 17.1607 45.4337C14.2196 45.4337 11.3424 45.1012 8.58032 44.5002C8.17112 46.917 7.95374 49.3978 7.95374 51.9297C7.95374 53.7838 8.06882 55.5997 8.28621 57.3771C11.1762 57.8758 14.1428 58.1316 17.1607 58.1316Z" fill="#FEFEFE"></path>
  </g>
  <defs>
    <clipPath id="clip0_32_4177">
      <rect width="104" height="104" fill="white"></rect>
    </clipPath>
  </defs>
</svg>
