<?xml version="1.0" encoding="UTF-8"?>
<svg xmlns="http://www.w3.org/2000/svg" width="104" height="104" viewBox="0 0 104 104" fill="none">
  <g clip-path="url(#clip0_35_241)">
    <path d="M102.702 52C102.702 79.9981 80.0082 102.702 52.0001 102.702C23.997 102.702 1.29858 79.9981 1.29858 52C1.29858 23.9969 23.997 1.29849 52.0001 1.29849C80.0082 1.29849 102.702 23.9969 102.702 52Z" fill="#8A5CC4"></path>
    <path fill-rule="evenodd" clip-rule="evenodd" d="M14.1877 37.4901L39.5033 12.1746L64.6678 37.3442L39.3523 62.6547L14.1877 37.4901ZM53.993 80.0736C54.5416 79.6508 55.216 78.8858 55.7445 78.3573C56.3484 77.7534 56.892 77.2149 57.4909 76.6059L82.1068 51.9597C79.1122 49.3024 74.4065 45.8045 71.1653 43.1018L67.5013 40.1425C66.0367 38.9799 65.9462 39.5536 63.6964 41.8033C62.5741 42.9307 61.5071 43.9826 60.3848 45.115L43.8366 61.6682C40.7263 64.7433 41.0433 64.0136 43.6604 67.295L52.5184 78.302C53.0116 78.921 53.4595 79.5048 53.993 80.0736ZM54.9744 81.0499C55.8099 82.0716 57.0379 83.2997 58.4371 83.6067C59.3329 83.7979 60.2388 83.7224 61.0592 83.3953C62.4181 82.8517 64.703 80.2548 65.9109 79.0519L69.0062 75.9868C70.6469 74.7538 72.3883 75.5339 73.3898 76.5556C74.4266 77.6125 75.4181 78.5939 76.47 79.6357C77.079 80.2396 78.9965 82.2931 79.5501 82.6252C81.1103 83.5463 83.1587 83.0681 84.1301 82.1018C85.0863 81.1456 85.5695 79.1173 84.6887 77.5772C84.3163 76.9179 79.2834 72.0461 78.6341 71.4019C77.6628 70.4456 76.7518 68.6187 78.0201 66.9779C78.4378 66.4344 79.0619 65.9059 79.5199 65.4429L84.115 60.8479C85.2776 59.6903 86.0325 58.3465 85.655 56.4894C85.4839 55.6539 85.1115 54.9443 84.6283 54.4611C84.1502 53.983 83.5714 53.3287 83.0832 52.9412C82.6755 53.2079 76.5807 59.4034 76.0371 59.9369L56.7309 79.2482C56.2679 79.7112 55.2814 80.5919 54.9744 81.0499ZM81.7696 78.9714C80.139 79.5652 81.07 82.0565 82.7208 81.4224C84.1552 80.8688 83.4758 78.3473 81.7696 78.9714Z" fill="white"></path>
  </g>
  <defs>
    <clipPath id="clip0_35_241">
      <rect width="104" height="104" fill="white"></rect>
    </clipPath>
  </defs>
</svg>
