<?xml version="1.0" encoding="UTF-8"?>
<svg xmlns="http://www.w3.org/2000/svg" width="104" height="104" viewBox="0 0 104 104" fill="none">
  <g clip-path="url(#clip0_27_3797)">
    <path fill-rule="evenodd" clip-rule="evenodd" d="M102.7 52.0065C102.7 80.005 80.005 102.7 52.0065 102.7C23.995 102.7 1.2998 80.005 1.2998 52.0065C1.2998 23.995 23.995 1.29984 52.0065 1.29984C80.005 1.29984 102.7 23.995 102.7 52.0065Z" fill="#8A5CC4"></path>
    <path d="M51.9285 21.2654L52.0064 21.3173L52.0714 21.2654C64.6409 31.976 77.1323 42.6997 89.6757 53.3713L86.1012 57.5568L52.0064 28.5444L17.8987 57.5568L14.3372 53.3713C26.8676 42.6997 39.372 31.976 51.9285 21.2654Z" fill="#FEFEFE"></path>
    <path d="M80.252 47.756V76.0535C80.252 77.8993 79.4981 79.5761 78.2892 80.7849C77.0804 81.9938 75.4036 82.7477 73.5708 82.7477H30.4422C28.5964 82.7477 26.9197 81.9938 25.7108 80.7849C24.502 79.5761 23.748 77.8993 23.748 76.0535V47.756H29.2854V76.0535C29.2854 76.3655 29.4153 76.6644 29.6233 76.8724C29.8313 77.0804 30.1302 77.2104 30.4422 77.2104H73.5708C73.8828 77.2104 74.1687 77.0804 74.3767 76.8724C74.5847 76.6644 74.7277 76.3655 74.7277 76.0535V47.756H80.252Z" fill="#FEFEFE"></path>
    <path d="M39.1641 58.8047H64.8359L61.5863 55.5551C60.9104 54.8791 60.9104 53.7873 61.5863 53.1114C62.2622 52.4355 63.3541 52.4355 64.03 53.1114L70.2302 59.3116C70.9061 59.9875 70.9061 61.0924 70.2302 61.7553L64.03 67.9685C63.3541 68.6444 62.2622 68.6444 61.5863 67.9685C60.9104 67.2926 60.9104 66.2007 61.5863 65.5248L64.8359 62.2622H39.1641L42.4267 65.5248C43.1026 66.2007 43.1026 67.2926 42.4267 67.9685C41.7508 68.6444 40.6589 68.6444 39.983 67.9685L33.7698 61.7553C33.0938 61.0924 33.0938 59.9875 33.7698 59.3116L39.983 53.1114C40.6589 52.4355 41.7508 52.4355 42.4267 53.1114C43.1026 53.7873 43.1026 54.8791 42.4267 55.5551L39.1641 58.8047Z" fill="#FEFEFE"></path>
  </g>
  <defs>
    <clipPath id="clip0_27_3797">
      <rect width="104" height="104" fill="white"></rect>
    </clipPath>
  </defs>
</svg>
