<?xml version="1.0" encoding="UTF-8"?>
<svg xmlns="http://www.w3.org/2000/svg" width="104" height="104" viewBox="0 0 104 104" fill="none">
  <g clip-path="url(#clip0_12_255)">
    <path d="M52.0087 102.712C80.0111 102.712 102.712 80.0111 102.712 52.0087C102.712 24.0063 80.0111 1.30588 52.0087 1.30588C24.0063 1.30588 1.30591 24.0063 1.30591 52.0087C1.30591 80.0111 24.0063 102.712 52.0087 102.712Z" fill="#8A5CC4"></path>
    <path fill-rule="evenodd" clip-rule="evenodd" d="M50.5462 39.3156H53.4539V72.5545L52.0088 72.7286C51.4516 72.7808 51.2426 72.5545 50.5462 72.5545V39.3156ZM74.0868 14.6781H74.2783C74.7832 14.7129 75.2708 14.9915 75.5145 15.5312C75.8279 16.2625 75.619 21.991 75.619 23.0008C76.0195 23.1924 76.211 23.1924 76.7159 23.3491L79.6933 24.6027C82.0961 25.8389 82.6881 26.7966 84.4467 28.1547C85.5611 29.0427 86.6754 29.6521 88.0335 30.1222C88.8345 30.3834 89.2523 30.9928 89.322 31.6022V31.9156C89.2523 32.5076 88.7996 33.0474 87.9639 33.1344C86.4839 33.2737 83.6458 31.4107 82.4966 30.4008C80.4943 28.6074 78.3875 26.8488 75.619 26.2046V29.1123C75.9672 29.3039 76.2284 29.3909 76.6115 29.5825C77.8129 30.157 78.9446 31.0799 79.9545 31.933C80.2157 32.1594 80.355 32.3335 80.5987 32.5773C85.2651 36.9128 89.322 35.0497 89.322 37.7137C89.322 41.1264 81.4867 36.9128 80.8947 36.5297C78.9795 35.2935 77.6213 33.5349 75.619 32.4728V50.4068C76.4548 50.1979 78.7183 48.0563 79.6585 47.2901C80.9296 46.2454 89.322 41.5443 89.322 45.3052C89.322 46.524 88.4688 46.7156 87.3371 46.9593C81.3126 48.2304 80.7729 51.2252 76.6289 53.3146C75.8802 53.6976 75.1315 53.9936 74.1912 54.22C71.7188 54.8294 69.02 54.6205 66.652 53.6628C65.9033 53.3668 65.4157 53.1231 64.8238 52.74C63.7268 51.9913 62.804 51.0337 61.7941 50.2327C60.5057 49.2054 58.068 47.4817 56.3791 47.3424V50.2501C57.5805 50.8944 58.6948 51.3122 59.757 52.2525L62.6821 54.7249C68.2539 58.747 76.4373 58.0854 81.33 53.4887L83.7503 51.5386C84.5338 50.9988 86.6928 49.8148 87.8594 49.8148C88.6778 49.8148 89.2001 50.3198 89.322 50.9118V51.4689C89.2001 52.0261 88.7822 52.5659 87.9465 52.8271C84.29 54.0111 83.3498 56.3616 79.6585 58.364C78.5442 58.9734 76.9423 59.5654 75.619 59.8788V65.259C77.7955 65.7813 79.5889 66.6171 81.3823 67.8011C81.8872 68.1319 82.5314 68.6369 82.9493 69.0199C83.4717 69.5249 83.8547 69.8035 84.3945 70.3432C84.8298 70.7785 85.4392 71.179 86.0138 71.4924C87.0933 72.067 89.322 72.3978 89.322 73.7211C89.322 76.594 85.5785 74.7135 84.3597 74.0171C82.5663 72.9724 81.6957 71.6665 80.3376 70.7437C77.6213 68.8806 77.9348 69.4378 75.619 68.3235V71.3879C77.778 71.8929 79.2058 73.6863 80.5639 74.7484C82.218 76.002 83.7851 77.1164 85.8571 77.778C86.9366 78.1088 89.322 78.1088 89.322 79.6933C89.322 82.4443 85.474 80.8773 84.1507 80.3375C79.6411 78.5093 76.7682 75.0095 75.619 74.7484C75.619 76.4025 75.619 78.0392 75.619 79.6933C75.619 80.7032 75.9672 82.3224 75.2011 83.0712C74.3654 83.8721 72.6938 83.4194 72.6938 82.3224V60.3141C71.2487 60.3141 72.0844 60.5753 69.7861 60.3141V88.1554C69.7861 89.4612 67.4181 89.8443 66.9306 88.3817C66.6868 87.6156 66.8783 75.8279 66.8783 74.7484C65.9729 74.9747 65.0501 75.8975 64.4233 76.5244C63.6223 77.3253 63.0478 77.778 62.0901 78.4222C58.6078 80.7206 58.1899 80.146 56.3791 81.0166C56.3791 82.3573 56.5532 93.048 56.3617 94.1798C56.0831 95.921 53.4539 95.5727 53.4539 94.1972V81.4519H50.5462V94.1972C50.5462 95.3116 48.805 95.7817 47.9692 94.8763C47.917 94.8066 47.7603 94.5629 47.7429 94.528C47.4121 93.7968 47.621 82.009 47.621 81.0166C47.2554 80.825 46.4718 80.6683 45.9669 80.4768C41.2832 78.8401 38.5147 75.114 37.1392 74.7484V86.8495C37.1392 88.1902 36.9825 89.3219 35.6766 89.3219C34.6493 89.3219 34.0747 88.5036 34.0747 87.4241V60.3141C32.647 60.3489 33.6394 60.5927 31.3063 60.3141V87.5634C31.3063 88.5384 30.8013 89.3219 29.8437 89.3219C27.5105 89.3219 28.2418 85.0735 28.2418 82.7577C28.2418 80.0938 28.2418 77.4124 28.2418 74.7484C26.727 75.5493 25.63 76.89 24.2719 77.9173C22.6527 79.1013 17.0113 82.1657 15.3746 81.0514C14.9741 80.7902 14.6781 80.3898 14.6781 79.85C14.6781 78.074 17.0287 78.1436 18.2649 77.7432C22.0607 76.4721 22.7223 75.1314 24.8639 73.4077C25.9435 72.5371 27.0404 72.0321 28.2418 71.3879V68.4802C27.8413 68.515 26.7792 68.9329 26.3962 69.107C23.6799 70.3606 23.0705 71.5272 20.9289 73.1117C19.7623 73.9823 16.3322 76.298 15.0089 74.8528C14.8522 74.6787 14.7477 74.4698 14.6781 74.2434V73.547C14.8174 73.042 15.2701 72.5719 16.1581 72.2759C16.9068 72.0496 17.4291 71.8058 18.0908 71.4401C20.9115 69.8731 21.991 67.035 27.4757 65.5202C27.9458 65.3809 28.2418 65.4854 28.2418 64.9804C28.2418 59.6698 28.6945 59.9658 27.3538 59.6002L24.359 58.364C23.3839 57.8416 21.7995 56.8317 21.0682 56.1179C20.511 55.5955 20.0931 55.2821 19.536 54.7249C18.5261 53.7499 17.2899 53.2449 15.9317 52.7922C15.2179 52.5485 14.8 52.0261 14.6781 51.4864V50.9118C14.8174 50.3024 15.3397 49.8148 16.28 49.8148C18.1604 49.8148 20.7025 51.8694 22.0084 52.9838C22.3741 53.2798 22.4611 53.2972 22.8094 53.6454C24.9336 55.7522 28.5204 57.3889 32.3161 57.3889C36.4253 57.3889 40.3255 56.0656 42.8502 53.5061C44.957 51.3645 45.6013 51.3297 47.621 50.2501V47.3424C47.1509 47.3772 45.9669 47.8821 45.5838 48.0563C42.1886 49.7452 42.1886 50.668 39.9599 52.2176C36.1293 54.8642 31.4978 55.3866 27.2667 53.2623C25.1077 52.1828 24.9684 51.5734 23.3665 50.3198C22.0607 49.2925 20.8418 48.3348 19.1181 47.7254C17.0287 46.9767 14.6781 46.9245 14.6781 45.4445C14.6781 41.4746 22.9487 46.141 24.359 47.2901C24.7943 47.6558 25.2296 47.9518 25.6475 48.3174C26.5877 49.1532 27.0752 49.78 28.2418 50.4068C28.2418 48.4915 27.8239 45.5838 29.7044 45.5838C30.958 45.5838 31.3063 46.437 31.3063 47.7777C31.3063 48.9791 31.3063 50.1979 31.3063 51.4167C32.0375 51.5908 32.8559 51.5734 33.6394 51.5734C34.3359 51.5734 34.0747 50.1979 34.0747 49.5188V18.0385C34.0747 16.4715 33.9702 14.6781 35.5373 14.6781C36.5472 14.6781 37.1392 15.3397 37.1392 16.4366V23.1401C38.6714 23.175 40.4474 24.2371 41.7533 24.9335C43.9297 26.1175 45.6013 28.0502 47.621 29.4083C47.621 28.3811 47.4469 10.1684 47.7429 9.47196C48.3349 8.11385 50.5462 8.54914 50.5462 9.80278V30.4356H53.4539V9.80278C53.4539 8.49691 55.8219 8.11385 56.3094 9.57643C56.5532 10.3425 56.3791 28.3288 56.3791 29.4083C57.3367 28.7641 57.9113 28.3811 58.7471 27.5453C60.2967 25.9608 64.58 23.1924 66.8783 23.1401V15.8446C66.8783 14.7303 68.6195 14.2602 69.4379 15.183C69.4901 15.2352 69.6642 15.479 69.6816 15.5312C69.995 16.2625 69.7861 50.4242 69.7861 51.4167C70.7437 51.5038 71.7536 51.6431 72.6938 51.4167C72.6938 49.9541 72.5371 16.9938 72.7112 15.8621C72.7635 15.5661 72.9376 15.2875 73.1117 15.0959C73.3903 14.8522 73.7211 14.7129 74.0868 14.6781ZM37.1392 68.3235C37.7312 68.6369 38.3232 68.7762 38.9848 69.107C43.3029 71.266 44.1213 73.4599 46.9245 74.5743C50.4243 75.9846 53.4713 76.002 56.9885 74.6265C59.8962 73.4599 60.6449 71.3183 64.9282 69.1592C65.6073 68.811 66.2515 68.6543 66.8783 68.3235V71.3879C65.8336 71.6317 64.2143 72.746 63.4831 73.3903C63.1696 73.6688 63.0478 73.7211 62.7518 73.9823C62.4732 74.226 62.2991 74.4524 62.0205 74.7135C56.501 79.8674 47.3947 79.9196 41.405 74.1215C41.0568 73.7907 40.9349 73.7559 40.6041 73.4599C40.0469 72.9724 39.629 72.6938 39.0022 72.2933C38.3232 71.858 37.8356 71.7187 37.1392 71.3879V68.3235ZM56.3791 71.5272V53.6106C56.8318 53.8543 57.2323 54.0285 57.6501 54.3767L58.7471 55.3169C59.1824 55.7348 59.3042 55.9089 59.8092 56.292C61.8812 57.8939 64.0576 59.2171 66.8783 59.8788V65.259C62.508 66.2863 60.9235 68.0449 58.2421 70.2039C57.3193 70.9526 57.981 70.674 56.3791 71.5272ZM37.1392 59.8788C43.094 58.4859 44.6088 55.195 47.621 53.6106V71.5272C45.8624 70.6044 45.549 69.9079 44.1909 68.8458C42.9024 67.8359 41.9448 67.0698 40.2559 66.3733C39.2286 65.9381 38.2709 65.5376 37.1392 65.259V59.8788ZM56.3791 38.741C59.0605 38.5147 62.5254 35.9725 64.4929 34.3184C65.9903 33.0648 64.8063 33.8483 66.8783 32.4728V50.4068C66.1296 50.1979 65.555 49.5362 65.0501 49.1532L63.4308 47.708C61.6897 46.3499 60.1922 45.4097 58.0332 44.661C57.5283 44.4869 56.7621 44.3127 56.3791 44.1386V38.741ZM37.1392 50.4068V32.4728C39.1763 33.8309 38.8978 33.7961 40.5345 35.189C42.1189 36.5645 45.7405 38.5843 47.621 38.741V44.1386C47.238 44.3127 45.7754 44.661 44.6088 45.2007C40.1688 47.2727 38.6366 49.989 37.1392 50.4068ZM37.1392 26.2046C38.1491 26.4309 40.0121 27.3538 40.8305 27.8935C41.4921 28.3288 41.8752 28.5378 42.4149 29.0775C45.0963 31.7589 48.1434 33.4827 52.148 33.4827C59.7221 33.4827 60.8365 27.5975 66.8783 26.2046V29.269C65.1198 29.4083 62.2642 32.3509 60.6624 33.5523C55.4737 37.4874 47.8125 37.0695 42.589 32.9952C41.318 32.0027 38.95 29.4083 37.1392 29.269V26.2046Z" fill="#FEFEFE"></path>
    <path fill-rule="evenodd" clip-rule="evenodd" d="M28.2418 23.1401C25.839 23.3317 22.9138 25.3688 21.016 26.8488C20.424 27.3015 20.1802 27.6846 19.5534 28.1547C16.1407 30.8187 14.6781 29.7392 14.6781 31.7415C14.6781 32.4554 15.2701 32.9951 15.9317 33.117C16.4019 33.2041 17.5162 32.7862 18.0211 32.5947C20.5458 31.637 21.4164 30.3486 22.9138 29.182C23.9934 28.3288 24.9684 27.5627 26.2395 26.9707C26.9185 26.6747 27.6324 26.4832 28.2418 26.2046V29.269C26.3962 29.6869 24.7421 31.341 23.4014 32.5773C22.9487 32.9951 22.3218 33.4653 21.8343 33.7787C17.1854 36.8431 14.6781 35.2935 14.6781 37.7137C14.6781 41.0742 23.0183 37.2436 25.5778 34.6144C26.0828 34.1095 27.5453 32.8036 28.2418 32.6121C28.2418 34.7363 27.9284 36.8431 29.8437 36.8431C30.8013 36.8431 31.3063 36.0596 31.3063 35.0845V16.4366C31.3063 15.3397 30.7665 14.6781 29.7044 14.6781C28.1025 14.6781 28.2418 16.5759 28.2418 18.1778C28.2418 19.8319 28.2418 21.486 28.2418 23.1401Z" fill="#FEFEFE"></path>
    <path fill-rule="evenodd" clip-rule="evenodd" d="M72.6938 87.5634C72.6938 88.7474 73.251 89.2349 73.8778 89.3219H74.2783C74.9748 89.2349 75.619 88.73 75.619 88.1554C75.619 85.4566 72.6938 86.3446 72.6938 87.5634Z" fill="#FEFEFE"></path>
    <path fill-rule="evenodd" clip-rule="evenodd" d="M29.7044 42.676C31.1844 42.676 31.7242 41.1438 30.871 40.2036C30.5576 39.8554 30.2442 39.7509 29.7044 39.7509C27.8936 39.7509 27.8936 42.676 29.7044 42.676Z" fill="#FEFEFE"></path>
  </g>
  <defs>
    <clipPath id="clip0_12_255">
      <rect width="104" height="104" fill="white"></rect>
    </clipPath>
  </defs>
</svg>
