<?xml version="1.0" encoding="UTF-8"?>
<svg xmlns="http://www.w3.org/2000/svg" width="104" height="104" viewBox="0 0 104 104" fill="none">
  <g clip-path="url(#clip0_1_174)">
    <path d="M102.697 51.9941C102.697 79.9937 79.9937 102.697 51.9941 102.697C23.9946 102.697 1.30347 79.9937 1.30347 51.9941C1.30347 23.9946 23.9946 1.30347 51.9941 1.30347C79.9937 1.30347 102.697 23.9946 102.697 51.9941Z" fill="#8A5CC4"></path>
    <path d="M94.7815 51.9942C94.7815 75.6214 75.6214 94.7696 51.9942 94.7696C28.3788 94.7696 9.21875 75.6214 9.21875 51.9942C9.21875 28.367 28.3788 9.21875 51.9942 9.21875C75.6214 9.21875 94.7815 28.367 94.7815 51.9942Z" fill="#8A5CC4"></path>
    <path fill-rule="evenodd" clip-rule="evenodd" d="M89.6863 33.5095C64.5543 37.1235 39.4341 37.2182 14.3139 33.5213C12.1455 37.0168 10.5932 40.8322 9.8112 44.8846C9.44388 47.0767 9.24244 49.3281 9.23059 51.615V51.6268V51.6505V51.6624V51.6742V51.9941V52.3259V52.3378V52.3496V52.3615V52.3852C9.24244 54.672 9.44388 56.9234 9.8112 59.1155C10.6051 63.1679 12.1455 66.9833 14.3139 70.4788C39.4341 66.7819 64.5543 66.8767 89.6863 70.4788C91.8547 66.9952 93.3951 63.1797 94.1772 59.1392C94.5445 56.9352 94.7578 54.6839 94.7696 52.3852V52.3615V52.3496V52.3378V52.3259L94.7578 51.9941L94.7696 51.6742V51.6624V51.6505V51.6268V51.615C94.7578 49.3162 94.5563 47.0649 94.1772 44.8728C93.3951 40.8204 91.8547 37.005 89.6863 33.5095Z" fill="#FEFEFE"></path>
    <path fill-rule="evenodd" clip-rule="evenodd" d="M94.7815 51.9942C94.7815 75.6214 75.6214 94.7696 51.9942 94.7696C28.3788 94.7696 9.21875 75.6214 9.21875 51.9942C9.21875 28.367 28.3788 9.21875 51.9942 9.21875C75.6214 9.21875 94.7815 28.367 94.7815 51.9942Z" stroke="#FEFEFE" stroke-width="4" stroke-miterlimit="10"></path>
    <path d="M66.1895 45.1809C65.5378 44.5292 65.5378 43.4746 66.1895 42.8229C66.8412 42.1712 67.8957 42.1712 68.5356 42.8229L77.2329 51.5202C77.8846 52.1719 77.8846 53.2264 77.2329 53.8781L68.5356 62.5754C67.8957 63.2271 66.8412 63.2271 66.1895 62.5754C65.5378 61.9237 65.5378 60.8691 66.1895 60.2174L73.7018 52.6932L66.1895 45.1809Z" fill="#7D65A8"></path>
    <path d="M79.7092 45.1809C79.0575 44.5292 79.0575 43.4746 79.7092 42.8229C80.3609 42.1712 81.4155 42.1712 82.0554 42.8229L90.7526 51.5202C91.4043 52.1719 91.4043 53.2264 90.7526 53.8781L82.0554 62.5754C81.4155 63.2271 80.3609 63.2271 79.7092 62.5754C79.0575 61.9237 79.0575 60.8691 79.7092 60.2174L87.2216 52.6932L79.7092 45.1809Z" fill="#7D65A8"></path>
    <path d="M21.9447 42.8229C22.5846 42.1712 23.6391 42.1712 24.2909 42.8229C24.9426 43.4746 24.9426 44.5292 24.2909 45.1809L16.7785 52.6932L24.2909 60.2174C24.9426 60.8691 24.9426 61.9237 24.2909 62.5754C23.6391 63.2271 22.5846 63.2271 21.9447 62.5754L13.2474 53.8781C12.5957 53.2264 12.5957 52.1719 13.2474 51.5202L21.9447 42.8229Z" fill="#7D65A8"></path>
    <path d="M35.4646 42.7281C36.1163 42.0764 37.1709 42.0764 37.8226 42.7281C38.4743 43.3798 38.4743 44.4344 37.8226 45.0742L35.4646 42.7281ZM26.7673 51.4254L35.4646 42.7281L37.8226 45.0742L29.1253 53.7834H26.7673V51.4254ZM29.1253 53.7834C28.4736 54.4232 27.419 54.4232 26.7673 53.7834C26.1156 53.1316 26.1156 52.0771 26.7673 51.4254L29.1253 53.7834ZM35.4646 62.4806L26.7673 53.7834L29.1253 51.4254L37.8226 60.1227L35.4646 62.4806ZM37.8226 60.1227C38.4743 60.7744 38.4743 61.8289 37.8226 62.4806C37.1709 63.1323 36.1163 63.1323 35.4646 62.4806L37.8226 60.1227Z" fill="#7D65A8"></path>
  </g>
  <defs>
    <clipPath id="clip0_1_174">
      <rect width="104" height="104" fill="white"></rect>
    </clipPath>
  </defs>
</svg>
