<?xml version="1.0" encoding="UTF-8"?>
<svg xmlns="http://www.w3.org/2000/svg" width="104" height="104" viewBox="0 0 104 104" fill="none">
  <g clip-path="url(#clip0_1_192)">
    <path fill-rule="evenodd" clip-rule="evenodd" d="M102.704 52C102.704 80.0158 79.9953 102.704 52 102.704C24.0048 102.704 1.2959 80.0158 1.2959 52C1.2959 24.0048 24.0048 1.2959 52 1.2959C79.9953 1.2959 102.704 24.0048 102.704 52Z" fill="#8A5CC4"></path>
    <path d="M19.0475 77.568C19.0475 68.2911 22.8117 59.8782 28.9003 53.8101C34.9889 47.7215 43.3813 43.9573 52.6582 43.9573C61.9351 43.9573 70.3481 47.7215 76.4367 53.8101C82.5048 59.8782 86.269 68.2911 86.269 77.568H82.4431C82.4431 69.3402 79.1108 61.894 73.7215 56.5047C68.3323 51.1155 60.8861 47.7832 52.6582 47.7832C44.4304 47.7832 36.9842 51.1155 31.595 56.5047C26.2057 61.894 22.8734 69.3402 22.8734 77.568H19.0475Z" fill="white"></path>
    <path d="M25.3212 71.8702C26.0617 71.1092 27.2753 71.1092 28.0158 71.8702C28.7563 72.6108 28.7563 73.8244 28.0158 74.5649L22.2358 80.3449C21.4952 81.0854 20.2816 81.0854 19.5411 80.3449L13.7611 74.5649C13.0206 73.8244 13.0206 72.6108 13.7611 71.8702C14.5016 71.1092 15.7152 71.1092 16.4557 71.8702L20.8987 76.2927L25.3212 71.8702Z" fill="white"></path>
    <path d="M88.6962 71.8702C89.4367 71.1092 90.6503 71.1092 91.3908 71.8702C92.1313 72.6108 92.1313 73.8244 91.3908 74.5649L85.6107 80.3449C84.8702 81.0854 83.6566 81.0854 82.9161 80.3449L77.1361 74.5649C76.3956 73.8244 76.3956 72.6108 77.1361 71.8702C77.8766 71.1092 79.0902 71.1092 79.8307 71.8702L84.2532 76.2927L88.6962 71.8702Z" fill="white"></path>
    <path fill-rule="evenodd" clip-rule="evenodd" d="M47.8244 76.3133C48.2975 75.4905 49.3465 74.5855 50.5601 74.5855H54.6329C55.7231 74.5855 56.8544 75.5934 57.2864 76.2516C57.8212 77.1361 57.7801 84.8291 57.7184 89.519H62.2848C63.1487 89.519 63.8275 89.375 64.4241 89.0253C66.625 87.7089 66.1725 85.7136 66.1725 82.8339C66.1725 79.3576 66.1725 75.8814 66.1725 72.3845C67.4478 73.2484 68.5997 75.326 69.6693 75.326C70.5127 75.326 71.1915 74.9557 71.1915 74.0712C71.1915 73.0633 70.9241 73.0222 70.2453 72.3639C67.818 69.9367 55.538 57.3893 54.3449 56.6488C53.913 56.3814 53.2753 56.2374 52.5348 56.2168C50.951 56.2168 50.2927 56.9984 49.4905 57.8007L34.8655 72.4257C34.4953 72.7959 34.0016 73.1045 34.0016 73.7833C34.0016 74.7295 34.3307 75.326 35.5237 75.326C36.5728 75.326 37.9098 72.6931 39.0206 72.3845C39.0206 75.9225 39.0206 79.4605 39.0206 82.9779C39.0206 84.7263 38.7943 86.6598 39.4937 87.8117C40.1519 88.9019 41.201 89.519 42.9082 89.519H47.3307C47.2896 84.8703 47.2279 77.3829 47.8244 76.3133Z" fill="white"></path>
    <path d="M86.6598 22.0712C87.7088 22.0712 88.5522 22.9145 88.5522 23.9842C88.5522 25.0332 87.7088 25.8971 86.6598 25.8971C86.2278 25.8971 83.0601 25.5063 82.0316 25.5886C81.4557 25.6297 81.0031 25.6914 80.9003 25.712L80.6946 25.7943C79.7072 26.144 78.617 25.6297 78.2674 24.6218L78.1439 24.1487C77.8971 23.1202 77.3006 22.2357 76.5189 21.5981C75.6962 20.9604 74.6883 20.5696 73.5775 20.5696C72.2816 20.5696 71.1091 21.1044 70.2658 21.9478C69.4224 22.7911 68.8876 23.9636 68.8876 25.2595C68.8876 25.4652 68.9082 25.6503 68.9288 25.8354C68.9699 26.1028 69.0316 26.3702 69.0933 26.6376C69.3401 27.6455 68.7025 28.674 67.6946 28.9209C67.53 28.962 67.386 28.9826 67.242 28.9826H66.3576C65.5553 28.9826 64.8148 29.3117 64.28 29.8465C63.7658 30.3813 63.4367 31.1012 63.4367 31.9035V31.924C63.4161 32.7262 63.7658 33.4462 64.28 33.981C64.8148 34.4952 65.5348 34.8449 66.337 34.8449L85.5696 34.7832C86.6392 34.7832 87.4826 35.6266 87.4826 36.6756C87.4826 37.7247 86.6392 38.5886 85.5696 38.5886L66.337 38.6503C64.4857 38.6503 62.799 37.8892 61.5854 36.6756C60.3718 35.462 59.6107 33.7753 59.6107 31.924V31.9035C59.6107 30.0522 60.3718 28.3655 61.5854 27.1519C62.511 26.2057 63.7246 25.5474 65.0822 25.28V25.2595C65.0822 22.9145 66.0284 20.7753 67.5712 19.2326C69.1139 17.7104 71.2326 16.7437 73.5775 16.7437C75.5727 16.7437 77.424 17.443 78.8844 18.6155C79.9335 19.4588 80.7974 20.549 81.3528 21.8038L81.7231 21.7832C82.875 21.6804 86.1661 22.0712 86.6598 22.0712Z" fill="white"></path>
    <path d="M25.9589 28.0158L25.7738 28.0775C25.2596 28.3449 24.8687 28.7563 24.6425 29.2706L24.6219 29.3117C24.4162 29.8465 24.3956 30.4636 24.6013 31.019L24.6836 31.1835C24.9304 31.7184 25.3418 32.1092 25.8561 32.3149L25.9178 32.356C26.432 32.5617 27.0491 32.5823 27.6045 32.356L27.7691 32.2943C28.3039 32.0475 28.6947 31.6155 28.921 31.1218L28.9415 31.0601C29.1472 30.5253 29.1678 29.9288 28.9415 29.3528L28.8798 29.1883C28.633 28.674 28.201 28.2832 27.7073 28.057L27.6456 28.0364C27.1108 27.8307 26.5143 27.8101 25.9589 28.0158ZM24.7453 25.2595C26.0823 24.7041 27.5428 24.7453 28.777 25.2389L28.8592 25.2801C30.0934 25.7943 31.1219 26.7816 31.6978 28.0981L31.7184 28.1598C32.2738 29.4968 32.2327 30.9367 31.739 32.1915L31.6978 32.2737C31.163 33.5079 30.1757 34.5364 28.8592 35.1123L28.8181 35.1329C27.4605 35.6677 26.0206 35.6471 24.7865 35.1329L24.6836 35.0918C23.47 34.5775 22.421 33.5902 21.8656 32.2737L21.845 32.2326C21.2896 30.875 21.3308 29.4351 21.8244 28.1804L21.8656 28.0981C22.3798 26.8639 23.3672 25.8354 24.6836 25.2801L24.7453 25.2595Z" fill="white"></path>
    <path d="M20.7753 19.9114C20.4668 19.1298 20.8165 18.2453 21.5775 17.9368C22.3386 17.6076 23.2231 17.9779 23.5522 18.739L25.1155 22.4004C25.4241 23.182 25.0744 24.0665 24.3133 24.375C23.5522 24.7042 22.6677 24.3339 22.3386 23.5728L20.7753 19.9114Z" fill="white"></path>
    <path d="M15.2627 27.1725C14.5016 26.8639 14.1108 25.9794 14.4399 25.1978C14.7485 24.4367 15.6124 24.0665 16.394 24.375L20.0966 25.856C20.8576 26.1646 21.2279 27.0491 20.9193 27.8307C20.6108 28.5918 19.7469 28.962 18.9652 28.6535L15.2627 27.1725Z" fill="white"></path>
    <path d="M16.4968 36.182C15.7357 36.5111 14.8513 36.1614 14.5221 35.3798C14.193 34.6187 14.5633 33.7342 15.3244 33.4256L19.0063 31.8623C19.7674 31.5332 20.6519 31.9035 20.9604 32.6646C21.2895 33.4256 20.9399 34.3101 20.1582 34.6392L16.4968 36.182Z" fill="white"></path>
    <path d="M23.7579 41.6946C23.4493 42.4763 22.5648 42.8465 21.7832 42.538C21.0221 42.2295 20.6519 41.345 20.9604 40.5839L22.462 36.8814C22.7705 36.0997 23.6345 35.7295 24.4161 36.038C25.1772 36.3465 25.5474 37.231 25.2389 37.9921L23.7579 41.6946Z" fill="white"></path>
    <path d="M28.4478 37.9715C28.1187 37.2104 28.4889 36.3259 29.25 35.9968C30.0111 35.6883 30.8956 36.038 31.2247 36.799L32.7674 40.481C33.0965 41.2421 32.7468 42.1266 31.9858 42.4557C31.2041 42.7642 30.3196 42.4145 30.0111 41.6535L28.4478 37.9715Z" fill="white"></path>
    <path d="M33.4668 34.5158C32.6852 34.2073 32.3149 33.3228 32.6234 32.5617C32.932 31.7801 33.8165 31.4098 34.5776 31.7184L38.2801 33.2199C39.0617 33.5285 39.432 34.413 39.1235 35.1741C38.8149 35.9557 37.9304 36.326 37.1693 36.0174L33.4668 34.5158Z" fill="white"></path>
    <path d="M34.557 28.5301C33.7959 28.8386 32.9115 28.4889 32.5823 27.7278C32.2738 26.9462 32.6235 26.0823 33.3846 25.7532L37.0665 24.1899C37.8276 23.8607 38.7121 24.231 39.0412 24.9921C39.3497 25.7532 39.0001 26.6376 38.239 26.9668L34.557 28.5301Z" fill="white"></path>
    <path d="M31.1013 23.5111C30.7928 24.2722 29.9083 24.6424 29.1472 24.3339C28.3656 24.0254 27.9953 23.1614 28.3039 22.3798L29.8055 18.6773C30.114 17.9162 30.9985 17.5254 31.7596 17.8339C32.5412 18.1424 32.9115 19.0269 32.6029 19.8086L31.1013 23.5111Z" fill="white"></path>
  </g>
  <defs>
    <clipPath id="clip0_1_192">
      <rect width="104" height="104" fill="white"></rect>
    </clipPath>
  </defs>
</svg>
