<?xml version="1.0" encoding="UTF-8"?>
<svg xmlns="http://www.w3.org/2000/svg" width="104" height="104" viewBox="0 0 104 104" fill="none">
  <g clip-path="url(#clip0_37_493)">
    <path fill-rule="evenodd" clip-rule="evenodd" d="M102.708 52.0103C102.708 79.9937 79.9937 102.708 51.9898 102.708C24.0063 102.708 1.29156 79.9937 1.29156 52.0103C1.29156 24.0063 24.0063 1.29155 51.9898 1.29155C79.9937 1.29155 102.708 24.0063 102.708 52.0103Z" fill="#8A5CC4"></path>
    <path fill-rule="evenodd" clip-rule="evenodd" d="M53.7324 83.3968C52.8098 83.3968 52.0718 82.6383 52.0718 81.7363C52.0718 80.8137 52.8098 80.0757 53.7324 80.0757C54.6344 80.0757 55.3929 80.8137 55.3929 81.7363C55.3929 82.6383 54.6344 83.3968 53.7324 83.3968ZM76.8776 42.6004H70.0509C69.9279 42.6004 69.8254 42.6414 69.7024 42.6619C69.0054 37.1473 64.7207 32.9241 59.5545 32.9241L31.5096 32.8831C25.7079 32.8626 21.0953 38.1518 21.2798 44.5275C21.4848 50.6367 26.0154 55.4749 31.5301 55.4749L59.5956 55.5364C64.8437 55.5364 69.1284 51.1902 69.7229 45.6345C69.8459 45.655 69.9484 45.6961 70.0509 45.6961H76.8776C78.3947 45.6961 79.6247 46.9261 79.6247 48.4431V61.6251C79.6247 63.0396 78.4767 64.2082 77.0621 64.2082L57.894 64.3107C54.8189 64.3312 52.3383 66.8323 52.3383 69.8869V75.8526H52.3178C50.7188 75.8526 49.4272 77.1441 49.4272 78.7432V87.2304C49.4272 88.8295 50.7188 90.121 52.3178 90.121H55.4749C57.074 90.121 58.345 88.8295 58.345 87.2304V78.7432C58.345 77.1441 57.074 75.8526 55.4749 75.8526H55.4339V69.8869C55.4339 68.5338 56.5409 67.4268 57.894 67.4063L77.0826 67.3038C80.1987 67.2833 82.7203 64.7412 82.7203 61.6251V48.4431C82.7203 45.2245 80.0962 42.6004 76.8776 42.6004ZM34.6872 30.8535H58.0375C58.8985 30.8535 59.5751 30.177 59.5751 29.316V18.1636C59.5751 17.3231 58.8985 16.6466 58.0375 16.6466C58.0375 16.6466 49.6732 18.7581 45.2861 16.6466C37.0243 11.0499 33.1497 15.2115 33.1497 18.1636V29.316C33.1497 30.177 33.8467 30.8535 34.6872 30.8535ZM59.5751 59.247V58.0785C59.5751 57.6685 59.247 57.3404 58.837 57.3404H33.8877C33.4777 57.3404 33.1497 57.6685 33.1497 58.0785V59.247C33.1497 59.657 33.4777 60.0055 33.8877 60.0055H58.837C59.247 60.0055 59.5751 59.657 59.5751 59.247Z" fill="#FEFEFE"></path>
  </g>
  <defs>
    <clipPath id="clip0_37_493">
      <rect width="104" height="104" fill="white"></rect>
    </clipPath>
  </defs>
</svg>
