<?xml version="1.0" encoding="UTF-8"?>
<svg xmlns="http://www.w3.org/2000/svg" width="104" height="104" viewBox="0 0 104 104" fill="none">
  <g clip-path="url(#clip0_23_3691)">
    <path fill-rule="evenodd" clip-rule="evenodd" d="M3.54089 52.0054C3.54089 78.7576 25.2315 100.448 51.9946 100.448C78.7576 100.448 100.448 78.7576 100.448 52.0054C100.448 25.2424 78.7576 3.55174 51.9946 3.55174C25.2315 3.55174 3.54089 25.2424 3.54089 52.0054Z" fill="#8A5CC4"></path>
    <path d="M75.5425 9.65598V10.1447V23.9173H74.0219V72.7077H75.5425V93.1818C75.5425 93.562 75.5533 93.953 75.5751 94.3332C90.412 86.0457 100.448 70.1986 100.448 52.0054C100.448 33.7905 90.4012 17.9325 75.5425 9.65598Z" fill="white"></path>
    <path d="M71.7518 23.9173H70.2746V7.12521C69.3405 6.74506 68.3955 6.38662 67.4288 6.06078V97.9392C68.3955 97.6134 69.3405 97.2549 70.2746 96.8748V72.7185H71.7518V23.9173Z" fill="white"></path>
    <path d="M55.3834 56.0677L38.6891 39.3625L46.5638 31.5095C46.6181 31.9006 46.781 32.2807 47.0417 32.5957C47.4979 33.1714 48.1604 33.4646 48.8447 33.4212L51.7991 33.3017L52.5268 38.6674C52.6571 39.7535 53.5912 40.579 54.6882 40.5899L60.358 40.6876L59.8367 46.3357C59.7389 47.2698 60.2603 48.1604 61.1292 48.5623L62.3348 49.1162L55.3834 56.0677ZM51.2234 60.2385L34.5291 43.5334L36.6145 41.4588L53.3088 58.1422L51.2234 60.2385ZM48.9642 62.4977C46.5203 60.5861 43.5116 59.728 40.4052 60.0539C37.1467 60.3906 34.2467 62.0198 32.2481 64.6158C29.5002 68.211 26.9151 71.9256 24.5581 75.662C23.1027 77.943 20.4198 78.7684 18.6603 78.3883C17.3569 78.1276 16.5314 77.237 16.3359 75.9118C16.0317 73.7069 17.1288 71.4586 19.1056 70.2095C22.8637 67.8199 26.5784 65.224 30.1519 62.4977C32.7586 60.5101 34.3662 57.61 34.7137 54.3407C35.0287 51.256 34.1707 48.2364 32.259 45.8034L32.4328 45.6296L49.1271 62.324L48.9642 62.4977ZM51.9077 24.6341L51.6253 24.3517C51.3646 24.0802 50.9736 24.015 50.6586 24.1562C50.6043 24.1888 50.5391 24.2431 50.4848 24.2866C50.4305 24.2974 50.3979 24.3192 50.387 24.3517H50.3653C30.4125 44.3154 29.7717 44.9562 29.7717 44.9562L29.6196 45.1083C29.2829 45.445 29.2829 46.0098 29.6196 46.3574C33.6927 50.4196 33.2583 57.1538 28.7181 60.6295C25.2424 63.2906 21.6038 65.8323 17.8456 68.211C15.0651 69.9705 13.5662 73.1204 14.0115 76.2377C14.8804 82.2985 23.1787 82.2333 26.5458 76.922C28.9245 73.1639 31.477 69.5035 34.1381 66.0386C37.6246 61.4985 44.3263 61.0749 48.4102 65.1371C48.7578 65.4847 49.3118 65.4847 49.6593 65.1371C51.1039 63.6925 65.0502 49.7462 65.5173 49.2792L68.9061 45.9012V41.6109C56.5456 29.2612 52.8526 25.5791 51.9077 24.6341Z" fill="white"></path>
    <path d="M20.6804 73.0118C20.398 73.3051 20.398 73.783 20.6804 74.0762C20.9737 74.3586 21.4516 74.3586 21.7449 74.0762C21.8752 73.935 21.9512 73.7504 21.9512 73.5549C21.9512 73.3594 21.8752 73.1639 21.734 73.0118C21.4516 72.7294 20.9628 72.7403 20.6804 73.0118ZM21.2127 75.4665C20.7239 75.4665 20.2243 75.2819 19.8441 74.9017C19.0946 74.1523 19.0946 72.9358 19.8332 72.1863H19.8441C20.5935 71.426 21.81 71.426 22.5595 72.1863C22.9288 72.5556 23.1352 73.0444 23.1352 73.5549C23.1352 74.0762 22.9288 74.5433 22.5704 74.9017C22.2011 75.2819 21.7123 75.4665 21.2127 75.4665Z" fill="white"></path>
    <path fill-rule="evenodd" clip-rule="evenodd" d="M51.9945 5.8001C26.524 5.8001 5.78919 26.5241 5.78919 52.0054C5.78919 77.4759 26.524 98.1999 51.9945 98.1999C77.4759 98.1999 98.2107 77.4759 98.2107 52.0054C98.2107 26.5241 77.4759 5.8001 51.9945 5.8001ZM51.9945 102.697C24.0476 102.697 1.30334 79.9524 1.30334 52.0054C1.30334 24.0476 24.0476 1.30339 51.9945 1.30339C79.9523 1.30339 102.697 24.0476 102.697 52.0054C102.697 79.9524 79.9523 102.697 51.9945 102.697Z" fill="#8A5CC4"></path>
  </g>
  <defs>
    <clipPath id="clip0_23_3691">
      <rect width="104" height="104" fill="white"></rect>
    </clipPath>
  </defs>
</svg>
