<?xml version="1.0" encoding="UTF-8"?>
<svg xmlns="http://www.w3.org/2000/svg" width="104" height="104" viewBox="0 0 104 104" fill="none">
  <g clip-path="url(#clip0_16_396)">
    <path fill-rule="evenodd" clip-rule="evenodd" d="M102.696 52C102.696 79.9968 79.9968 102.696 52 102.696C23.9963 102.696 1.29724 79.9968 1.29724 52C1.29724 24.0031 23.9963 1.29727 52 1.29727C79.9968 1.29727 102.696 24.0031 102.696 52Z" fill="#8A5CC4"></path>
    <path d="M32.792 16.7968H71.2011C75.6024 16.7968 79.6029 18.5966 82.5031 21.4969C85.4033 24.3903 87.2032 28.3908 87.2032 32.792V71.2011C87.2032 75.6024 85.4033 79.6029 82.5031 82.5031C79.6029 85.4033 75.6024 87.2032 71.2011 87.2032H32.792C28.3908 87.2032 24.3903 85.4033 21.4901 82.5031C18.5966 79.6029 16.7968 75.6024 16.7968 71.2011V32.792C16.7968 28.3908 18.5966 24.3903 21.4969 21.4969C24.3903 18.5966 28.3908 16.7968 32.792 16.7968ZM71.2011 20.0298H45.5475L82.9174 76.268C83.5967 74.7126 83.9702 73.001 83.9702 71.2011V32.792C83.9702 29.2873 82.5303 26.0951 80.221 23.779C77.9049 21.4629 74.7126 20.0298 71.2011 20.0298Z" fill="#FEFEFE"></path>
    <path fill-rule="evenodd" clip-rule="evenodd" d="M27.1886 34.3678C27.1886 33.5324 27.8678 32.8532 28.71 32.8532H30.8291L33.838 29.8511V27.7184C33.838 26.8694 34.5104 26.2038 35.3527 26.2038C36.1813 26.2038 36.8673 26.8694 36.8673 27.7184V29.8511L39.8762 32.8532H41.9206C42.7492 32.8532 43.4352 33.5324 43.4352 34.3678C43.4352 35.2032 42.7492 35.8824 41.9206 35.8824H39.8762L36.6092 39.1562V40.8067C36.6092 41.6557 35.9232 42.3213 35.0878 42.3213C34.2523 42.3213 33.5731 41.6557 33.5731 40.8067V38.6264L30.8291 35.8824H28.71C27.8678 35.8824 27.1886 35.2032 27.1886 34.3678ZM35.441 36.0387L36.8877 34.5852C36.8809 34.5172 36.8469 34.4493 36.8469 34.3678C36.8469 34.2931 36.8809 34.232 36.8877 34.1573L35.3527 32.6223L33.6003 34.3678L35.2168 35.9911C35.2915 35.9979 35.3662 36.0115 35.441 36.0387Z" fill="#8A5CC4"></path>
    <path fill-rule="evenodd" clip-rule="evenodd" d="M42.2262 48.5089H43.8766L46.2335 46.1588V44.4948C46.2335 43.931 46.6818 43.4895 47.2387 43.4895C47.7957 43.4895 48.2439 43.931 48.2439 44.4948V46.1588L50.6008 48.5089H52.1901C52.7539 48.5089 53.2021 48.9571 53.2021 49.5141C53.2021 50.0778 52.7539 50.5261 52.1901 50.5261H50.6008L48.047 53.0731V54.3772C48.047 54.9409 47.5987 55.3892 47.0417 55.3892C46.4848 55.3892 46.0365 54.9409 46.0365 54.3772V52.6792L43.8766 50.5261H42.2262C41.6624 50.5261 41.2209 50.0778 41.2209 49.5141C41.2209 48.9571 41.6624 48.5089 42.2262 48.5089ZM47.3542 50.9268L48.5496 49.7246C48.536 49.6567 48.502 49.5956 48.502 49.5141C48.502 49.4462 48.536 49.3782 48.5496 49.3103L47.2387 47.9995L45.7241 49.5141L47.0689 50.8657C47.1708 50.8657 47.2591 50.8929 47.3542 50.9268Z" fill="#8A5CC4"></path>
  </g>
  <defs>
    <clipPath id="clip0_16_396">
      <rect width="104" height="104" fill="white"></rect>
    </clipPath>
  </defs>
</svg>
