<?xml version="1.0" encoding="UTF-8"?>
<svg xmlns="http://www.w3.org/2000/svg" width="101" height="101" viewBox="0 0 101 101" fill="none">
  <g clip-path="url(#clip0_22_3418)">
    <path fill-rule="evenodd" clip-rule="evenodd" d="M99.7357 50.5C99.7357 77.6951 77.6951 99.7357 50.5 99.7357C23.3049 99.7357 1.26434 77.6951 1.26434 50.5C1.26434 23.3049 23.3049 1.26431 50.5 1.26431C77.6951 1.26431 99.7357 23.3049 99.7357 50.5Z" fill="#8A5CC4"></path>
    <path d="M15.6217 60.2134C17.5061 60.335 19.3904 60.3958 21.2382 60.3958C55.5087 60.3958 73.3186 39.6925 77.5128 34.1003L73.2943 31.0246C58.6695 51.4482 34.9635 54.5604 21.9434 54.5604C19.2567 54.5604 17.0806 54.4267 15.6217 54.293V60.2134ZM21.2382 64.0185C18.7582 64.0185 16.2053 63.9091 13.6645 63.7025L11.999 63.5687V50.1839L14.0656 50.4878C14.1021 50.4878 17.19 50.9498 21.9434 50.9498C34.5623 50.9498 57.7699 47.8863 71.3371 27.4747L72.3826 25.8943L82.4364 33.225L81.5368 34.6473C81.3666 34.9513 62.6327 64.0185 21.2382 64.0185Z" fill="#FEFEFE"></path>
    <path d="M15.6217 71.4707H85.3783V64.1644H15.6217V71.4707ZM89.0011 75.0935H12.0111V60.5538H89.0011V75.0935Z" fill="#FEFEFE"></path>
    <path d="M53.8432 63.2891L50.3541 57.4659L53.4542 55.6059L56.9432 61.4169L53.8432 63.2891Z" fill="#FEFEFE"></path>
    <path d="M60.2742 63.3377L55.0345 55.2898L58.0738 53.3204L63.3134 61.3683L60.2742 63.3377Z" fill="#FEFEFE"></path>
    <path d="M67.2037 63.2526L60.7484 51.8251L63.897 50.0502L70.3523 61.4656L67.2037 63.2526Z" fill="#FEFEFE"></path>
    <path d="M74.2061 63.2891L65.3923 48.5913L68.4923 46.7313L77.3061 61.4169L74.2061 63.2891Z" fill="#FEFEFE"></path>
    <path d="M81.172 63.2648L70.2308 44.458L73.3551 42.6344L84.2964 61.4412L81.172 63.2648Z" fill="#FEFEFE"></path>
  </g>
  <defs>
    <clipPath id="clip0_22_3418">
      <rect width="101" height="101" fill="white"></rect>
    </clipPath>
  </defs>
</svg>
