<?xml version="1.0" encoding="UTF-8"?>
<svg xmlns="http://www.w3.org/2000/svg" width="104" height="104" viewBox="0 0 104 104" fill="none">
  <g clip-path="url(#clip0_1_128)">
    <path fill-rule="evenodd" clip-rule="evenodd" d="M52.0085 1.2959C80.0078 1.2959 102.704 23.9921 102.704 52.0085C102.704 80.0078 80.0078 102.704 52.0085 102.704C24.0091 102.704 1.2959 80.0078 1.2959 52.0085C1.2959 23.9921 24.0091 1.2959 52.0085 1.2959Z" fill="#FEFEFE"></path>
    <path d="M31.3244 48.7004C31.3244 50.1498 30.1479 51.3264 28.6814 51.3264C27.2149 51.3264 26.0383 50.1498 26.0383 48.7004C26.0383 47.268 27.2149 46.0914 28.6814 46.0914C30.1479 46.0914 31.3244 47.268 31.3244 48.7004Z" fill="#8A5CC4"></path>
    <path d="M17.8023 60.6709C17.8023 63.1093 15.8072 65.0874 13.3517 65.0874C10.8962 65.0874 8.90112 63.1093 8.90112 60.6709C8.90112 58.2495 10.8962 56.2715 13.3517 56.2715C15.8072 56.2715 17.8023 58.2495 17.8023 60.6709Z" fill="#8A5CC4"></path>
    <path d="M7.40052 62.5807C7.40052 63.5356 6.61613 64.303 5.64417 64.303C4.67221 64.303 3.88782 63.5356 3.88782 62.5807C3.88782 61.6088 4.67221 60.8414 5.64417 60.8414C6.61613 60.8414 7.40052 61.6088 7.40052 62.5807Z" fill="#8A5CC4"></path>
    <path d="M96.5994 58.5906C99.9586 58.5906 102.704 55.8793 102.704 52.5371C102.704 50.1669 101.306 48.1377 99.2936 47.1487H93.9051C91.893 48.1377 90.4948 50.1669 90.4948 52.5371C90.4948 55.8793 93.2401 58.5906 96.5994 58.5906Z" fill="#8A5CC4"></path>
    <path d="M87.1185 47.1487H86.9309C86.965 47.1828 86.9991 47.2169 87.0332 47.268C87.0673 47.2169 87.0844 47.1828 87.1185 47.1487Z" fill="#8A5CC4"></path>
    <path d="M38.0088 62.5977C42.0843 62.5977 45.4094 59.3067 45.4094 55.2654C45.4094 51.2241 42.0843 47.933 38.0088 47.933C33.9334 47.933 30.6083 51.2241 30.6083 55.2654C30.6083 59.3067 33.9334 62.5977 38.0088 62.5977Z" fill="#8A5CC4"></path>
    <path d="M1.7563 58.7269C2.42133 58.9827 3.13751 59.1362 3.8878 59.1362C7.04241 59.1362 9.60021 56.5955 9.60021 53.4749C9.60021 50.3374 7.04241 47.7966 3.8878 47.7966C3.01815 47.7966 2.1826 48.0183 1.44937 48.3593C1.36411 49.57 1.2959 50.7807 1.2959 52.0085C1.2959 54.2764 1.46642 56.5272 1.7563 58.7269Z" fill="#8A5CC4"></path>
    <path d="M24.6742 51.0877C24.6742 49.4848 23.8898 48.0524 22.6962 47.1487H16.5404C15.3468 48.0524 14.5624 49.4848 14.5624 51.0877C14.5624 53.8501 16.8303 56.101 19.6268 56.101C22.4063 56.101 24.6742 53.8501 24.6742 51.0877Z" fill="#8A5CC4"></path>
    <path d="M13.7268 77.791C15.4491 76.5974 16.5916 74.6194 16.5916 72.3856C16.5916 68.7706 13.6075 65.8206 9.95834 65.8206C7.53696 65.8206 5.43956 67.1336 4.28003 69.0604C5.38841 72.1127 6.76962 75.0286 8.42366 77.791H13.7268Z" fill="#8A5CC4"></path>
    <path d="M52.486 102.704C68.1056 102.704 82.0712 95.7809 91.4498 84.8676H13.5222C22.9179 95.7809 36.8834 102.704 52.486 102.704Z" fill="#8A5CC4"></path>
    <path d="M51.7015 40.0721C45.1194 34.2403 38.5374 28.3915 31.9382 22.5597L27.8628 26.9591L24.6741 12.9936L39.1683 14.7329L35.0588 19.1834C41.044 24.4866 47.0292 29.7898 52.9974 35.0929C53.4749 34.462 53.9353 33.8311 54.4128 33.2001C61.1312 24.2138 67.8668 15.2274 74.5852 6.25802C67.9009 3.08636 60.398 1.2959 52.4859 1.2959C28.1527 1.2959 7.79265 18.1262 2.5918 40.686H52.9122C52.5029 40.6007 52.0766 40.4131 51.7015 40.0721Z" fill="#8A5CC4"></path>
    <path d="M93.0866 64.2518C89.0794 64.2518 85.8225 67.4746 85.8225 71.4307C85.8225 74.2101 87.4254 76.5803 89.7615 77.791H96.4288C96.497 77.7399 96.5652 77.6887 96.6335 77.6546C98.0317 75.3185 99.2254 72.846 100.231 70.2882C99.6858 66.8778 96.7017 64.2518 93.0866 64.2518Z" fill="#8A5CC4"></path>
    <path d="M78.6777 8.44067C77.9104 9.44674 77.143 10.4699 76.3928 11.493C69.3673 20.8545 62.359 30.2331 55.3336 39.6117C54.8902 40.1915 54.3275 40.5666 53.7136 40.686H102.38C99.2254 26.9932 90.4947 15.4149 78.6777 8.44067Z" fill="#8A5CC4"></path>
    <path d="M56.3226 70.9191C53.6966 70.9191 51.5822 73.0336 51.5822 75.6084C51.5822 76.4099 51.7868 77.1431 52.1449 77.7911H60.5003C60.8414 77.1431 61.0631 76.4099 61.0631 75.6084C61.0631 73.0336 58.9316 70.9191 56.3226 70.9191Z" fill="#8A5CC4"></path>
    <path d="M76.5121 47.933C72.4197 47.933 69.1116 51.2241 69.1116 55.2654C69.1116 59.3067 72.4197 62.5977 76.5121 62.5977C80.5876 62.5977 83.9127 59.3067 83.9127 55.2654C83.9127 51.2241 80.5876 47.933 76.5121 47.933Z" fill="#8A5CC4"></path>
    <path d="M65.292 47.1487C65.3773 47.3704 65.4796 47.6091 65.5307 47.8478C65.7012 47.6091 65.9059 47.3704 66.0934 47.1487H65.292Z" fill="#8A5CC4"></path>
    <path d="M73.7497 68.1396C73.5963 68.1055 73.4598 68.0544 73.3064 68.0203C72.9483 67.9521 72.5731 67.918 72.198 67.918C68.8217 67.918 66.0934 70.6292 66.0934 73.9544C66.0934 75.4208 66.6391 76.7338 67.5087 77.7911H76.8702C77.7569 76.7338 78.3026 75.4208 78.3026 73.9544C78.3026 71.1578 76.3587 68.8217 73.7497 68.1396Z" fill="#8A5CC4"></path>
    <path d="M59.9035 58.7781C57.431 58.7781 55.4188 60.7732 55.4188 63.2116C55.4188 65.6671 57.431 67.6452 59.9035 67.6452C62.376 67.6452 64.3882 65.6671 64.3882 63.2116C64.3882 60.7732 62.376 58.7781 59.9035 58.7781Z" fill="#8A5CC4"></path>
    <path d="M28.0675 67.6622C25.2881 67.6622 23.0201 69.896 23.0201 72.6584C23.0201 75.4208 25.2881 77.6717 28.0675 77.6717C30.864 77.6717 33.1149 75.4208 33.1149 72.6584C33.1149 69.896 30.864 67.6622 28.0675 67.6622Z" fill="#8A5CC4"></path>
    <path d="M56.8342 55.2825C59.7672 55.2825 62.1374 52.9293 62.1374 50.0305C62.1374 48.9562 61.8134 47.9672 61.2677 47.1487H52.4177C51.8721 47.9672 51.5481 48.9562 51.5481 50.0305C51.5481 52.9293 53.9183 55.2825 56.8342 55.2825Z" fill="#8A5CC4"></path>
    <path d="M41.7602 70.9191C39.1513 70.9191 37.0198 73.0336 37.0198 75.6084C37.0198 76.4099 37.2415 77.1431 37.5825 77.7911H45.938C46.279 77.1431 46.5007 76.4099 46.5007 75.6084C46.5007 73.0336 44.3692 70.9191 41.7602 70.9191Z" fill="#8A5CC4"></path>
    <path d="M20.5134 77.7911H20.6328C20.6157 77.757 20.5816 77.7399 20.5646 77.7058C20.5475 77.7399 20.5305 77.757 20.5134 77.7911Z" fill="#8A5CC4"></path>
    <path d="M53.7137 40.686H52.9122C53.1851 40.7371 53.4579 40.7371 53.7137 40.686Z" fill="#8A5CC4"></path>
    <path d="M52.2813 68.4807C52.2813 69.896 51.1218 71.0385 49.6894 71.0385C48.2571 71.0385 47.0975 69.896 47.0975 68.4807C47.0975 67.0654 48.2571 65.9058 49.6894 65.9058C51.1218 65.9058 52.2813 67.0654 52.2813 68.4807Z" fill="#8A5CC4"></path>
    <path d="M52.2813 57.2775C52.2813 58.6929 51.1218 59.8524 49.6894 59.8524C48.2571 59.8524 47.0975 58.6929 47.0975 57.2775C47.0975 55.8622 48.2571 54.7027 49.6894 54.7027C51.1218 54.7027 52.2813 55.8622 52.2813 57.2775Z" fill="#8A5CC4"></path>
    <path d="M71.4819 64.8998C71.4819 66.3151 70.3224 67.4746 68.89 67.4746C67.4576 67.4746 66.2981 66.3151 66.2981 64.8998C66.2981 63.4845 67.4576 62.342 68.89 62.342C70.3224 62.342 71.4819 63.4845 71.4819 64.8998Z" fill="#8A5CC4"></path>
    <path d="M68.89 48.7174C68.89 50.1327 67.7304 51.2752 66.2981 51.2752C64.8657 51.2752 63.7062 50.1327 63.7062 48.7174C63.7062 47.2851 64.8657 46.1426 66.2981 46.1426C67.7304 46.1426 68.89 47.2851 68.89 48.7174Z" fill="#8A5CC4"></path>
    <path d="M89.4717 62.7342C89.4717 64.7463 87.8176 66.3833 85.7885 66.3833C83.7593 66.3833 82.1052 64.7463 82.1052 62.7342C82.1052 60.7221 83.7593 59.0851 85.7885 59.0851C87.8176 59.0851 89.4717 60.7221 89.4717 62.7342Z" fill="#8A5CC4"></path>
    <path d="M100.249 62.342C100.249 63.2969 99.4642 64.0813 98.4922 64.0813C97.5202 64.0813 96.7358 63.2969 96.7358 62.342C96.7358 61.3871 97.5202 60.6027 98.4922 60.6027C99.4642 60.6027 100.249 61.3871 100.249 62.342Z" fill="#8A5CC4"></path>
    <path d="M39.9698 67.5599C39.9698 68.8899 38.8956 69.9642 37.5485 69.9642C36.2184 69.9642 35.1271 68.8899 35.1271 67.5599C35.1271 66.2469 36.2184 65.1726 37.5485 65.1726C38.8956 65.1726 39.9698 66.2469 39.9698 67.5599Z" fill="#8A5CC4"></path>
    <path d="M89.1648 48.7004C89.1648 49.9623 88.1246 50.9854 86.8457 50.9854C85.5839 50.9854 84.5437 49.9623 84.5437 48.7004C84.5437 47.4556 85.5839 46.4325 86.8457 46.4325C88.1246 46.4325 89.1648 47.4556 89.1648 48.7004Z" fill="#8A5CC4"></path>
    <path d="M84.9017 72.6925C84.9017 74.2102 83.6398 75.455 82.1052 75.455C80.5705 75.455 79.3257 74.2102 79.3257 72.6925C79.3257 71.1749 80.5705 69.9301 82.1052 69.9301C83.6398 69.9301 84.9017 71.1749 84.9017 72.6925Z" fill="#8A5CC4"></path>
    <path d="M29.9944 61.3871C29.9944 63.8937 27.9652 65.9229 25.4244 65.9229C22.9007 65.9229 20.8545 63.8937 20.8545 61.3871C20.8545 58.8804 22.9007 56.8513 25.4244 56.8513C27.9652 56.8513 29.9944 58.8804 29.9944 61.3871Z" fill="#8A5CC4"></path>
  </g>
  <defs>
    <clipPath id="clip0_1_128">
      <rect width="104" height="104" fill="white"></rect>
    </clipPath>
  </defs>
</svg>
