<?xml version="1.0" encoding="UTF-8"?>
<svg xmlns="http://www.w3.org/2000/svg" width="104" height="104" viewBox="0 0 104 104" fill="none">
  <g clip-path="url(#clip0_12_217)">
    <path fill-rule="evenodd" clip-rule="evenodd" d="M102.702 52C102.702 79.999 79.999 102.702 52 102.702C24.0009 102.702 1.29834 79.999 1.29834 52C1.29834 24.001 24.0009 1.2984 52 1.2984C79.999 1.2984 102.702 24.001 102.702 52Z" fill="#8A5CC4"></path>
    <path fill-rule="evenodd" clip-rule="evenodd" d="M61.95 24.9652C62.3999 24.2838 62.3614 23.9881 62.7984 23.9881H80.0375V80.0247H56.7693L54.301 70.1647C54.1082 69.3676 53.5426 67.555 53.5426 66.848C53.5426 66.5137 60.7287 55.2781 60.973 54.2497C59.7003 52.3471 51.9228 43.2326 51.3057 42.0499L61.95 24.9652ZM23.9752 23.9881H45.1609L38.129 45.1352L48.7989 53.6584C49.3131 54.0697 49.7502 54.494 50.3159 54.8025L46.0736 65.5496C45.7908 66.2566 45.4051 66.7066 45.8036 67.2979L51.1 74.3427C51.8585 75.3454 52.5399 76.2452 53.2598 77.2223L55.368 80.0247H23.9752V23.9881ZM49.056 21.1857H21.1727V82.8272H82.84V21.1857H60.973C60.8444 21.6485 60.4202 22.2012 60.1631 22.6126L49.5445 39.5946C49.236 40.0959 49.0303 40.3916 48.7347 40.893C47.6677 42.7056 47.3977 41.7029 50.3416 45.4052L57.6049 54.5197C57.4892 55.021 56.2422 56.975 55.8823 57.5664C55.0981 58.8905 50.5987 66.2052 50.5987 66.578C50.5987 67.645 51.28 68.8148 51.3057 69.9333C50.9843 69.7019 50.2516 68.6349 49.9431 68.2106C48.2976 66.0252 48.3747 67.2465 50.3159 62.3743L52.8484 56.0623C53.1055 55.4067 53.3883 54.5839 53.684 53.9669C52.5913 53.2341 51.6143 52.3471 50.5473 51.4987L41.3685 44.1582L49.056 21.1857Z" fill="#FEFEFE"></path>
    <path d="M82.7371 16.9562H21.2627V23.9239H82.7371V16.9562Z" fill="#FEFEFE"></path>
  </g>
  <defs>
    <clipPath id="clip0_12_217">
      <rect width="104" height="104" fill="white"></rect>
    </clipPath>
  </defs>
</svg>
