<?xml version="1.0" encoding="UTF-8"?>
<svg xmlns="http://www.w3.org/2000/svg" width="104" height="104" viewBox="0 0 104 104" fill="none">
  <g clip-path="url(#clip0_27_3836)">
    <path fill-rule="evenodd" clip-rule="evenodd" d="M102.705 51.9913C102.705 80 80 102.705 51.9913 102.705C24 102.705 1.29541 80 1.29541 51.9913C1.29541 24 24 1.29541 51.9913 1.29541C80 1.29541 102.705 24 102.705 51.9913Z" fill="#8A5CC4"></path>
    <path d="M74.3282 51.8862C74.2931 39.7199 64.0875 29.8643 51.536 29.9168C38.9846 29.9518 28.8489 39.8775 28.884 52.0613C28.9365 64.2451 39.1422 74.0831 51.6936 74.0306C64.245 73.9956 74.3807 64.0875 74.3282 51.8862ZM29.6017 71.7724L26.6433 74.8009C25.873 75.5886 25.873 76.849 26.6608 77.6192C27.0459 78.0044 27.5535 78.1969 28.0612 78.1969C28.5689 78.1969 29.094 77.9869 29.4791 77.6017L32.4551 74.5733C33.2253 73.7855 33.2078 72.5252 32.4201 71.7549C31.6323 70.9847 30.3719 71.0022 29.6017 71.7724ZM72.1575 32.9803C72.6476 32.9803 73.1203 32.8052 73.5054 32.4726L76.2888 29.9518C77.094 29.2166 77.164 27.9562 76.4288 27.1335C75.6936 26.3282 74.4332 26.2582 73.6104 26.9934L70.8271 29.5142C70.0218 30.2494 69.9518 31.5098 70.687 32.3326C71.0721 32.7527 71.6148 32.9803 72.1575 32.9803ZM75.1159 70.3545C74.4157 69.5142 73.1553 69.3917 72.315 70.1094C71.4748 70.8096 71.3697 72.07 72.0699 72.9103L77.2866 79.0897C77.6717 79.5624 78.2319 79.8074 78.8096 79.8074C79.2647 79.8074 79.7198 79.6499 80.0875 79.3348C80.9277 78.6171 81.0328 77.3742 80.3325 76.5339L75.1159 70.3545ZM66.5557 76.814C65.9956 75.8862 64.7527 75.5886 63.8249 76.1488C62.8796 76.7265 62.582 77.9519 63.1597 78.8971L65.2603 82.3282C65.6279 82.9584 66.2931 83.291 66.9584 83.291C67.3085 83.291 67.6761 83.2035 67.9912 82.9934C68.9365 82.4333 69.2341 81.2079 68.6564 80.2626L66.5557 76.814ZM55.7023 78.2319C54.617 78.407 53.8818 79.4223 54.0568 80.5077L55.3172 88.5077C55.4748 89.4705 56.3325 90.1707 57.2778 90.1707C57.3829 90.1707 57.4879 90.1707 57.5929 90.1532C58.6783 89.9781 59.431 88.9628 59.2559 87.8775L57.978 79.8775C57.8205 78.7921 56.7877 78.0569 55.7023 78.2319ZM49.0853 77.8818C48.0349 77.5492 46.9146 78.1269 46.582 79.1597L45.2341 83.361C44.9015 84.3939 45.4791 85.5142 46.5295 85.8643C46.722 85.9343 46.9321 85.9519 47.1247 85.9519C47.9649 85.9519 48.7527 85.4092 49.0328 84.5689L50.3807 80.3851C50.7133 79.3348 50.1356 78.2144 49.0853 77.8818ZM41.2953 75.081C40.3675 74.5033 39.1422 74.8009 38.5645 75.7462L34.3807 82.6258C33.803 83.5711 34.1006 84.7965 35.0459 85.3742C35.3785 85.5667 35.7286 85.6543 36.0787 85.6543C36.7439 85.6543 37.4091 85.3217 37.7767 84.6915L41.978 77.8118C42.5382 76.8665 42.2406 75.6411 41.2953 75.081ZM83.571 64.07L79.9299 61.8293C79.0021 61.2691 77.7767 61.5492 77.1991 62.4945C76.6214 63.4223 76.919 64.6652 77.8468 65.2254L81.4879 67.4486C81.803 67.6586 82.1706 67.7462 82.5207 67.7462C83.1859 67.7462 83.8511 67.4136 84.2187 66.8009C84.7964 65.8556 84.4988 64.6302 83.571 64.07ZM89.3829 53.7943L81.4529 52.5514C80.3675 52.3939 79.3522 53.1291 79.1772 54.2144C79.0196 55.2998 79.7549 56.3151 80.8402 56.4901L88.7702 57.733C88.8752 57.7505 88.9802 57.7505 89.0853 57.7505C90.0481 57.7505 90.8883 57.0503 91.0459 56.07C91.2209 54.9847 90.4682 53.9518 89.3829 53.7943ZM83.6061 43.7812L80.0349 44.9715C79.0021 45.3217 78.4419 46.4595 78.792 47.4923C79.0721 48.3326 79.8424 48.8578 80.6826 48.8578C80.8927 48.8578 81.1028 48.8227 81.3128 48.7527L84.8664 47.5448C85.9168 47.1947 86.477 46.0744 86.1268 45.0241C85.7767 43.9912 84.6389 43.4136 83.6061 43.7812ZM75.9562 39.5974C76.3413 40.1926 76.989 40.5252 77.6367 40.5252C78.0043 40.5252 78.3719 40.4201 78.7045 40.2101L85.5141 35.9037C86.4419 35.326 86.722 34.0831 86.1268 33.1554C85.5317 32.2276 84.3063 31.9475 83.3785 32.5427L76.5864 36.849C75.6411 37.4442 75.3785 38.6696 75.9562 39.5974ZM28.7614 33.6105C29.1465 34.0656 29.7067 34.3107 30.2669 34.3107C30.722 34.3107 31.1947 34.1532 31.5623 33.8381C32.4026 33.1203 32.5076 31.8599 31.7899 31.0197L26.6082 24.9803C25.908 24.14 24.6476 24.035 23.8074 24.7527C22.9671 25.4704 22.8796 26.7308 23.5973 27.5536L28.7614 33.6105ZM37.2516 27.0109C37.6192 27.6236 38.2844 27.9562 38.9496 27.9562C39.2997 27.9562 39.6673 27.8687 39.9824 27.6586C40.9277 27.081 41.2078 25.8556 40.6476 24.9278L38.547 21.5317C37.9693 20.5864 36.7439 20.3063 35.8161 20.884C34.8708 21.4617 34.5907 22.6871 35.1684 23.6149L37.2516 27.0109ZM47.6673 25.698C47.7724 25.698 47.8774 25.6805 47.9824 25.663C49.0678 25.488 49.803 24.4726 49.6279 23.3873L48.3675 15.4923C48.1925 14.407 47.1772 13.6718 46.0743 13.8468C44.989 14.0219 44.2538 15.0372 44.4288 16.1225L45.6892 24.0175C45.8468 24.9978 46.7045 25.698 47.6673 25.698ZM54.582 26.0481C54.7921 26.1006 55.0021 26.1357 55.1947 26.1357C56.0349 26.1357 56.8227 25.6105 57.0853 24.7702L58.4332 20.6214C58.7833 19.5886 58.2056 18.4508 57.1553 18.1182C56.105 17.768 55.0021 18.3457 54.652 19.396L53.3041 23.5273C52.9715 24.5777 53.5317 25.698 54.582 26.0481ZM62.3719 28.814C62.687 29.0066 63.0546 29.0941 63.4047 29.0941C64.07 29.0941 64.7352 28.7615 65.1028 28.1488L69.2866 21.3567C69.8643 20.4114 69.5842 19.186 68.6389 18.6083C67.6936 18.0306 66.4682 18.3282 65.908 19.256L61.7067 26.0656C61.129 27.0109 61.4266 28.2363 62.3719 28.814ZM20.3763 39.7724L23.9824 41.9431C24.2975 42.1532 24.6651 42.2407 25.0152 42.2407C25.6805 42.2407 26.3457 41.8906 26.7133 41.2779C27.291 40.3326 26.9934 39.1072 26.0481 38.547L22.4419 36.3589C21.5142 35.7987 20.2888 36.0963 19.7111 37.0416C19.1509 37.9694 19.4485 39.1947 20.3763 39.7724ZM22.7745 51.0634C23.7373 51.0634 24.5951 50.3632 24.7352 49.3654C24.9102 48.2801 24.175 47.2648 23.0721 47.1072L15.2122 45.8993C14.1268 45.7243 13.1115 46.477 12.954 47.5624C12.7789 48.6477 13.5142 49.663 14.617 49.8381L22.477 51.0459C22.582 51.0459 22.6695 51.0634 22.7745 51.0634ZM22.617 54.6871L19.0984 55.8599C18.0481 56.2101 17.4879 57.3304 17.838 58.3807C18.1181 59.221 18.8883 59.7462 19.7286 59.7462C19.9387 59.7462 20.1487 59.7112 20.3588 59.6411L23.8774 58.4508C24.9277 58.1182 25.4879 56.9803 25.1378 55.9475C24.7877 54.8971 23.6673 54.337 22.617 54.6871ZM27.9387 63.6674C27.361 62.7396 26.1356 62.4595 25.2078 63.0372L18.4507 67.256C17.5229 67.8337 17.2428 69.0591 17.8205 70.0044C18.2056 70.5996 18.8533 70.9322 19.5185 70.9322C19.8686 70.9322 20.2363 70.8271 20.5689 70.6346L27.3085 66.4157C28.2363 65.8381 28.5338 64.5952 27.9387 63.6674Z" fill="#FEFEFE"></path>
  </g>
  <defs>
    <clipPath id="clip0_27_3836">
      <rect width="104" height="104" fill="white"></rect>
    </clipPath>
  </defs>
</svg>
