<?xml version="1.0" encoding="UTF-8"?>
<svg xmlns="http://www.w3.org/2000/svg" width="104" height="104" viewBox="0 0 104 104" fill="none">
  <g clip-path="url(#clip0_1_187)">
    <path d="M97.7631 52C97.7631 77.2814 77.2557 97.7631 52 97.7631C26.7187 97.7631 6.23694 77.2814 6.23694 52C6.23694 26.7187 26.7187 6.23694 52 6.23694C77.2557 6.23694 97.7631 26.7187 97.7631 52Z" fill="#8A5CC4"></path>
    <path fill-rule="evenodd" clip-rule="evenodd" d="M17.0425 63.0622C17.0168 61.8046 17.0425 60.5213 17.0425 59.2636C17.0425 57.9033 16.9141 57.0563 17.5045 55.927C17.8894 55.1827 18.6338 54.5154 19.5834 54.2074C20.4561 53.925 22.1501 54.0277 23.151 54.0277C25.461 54.0277 27.4887 53.6684 28.8233 55.9527C29.388 56.928 29.2853 58.083 29.2853 59.315C29.2853 60.5726 29.2853 61.8303 29.2596 63.0879L17.0425 63.0622ZM44.3001 55.696C43.6841 54.4897 43.0425 53.0524 43.0938 51.3841C43.1708 48.8431 44.8134 45.6348 46.5331 43.8125C47.4827 42.8115 48.3811 42.1185 49.6387 41.4512C52.077 40.1165 55.003 39.2439 58.2113 38.9872C60.7779 38.7562 63.3959 38.9102 65.9368 39.3209C66.7068 39.4235 67.5025 39.6289 68.2468 39.7315C68.0415 40.0395 67.7848 40.2449 67.5538 40.4759L66.8865 41.1689C65.5775 42.6575 64.6022 44.1718 63.5755 45.9941C62.9339 47.1491 62.3692 48.4068 61.8559 49.7158C61.3426 50.9991 60.9319 52.3594 60.3929 53.617C59.2636 56.1837 57.8263 58.5193 55.3366 59.4433C53.3603 60.1876 50.3574 59.931 48.3297 59.1866C47.8164 59.007 46.8924 58.545 46.5844 58.237C46.7384 57.8263 49.228 54.7977 49.7414 54.31C50.1007 54.002 50.306 53.7197 50.614 53.386L53.386 50.8194C53.7196 50.5627 54.002 50.2804 54.3356 49.9981C55.388 49.1511 56.158 48.5094 57.3386 47.6624L59.4176 46.1995C60.7009 45.2241 60.0079 43.1965 58.4166 43.2478C57.8519 43.2478 57.4926 43.5302 57.1589 43.7868C54.8746 45.3525 53.232 46.5845 51.153 48.3811L49.2794 50.0751L45.0701 54.7464C44.8904 54.9517 44.4541 55.5677 44.3001 55.696ZM21.5084 50.7424C20.9951 50.7937 20.4304 50.7424 19.8914 50.7937C16.8885 51.1531 14.3475 53.4374 13.8342 56.6457C13.6802 57.6466 13.7572 61.9843 13.7572 63.3189C13.7572 64.5252 13.6032 65.4749 14.4245 66.0652C15.1431 66.5529 16.5548 66.3219 17.5301 66.3732C17.5301 66.9635 17.4788 68.5035 17.6071 68.9655C17.8124 69.6072 18.3514 70.1462 19.1471 70.1718C19.9428 70.1975 20.5587 69.6585 20.7641 69.0425C20.9181 68.5548 20.7897 67.0149 20.8154 66.3732C21.4571 66.3732 24.9477 66.2962 25.2557 66.3989C25.2814 67.0149 25.23 68.5035 25.3583 68.9912C25.846 70.5825 28.0276 70.5055 28.4896 69.0682C28.6693 68.5292 28.541 67.0405 28.541 66.3732C29.465 66.3219 31.0049 66.5529 31.7236 66.1422C32.6219 65.6545 32.5449 64.8332 32.5449 63.5756C32.5449 62.2666 32.6219 57.7236 32.4936 56.774C32.1343 54.0277 30.2093 51.9487 27.8736 51.1531C26.6673 50.7167 26.1027 50.8451 24.8194 50.7424C24.7424 50.1264 24.9734 48.3041 25.076 47.6111C25.7433 42.9655 27.3603 38.7562 29.8756 34.9063C30.4146 34.1106 31.4926 32.622 32.1343 31.9033L33.8026 30.081C38.2429 25.4611 44.6851 22.1758 51.2044 21.2261C59.7769 19.9685 67.8618 22.3554 73.5084 26.2824C82.7226 32.7503 87.8815 43.1708 86.8806 54.772C85.9309 65.6545 79.386 74.9201 69.8894 79.7967C63.8835 82.8767 53.6427 84.9043 47.4314 80.8747C44.8391 79.2064 42.5548 76.5114 42.0928 72.1738C41.8618 70.0692 42.1698 67.8875 42.7088 65.9625C42.9655 65.0642 43.2735 64.2172 43.6328 63.3702C43.8638 62.8569 44.5054 61.3939 44.7878 61.0603C45.0958 61.1629 45.9428 61.8303 47.2261 62.2923C48.2014 62.6259 49.0997 62.8312 50.2034 63.0109C56.9279 63.9349 60.9319 60.9833 63.5499 54.5924C64.2685 52.8214 64.8075 50.9991 65.6032 49.2794C66.9891 46.2508 69.2221 42.7858 72.0197 40.9892C72.3791 40.7582 72.8924 40.5785 73.1747 40.2962C73.4827 39.9625 73.7394 39.5262 73.6624 38.8846C73.5084 37.8066 72.6101 37.5499 71.5834 37.2419C63.3189 34.8293 54.002 34.8293 47.2004 39.0642C44.2488 40.8865 41.8618 43.8895 40.6555 47.2518C39.9368 49.2538 39.5005 51.2814 40.0138 53.5657C40.3732 55.1827 41.0405 56.7997 41.9388 58.1086C42.0671 58.314 42.2468 58.5193 42.3238 58.699C41.8875 59.5973 41.4768 60.1619 40.9891 61.2913C38.6022 66.4502 37.7552 72.0968 40.1678 77.4354C40.5785 78.3337 41.1431 79.2577 41.6565 79.925C43.4531 82.2863 45.6348 83.9803 48.4324 85.0583C54.7206 87.4709 62.5489 86.3416 68.4778 84.0316C71.0188 83.0307 74.0474 81.4137 76.1264 79.8224C78.8983 77.7177 79.925 76.7424 82.2606 74.0731C82.8509 73.4058 83.4669 72.5845 83.9803 71.8401C84.5449 71.0445 85.0326 70.3002 85.5459 69.4275C89.7809 62.3693 91.5775 52.77 89.2419 43.4532C85.0839 26.8214 69.1451 15.8875 51.9743 17.8125C45.6861 18.5311 39.6802 21.0208 35.0089 24.6397C34.0079 25.4097 33.6999 25.7177 32.8529 26.4364C31.3899 27.694 30.235 29.08 29.003 30.5173C27.386 32.4423 25.5637 35.4966 24.5114 37.9092C23.6644 39.7829 22.997 41.6565 22.4837 43.7868C22.0474 45.4808 21.7907 47.1491 21.6367 48.8944C21.5854 49.4591 21.5854 50.2291 21.5084 50.7424Z" fill="white"></path>
  </g>
  <defs>
    <clipPath id="clip0_1_187">
      <rect width="104" height="104" fill="white"></rect>
    </clipPath>
  </defs>
</svg>
