<?xml version="1.0" encoding="UTF-8"?>
<svg xmlns="http://www.w3.org/2000/svg" width="104" height="104" viewBox="0 0 104 104" fill="none">
  <path d="M102.705 52.0063C102.705 80.0087 80.0085 102.705 52.0061 102.705C24.0037 102.705 1.29492 80.0087 1.29492 52.0063C1.29492 24.0039 24.0037 1.29514 52.0061 1.29514C80.0085 1.29514 102.705 24.0039 102.705 52.0063Z" fill="#8A5CC4"></path>
  <path d="M26.1537 77.2047V53.5781C26.1537 51.4279 24.3933 49.6927 22.2432 49.6927C20.093 49.6927 18.3326 51.4279 18.3326 53.5781V77.2047C18.3326 77.2927 18.4207 77.3807 18.5464 77.3807H25.9399C26.0657 77.3807 26.1537 77.2927 26.1537 77.2047ZM58.7079 61.1476H27.9141V72.9421H58.7079V61.1476ZM63.4735 48.0455V45.0151C63.4735 41.3938 60.5186 38.4766 56.8847 38.4766H29.6996C26.0657 38.4766 23.1108 41.3938 23.1108 45.0151V48.0455C25.8268 48.4353 27.9015 50.7615 27.9015 53.5781V59.425H58.7079V53.5781C58.7079 50.7615 60.7575 48.4353 63.4735 48.0455ZM68.2516 77.2047H68.2265V53.5781C68.2265 51.4279 66.4913 49.6927 64.3411 49.6927C62.1909 49.6927 60.4306 51.4279 60.4306 53.5781V77.2047C60.4306 77.2927 60.5186 77.3807 60.6443 77.3807H68.0379C68.1636 77.3807 68.2516 77.2927 68.2516 77.2047ZM69.9868 53.5781V77.2047C69.9868 78.2483 69.1192 79.116 68.0379 79.116H60.6443C59.5378 79.116 58.6702 78.2483 58.6702 77.2047V74.6647H27.8763V77.2047C27.8763 78.2483 27.0087 79.116 25.9399 79.116H18.5087C17.4399 79.116 16.5723 78.2483 16.5723 77.2047V53.5781C16.5723 50.7615 18.6596 48.4353 21.3504 48.0455V45.0151C21.3504 40.4382 25.11 36.7162 29.6996 36.7162H56.8847C61.4742 36.7162 65.2339 40.4382 65.2339 45.0151V48.0455C67.9247 48.4353 69.9868 50.7615 69.9868 53.5781Z" fill="#FEFEFE"></path>
  <path d="M68.2266 77.2047H68.2517C68.2517 77.2927 68.1637 77.3807 68.038 77.3807H60.6444C60.5187 77.3807 60.4307 77.2927 60.4307 77.2047V53.578C60.4307 51.4279 62.191 49.6927 64.3412 49.6927C66.4914 49.6927 68.2266 51.4279 68.2266 53.578V77.2047Z" fill="#8A5CC4"></path>
  <path d="M63.4734 45.0151V48.0581C60.7574 48.4353 58.6953 50.7615 58.6953 53.5781V59.425H27.914V53.5781C27.914 50.7615 25.8267 48.4353 23.0981 48.0581V45.0151C23.0981 41.3938 26.053 38.4766 29.6995 38.4766H56.8846C60.5185 38.4766 63.4734 41.3938 63.4734 45.0151Z" fill="#8A5CC4"></path>
  <path d="M58.7079 72.9421H27.9141V61.1476H58.7079V72.9421Z" fill="#8A5CC4"></path>
  <path d="M26.1536 53.578V77.2047C26.1536 77.2927 26.0656 77.3807 25.9398 77.3807H18.5463C18.4205 77.3807 18.3325 77.2927 18.3325 77.2047V53.578C18.3325 51.4279 20.0929 49.6927 22.2431 49.6927C24.3932 49.6927 26.1536 51.4279 26.1536 53.578Z" fill="#8A5CC4"></path>
  <path d="M87.4144 40.1741C87.4647 40.5136 87.3516 40.8531 87.1755 41.1046C86.9492 41.3561 86.6223 41.507 86.3079 41.507H79.455V75.0671H82.6111C83.2524 75.0671 83.7554 75.5701 83.7554 76.2114C83.7554 76.8526 83.2524 77.3556 82.6111 77.3556H73.9853C73.3692 77.3556 72.8537 76.8526 72.8537 76.2114C72.8537 75.5701 73.3692 75.0671 73.9853 75.0671H77.1791V41.507H70.3263C69.9742 41.507 69.685 41.3561 69.4587 41.1046C69.2575 40.8531 69.1192 40.5136 69.2072 40.1741L71.5334 25.8523C71.6466 25.299 72.1244 24.8966 72.6651 24.8966H83.9566C84.5098 24.8966 84.9876 25.299 85.0505 25.8523L87.4144 40.1741Z" fill="white"></path>
</svg>
