<?xml version="1.0" encoding="UTF-8"?>
<svg xmlns="http://www.w3.org/2000/svg" width="104" height="104" viewBox="0 0 104 104" fill="none">
  <g clip-path="url(#clip0_1_166)">
    <path d="M102.692 51.9955C102.692 79.9958 79.9958 102.692 51.9955 102.692C23.9952 102.692 1.29919 79.9958 1.29919 51.9955C1.29919 23.9952 23.9952 1.29919 51.9955 1.29919C79.9958 1.29919 102.692 23.9952 102.692 51.9955Z" fill="#8A5CC4"></path>
    <path d="M26.7279 79.736C26.1097 79.736 25.4825 79.4941 25.0255 79.0103C24.1295 78.0695 24.1654 76.5821 25.1062 75.6861L80.3273 23.0454C81.2592 22.1584 82.7466 22.1942 83.6426 23.1261C84.5386 24.0669 84.5027 25.5543 83.5709 26.4503L28.3408 79.0909C27.8928 79.521 27.3104 79.736 26.7279 79.736Z" fill="#FEFEFE"></path>
    <path d="M44.4331 41.8975C44.3166 41.8975 44.1912 41.8885 44.0658 41.8616L41.9781 41.5301C40.7057 41.333 39.8276 40.1234 40.0337 38.8421C40.2308 37.5608 41.4225 36.6827 42.7307 36.8888L44.8095 37.2203C46.0907 37.4264 46.9599 38.636 46.7538 39.9173C46.5746 41.0731 45.5711 41.8975 44.4331 41.8975ZM39.5051 52.8198C39.2363 52.9095 38.9585 52.9542 38.6897 52.9542C37.7399 52.9542 36.835 52.3718 36.4855 51.4131L35.1057 47.6499C34.6576 46.4313 35.2849 45.0873 36.5034 44.6393C37.731 44.2002 39.066 44.8185 39.514 46.037L40.8939 49.8003C41.3419 51.0189 40.7147 52.3718 39.5051 52.8198ZM56.7533 38.6808L54.0742 35.8046L56.8429 27.6867C57.255 26.4592 56.601 25.1241 55.3734 24.712C54.1459 24.2909 52.8108 24.9449 52.3987 26.1725L50.2572 32.4177C48.053 31.0378 45.4725 30.2583 42.8113 30.2583C42.1573 30.2583 41.5121 30.321 40.876 30.4106L39.1467 24.5865C38.7793 23.35 37.489 22.6332 36.2257 23.0006C34.9802 23.3769 34.2724 24.6851 34.6397 25.9216L36.3869 31.8173C35.2759 32.3998 34.2455 33.1255 33.3047 33.9947L32.0682 35.1416L25.8409 30.8049C24.7836 30.0612 23.3141 30.321 22.5705 31.3783C21.8268 32.4446 22.0866 33.914 23.1529 34.6487L29.1561 38.8421C28.2064 40.6251 27.6956 42.5874 27.6419 44.5676L20.662 46.4134C19.4075 46.7539 18.6638 48.0351 18.9954 49.2896C19.2731 50.3379 20.2229 51.0368 21.2623 51.0368C21.4684 51.0368 21.6655 51.0099 21.8626 50.9561L28.3587 49.2358C28.9411 50.8845 29.8461 52.4435 31.1094 53.8055L32.2563 55.033L25.3571 59.522C24.2639 60.2209 23.9503 61.6814 24.6582 62.7656C25.1062 63.4555 25.8678 63.8408 26.6383 63.8408C27.0774 63.8408 27.5164 63.7153 27.9107 63.4555L35.5089 58.5185L35.9658 59.0202C36.4945 59.4772 37.0321 59.4324 37.5786 59.0561L37.5697 59.074L56.7533 40.7864C57.2282 40.1234 57.255 39.4155 56.7533 38.6808Z" fill="#FEFEFE"></path>
    <path d="M58.1331 65.9016C58.2586 65.9016 58.384 65.9105 58.5094 65.9284L60.5882 66.26C61.8695 66.466 62.7476 67.6667 62.5325 68.948C62.3354 70.2293 61.1527 71.1074 59.8445 70.9013L57.7657 70.5698C56.4845 70.3637 55.6064 69.163 55.8214 67.8817C56.0006 66.7259 56.9952 65.9016 58.1331 65.9016ZM63.0701 54.9792C63.3389 54.8806 63.6077 54.8358 63.8765 54.8358C64.8353 54.8358 65.7402 55.4272 66.0897 56.377L67.4695 60.1402C67.9086 61.3588 67.2903 62.7118 66.0718 63.1508C64.8442 63.5988 63.5002 62.9806 63.0522 61.762L61.6724 57.9987C61.2244 56.7802 61.8426 55.4272 63.0701 54.9792ZM45.813 69.1093L48.501 71.9855L45.7323 80.1033C45.3112 81.3309 45.9653 82.6659 47.1928 83.0871C48.4293 83.5082 49.7644 82.8541 50.1765 81.6266L52.318 75.3724C54.5222 76.7612 57.1027 77.5318 59.7549 77.5318C60.4179 77.5318 61.0631 77.478 61.6992 77.3884L63.4196 83.2035C63.7959 84.449 65.0772 85.1658 66.3406 84.7895C67.595 84.4221 68.2939 83.1139 67.9265 81.8685L66.1793 75.9727C67.2903 75.3993 68.3297 74.6735 69.2616 73.8044L70.4981 72.6485L76.7253 76.9942C77.7916 77.7289 79.2521 77.478 79.9958 76.4118C80.7395 75.3455 80.4796 73.885 79.4134 73.1413L73.4101 68.948C74.3599 67.1649 74.8706 65.2027 74.9333 63.2225L81.9132 61.3767C83.1587 61.0452 83.9113 59.7549 83.5798 58.5005C83.3021 57.4522 82.3523 56.7533 81.304 56.7533C81.1068 56.7622 80.9097 56.7802 80.7036 56.8339L74.2076 58.5543C73.6341 56.9056 72.7291 55.3466 71.4568 53.9936L70.3189 52.7571L77.2181 48.277C78.3023 47.5692 78.6159 46.1176 77.9081 45.0245C77.4601 44.3346 76.7074 43.9583 75.9369 43.9583C75.4978 43.9583 75.0588 44.0747 74.6556 44.3346L67.0663 49.2716L66.6004 48.7788C66.0718 48.3218 65.5431 48.3577 64.9876 48.743L64.9966 48.7161L45.813 67.0037C45.347 67.6757 45.3112 68.3835 45.813 69.1093Z" fill="#FEFEFE"></path>
  </g>
  <defs>
    <clipPath id="clip0_1_166">
      <rect width="104" height="104" fill="white"></rect>
    </clipPath>
  </defs>
</svg>
