<?xml version="1.0" encoding="UTF-8"?>
<svg xmlns="http://www.w3.org/2000/svg" width="104" height="104" viewBox="0 0 104 104" fill="none">
  <g clip-path="url(#clip0_32_4190)">
    <path fill-rule="evenodd" clip-rule="evenodd" d="M102.699 51.9977C102.699 79.9986 80.0009 102.701 51.9978 102.701C23.9992 102.701 1.29858 79.9986 1.29858 51.9977C1.29858 24.0036 23.9992 1.30079 51.9978 1.30079C80.0009 1.30079 102.699 24.0036 102.699 51.9977Z" fill="#8A5CC4"></path>
    <path fill-rule="evenodd" clip-rule="evenodd" d="M51.9978 84.3414C59.2447 79.7683 65.1841 73.2124 69.5472 65.8706C75.6424 55.611 78.7137 43.8791 79.7028 32.0455C70.4686 29.663 61.2343 27.2759 51.9978 24.8912C42.7635 27.2759 33.5293 29.663 24.2973 32.0455C25.2864 43.8791 28.3555 55.611 34.4529 65.8706C38.8137 73.2124 44.7531 79.7683 51.9978 84.3414ZM51.9978 89.3571C36.6887 80.8071 21.375 61.3517 19.7535 28.7642C30.5031 25.9864 41.2505 23.2132 51.9978 20.4378C62.7474 23.2132 73.4947 25.9864 84.242 28.7642C82.6228 61.3517 67.3092 80.8071 51.9978 89.3571Z" fill="#FEFEFE"></path>
    <path fill-rule="evenodd" clip-rule="evenodd" d="M51.9978 84.3459C59.2448 79.7728 65.1841 73.2169 69.5449 65.8751C75.6401 55.6156 78.7114 43.8836 79.7006 32.05C70.4663 29.6652 61.2343 27.2805 51.9978 24.8957C42.7613 27.2805 33.5293 29.6652 24.295 32.05C25.2842 43.8836 28.3555 55.6156 34.4507 65.8751C38.8115 73.2169 44.7486 79.7728 51.9978 84.3459Z" fill="#FEFEFE"></path>
    <path fill-rule="evenodd" clip-rule="evenodd" d="M51.9978 83.4064C55.3039 81.2678 58.3323 78.7069 61.0468 75.8501C64.0346 72.7042 66.6542 69.1903 68.8629 65.4709C71.7535 60.6064 73.9599 55.3988 75.5746 50.0127C77.2661 44.3759 78.323 38.5291 78.8514 32.6485L51.9978 25.7132L25.1441 32.6485C25.6726 38.5291 26.7295 44.3759 28.4209 50.0127C30.0356 55.3988 32.242 60.6064 35.1327 65.4709C37.3413 69.1903 39.9609 72.7042 42.9487 75.8501C45.6654 78.7069 48.6916 81.2678 51.9978 83.4064ZM62.1963 76.9409C59.2763 80.0144 56.004 82.7538 52.4201 85.0166L51.9978 85.2831L51.5755 85.0166C47.9915 82.7538 44.7192 80.0144 41.7992 76.9409C38.7256 73.7024 36.0337 70.0936 33.7686 66.2793C30.8102 61.2997 28.5542 55.9746 26.9011 50.4643C25.1102 44.5024 24.0217 38.3169 23.5046 32.1155L23.4481 31.4516C32.9647 28.9945 42.4767 26.5104 51.9978 24.0804C61.5188 26.5081 71.0331 28.9923 80.5451 31.4516L80.4909 32.1155C79.9738 38.3169 78.883 44.5024 77.0944 50.4643C75.4414 55.9746 73.1853 61.2997 70.2269 66.2793C67.9618 70.0936 65.2699 73.7024 62.1963 76.9409Z" fill="#8A5CC4"></path>
    <path fill-rule="evenodd" clip-rule="evenodd" d="M71.8575 35.4081L71.8597 35.4059C75.8818 29.1345 79.8361 21.2417 83.5601 14.6249C77.169 17.4816 67.1105 21.2033 61.4308 24.514L61.4286 24.5163C59.1228 25.86 57.5736 28.3599 57.5736 31.2212C57.5736 35.5053 61.0446 38.9763 65.3287 38.9763C68.0703 38.9763 70.4799 37.5558 71.8575 35.4081Z" fill="#8A5CC4"></path>
    <path d="M70.9676 34.8391C73.6483 30.6612 76.3108 25.729 78.8943 20.9481L81.1278 16.8312L77.0177 18.5476C71.6542 20.7697 65.7712 23.2087 61.9615 25.4286L61.8802 25.4761C60.9023 26.0632 60.0848 26.8943 59.5157 27.8834C58.9556 28.8613 58.6327 29.9995 58.6327 31.2212C58.6327 33.0708 59.3825 34.7465 60.5929 35.9569C61.8011 37.1696 63.4745 37.9171 65.3286 37.9171C66.4939 37.9171 67.5914 37.6213 68.5377 37.1041C69.5246 36.5667 70.3624 35.783 70.9676 34.8391ZM80.7552 21.9486C78.1559 26.7633 75.4752 31.7271 72.7494 35.975C71.9523 37.2193 70.8479 38.2469 69.5471 38.9582C68.2915 39.6447 66.8507 40.0354 65.3286 40.0354C62.8987 40.0354 60.6945 39.0486 59.0979 37.4519C57.5013 35.8576 56.5144 33.6534 56.5144 31.2212C56.5144 29.6314 56.9412 28.1319 57.6865 26.8333C58.4566 25.4964 59.5676 24.3763 60.8978 23.6017L60.9768 23.5565C64.9176 21.2733 70.8208 18.8253 76.2069 16.5941C78.7408 15.544 81.1639 14.539 83.1309 13.6606L86.0532 12.3552L84.4837 15.142C83.2438 17.3416 82.0085 19.6293 80.7552 21.9486Z" fill="#FEFEFE"></path>
    <path fill-rule="evenodd" clip-rule="evenodd" d="M62.6345 58.172V58.1697C65.6132 53.5289 68.5377 47.6866 71.2974 42.7906C66.5662 44.9044 59.1205 47.6595 54.9155 50.1098C53.2083 51.1034 52.061 52.9553 52.061 55.0713C52.061 58.242 54.631 60.8119 57.8017 60.8119C59.8319 60.8119 61.6137 59.7618 62.6345 58.172Z" fill="#8A5CC4"></path>
    <path fill-rule="evenodd" clip-rule="evenodd" d="M30.9706 40.1845C32.1901 47.4901 34.2248 53.906 36.9709 59.5405C39.7103 65.166 43.161 70.0191 47.2169 74.2128L46.0449 75.3397C41.8692 71.0218 38.3214 66.0354 35.5053 60.2541C32.6959 54.4841 30.6115 47.9215 29.3672 40.451L30.9706 40.1845Z" fill="#8A5CC4"></path>
  </g>
  <defs>
    <clipPath id="clip0_32_4190">
      <rect width="104" height="104" fill="white"></rect>
    </clipPath>
  </defs>
</svg>
