<?xml version="1.0" encoding="UTF-8"?>
<svg xmlns="http://www.w3.org/2000/svg" width="104" height="104" viewBox="0 0 104 104" fill="none">
  <g clip-path="url(#clip0_12_208)">
    <path fill-rule="evenodd" clip-rule="evenodd" d="M102.7 52C102.7 80.0018 80.0033 102.7 51.9969 102.7C24.0028 102.7 1.30017 80.0018 1.30017 52C1.30017 23.9982 24.0028 1.3002 51.9969 1.3002C80.0033 1.3002 102.7 23.9982 102.7 52Z" fill="#8A5CC4"></path>
    <path fill-rule="evenodd" clip-rule="evenodd" d="M58.7192 36.9617C57.8985 36.9664 57.273 37.5873 57.273 38.4248C57.2669 39.2194 57.9293 39.8926 58.7254 39.9002C59.5614 39.911 60.2346 39.2194 60.2115 38.3772C60.1823 37.5411 59.5676 36.9541 58.7192 36.9617ZM55.7392 65.1095C56.6583 65.1095 57.4436 64.3119 57.4436 63.3821C57.4436 62.4338 56.6352 61.6316 55.6808 61.6439C54.6972 61.6546 53.9303 62.4461 53.9488 63.4113C53.9611 64.378 54.7387 65.1141 55.7392 65.1095ZM41.4371 48.4022C41.4371 47.3909 40.5934 46.5549 39.5913 46.5779C38.6216 46.5948 37.8178 47.414 37.807 48.3914C37.8009 49.375 38.6615 50.2418 39.6559 50.2295C40.6226 50.2172 41.4417 49.375 41.4371 48.4022ZM63.7463 50.7859C64.9466 50.8043 65.878 49.9314 65.9118 48.7203C65.9471 47.5016 65.0158 46.5241 63.8047 46.5134C62.6229 46.5011 61.6639 47.414 61.6331 48.5851C61.5993 49.8146 62.5184 50.769 63.7463 50.7859ZM45.2808 37.8854C43.7762 37.8793 42.5836 39.0381 42.559 40.5365C42.5406 42.0764 43.7286 43.2937 45.2516 43.2937C46.7378 43.2937 47.9427 42.0887 47.9504 40.6011C47.955 39.1088 46.7624 37.8915 45.2808 37.8854ZM39.8787 59.4707C39.8895 60.9938 41.0391 62.171 42.5406 62.1879C44.0513 62.1987 45.287 60.9707 45.2685 59.4538C45.2639 57.9677 44.0652 56.792 42.559 56.792C41.0437 56.7966 39.8787 57.9615 39.8787 59.4707ZM65.5783 57.3698C65.5906 55.8499 64.4487 54.6726 62.9441 54.6434C61.4533 54.625 60.2115 55.8084 60.1885 57.2822C60.1593 58.7868 61.3765 60.0409 62.8857 60.064C64.3426 60.087 65.5721 58.8529 65.5783 57.3698ZM54.5159 47.1804C56.0328 47.1804 57.1977 46.0154 57.2023 44.5108C57.2085 42.9663 56.0097 41.766 54.4821 41.7844C52.9944 41.8075 51.7895 43.0247 51.8125 44.5047C51.8294 45.9985 53.0251 47.1865 54.5159 47.1804ZM55.2597 54.6081C55.2474 52.7577 53.7905 51.313 51.9462 51.3238C50.1143 51.3361 48.6696 52.8238 48.6927 54.6619C48.7111 56.4523 50.1865 57.9139 51.9708 57.9139C53.8028 57.9093 55.2597 56.44 55.2597 54.6081ZM27.1027 54.731C26.0146 54.731 24.9188 54.7418 23.8231 54.731C22.2631 54.708 21.1796 53.6076 21.1673 52.0384C21.155 50.417 22.2385 49.2644 23.8231 49.2705C25.9839 49.2751 28.137 49.352 30.2979 49.375C32.0545 49.3935 33.347 48.456 33.7635 46.9007C34.1969 45.3377 33.5576 43.8915 32.0299 43.0247C30.9372 42.3915 29.823 41.7967 28.718 41.1697C27.3886 40.4212 27.0259 39.161 27.7697 37.9038C28.4367 36.762 29.7231 36.4915 31.0064 37.2476C32.0714 37.8746 33.1196 38.5416 34.1969 39.161C35.7753 40.0739 37.3091 39.9156 38.4909 38.7353C39.6328 37.5872 39.7558 36.0012 38.8198 34.4259C37.701 32.5525 36.5545 30.6975 35.4725 28.7948C34.8332 27.6668 35.1021 26.3543 36.0335 25.5597C37.0632 24.676 38.4617 24.5454 39.4576 25.3353C39.8726 25.6535 40.1999 26.1391 40.4643 26.6002C41.4709 28.3614 42.4299 30.1596 43.4381 31.9393C44.2911 33.4546 45.7142 34.0632 47.3233 33.636C48.8464 33.2149 49.7531 31.9915 49.7577 30.3009C49.7577 28.9669 49.7285 27.6253 49.7285 26.2851C49.7347 24.8558 50.5969 23.9491 51.9462 23.9368C53.3356 23.926 54.2131 24.8389 54.2177 26.3082C54.2177 27.6253 54.1901 28.9424 54.1947 30.2533C54.1947 31.9623 55.1245 33.2271 56.6583 33.6406C58.2505 34.0571 59.6721 33.4377 60.5389 31.9101C61.587 30.0428 62.5921 28.1693 63.6464 26.3082C64.4425 24.9096 65.8011 24.4578 67.1874 25.0971C68.7673 25.821 69.2837 27.4562 68.3692 29.0284C67.3042 30.8742 66.1869 32.6939 65.0865 34.5258C64.4149 35.6446 64.2735 36.8081 64.9282 37.9853C65.818 39.6175 67.7376 40.2261 69.3943 39.3424C70.7099 38.6523 71.9517 37.8209 73.2457 37.0893C74.2001 36.5745 75.299 36.7912 75.9552 37.5642C76.6699 38.4064 76.7928 39.5591 76.1535 40.3844C75.8799 40.7363 75.4757 41.016 75.0777 41.2573C73.9066 41.9535 72.6786 42.5682 71.5244 43.2937C70.4302 43.9852 69.9445 45.061 70.0967 46.3489C70.3303 48.2562 71.6781 49.3981 73.6207 49.375C75.7739 49.352 77.927 49.2936 80.094 49.2644C81.2221 49.2521 82.0766 49.7669 82.5269 50.7797C82.9956 51.8156 82.9311 52.8699 82.1765 53.7889C81.6616 54.4206 80.9885 54.7418 80.1678 54.731C78.0331 54.6957 75.903 54.6496 73.7667 54.6311C71.9348 54.6127 70.6361 55.5164 70.2027 57.0717C69.7447 58.6992 70.3764 60.0916 72.027 61.046C73.0644 61.6377 74.111 62.1987 75.153 62.7796C76.5577 63.5742 76.945 64.816 76.2073 66.0793C75.5218 67.2442 74.2401 67.5024 72.9168 66.7232C71.8702 66.1023 70.8282 65.4707 69.7862 64.8559C68.1956 63.9138 66.6372 64.0829 65.4369 65.3078C64.3319 66.4374 64.2043 68.0296 65.1203 69.5511C66.1869 71.3415 67.2873 73.1166 68.3354 74.9132C69.1192 76.258 68.9194 77.6104 67.879 78.4834C66.4266 79.6821 64.5947 79.3548 63.6464 77.6919C62.5814 75.82 61.5686 73.9066 60.4989 72.0393C59.6613 70.5577 58.2735 69.9676 56.729 70.341C55.2136 70.7222 54.207 71.9517 54.2008 73.5193C54.1901 74.8302 54.2177 76.1473 54.2177 77.4583C54.2177 79.1504 53.4216 80.0587 51.9585 80.0587C50.5431 80.051 49.7285 79.1319 49.7285 77.5059C49.7285 76.2057 49.7577 74.9178 49.7577 73.6299C49.7531 72.0085 48.8218 70.7744 47.3295 70.3702C45.7726 69.9553 44.3372 70.5039 43.5134 71.9394C42.4253 73.8359 41.3941 75.7554 40.3183 77.6565C39.5637 79.0213 38.2389 79.5192 36.9356 78.9936C35.2312 78.2836 34.6411 76.6268 35.5724 75.0131C36.6129 73.2088 37.701 71.4353 38.7845 69.6571C39.6682 68.1694 39.662 66.7063 38.7368 65.5537C37.6134 64.1551 35.8414 63.8616 34.2015 64.8329C33.0596 65.4953 31.9592 66.2084 30.8066 66.8462C29.3727 67.6546 27.8266 66.9338 27.4593 65.36C27.2195 64.3426 27.6529 63.4236 28.7118 62.8257C29.8937 62.1587 31.1124 61.5378 32.2697 60.8232C34.137 59.6767 34.4413 57.2638 32.9905 55.6731C32.3004 54.9354 31.4336 54.6373 30.45 54.6311C29.3312 54.6188 28.22 54.6311 27.1027 54.6311V54.731Z" fill="#FEFEFE"></path>
    <path fill-rule="evenodd" clip-rule="evenodd" d="M22.3045 22.4937C41.3663 43.7132 60.4358 64.9343 79.4915 86.1524C82.0734 89.0155 86.2875 84.783 83.7179 81.926C64.6545 60.7095 45.5927 39.4868 26.5248 18.2673C23.949 15.4056 19.741 19.6428 22.3045 22.4937Z" fill="#8A5CC4"></path>
    <path d="M23.3558 21.4378C42.4253 42.6543 61.4932 63.8769 80.5504 85.095C81.8383 86.5289 83.95 84.4095 82.6682 82.9879C63.5987 61.7637 44.5323 40.5472 25.469 19.3292C24.1872 17.8968 22.0756 20.0147 23.3558 21.4378Z" fill="#FEFEFE"></path>
  </g>
  <defs>
    <clipPath id="clip0_12_208">
      <rect width="104" height="104" fill="white"></rect>
    </clipPath>
  </defs>
</svg>
