<?xml version="1.0" encoding="UTF-8"?>
<svg xmlns="http://www.w3.org/2000/svg" width="104" height="104" viewBox="0 0 104 104" fill="none">
  <path d="M102.709 52C102.709 80.0067 80.0067 102.709 52 102.709C23.9933 102.709 1.30872 80.0067 1.30872 52C1.30872 23.9933 23.9933 1.29129 52 1.29129C80.0067 1.29129 102.709 23.9933 102.709 52Z" fill="#8A5CC4"></path>
  <path d="M85.7128 24.5691V63.3772C85.7128 63.3946 85.7128 63.4295 85.7128 63.4644C83.4618 79.9718 69.3101 92.6926 52.192 92.6926C35.0913 92.6926 20.9222 79.9718 18.6886 63.4644C18.4792 61.9637 18.3745 60.4282 18.3745 58.8752V24.5691L52.0524 11.3074L85.7128 24.5691Z" fill="#8A5CC4"></path>
  <path d="M84.7181 63.3772V24.5691H86.7249V63.3772H84.7181ZM86.7074 63.604L84.7181 63.3248L84.7007 63.4644L84.7181 63.3772V63.3597V63.3423V63.3248L84.7356 63.2201L84.7181 63.3074L84.7356 63.2027V63.1852L84.7181 63.2899V63.3772H86.7249L86.7074 63.4819V63.4993L86.7249 63.3772V63.4819L86.69 63.604L86.7074 63.4993V63.5168L86.69 63.6215V63.604L86.7074 63.5168L86.69 63.6215L86.7074 63.5342V63.447V63.5517V63.5342V63.4644V63.604ZM86.7074 63.4644V63.5342V63.604V63.4644ZM52.192 93.6872V91.6805L53.745 91.6456L55.2806 91.5409L56.7812 91.3664L58.2819 91.1221L59.7477 90.8081L61.1785 90.4416L62.592 90.0054L63.9879 89.4993L65.3316 88.9584L66.6577 88.3302L67.949 87.6671L69.2054 86.9342L70.4443 86.149L71.6134 85.3289L72.7651 84.4389L73.8645 83.5141L74.9289 82.5369L75.9584 81.5074L76.9181 80.4429L77.8604 79.3436L78.7329 78.1919L79.553 77.0054L80.3383 75.7839L81.0537 74.5101L81.7168 73.2188L82.3275 71.8926L82.8859 70.5315L83.3745 69.153L83.8108 67.7396L84.1772 66.2913L84.4738 64.8255L84.7181 63.3248L86.7074 63.604L86.4457 65.1919L86.1316 66.745L85.7302 68.2631L85.2765 69.7812L84.753 71.247L84.1772 72.6953L83.5316 74.0913L82.8161 75.4698L82.0483 76.8134L81.2282 78.1047L80.3557 79.3785L79.4134 80.5825L78.4363 81.7691L77.4067 82.9033L76.3249 83.9852L75.1906 85.0148L74.0215 86.0094L72.8 86.9342L71.5436 87.8242L70.2524 88.6443L68.9262 89.4121L67.5477 90.1275L66.1343 90.7906L64.7034 91.3839L63.2376 91.9074L61.7369 92.3611L60.2014 92.7624L58.6483 93.094L57.0604 93.3557L55.4551 93.5476L53.8322 93.6523L52.192 93.6872ZM17.694 63.604L19.6832 63.3423V63.3248L19.9101 64.8255L20.2242 66.2913L20.5906 67.7396L21.0269 69.153L21.5155 70.5315L22.0564 71.8926L22.6671 73.2188L23.3477 74.5101L24.0631 75.7839L24.8483 77.0054L25.6685 78.1919L26.541 79.3436L27.4658 80.4429L28.443 81.5074L29.4725 82.5369L30.5369 83.5141L31.6363 84.4389L32.7879 85.3289L33.9571 86.149L35.1785 86.9342L36.4524 87.6671L37.7436 88.3302L39.0698 88.9584L40.4134 89.4993L41.8094 90.0054L43.2228 90.4416L44.6537 90.8081L46.1195 91.1221L47.6027 91.3664L49.1208 91.5409L50.6564 91.6456L52.192 91.6805V93.6872L50.5517 93.6523L48.9289 93.5476L47.3235 93.3557L45.753 93.094L44.2 92.7624L42.6644 92.3611L41.1638 91.9074L39.698 91.3839L38.2671 90.7906L36.8537 90.1275L35.4752 89.4121L34.149 88.6443L32.8403 87.8242L31.5839 86.9342L30.3799 86.0094L29.2108 85.0148L28.0765 83.9852L26.9946 82.9033L25.9651 81.7691L24.9879 80.5825L24.0457 79.3785L23.1732 78.1047L22.353 76.8134L21.5853 75.4698L20.8698 74.0913L20.2242 72.6953L19.6309 71.247L19.1074 69.7812L18.6537 68.2631L18.2698 66.745L17.9383 65.1919L17.694 63.604ZM17.3799 58.8752H19.3866V59.0148V59.1544V59.294V59.4336V59.5732V59.7128L19.404 59.8523V60.0094V60.149V60.2886L19.4215 60.4282V60.5678L19.4389 60.7074V60.847L19.4564 60.9866V61.1262L19.4738 61.2658V61.4054L19.4913 61.545V61.6846L19.5087 61.8242L19.5262 61.9638L19.5436 62.1034V62.2429L19.5611 62.3651L19.5785 62.5047L19.596 62.6443L19.6134 62.7839L19.6309 62.9235L19.6483 63.0631L19.6658 63.2027L19.6832 63.3423L17.694 63.604L17.6765 63.4644L17.6591 63.3074L17.6416 63.1678L17.6242 63.0107L17.6067 62.8711L17.5893 62.7315L17.5718 62.5745L17.5544 62.4349L17.5369 62.2953L17.5195 62.1383V61.9987L17.502 61.8416L17.4846 61.702V61.545L17.4671 61.4054L17.4497 61.2658V61.1087L17.4322 60.9517V60.8121L17.4148 60.6725V60.5154V60.3758L17.3973 60.2188V60.0617V59.9221V59.7651L17.3799 59.6255V59.4685V59.3289V59.1718V59.0148V58.8752ZM19.3866 24.5691V58.8752H17.3799V24.5691L18.0081 23.6443L19.3866 24.5691ZM17.3799 24.5691V23.8886L18.0081 23.6443L17.3799 24.5691ZM52.4188 12.2497L18.741 25.5114L18.0081 23.6443L51.6859 10.3825H52.4188V12.2497ZM51.6859 10.3825L52.0524 10.243L52.4188 10.3825H51.6859ZM85.3463 25.5114L51.6859 12.2497L52.4188 10.3825L86.0792 23.6443L86.7249 24.5691L85.3463 25.5114ZM86.0792 23.6443L86.7249 23.8886V24.5691L86.0792 23.6443Z" fill="#FEFEFE"></path>
  <path d="M60.5328 37.6389C60.5328 35.9463 59.7999 34.6027 58.3167 33.5906C56.8509 32.5611 54.7744 32.055 52.1221 32.055C49.4697 32.055 47.4107 32.5611 45.9274 33.5906C44.4617 34.6027 43.7113 35.9463 43.7113 37.6389C43.7113 39.3839 44.4791 40.7799 45.9972 41.792C47.5154 42.8215 49.557 43.3275 52.1221 43.3275C54.7046 43.3275 56.7462 42.8215 58.2643 41.792C59.7825 40.7799 60.5328 39.3839 60.5328 37.6389ZM41.9489 55.9087C41.9489 57.7409 42.9086 59.294 44.8281 60.5154C46.7476 61.7544 49.1731 62.3826 52.1221 62.3826C55.0711 62.3826 57.514 61.7544 59.4335 60.5154C61.3529 59.294 62.3127 57.7409 62.3127 55.9087C62.3127 51.6685 58.91 49.5571 52.1221 49.5571C45.3342 49.5571 41.9489 51.6685 41.9489 55.9087ZM39.2268 65.4886C37.6214 64.3718 36.365 62.9758 35.4576 61.2658C34.5503 59.5732 34.114 57.8805 34.114 56.2054C34.114 53.5356 34.7597 51.3544 36.0684 49.6792C37.3771 48.004 39.2442 46.5732 41.6872 45.4215C37.9006 43.0309 35.9986 40.2215 35.9986 37.0282C35.9986 33.5906 37.5341 30.7987 40.5878 28.6175C43.6415 26.4362 47.4805 25.3544 52.1221 25.3544C56.7637 25.3544 60.6026 26.4362 63.6563 28.6175C66.7274 30.7987 68.2456 33.5906 68.2456 37.0282C68.2456 40.2215 66.361 43.0309 62.557 45.4215C64.9999 46.5732 66.8845 48.004 68.1932 49.6792C69.4845 51.3544 70.1476 53.5356 70.1476 56.2054C70.1476 57.8805 69.6939 59.5732 68.7865 61.2658C67.8791 62.9758 66.6227 64.3718 65.0174 65.4886C61.6147 67.8967 57.3046 69.1007 52.1221 69.1007C46.9395 69.1007 42.6469 67.8967 39.2268 65.4886Z" fill="#FEFEFE"></path>
  <path d="M24.604 59.0497L22.5449 59.1718L22.4751 58.1074L24.5342 57.9678L27.5704 55.9611L27.6576 57.1476L25.6684 58.4389L27.8147 59.451L27.8845 60.6376L24.604 59.0497Z" fill="#FEFEFE"></path>
  <path d="M28.1288 65.1919L27.4657 62.8362L26.4361 63.1154L26.9247 64.8429L26.0523 65.0872L25.5637 63.3597L24.2898 63.7087L24.9704 66.1691L24.0455 66.4134L23.0684 62.9409L28.1113 61.545L29.0536 64.9476L28.1288 65.1919Z" fill="#FEFEFE"></path>
  <path d="M28.7047 68.7342L26.8201 68.9262L27.4657 70.1476L28.7047 68.7342ZM26.855 70.898L25.8604 68.996L25.1275 69.0483L24.604 68.0188L30.3973 67.6523L30.5718 67.9664L26.9074 72.4859L26.3839 71.4738L26.855 70.898Z" fill="#FEFEFE"></path>
  <path d="M30.9207 73.1839L31.4966 73.8819C31.8106 74.2658 32.2294 74.2832 32.5784 74.004C32.91 73.7248 32.9623 73.306 32.6482 72.9221L32.0724 72.2241L30.9207 73.1839ZM30.1529 76.6215L30.6939 74.3879L30.2053 73.7946L28.7744 74.9637L28.0939 74.1436L32.1073 70.7933L33.3637 72.3114C34.0791 73.1664 34.0617 74.1785 33.2939 74.8416C32.7704 75.2778 32.1247 75.3302 31.5489 75.0859L30.9207 77.5463L30.1529 76.6215Z" fill="#FEFEFE"></path>
  <path d="M37.6388 77.5114L36.714 77.494C36.7664 77.0403 36.6617 76.6564 36.3127 76.3946C36.0509 76.1678 35.7194 76.1154 35.4925 76.3772C35.3006 76.6215 35.4053 76.8658 35.5972 77.2322L35.8939 77.8081C36.3127 78.6107 36.4174 79.2389 35.9462 79.8148C35.3355 80.5651 34.3409 80.5477 33.5382 79.8846C32.8227 79.3262 32.5435 78.506 32.6831 77.7208L33.608 77.7557C33.5731 78.2443 33.6429 78.7503 34.1315 79.1517C34.4804 79.4309 34.8469 79.4483 35.0737 79.1691C35.2831 78.8899 35.161 78.6456 34.9516 78.2443L34.6724 77.6859C34.306 76.953 34.1664 76.2899 34.6375 75.7141C35.1959 75.0161 36.1556 75.0336 36.906 75.6443C37.569 76.1678 37.761 76.8658 37.6388 77.5114Z" fill="#FEFEFE"></path>
  <path d="M42.1584 80.0067L41.6174 81.4027L42.4376 81.7342C42.9087 81.9087 43.2926 81.7342 43.4671 81.3154C43.6241 80.9141 43.4671 80.5127 42.9959 80.3383L42.1584 80.0067ZM44.4792 81.7168C44.1127 82.6591 43.1355 83.008 42.106 82.6067L41.2684 82.2752L40.5879 83.9852L39.5933 83.6013L41.5127 78.7329L43.3449 79.4483C44.3745 79.8671 44.8631 80.7745 44.4792 81.7168Z" fill="#FEFEFE"></path>
  <path d="M46.7651 82.9906L47.655 83.1476C48.1436 83.2174 48.4751 82.9731 48.5624 82.5369C48.6322 82.1007 48.3879 81.7517 47.8993 81.6644L47.0094 81.5248L46.7651 82.9906ZM48.4228 86.0966L47.3933 84.055L46.608 83.9329L46.3114 85.7476L45.2469 85.5731L46.1194 80.4081L48.0563 80.7396C49.1382 80.9141 49.8013 81.6993 49.6443 82.7114C49.5221 83.3745 49.0859 83.8456 48.4926 84.0201L49.6094 86.306L48.4228 86.0966Z" fill="#FEFEFE"></path>
  <path d="M52.1395 83.7409C52.2093 84.753 52.9596 85.3987 53.9368 85.3463C54.8965 85.2765 55.5596 84.5262 55.5073 83.5141C55.4375 82.5195 54.6697 81.8564 53.71 81.9087C52.7328 81.9785 52.0871 82.7289 52.1395 83.7409ZM56.6066 83.4443C56.6939 84.9799 55.5247 86.2362 53.9892 86.3235C52.4536 86.4282 51.1449 85.3463 51.0402 83.8107C50.9529 82.2752 52.1046 81.0188 53.6402 80.9315C55.1757 80.8268 56.5019 81.9262 56.6066 83.4443Z" fill="#FEFEFE"></path>
  <path d="M61.353 80.3906L59.7301 80.8617L60.9342 84.945L59.9046 85.259L58.7006 81.1584L57.0952 81.6295L56.8335 80.7047L61.0738 79.4658L61.353 80.3906Z" fill="#FEFEFE"></path>
  <path d="M65.4536 78.2966L63.2724 79.4308L63.761 80.3731L65.3664 79.5356L65.7852 80.3557L64.1973 81.1758L64.808 82.3624L67.059 81.1758L67.5127 82.0308L64.302 83.706L61.8765 79.0819L65 77.4416L65.4536 78.2966Z" fill="#FEFEFE"></path>
  <path d="M70.3919 74.7369L70.1302 75.6792C69.502 75.4872 68.9262 75.5396 68.4201 75.9758C67.6698 76.5866 67.5651 77.5986 68.2107 78.3839C68.8564 79.1517 69.8685 79.2389 70.6188 78.6107C71.1248 78.1919 71.2993 77.6336 71.2121 76.9705L72.1893 76.9007C72.3638 77.808 72.0148 78.7329 71.247 79.3785C70.043 80.3732 68.3503 80.251 67.3732 79.0819C66.3785 77.8953 66.5705 76.2027 67.7745 75.208C68.5597 74.5624 69.5195 74.4054 70.3919 74.7369Z" fill="#FEFEFE"></path>
  <path d="M73.4805 70.4268L72.451 71.7705L75.8188 74.3705L75.1557 75.2255L71.7879 72.6081L70.7584 73.9342L70.0081 73.3409L72.7128 69.8336L73.4805 70.4268Z" fill="#FEFEFE"></path>
  <path d="M78.2442 70.5664L77.7207 71.5087L73.1489 68.9611L73.6724 68.0188L78.2442 70.5664Z" fill="#FEFEFE"></path>
  <path d="M77.1449 66.8671C78.1047 67.1812 78.9946 66.745 79.3087 65.8201C79.6053 64.9128 79.1691 64.0054 78.2094 63.6738C77.2496 63.3597 76.3597 63.8134 76.0456 64.7208C75.7315 65.6456 76.1852 66.5356 77.1449 66.8671ZM78.5584 62.6268C80.0241 63.1154 80.7221 64.6859 80.2335 66.1517C79.7449 67.6 78.2443 68.4027 76.7785 67.9141C75.3302 67.4255 74.6147 65.8725 75.1033 64.4067C75.5919 62.9584 77.11 62.1383 78.5584 62.6268Z" fill="#FEFEFE"></path>
  <path d="M76.5691 56.3275L81.8737 56.7463L81.8389 57.0953L78.3838 59.8698L81.5073 60.1141L81.4375 61.1785L76.1328 60.7772L76.1503 60.4282L79.5878 57.6362L76.4818 57.3919L76.5691 56.3275Z" fill="#FEFEFE"></path>
  <path d="M25.5113 50.796C25.3892 51.5987 24.6563 52.1396 23.8536 52.0174C23.0684 51.9127 22.51 51.1624 22.6321 50.3597C22.7543 49.5745 23.4872 49.0161 24.2899 49.1382C25.0925 49.2604 25.6335 50.0107 25.5113 50.796Z" fill="#FEFEFE"></path>
  <path d="M80.7221 50.796C80.5999 51.5987 79.8496 52.1396 79.0644 52.0174C78.2617 51.9127 77.7207 51.1624 77.8429 50.3597C77.9476 49.5745 78.6979 49.0161 79.5006 49.1382C80.2858 49.2604 80.8268 50.0107 80.7221 50.796Z" fill="#FEFEFE"></path>
  <path d="M15.5302 26.0872C15.0241 26.2792 14.4483 26.0174 14.2389 25.494C14.0469 24.9879 14.3087 24.4121 14.8322 24.2027L15.5302 26.0872ZM52.1919 12.2497L15.5302 26.0872L14.8322 24.2027L51.4765 10.3825L52.1745 10.3651L52.1919 12.2497ZM51.4765 10.3825L51.8255 10.243L52.1745 10.3651L51.4765 10.3825ZM87.6496 25.7034L51.4765 12.2497L52.1745 10.3651L88.3476 23.8188L87.6496 25.7034ZM88.3476 23.8188C88.8711 24.0107 89.1328 24.5866 88.9409 25.1101C88.749 25.6336 88.1731 25.8953 87.6496 25.7034L88.3476 23.8188Z" fill="#FEFEFE"></path>
  <path d="M88.8187 65.0698V65.1745H88.8013C88.8013 65.1396 88.8187 65.1047 88.8187 65.0698Z" fill="#FEFEFE"></path>
</svg>
