<?xml version="1.0" encoding="UTF-8"?>
<svg xmlns="http://www.w3.org/2000/svg" width="104" height="104" viewBox="0 0 104 104" fill="none">
  <g clip-path="url(#clip0_27_3829)">
    <path d="M102.701 52C102.701 79.9992 79.9992 102.699 52 102.699C23.9991 102.699 1.30078 79.9992 1.30078 52C1.30078 23.9991 23.9991 1.30255 52 1.30255C79.9992 1.30255 102.701 23.9991 102.701 52Z" fill="#8A5CC4"></path>
    <path d="M77.4744 22.7472C76.7149 21.9283 75.4333 21.8899 74.6214 22.6459L17.2803 76.0951C16.4649 76.8564 16.4195 78.1327 17.1808 78.9463C17.5771 79.3741 18.1167 79.5906 18.6544 79.5906C19.1486 79.5906 19.6409 79.4125 20.0303 79.0476L77.3731 25.6002C78.1885 24.8406 78.2322 23.5643 77.4744 22.7472ZM32.7099 43.6994C34.6288 45.3075 36.9458 47.2526 39.0549 49.0911L42.0232 46.3237C40.2318 44.7592 38.0248 42.8858 35.301 40.6055C31.9155 37.7717 27.388 33.9811 26.1536 32.5231C27.0947 29.953 32.4463 22.1989 34.407 21.0273C35.6746 21.3189 39.1859 23.3408 42.3252 25.4203C41.8521 27.0878 41.7159 28.8408 42.0197 30.6043C42.5627 33.768 44.3227 36.5093 46.9766 38.3182L49.0789 39.7499L66.6927 23.3286L60.2028 18.9077C54.9437 15.3283 47.8724 16.5401 44.1132 21.6786C44.0975 21.6995 44.0905 21.7205 44.0748 21.7415C41.0314 19.737 36.4307 16.9574 34.2289 16.9574C30.2323 16.9574 21.9998 30.2009 21.9998 32.8234C21.9998 34.4996 23.3023 35.8231 32.7099 43.6994ZM87.1893 41.6251C86.6445 38.4631 84.8828 35.7218 82.2288 33.9147L78.426 31.3236L60.8104 47.7449L63.6494 49.676V73.2683C63.6494 74.6633 64.7843 75.7965 66.1759 75.7965H66.4483C67.8433 75.7965 68.98 74.6633 68.98 73.2683V53.3113L69.001 53.3252C70.0171 54.0184 71.0997 54.5317 72.2171 54.8687V64.2745C72.2171 65.6888 73.3643 66.8342 74.7768 66.8342H75.0666C76.4792 66.8342 77.628 65.6888 77.628 64.2745V55.1865C80.516 54.6836 83.2171 53.1122 85.094 50.5508C86.992 47.9614 87.734 44.7907 87.1893 41.6251ZM23.3774 82.6374C22.9863 82.9989 22.5638 83.2904 22.1238 83.5471C22.4939 84.2385 23.0055 84.8636 23.6952 85.3385L25.0257 86.2499C25.8812 86.8401 26.873 87.1491 27.8891 87.1491C28.1982 87.1491 28.509 87.1195 28.8215 87.0618C30.152 86.8139 31.3061 86.0649 32.0761 84.9474L46.3393 64.2064C47.1093 63.0802 47.3311 61.7603 47.1163 60.5084L23.3774 82.6374Z" fill="#FEFEFE"></path>
  </g>
  <defs>
    <clipPath id="clip0_27_3829">
      <rect width="104" height="104" fill="white"></rect>
    </clipPath>
  </defs>
</svg>
