<?xml version="1.0" encoding="UTF-8"?>
<svg xmlns="http://www.w3.org/2000/svg" width="104" height="104" viewBox="0 0 104 104" fill="none">
  <g clip-path="url(#clip0_23_3677)">
    <path fill-rule="evenodd" clip-rule="evenodd" d="M96.2803 52.0742C96.2803 76.4839 76.4838 96.2804 52.0742 96.2804C27.6645 96.2804 7.88293 76.4839 7.88293 52.0742C7.88293 27.6645 27.6645 7.88298 52.0742 7.88298C76.4838 7.88298 96.2803 27.6645 96.2803 52.0742Z" fill="#8A5CC4" stroke="#8A5CC4" stroke-width="15.9188" stroke-miterlimit="10"></path>
    <path d="M34.2334 43.6689C31.7551 41.9968 26.8732 36.1146 30.4264 33.3676C32.3672 31.8448 35.4427 32.6808 36.428 34.9202C37.279 36.8462 35.8159 39.6678 36.6968 41.4295C38.5779 45.2067 38.2644 39.8171 38.4883 39.1901C38.7421 38.3988 38.7869 37.5777 40.0708 38.0554C41.4742 38.578 40.5784 39.9963 40.9517 40.9816C42.1311 44.1019 42.355 40.5785 43.3553 39.3991C44.7736 37.727 47.4759 38.3391 46.7891 40.9667C46.3412 42.7433 41.1607 44.714 43.639 46.5802C44.5945 47.3117 45.9083 45.8934 46.5502 47.461C47.3713 49.4466 45.1916 48.9092 44.3108 49.9841C41.937 52.8655 48.6254 52.4922 48.1328 55.5378C47.6849 58.3297 42.4745 58.2699 41.2353 56.2246C40.3993 58.1057 42.2356 60.6736 41.1756 62.2113C39.4737 64.7344 37.6971 60.9572 36.7117 59.7927C34.5768 57.2547 34.0393 58.7626 31.5461 59.8375C29.8441 60.584 27.2464 61.5246 26.8433 59.1209C26.4253 56.5829 29.5306 56.0454 30.3816 54.1942C31.6208 51.492 29.5456 50.3723 27.2464 50.8948C24.9771 51.4173 22.1555 52.8804 20.8566 49.9393C19.6921 47.3565 21.9017 46.2368 24.171 45.9083C25.8729 45.6545 27.9033 46.3562 29.4709 45.6097C27.9481 45.3559 27.3211 43.6092 28.6349 42.7582C30.0084 41.8625 31.2774 43.5644 32.636 43.4151L34.2334 43.6689Z" fill="white"></path>
    <path d="M73.5875 90.6967C73.5725 90.3534 73.5576 89.9951 73.5576 89.6517V13.8996V13.4517C87.1136 21.006 96.2803 35.4726 96.2803 52.0891C96.2803 68.6758 87.1285 83.1424 73.5875 90.6967Z" fill="white"></path>
    <path d="M57.7622 82.1571C63.5997 73.8115 69.452 65.466 75.3044 57.1204C75.6477 56.6128 75.4387 55.9708 75.0804 55.5378C68.6906 47.7447 62.2859 39.9515 55.896 32.1732C54.8211 30.8594 52.9997 32.7256 54.0448 34.0096C57.2546 37.9061 60.4495 41.7878 63.6594 45.6844L69.7805 53.1491C70.4821 54.0001 73.0649 57.7026 73.05 56.5978C73.05 55.299 70.8255 58.9567 70.3179 59.7181C68.3024 62.5846 66.287 65.451 64.2864 68.3175C61.3602 72.4977 58.4341 76.663 55.5228 80.8433C54.5524 82.2168 56.8067 83.5157 57.7622 82.1571Z" fill="white"></path>
    <path d="M57.7622 67.3172C63.5997 58.9716 69.452 50.6261 75.3044 42.2805C75.6477 41.7729 75.4387 41.116 75.0804 40.698C68.6906 32.9048 62.2859 25.1116 55.896 17.3333C54.8211 16.0345 52.9997 17.8708 54.0448 19.1697C57.2546 23.0663 60.4495 26.9628 63.6594 30.8594L69.7805 38.3092C70.4821 39.1602 73.0649 42.8627 73.05 41.758C73.05 40.4591 70.8255 44.1168 70.3179 44.8782C68.3024 47.7447 66.287 50.6111 64.2864 53.4776C61.3602 57.6578 58.4341 61.8232 55.5228 66.0034C54.5524 67.3769 56.8067 68.6758 57.7622 67.3172Z" fill="white"></path>
    <path d="M57.5234 66.8096L60.4346 68.8549L57.1949 70.3479L53.9851 71.8408L54.2986 68.2876L54.6271 64.7493L57.5234 66.8096Z" fill="white"></path>
    <path d="M56.9858 67.7502C57.9563 68.4369 58.9117 69.1087 59.8822 69.7955V67.9144C57.7323 68.8997 55.5825 69.9 53.4326 70.9003L55.0599 71.8408C55.2839 69.482 55.4929 67.1231 55.7019 64.7493C55.1644 65.0628 54.6121 65.3764 54.0746 65.7048C55.045 66.3766 56.0005 67.0634 56.9858 67.7502C58.1205 68.5563 59.2103 66.6752 58.0757 65.869C57.1053 65.1823 56.1349 64.4955 55.1644 63.8088C54.4329 63.3012 53.5969 64.0029 53.5371 64.7493C53.3132 67.1231 53.1042 69.482 52.8952 71.8408C52.8056 72.7366 53.8507 73.0949 54.5225 72.7814C56.6723 71.7811 58.8371 70.7808 60.9869 69.7955C61.7931 69.4223 61.5841 68.3324 60.9869 67.9144C60.0165 67.2276 59.0461 66.5409 58.0757 65.869C56.9261 65.0628 55.8363 66.9589 56.9858 67.7502Z" fill="white"></path>
    <path d="M57.5234 82.0526L60.4346 84.0979L57.1949 85.5909L53.9851 87.0838L54.2986 83.5306L54.6271 79.9923L57.5234 82.0526Z" fill="white"></path>
    <path d="M56.9858 82.9931C57.9563 83.6799 58.9117 84.3517 59.8822 85.0385V83.1574C57.7323 84.1576 55.5825 85.143 53.4326 86.1433L55.0599 87.0838C55.2839 84.725 55.4929 82.3661 55.7019 79.9923L54.0746 80.9329C55.045 81.6196 56.0005 82.3064 56.9858 82.9931C58.1205 83.7993 59.2103 81.9182 58.0757 81.112C57.1053 80.4253 56.1349 79.7385 55.1644 79.0518C54.4329 78.5442 53.5969 79.2459 53.5371 79.9923C53.3132 82.3661 53.1042 84.725 52.8952 87.0838C52.8056 87.9796 53.8507 88.323 54.5225 88.0244C56.6723 87.0241 58.8371 86.0388 60.9869 85.0385C61.7931 84.6653 61.5841 83.5754 60.9869 83.1574C60.0165 82.4706 59.0461 81.7839 58.0757 81.112C56.9261 80.2909 55.8363 82.187 56.9858 82.9931Z" fill="white"></path>
  </g>
  <defs>
    <clipPath id="clip0_23_3677">
      <rect width="104" height="104" fill="white"></rect>
    </clipPath>
  </defs>
</svg>
