<?xml version="1.0" encoding="UTF-8"?>
<svg xmlns="http://www.w3.org/2000/svg" width="104" height="104" viewBox="0 0 104 104" fill="none">
  <g clip-path="url(#clip0_37_473)">
    <path fill-rule="evenodd" clip-rule="evenodd" d="M102.705 52C102.705 79.9976 79.9976 102.705 52 102.705C24.0024 102.705 1.29486 79.9976 1.29486 52C1.29486 24.0024 24.0024 1.29487 52 1.29487C79.9976 1.29487 102.705 24.0024 102.705 52Z" fill="#8A5CC4"></path>
    <path fill-rule="evenodd" clip-rule="evenodd" d="M37.4564 51.7631C37.4564 54.2739 37.9302 56.1846 38.7513 58.0322C39.4777 59.6429 40.5199 61.0483 41.7516 62.28C41.9095 62.4379 42.0042 62.5484 42.178 62.7063C43.7255 64.2697 46.5521 65.7224 48.6997 66.1804C50.2472 66.4962 51.9842 66.7015 53.6107 66.4646C54.1792 66.3857 54.6687 66.3067 55.174 66.1962C56.4215 65.9435 57.3848 65.5172 58.4428 65.0434C60.4798 64.1117 62.5011 62.2484 63.8117 60.4798C64.0644 60.1324 64.2697 59.8008 64.4907 59.4218C64.7434 59.0112 64.9329 58.6796 65.1382 58.2375C66.8278 54.5897 66.9699 50.9736 65.7066 47.1837C65.2487 45.7625 64.0802 43.6149 63.0537 42.5885C62.6906 42.2253 62.3274 41.6884 61.7273 41.2305C61.1114 40.7568 60.6377 40.1883 59.6429 39.6514C59.4376 39.5408 59.2797 39.4303 59.0744 39.304C58.727 39.0987 58.2533 38.8618 57.8585 38.6881C56.1846 37.9775 54.5897 37.5512 52.7264 37.488C52.5527 37.488 52.4106 37.4722 52.3632 37.4722L51.7631 37.4564C51.6052 37.4722 51.5894 37.4722 51.4157 37.4722C50.1524 37.567 50.4998 37.4722 48.9681 37.7722C47.9101 37.9933 47.089 38.2933 46.1889 38.6723C45.4783 38.9724 45.0203 39.2408 44.3887 39.6198C44.294 39.6672 44.1834 39.7303 44.1045 39.7935L43.9466 39.9198C43.9308 39.9198 43.915 39.9356 43.915 39.9356L43.8518 39.983C43.3149 40.2988 42.8728 40.7252 42.3674 41.1042C42.2253 41.2305 42.2569 41.2147 42.1464 41.341C42.1306 41.341 42.1148 41.3726 42.099 41.3726C42.099 41.3884 42.0832 41.4042 42.0674 41.42C40.8515 42.6517 39.5093 44.1676 38.846 45.8257C38.0249 47.8154 37.4564 49.3629 37.4564 51.7631Z" fill="#FEFEFE"></path>
    <path fill-rule="evenodd" clip-rule="evenodd" d="M90.1354 52.1421V51.8421L89.9775 51.242C89.3301 49.3629 87.293 49.7103 85.7771 49.7103C83.5979 49.7103 81.403 49.7103 79.208 49.7103C78.0395 49.7103 77.1394 49.6313 76.0024 49.6313C74.9128 49.6313 73.8233 49.6313 72.7337 49.6313C71.5336 49.6313 70.5545 49.5208 69.7492 49.9314C68.249 50.7051 68.0121 53.0422 69.6702 54.0528C70.3966 54.495 71.5178 54.3687 72.6547 54.3687H84.1032C84.3717 54.3687 84.6717 54.3687 84.9402 54.3687C85.3192 54.3529 85.3192 54.2897 85.6981 54.2897C87.0404 54.2423 88.3668 54.5582 89.2511 53.7844C89.2985 53.7528 89.4248 53.6265 89.4406 53.5949C89.5354 53.5159 89.567 53.4686 89.6617 53.358C90.1512 52.679 89.9775 52.3948 90.1354 52.1421Z" fill="#FEFEFE"></path>
    <path fill-rule="evenodd" clip-rule="evenodd" d="M13.8646 51.8421V52.1421L13.9119 52.2527C14.0541 52.758 14.0698 53.1685 14.591 53.6423C15.949 54.874 18.0492 54.0528 19.881 54.3055C20.7337 54.4318 30.0978 54.3687 31.2032 54.3687C32.2612 54.3687 33.4929 54.4792 34.235 54.116C35.7194 53.358 35.8615 51.242 34.7877 50.3104C33.7929 49.4576 33.0665 49.6313 31.3453 49.6313C29.1187 49.6313 27.1133 49.7103 24.8551 49.7103H16.6912C15.5068 49.7103 14.5436 49.8998 14.0541 51.1789L13.9277 51.6684C13.9277 51.7 13.9119 51.7158 13.9119 51.7315C13.9119 51.7473 13.8961 51.7789 13.8961 51.7947C13.8804 51.7947 13.8804 51.8263 13.8646 51.8421Z" fill="#FEFEFE"></path>
    <path fill-rule="evenodd" clip-rule="evenodd" d="M54.3371 86.993C54.3371 86.5509 54.3213 86.0455 54.3213 85.4297V73.2864C54.3213 72.6705 54.3371 72.1652 54.3371 71.723C54.3528 70.9335 54.3528 70.1913 54.0528 69.6702C53.2633 68.3437 50.9894 67.9806 49.9313 69.7334C49.5839 70.3176 49.6471 71.3756 49.6629 72.3073C49.6155 74.6286 49.6629 78.071 49.6629 79.3501C49.6629 80.6292 49.6155 84.0874 49.6629 86.4087C49.6471 87.3404 49.5839 88.3984 49.9313 88.9827C50.9894 90.7355 53.2633 90.3723 54.0528 89.0301C54.3528 88.5247 54.3528 87.7826 54.3371 86.993Z" fill="#FEFEFE"></path>
    <path fill-rule="evenodd" clip-rule="evenodd" d="M52.0316 13.833H51.9684C51.7789 13.9435 50.6578 13.8488 49.9788 15.0489C49.5682 15.7595 49.6787 16.928 49.6787 18.0334V31.1558C49.6787 33.0191 49.3787 34.1087 50.6578 35.0562C51.4947 35.7036 53.3265 35.6562 54.0844 34.2666C54.4634 33.5718 54.3213 32.277 54.3213 31.2347V18.0966C54.3213 16.5806 54.5897 14.2909 52.4106 13.9119L52.0316 13.833Z" fill="#FEFEFE"></path>
    <path fill-rule="evenodd" clip-rule="evenodd" d="M24.3972 26.5764C24.3972 27.3975 24.5551 27.7133 25.0447 28.2976C25.8816 29.2766 30.0188 33.3034 31.0295 34.2982L34.4561 37.7565C34.5193 37.8196 34.5035 37.788 34.5667 37.8512L36.6511 39.983C36.6669 39.9988 36.7143 40.0462 36.73 40.0619C36.8406 40.1567 36.8564 40.1725 36.9669 40.283C37.109 40.4251 36.9985 40.3462 37.188 40.5041C39.5882 42.3043 42.3832 39.0197 40.2988 36.9511L36.1458 32.8454C34.614 31.44 32.2138 28.9292 30.761 27.4765C30.1452 26.8606 29.5767 26.2921 28.9608 25.6763C28.3924 25.1078 27.8081 24.3656 26.6869 24.3656C25.471 24.3656 24.3972 25.3605 24.3972 26.5764Z" fill="#FEFEFE"></path>
    <path fill-rule="evenodd" clip-rule="evenodd" d="M24.3972 77.2657C24.3972 77.9763 24.6815 78.5132 25.0762 78.8922C25.2815 79.0975 25.4394 79.2396 25.7237 79.3817C27.2396 80.1397 28.2029 79.0817 28.9293 78.3553L32.5138 74.7549C32.8139 74.4549 33.1297 74.2022 33.4139 73.9022L40.5515 66.7646C41.4042 65.6435 41.1042 64.3486 40.0304 63.4643C39.2566 62.8169 38.0881 62.8485 37.2985 63.4327C37.2196 63.4959 37.1564 63.5433 37.0932 63.6064L28.4239 72.2757C28.3292 72.3705 28.2976 72.4178 28.2029 72.5126L26.3079 74.4233C26.2921 74.4391 26.2764 74.4549 26.2606 74.4707C26.2448 74.4865 26.2132 74.5339 26.1974 74.5496C25.4394 75.355 24.3972 76.0814 24.3972 77.2657Z" fill="#FEFEFE"></path>
    <path fill-rule="evenodd" clip-rule="evenodd" d="M65.2487 41.0094C65.8961 41.0094 66.2751 40.8989 66.7173 40.5673C67.1121 40.283 67.3015 40.0462 67.6174 39.7145L68.8964 38.4039C69.0386 38.2618 69.0228 38.2933 69.1491 38.1828C69.2281 38.1039 69.1491 38.1986 69.2596 38.0723C69.3228 37.9933 69.3544 37.9459 69.3544 37.9459C69.5439 37.7249 69.5913 37.7407 69.7965 37.5354C69.8123 37.5354 69.8281 37.5196 69.8439 37.5038L70.3176 36.9827C70.3492 36.9511 70.3966 36.9037 70.4282 36.8722C71.8967 35.2615 74.8181 32.4664 76.413 30.8715C77.0131 30.2715 77.5657 29.7188 78.1658 29.1187C79.0975 28.1713 79.6028 27.887 79.6028 26.5764C79.6028 25.3131 78.4185 24.3656 77.4552 24.3656C76.0814 24.3656 75.5445 25.171 74.8497 25.8658L67.0173 33.6981C66.8278 33.9034 66.6699 34.0298 66.4804 34.2193L65.5172 35.1667C65.5014 35.1825 65.4856 35.1983 65.4856 35.2141L63.8591 36.7932C62.9432 37.8038 62.58 38.9724 63.5275 40.1251L63.7328 40.3778C64.096 40.6936 64.6013 41.0094 65.2487 41.0094Z" fill="#FEFEFE"></path>
    <path fill-rule="evenodd" clip-rule="evenodd" d="M79.6028 77.3447C79.6028 76.7762 79.4133 76.3498 79.1764 76.0024C78.9712 75.655 78.45 75.2129 78.1342 74.9128L72.9705 69.686C72.1178 68.8175 68.2648 65.0592 67.649 64.3328C67.5226 64.1749 67.6016 64.2539 67.4595 64.1275C67.4595 64.1275 67.3805 64.0486 67.3331 64.017L67.2226 63.9065C66.6857 63.4011 66.4015 62.9906 65.2487 62.9906C64.1118 62.9906 63.0064 64.1275 62.9748 65.2961C62.9274 66.6383 64.4118 67.7753 65.375 68.7385L65.9593 69.2912C65.9751 69.307 65.9909 69.3228 66.0067 69.3228C66.0067 69.3386 66.1014 69.4175 66.1172 69.4491C66.133 69.4491 66.1488 69.4649 66.1488 69.4807L66.2593 69.607C66.4015 69.7492 66.4173 69.7649 66.5752 69.9071C66.6857 70.0018 66.7804 70.0966 66.891 70.1913L67.9648 71.2651C67.9806 71.2651 67.9964 71.2809 67.9964 71.2967L75.5287 78.8132C75.9866 79.2554 76.3025 79.4922 77.1078 79.6028C78.3079 79.7607 79.6028 78.6237 79.6028 77.3447Z" fill="#FEFEFE"></path>
  </g>
  <defs>
    <clipPath id="clip0_37_473">
      <rect width="104" height="104" fill="white"></rect>
    </clipPath>
  </defs>
</svg>
