<?xml version="1.0" encoding="UTF-8"?>
<svg xmlns="http://www.w3.org/2000/svg" width="104" height="104" viewBox="0 0 104 104" fill="none">
  <g clip-path="url(#clip0_27_3805)">
    <path fill-rule="evenodd" clip-rule="evenodd" d="M102.701 51.9958C102.701 79.9928 80.0013 102.701 51.9958 102.701C23.9987 102.701 1.29883 79.9928 1.29883 51.9958C1.29883 23.9987 23.9987 1.29883 51.9958 1.29883C80.0013 1.29883 102.701 23.9987 102.701 51.9958Z" fill="#8A5CC4"></path>
    <path d="M78.7704 80.8417H72.2762C71.0792 80.8417 70.1115 81.8095 70.1115 83.0064V86.9539C73.2779 85.307 76.1897 83.2441 78.7704 80.8417ZM12.6403 51.9957C12.6403 73.7363 30.2636 91.3597 52.0042 91.3597C54.1095 91.3597 56.1894 91.1899 58.2098 90.8673V90.8079V82.6159C58.2098 81.6397 57.4203 80.8417 56.444 80.8417H49.8055L49.848 69.4663H56.1724C57.3014 69.4663 58.2098 68.5495 58.2098 67.4289V59.7633C58.2098 58.6427 57.3014 57.7259 56.1724 57.7259H49.9074L49.9499 46.342H56.2573C57.4373 46.342 58.3795 45.3912 58.3795 44.2197V36.7323C58.3795 35.5608 57.4373 34.6185 56.2573 34.6185H50.0008L50.0517 23.0564H55.264C56.4186 23.0564 57.3439 22.1226 57.3439 20.9766V13.4128C57.3439 13.2685 57.3354 13.1326 57.3099 12.9968C55.5697 12.7676 53.8039 12.6403 52.0042 12.6403C30.2636 12.6403 12.6403 30.2636 12.6403 51.9957ZM82.5395 76.8349C84.4156 74.5173 86.0455 71.9876 87.3698 69.288H84.8316C83.5582 69.288 82.5395 70.3237 82.5395 71.5886V76.8349ZM90.9692 57.5561C91.2239 55.7394 91.3597 53.8888 91.3597 51.9957C91.3597 49.8989 91.1899 47.8361 90.8758 45.8242H83.8044C82.7178 45.8242 81.8434 46.6985 81.8434 47.7851V55.6036C81.8434 56.6817 82.7178 57.5561 83.8044 57.5561H90.9692ZM72.1489 69.4663H80.5021C81.6227 69.4663 82.5395 68.5495 82.5395 67.4289V59.7633C82.5395 58.6427 81.6227 57.7259 80.5021 57.7259H72.1489C71.0283 57.7259 70.1115 58.6427 70.1115 59.7633V67.4289C70.1115 68.5495 71.0283 69.4663 72.1489 69.4663ZM70.4595 71.266C70.4595 70.0775 69.4918 69.1183 68.3033 69.1183H60.1877C58.9993 69.1183 58.04 70.0775 58.04 71.266V78.694C58.04 79.8909 58.9993 80.8417 60.1877 80.8417H68.3033C69.4918 80.8417 70.4595 79.8909 70.4595 78.694V71.266ZM70.2898 48.1841C70.2898 47.0721 69.3899 46.1722 68.2778 46.1722H59.8736C58.7616 46.1722 57.8617 47.0721 57.8617 48.1841V55.8922C57.8617 57.0043 58.7616 57.9126 59.8736 57.9126H68.2778C69.3899 57.9126 70.2898 57.0043 70.2898 55.8922V48.1841ZM69.5937 44.0245C69.5937 45.1111 70.485 46.0024 71.5801 46.0024H80.0352C81.1303 46.0024 82.0132 45.1111 82.0132 44.0245V36.2485C82.0132 35.1534 81.1303 34.2705 80.0352 34.2705H71.5801C70.485 34.2705 69.5937 35.1534 69.5937 36.2485V44.0245ZM57.1741 32.4368C57.1741 33.7357 58.2267 34.7883 59.5341 34.7883H67.2422C68.541 34.7883 69.5937 33.7357 69.5937 32.4368V25.4164C69.5937 24.109 68.541 23.0564 67.2422 23.0564H59.5341C58.2352 23.0564 57.1741 24.109 57.1741 25.4164V32.4368Z" fill="#FEFEFE"></path>
  </g>
  <defs>
    <clipPath id="clip0_27_3805">
      <rect width="104" height="104" fill="white"></rect>
    </clipPath>
  </defs>
</svg>
