<?xml version="1.0" encoding="UTF-8"?>
<svg xmlns="http://www.w3.org/2000/svg" width="104" height="104" viewBox="0 0 104 104" fill="none">
  <g clip-path="url(#clip0_62_12)">
    <path d="M102.699 51.9965C102.699 79.999 79.9989 102.699 51.9965 102.699C24.0011 102.699 1.30096 79.999 1.30096 51.9965C1.30096 23.9941 24.0011 1.30103 51.9965 1.30103C79.9989 1.30103 102.699 23.9941 102.699 51.9965Z" fill="#8A5CC4"></path>
    <path fill-rule="evenodd" clip-rule="evenodd" d="M76.1874 57.3411L71.7078 61.8276C70.8429 62.6926 69.4364 62.6926 68.5714 61.8276C67.7065 60.9627 67.7065 59.5492 68.5714 58.6842L73.058 54.1976C73.923 53.3327 75.3294 53.3397 76.1944 54.2047C76.6093 54.6196 76.8414 55.1821 76.8414 55.7729C76.8414 56.3706 76.6093 56.9261 76.1874 57.3411ZM65.1116 56.8699C64.2396 57.7349 62.8331 57.7349 61.9682 56.8699C61.1032 56.0049 61.1032 54.5985 61.9682 53.7335L68.1003 47.6014C68.5292 47.1724 69.0989 46.9544 69.6685 46.9544C70.2381 46.9544 70.8077 47.1724 71.2367 47.6014C72.1016 48.4663 72.1016 49.8798 71.2367 50.7448L65.1116 56.8699ZM58.3747 52.0528C57.5097 52.9178 56.1033 52.9178 55.2383 52.0528C54.3733 51.1878 54.3733 49.7743 55.2383 48.9094L63.2762 40.8715C64.1411 39.9995 65.5476 40.0065 66.4196 40.8715C66.8345 41.2864 67.0665 41.849 67.0665 42.4397C67.0665 43.0374 66.8345 43.593 66.4196 44.0079L58.3747 52.0528ZM78.8245 51.5676C77.9032 50.6393 76.75 50.1049 75.5404 49.915C75.7654 48.1499 75.224 46.3145 73.8738 44.9643C72.9807 44.0712 71.8696 43.5297 70.7092 43.3258C70.7514 43.0374 70.7936 42.7421 70.7936 42.4397C70.7936 40.8504 70.1748 39.3596 69.0567 38.2344C68.4941 37.6789 67.8542 37.264 67.172 36.9756L73.501 30.6396C75.8287 28.3189 75.8287 24.5497 73.501 22.229C71.1874 19.9084 67.4111 19.9084 65.0905 22.229L43.0725 44.247C42.1794 42.503 40.8011 40.105 39.036 37.9109C37.8475 36.4412 36.3075 35.0207 34.458 33.7056C31.7646 31.7858 28.1641 31.7858 25.4919 33.6916C23.347 35.2316 22.7844 38.1711 24.219 40.3933L27.5031 45.4706C29.233 48.1499 30.105 51.2441 30.0277 54.4227L29.7956 64.0709C29.7745 65.0132 29.3948 65.8923 28.7337 66.5603L24.3245 70.9625C23.6002 71.6939 23.6002 72.8753 24.3245 73.5996C24.6902 73.9653 25.1684 74.1481 25.6466 74.1481C26.1248 74.1481 26.603 73.9653 26.9616 73.5996L31.3638 69.1974C32.714 67.8543 33.4805 66.061 33.5297 64.1553L33.7548 54.5141C33.8532 50.576 32.7702 46.7505 30.6395 43.4523L27.3554 38.368C27.0038 37.8195 27.1374 37.1022 27.6648 36.7225C29.0361 35.745 30.8997 35.752 32.292 36.7436C33.8673 37.8617 35.1612 39.0431 36.1317 40.2527C38.9727 43.7829 40.7729 48.1077 40.794 48.1499C41.0331 48.7265 41.5395 49.1485 42.1513 49.268C42.7701 49.3876 43.396 49.1977 43.839 48.7547L67.7276 24.8661C68.5925 24.0011 69.999 24.0011 70.871 24.8661C71.736 25.7311 71.736 27.1375 70.871 28.0025L52.6012 46.2723C51.1455 47.728 50.604 49.7532 50.9697 51.6309C52.6575 59.5984 46.6238 63.2622 46.3495 63.424C45.4635 63.9373 45.154 65.0695 45.6674 65.9626C46.012 66.5674 46.6378 66.9049 47.2848 66.9049C47.6013 66.9049 47.9177 66.8205 48.2131 66.6588C50.5548 65.3156 54.2116 61.6659 54.8726 56.0823C55.4985 56.3003 56.1525 56.4269 56.8065 56.4269C57.1018 56.4269 57.3972 56.3847 57.6925 56.3425C57.8965 57.5028 58.438 58.6139 59.3311 59.507C60.4914 60.6673 62.0174 61.251 63.5363 61.251C63.7895 61.251 64.0356 61.2088 64.2818 61.1807C64.4716 62.3832 65.0061 63.5365 65.9343 64.4647C66.5743 65.1047 67.3338 65.5547 68.1354 65.836C65.0483 70.196 61.3001 74.1903 58.4661 76.9681C55.9978 79.3801 52.5098 80.3576 49.1343 79.577L47.1442 79.1199C46.5183 78.9723 45.8573 79.1621 45.4072 79.6192L39.1977 85.8287C38.4664 86.5601 38.4664 87.7415 39.1977 88.4658C39.5564 88.8315 40.0346 89.0143 40.5128 89.0143C40.9909 89.0143 41.4691 88.8315 41.8278 88.4658L47.3129 82.9877L48.2975 83.2127C52.9176 84.2746 57.6925 82.9385 61.0751 79.6333C64.549 76.2367 69.345 71.068 72.826 65.5336C73.3745 65.2523 73.8949 64.9148 74.3449 64.4647L78.8245 59.9781C79.9496 58.853 80.5685 57.3621 80.5685 55.7729C80.5685 54.1836 79.9496 52.6857 78.8245 51.5676Z" fill="white"></path>
    <path fill-rule="evenodd" clip-rule="evenodd" d="M41.8629 23.8394C42.8896 23.8394 43.7265 23.0026 43.7265 21.9759V16.8494C43.7265 15.8156 42.8896 14.9858 41.8629 14.9858C40.8362 14.9858 39.9994 15.8156 39.9994 16.8494V21.9759C39.9994 23.0026 40.8362 23.8394 41.8629 23.8394Z" fill="white"></path>
    <path fill-rule="evenodd" clip-rule="evenodd" d="M32.4187 26.6593C32.7843 27.0249 33.2625 27.2078 33.7337 27.2078C34.2119 27.2078 34.6901 27.0249 35.0558 26.6593C35.7801 25.9349 35.7801 24.7535 35.0558 24.0222L31.4271 20.4006C30.7028 19.6692 29.5214 19.6692 28.7971 20.4006C28.0657 21.1249 28.0657 22.3063 28.7971 23.0377L32.4187 26.6593Z" fill="white"></path>
    <path fill-rule="evenodd" clip-rule="evenodd" d="M49.9923 27.2078C50.4634 27.2078 50.9416 27.0249 51.3073 26.6593L54.9359 23.0377C55.6603 22.3063 55.6603 21.1249 54.9359 20.4006C54.2046 19.6692 53.0232 19.6692 52.2988 20.4006L48.6702 24.0222C47.9459 24.7535 47.9459 25.9349 48.6702 26.6593C49.0359 27.0249 49.5141 27.2078 49.9923 27.2078Z" fill="white"></path>
  </g>
  <defs>
    <clipPath id="clip0_62_12">
      <rect width="104" height="104" fill="white"></rect>
    </clipPath>
  </defs>
</svg>
