<?xml version="1.0" encoding="UTF-8"?>
<svg xmlns="http://www.w3.org/2000/svg" width="104" height="104" viewBox="0 0 104 104" fill="none">
  <g clip-path="url(#clip0_62_40)">
    <path d="M102.695 52C102.695 79.9944 79.9944 102.695 52 102.695C24.0056 102.695 1.30518 79.9944 1.30518 52C1.30518 23.9934 24.0056 1.30518 52 1.30518C79.9944 1.30518 102.695 23.9934 102.695 52Z" fill="#8A5CC4"></path>
    <path d="M96.0225 38.1553C97.0715 38.1553 97.9376 39.0213 97.9376 40.0704C97.9376 41.1316 97.0715 41.9854 96.0225 41.9854H71.5899C70.7849 41.9854 70.0408 42.1562 69.3943 42.4734C68.7478 42.8027 68.1867 43.2906 67.711 43.9249C67.2597 44.5592 66.9669 45.2301 66.8693 45.9376C66.7595 46.6329 66.8327 47.3647 67.0767 48.1088C67.5402 49.4384 67.894 50.8168 68.1257 52.1952C68.3575 53.5735 68.4795 54.9519 68.4795 56.3059C68.4795 60.8923 66.662 65.247 63.6369 68.4185C60.7093 71.468 56.6474 73.4196 52 73.4196C47.3404 73.4196 43.2906 71.468 40.3631 68.4185C37.3258 65.247 35.5083 60.8923 35.5083 56.3059C35.5083 54.9519 35.6425 53.5857 35.8864 52.2317C36.1304 50.8534 36.4963 49.475 36.9599 48.1454C37.2282 47.4013 37.3014 46.6695 37.2038 45.9742L37.1916 45.9132C37.0818 45.2423 36.8013 44.5714 36.35 43.9493C35.8864 43.3028 35.3131 42.8027 34.6666 42.4856C34.0202 42.1562 33.2761 41.9854 32.4588 41.9854H7.97746C6.91624 41.9854 6.06238 41.1316 6.06238 40.0704C6.06238 39.0213 6.91624 38.1553 7.97746 38.1553H32.4588C33.8738 38.1553 35.2034 38.4724 36.3866 39.0823C37.582 39.68 38.6188 40.5705 39.4361 41.7049C40.2533 42.8271 40.7656 44.0591 40.9608 45.3521L40.973 45.4253C41.1682 46.7305 41.034 48.0844 40.5583 49.414C40.1557 50.5484 39.8508 51.7194 39.6434 52.8904C39.4361 54.0127 39.3385 55.1715 39.3385 56.3059C39.3385 59.9043 40.7412 63.3075 43.1077 65.7715C45.3521 68.1013 48.4504 69.6017 52 69.6017C55.5496 69.6017 58.6479 68.1013 60.8801 65.7715C63.2465 63.3075 64.6615 59.9043 64.6615 56.3059C64.6615 55.1471 64.5639 53.9761 64.3687 52.8416C64.1614 51.6584 63.8564 50.4752 63.4661 49.3286C63.0148 47.999 62.8928 46.6573 63.0879 45.3643C63.2831 44.0591 63.8076 42.8149 64.6371 41.6683C65.4666 40.5461 66.5034 39.6678 67.6866 39.0701C68.8698 38.4724 70.1872 38.1553 71.5899 38.1553H96.0225Z" fill="white"></path>
    <path d="M13.0153 48.7554H28.3481" stroke="white" stroke-width="3" stroke-miterlimit="22.9256" stroke-linecap="round" stroke-linejoin="round"></path>
    <path d="M75.6519 48.7554H90.9848" stroke="white" stroke-width="3" stroke-miterlimit="22.9256" stroke-linecap="round" stroke-linejoin="round"></path>
    <path d="M13.0153 56.2327H28.3481" stroke="white" stroke-width="3" stroke-miterlimit="22.9256" stroke-linecap="round" stroke-linejoin="round"></path>
    <path d="M75.6519 56.2327H90.9848" stroke="white" stroke-width="3" stroke-miterlimit="22.9256" stroke-linecap="round" stroke-linejoin="round"></path>
    <path d="M13.0153 63.6978H28.3481" stroke="white" stroke-width="3" stroke-miterlimit="22.9256" stroke-linecap="round" stroke-linejoin="round"></path>
    <path d="M75.6519 63.6978H90.9848" stroke="white" stroke-width="3" stroke-miterlimit="22.9256" stroke-linecap="round" stroke-linejoin="round"></path>
    <path fill-rule="evenodd" clip-rule="evenodd" d="M40.1313 39.9728C40.3509 40.2167 40.5583 40.4851 40.7534 40.7534C41.6927 42.0464 42.327 43.5224 42.5709 45.0837L42.5831 45.1691C42.8149 46.7914 42.6319 48.4138 42.0952 49.9507C41.7293 50.9997 41.4365 52.0732 41.2413 53.171C41.0584 54.2078 40.9608 55.2568 40.9608 56.3059C40.9608 59.392 42.144 62.4171 44.2786 64.6493C46.3279 66.7839 49.0358 67.9671 52 67.9671C54.9519 67.9671 57.672 66.7839 59.7091 64.6493C61.8437 62.4171 63.0391 59.392 63.0391 56.3059C63.0391 55.2324 62.9415 54.1712 62.7586 53.11C62.5756 52 62.2951 50.9144 61.9291 49.8531C61.4046 48.3284 61.2338 46.7183 61.4778 45.1203C61.7218 43.5102 62.3682 42.022 63.3319 40.7169C63.5149 40.4607 63.7222 40.2045 63.9296 39.9728L65.5397 38.1553H60.5629H43.5224H38.5334L40.1313 39.9728Z" fill="white"></path>
  </g>
  <defs>
    <clipPath id="clip0_62_40">
      <rect width="104" height="104" fill="white"></rect>
    </clipPath>
  </defs>
</svg>
