<?xml version="1.0" encoding="UTF-8"?>
<svg xmlns="http://www.w3.org/2000/svg" width="408" height="116" viewBox="0 0 408 116" fill="none">
  <path d="M102.996 75.0493C98.3992 75.0493 94.442 73.4293 91.1246 70.1935C87.7771 66.9836 86.1055 63.095 86.1055 58.5236C86.1055 53.9543 87.7771 50.0657 91.1246 46.8558C94.442 43.6179 98.3992 42 102.996 42C107.647 42 111.632 43.6179 114.95 46.8558C117.453 49.2751 118.989 52.0649 119.559 55.2189H111.033C110.624 54.1589 109.999 53.2067 109.157 52.3644C107.496 50.7034 105.443 49.874 102.996 49.874C100.603 49.874 98.5629 50.7185 96.8762 52.4032C95.1895 54.09 94.3473 56.1301 94.3473 58.5236C94.3473 60.9192 95.1895 62.9572 96.8762 64.644C98.5629 66.3308 100.603 67.1753 102.996 67.1753C105.417 67.1753 107.47 66.3308 109.157 64.644C110.299 63.5022 111.046 62.1967 111.4 60.7274H119.723C119.26 64.4005 117.67 67.5545 114.95 70.1935C111.632 73.4293 107.647 75.0493 102.996 75.0493ZM121.38 62.5629C121.38 64.6569 121.925 66.6109 123.013 68.4183C124.1 70.228 125.576 71.6692 127.439 72.7442C129.303 73.817 131.349 74.3556 133.581 74.3556C135.81 74.3556 137.85 73.817 139.699 72.7442C141.549 71.6692 143.018 70.228 144.106 68.4183C145.194 66.6109 145.737 64.6569 145.737 62.5629C145.737 60.4969 145.194 58.558 144.106 56.7506C143.018 54.941 141.549 53.4997 139.699 52.4247C137.85 51.3497 135.81 50.8133 133.581 50.8133C131.349 50.8133 129.303 51.3497 127.439 52.4247C125.576 53.4997 124.1 54.941 123.013 56.7506C121.925 58.558 121.38 60.4969 121.38 62.5629ZM139.21 62.5629C139.21 63.569 138.964 64.5083 138.475 65.3786C137.986 66.2489 137.312 66.9362 136.457 67.4403C135.599 67.9422 134.641 68.1943 133.581 68.1943C132.519 68.1943 131.554 67.9358 130.684 67.4187C129.813 66.9017 129.133 66.2166 128.644 65.3592C128.152 64.5018 127.909 63.569 127.909 62.5629C127.909 61.5849 128.152 60.6671 128.644 59.8097C129.133 58.9523 129.813 58.2651 130.684 57.748C131.554 57.2331 132.519 56.9746 133.581 56.9746C134.641 56.9746 135.599 57.2245 136.457 57.7286C137.312 58.2327 137.986 58.9114 138.475 59.7688C138.964 60.6262 139.21 61.5568 139.21 62.5629ZM154.004 74.4784L153.923 42.5709H147.436V42.9802L147.395 74.4784H154.004ZM155.663 62.5629C155.663 64.6569 156.206 66.6109 157.294 68.4183C158.382 70.228 159.857 71.6692 161.721 72.7442C163.584 73.817 165.63 74.3556 167.862 74.3556C170.092 74.3556 172.132 73.817 173.98 72.7442C175.83 71.6692 177.299 70.228 178.387 68.4183C179.475 66.6109 180.02 64.6569 180.02 62.5629C180.02 60.4969 179.475 58.558 178.387 56.7506C177.299 54.941 175.83 53.4997 173.98 52.4247C172.132 51.3497 170.092 50.8133 167.862 50.8133C165.63 50.8133 163.584 51.3497 161.721 52.4247C159.857 53.4997 158.382 54.941 157.294 56.7506C156.206 58.558 155.663 60.4969 155.663 62.5629ZM173.491 62.5629C173.491 63.569 173.245 64.5083 172.756 65.3786C172.267 66.2489 171.593 66.9362 170.738 67.4403C169.88 67.9422 168.922 68.1943 167.862 68.1943C166.8 68.1943 165.835 67.9358 164.965 67.4187C164.094 66.9017 163.414 66.2166 162.925 65.3592C162.434 64.5018 162.19 63.569 162.19 62.5629C162.19 61.5849 162.434 60.6671 162.925 59.8097C163.414 58.9523 164.094 58.2651 164.965 57.748C165.835 57.2331 166.8 56.9746 167.862 56.9746C168.922 56.9746 169.88 57.2245 170.738 57.7286C171.593 58.2327 172.267 58.9114 172.756 59.7688C173.245 60.6262 173.491 61.5568 173.491 62.5629ZM184.003 71.0918C186.097 73.3215 189.061 74.4375 192.898 74.4375C194.963 74.4375 196.786 74.0971 198.365 73.4163V74.4375H204.974V50.7724H197.71V62.1967C197.71 65.7061 196.107 67.4597 192.898 67.4597C189.714 67.4597 188.124 65.7061 188.124 62.1967V50.7724H180.821V62.5629C180.821 66.0184 181.881 68.86 184.003 71.0918ZM206.63 74.4375H213.116L213.198 62.1148C213.198 61.1088 213.457 60.1846 213.974 59.3401C214.491 58.4977 215.178 57.8234 216.035 57.3215C216.891 56.8174 217.851 56.5653 218.911 56.5653H220.624L220.665 50.3652H218.911C216.817 50.3652 214.913 50.8004 213.198 51.6686V50.8133H206.63V74.4375ZM224.281 70.8462C226.757 73.1858 229.613 74.3556 232.849 74.3556C234.917 74.3556 236.834 73.9075 238.602 73.0092C240.371 72.1108 241.825 70.8742 242.967 69.2951C244.11 67.7182 244.804 65.9775 245.05 64.0731L245.088 63.625H238.439L238.357 63.9503C238.059 65.2019 237.405 66.208 236.399 66.9706C235.393 67.7311 234.21 68.1124 232.849 68.1124C231.789 68.1124 230.83 67.8604 229.973 67.3584C229.118 66.8543 228.443 66.1671 227.954 65.2967C227.465 64.4264 227.22 63.4893 227.22 62.481C227.22 61.475 227.465 60.5443 227.954 59.6869C228.443 58.8295 229.118 58.1509 229.973 57.6468C230.83 57.1448 231.789 56.8928 232.849 56.8928C234.074 56.8928 235.156 57.1987 236.093 57.8105C237.032 58.4223 237.719 59.2582 238.154 60.3203L238.236 60.5637H245.009L244.925 60.1156C244.599 58.3469 243.846 56.7355 242.663 55.2813C241.478 53.825 240.03 52.6897 238.316 51.8732C236.603 51.0589 234.781 50.6496 232.849 50.6496C230.619 50.6496 228.573 51.1946 226.709 52.2825C224.846 53.3705 223.364 54.8246 222.263 56.6472C221.16 58.4697 220.611 60.4151 220.611 62.481C220.611 65.7728 221.834 68.5605 224.281 70.8462ZM246.747 74.4375H253.233L253.315 62.1148C253.315 61.1088 253.574 60.1846 254.091 59.3401C254.608 58.4977 255.295 57.8234 256.15 57.3215C257.007 56.8174 257.966 56.5653 259.028 56.5653H260.741L260.781 50.3652H259.028C256.932 50.3652 255.03 50.8004 253.315 51.6686V50.8133H246.747V74.4375ZM259.054 62.522C259.054 64.644 259.603 66.6173 260.706 68.4399C261.807 70.2624 263.295 71.7166 265.172 72.8045C267.05 73.8924 269.116 74.4375 271.373 74.4375C273.469 74.4375 275.415 73.9872 277.209 73.091V74.4375H283.695L283.654 50.8542H277.045V51.9141C275.333 51.0718 273.441 50.6496 271.373 50.6496C269.116 50.6496 267.05 51.1946 265.172 52.2825C263.295 53.3705 261.807 54.8246 260.706 56.6472C259.603 58.4697 259.054 60.428 259.054 62.522ZM275.453 66.5613C274.286 67.6773 272.924 68.2352 271.373 68.2352C270.314 68.2352 269.349 67.9702 268.478 67.4403C267.608 66.9082 266.921 66.208 266.417 65.3377C265.915 64.4673 265.663 63.5302 265.663 62.522C265.663 61.5439 265.915 60.6197 266.417 59.7494C266.921 58.8769 267.614 58.1767 268.498 57.6468C269.381 57.1168 270.342 56.8518 271.373 56.8518C272.952 56.8518 274.312 57.3947 275.453 58.4826C275.835 58.864 276.194 59.3594 276.535 59.9734C276.875 60.5853 277.045 61.0958 277.045 61.503V63.5841C277.045 63.9912 276.875 64.4889 276.535 65.0727C276.194 65.6587 275.835 66.1542 275.453 66.5613ZM298.083 42.6118V48.4048L297.714 48.4457L296.9 48.5276C296.191 48.5814 295.649 48.6374 295.267 48.6913C294.126 48.8809 293.404 49.0855 293.105 49.3031C292.779 49.5487 292.514 49.8805 292.31 50.3027C292.105 50.725 292.004 51.1537 292.004 51.5888V58.7282H296.777V64.4802H292.004V74.4375H285.354V52.485C285.354 50.7724 285.518 49.2019 285.843 47.7736C286.17 46.3452 286.864 45.2509 287.924 44.4882C288.876 43.8096 290.106 43.3249 291.616 43.0405C293.126 42.754 294.615 42.6118 296.084 42.6118H298.083ZM302.841 74.4375H309.45V67.255C309.45 65.5143 309.437 64.1959 309.409 63.2975L309.368 59.381V56.4037L315.895 56.3219V50.7314L309.368 50.7724V42.53H302.882V50.8133H296.355V56.4037H302.841V74.4375Z" fill="#FF8317"></path>
  <path d="M89.0195 95.9205V84.5695H93.0887C94.0387 84.5695 94.8551 84.7224 95.5358 85.024C96.2166 85.3278 96.7422 85.7629 97.1084 86.3295C97.4767 86.8961 97.6598 87.5855 97.6598 88.3977C97.6598 89.1861 97.4767 89.8669 97.1084 90.44C96.7422 91.013 96.2166 91.4503 95.5358 91.7541C94.8551 92.0557 94.0387 92.2065 93.0887 92.2065H89.4719L89.8446 91.8187V95.9205H89.0195ZM89.8446 91.8661L89.4719 91.4611H93.0887C94.3101 91.4611 95.2364 91.194 95.8676 90.6597C96.5009 90.1233 96.8176 89.3693 96.8176 88.3977C96.8176 87.4131 96.5009 86.6548 95.8676 86.1184C95.2364 85.5841 94.3101 85.317 93.0887 85.317H89.4719L89.8446 84.9098V91.8661ZM102.035 95.9205L107.254 84.5695H108.082L113.303 95.9205H112.411L107.483 85.0886H107.838L102.927 95.9205H102.035ZM103.948 92.7257L104.224 92.0298H111.016L111.293 92.7257H103.948ZM119.412 95.9205V84.5695H120.24V95.9205H119.412ZM128.245 95.9205V84.5695H128.942L137.031 94.8994H136.659V84.5695H137.486V95.9205H136.805L128.699 85.5928H129.072V95.9205H128.245ZM147.664 95.9205V85.317H143.58V84.5695H152.578V85.317H148.491V95.9205H147.664ZM158.67 95.9205V84.5695H159.497V95.9205H158.67ZM167.504 95.9205V84.5695H168.2L176.291 94.8994H175.918V84.5695H176.745V95.9205H176.065L167.958 85.5928H168.331V95.9205H167.504ZM189.599 96.0002C188.744 96.0002 187.955 95.8581 187.232 95.5715C186.508 95.285 185.879 94.8822 185.342 94.363C184.808 93.8459 184.395 93.2363 184.102 92.5404C183.811 91.8424 183.664 91.0776 183.664 90.2461C183.664 89.4124 183.811 88.6476 184.102 87.9517C184.395 87.2537 184.81 86.6462 185.351 86.127C185.892 85.6078 186.521 85.205 187.24 84.9185C187.96 84.6319 188.75 84.4897 189.614 84.4897C190.437 84.4897 191.197 84.619 191.902 84.8775C192.604 85.1382 193.203 85.5281 193.701 86.0452L193.181 86.5967C192.684 86.1098 192.141 85.7651 191.553 85.5583C190.963 85.3536 190.323 85.2524 189.631 85.2524C188.897 85.2524 188.216 85.3752 187.589 85.6251C186.962 85.8728 186.415 86.224 185.952 86.6785C185.487 87.1331 185.127 87.6631 184.873 88.2684C184.619 88.8738 184.492 89.533 184.492 90.2461C184.492 90.9591 184.619 91.6184 184.873 92.2237C185.127 92.8291 185.487 93.3591 185.952 93.8115C186.415 94.266 186.962 94.6172 187.589 94.8671C188.216 95.1148 188.897 95.2398 189.631 95.2398C190.301 95.2398 190.937 95.1364 191.536 94.9317C192.137 94.7249 192.684 94.3845 193.181 93.9084L193.651 94.5418C193.145 95.0286 192.537 95.3927 191.829 95.6362C191.12 95.8796 190.377 96.0002 189.599 96.0002ZM192.858 94.4599V90.2935H193.651V94.5418L192.858 94.4599ZM208.485 96.0002C207.64 96.0002 206.843 95.8581 206.093 95.5715C205.342 95.285 204.76 94.9145 204.349 94.4599L204.721 93.8459C205.111 94.2445 205.643 94.5827 206.32 94.8585C206.996 95.1342 207.711 95.2721 208.467 95.2721C209.223 95.2721 209.844 95.1708 210.324 94.9726C210.805 94.7723 211.162 94.5051 211.395 94.1691C211.627 93.833 211.744 93.4603 211.744 93.051C211.744 92.5641 211.612 92.1742 211.354 91.8833C211.093 91.5904 210.753 91.3598 210.333 91.1854C209.911 91.013 209.452 90.8665 208.954 90.748C208.457 90.6295 207.955 90.5024 207.446 90.3667C206.938 90.231 206.473 90.0565 206.053 89.8389C205.63 89.6235 205.292 89.3283 205.038 88.9556C204.784 88.5829 204.659 88.1004 204.659 87.5058C204.659 86.9651 204.799 86.4674 205.079 86.0128C205.359 85.5583 205.798 85.1921 206.393 84.9098C206.987 84.6298 207.75 84.4897 208.678 84.4897C209.305 84.4897 209.924 84.5802 210.535 84.7655C211.145 84.9486 211.668 85.1985 212.099 85.5109L211.791 86.1766C211.315 85.8513 210.805 85.61 210.26 85.4549C209.715 85.2976 209.187 85.2179 208.678 85.2179C207.955 85.2179 207.354 85.3213 206.88 85.5281C206.404 85.7328 206.053 86.0042 205.826 86.3446C205.598 86.685 205.484 87.0663 205.484 87.4885C205.484 87.9754 205.611 88.3654 205.865 88.6562C206.119 88.9492 206.457 89.1797 206.88 89.3542C207.3 89.5265 207.765 89.673 208.273 89.7915C208.782 89.91 209.284 90.0371 209.781 90.1728C210.279 90.3064 210.738 90.483 211.16 90.7006C211.58 90.9161 211.92 91.2069 212.181 91.5753C212.44 91.9437 212.569 92.4176 212.569 93.0014C212.569 93.5314 212.424 94.0269 212.132 94.4858C211.841 94.9446 211.395 95.313 210.794 95.5888C210.195 95.8645 209.424 96.0002 208.485 96.0002ZM220.154 89.7915H226.299V90.5218H220.154V89.7915ZM220.251 95.1751H227.256V95.9205H219.425V84.5695H227.012V85.317H220.251V95.1751ZM234.321 95.9205V84.5695H238.391C239.343 84.5695 240.159 84.7224 240.84 85.024C241.521 85.3278 242.044 85.7629 242.412 86.3295C242.781 86.8961 242.964 87.5855 242.964 88.3977C242.964 89.1861 242.781 89.8648 242.412 90.4313C242.044 91.0001 241.521 91.4374 240.84 91.7455C240.159 92.0535 239.343 92.2065 238.391 92.2065H234.776L235.149 91.8187V95.9205H234.321ZM242.201 95.9205L239.25 91.8015H240.192L243.143 95.9205H242.201ZM235.149 91.8661L234.776 91.4783H238.391C239.612 91.4783 240.538 91.2069 241.172 90.6662C241.805 90.1254 242.119 89.3693 242.119 88.3977C242.119 87.4131 241.805 86.6548 241.172 86.1184C240.538 85.5841 239.612 85.317 238.391 85.317H234.776L235.149 84.9098V91.8661ZM253.224 95.9205L248.164 84.5695H249.073L253.905 95.4186H253.401L258.25 84.5695H259.109L254.051 95.9205H253.224ZM264.99 95.9205V84.5695H265.817V95.9205H264.99ZM278.624 96.0002C277.779 96.0002 277 95.8581 276.28 95.5715C275.561 95.285 274.938 94.8822 274.408 94.363C273.878 93.8459 273.467 93.2363 273.176 92.5404C272.883 91.8424 272.739 91.0776 272.739 90.2461C272.739 89.4124 272.883 88.6476 273.176 87.9517C273.467 87.2537 273.88 86.6462 274.415 86.127C274.951 85.6078 275.576 85.205 276.289 84.9185C277.002 84.6319 277.779 84.4897 278.624 84.4897C279.423 84.4897 280.17 84.619 280.868 84.8775C281.566 85.1382 282.163 85.5324 282.661 86.0624L282.142 86.5967C281.655 86.1206 281.116 85.778 280.528 85.5669C279.94 85.3579 279.315 85.2524 278.656 85.2524C277.932 85.2524 277.258 85.3752 276.638 85.6251C276.015 85.8728 275.474 86.224 275.016 86.6785C274.557 87.1331 274.199 87.6631 273.945 88.2684C273.691 88.8738 273.566 89.533 273.566 90.2461C273.566 90.9591 273.691 91.6184 273.945 92.2237C274.199 92.8291 274.557 93.3591 275.016 93.8115C275.474 94.266 276.015 94.6172 276.638 94.8671C277.258 95.1148 277.932 95.2398 278.656 95.2398C279.315 95.2398 279.94 95.1342 280.528 94.9231C281.116 94.712 281.655 94.363 282.142 93.8782L282.661 94.4125C282.163 94.9425 281.566 95.3389 280.868 95.6038C280.17 95.8688 279.423 96.0002 278.624 96.0002ZM290.213 89.7915H296.357V90.5218H290.213V89.7915ZM290.31 95.1751H297.313V95.9205H289.483V84.5695H297.07V85.317H290.31V95.1751ZM307.362 96.0002C306.52 96.0002 305.723 95.8581 304.971 95.5715C304.219 95.285 303.64 94.9145 303.229 94.4599L303.601 93.8459C303.991 94.2445 304.523 94.5827 305.197 94.8585C305.874 95.1342 306.591 95.2721 307.347 95.2721C308.103 95.2721 308.722 95.1708 309.204 94.9726C309.685 94.7723 310.04 94.5051 310.273 94.1691C310.505 93.833 310.622 93.4603 310.622 93.051C310.622 92.5641 310.492 92.1742 310.234 91.8833C309.973 91.5904 309.633 91.3598 309.211 91.1854C308.791 91.013 308.332 90.8665 307.832 90.748C307.336 90.6295 306.832 90.5024 306.326 90.3667C305.818 90.231 305.353 90.0565 304.93 89.8389C304.51 89.6235 304.172 89.3283 303.918 88.9556C303.664 88.5829 303.537 88.1004 303.537 87.5058C303.537 86.9651 303.677 86.4674 303.959 86.0128C304.239 85.5583 304.676 85.1921 305.271 84.9098C305.865 84.6298 306.628 84.4897 307.558 84.4897C308.185 84.4897 308.803 84.5802 309.415 84.7655C310.025 84.9486 310.546 85.1985 310.979 85.5109L310.671 86.1766C310.195 85.8513 309.685 85.61 309.137 85.4549C308.592 85.2976 308.067 85.2179 307.558 85.2179C306.832 85.2179 306.234 85.3213 305.757 85.5281C305.281 85.7328 304.93 86.0042 304.704 86.3446C304.478 86.685 304.364 87.0663 304.364 87.4885C304.364 87.9754 304.491 88.3654 304.745 88.6562C304.999 88.9492 305.337 89.1797 305.757 89.3542C306.18 89.5265 306.645 89.673 307.151 89.7915C307.66 89.91 308.164 90.0371 308.659 90.1728C309.157 90.3064 309.616 90.483 310.038 90.7006C310.46 90.9161 310.8 91.2069 311.059 91.5753C311.32 91.9437 311.449 92.4176 311.449 93.0014C311.449 93.5314 311.302 94.0269 311.011 94.4858C310.719 94.9446 310.273 95.313 309.674 95.5888C309.073 95.8645 308.304 96.0002 307.362 96.0002Z" fill="black"></path>
</svg>
