<?xml version="1.0" encoding="UTF-8"?>
<svg xmlns="http://www.w3.org/2000/svg" width="104" height="104" viewBox="0 0 104 104" fill="none">
  <path d="M102.709 52.0001C102.709 80.0068 80.0067 102.709 52 102.709C23.9933 102.709 1.30872 80.0068 1.30872 52.0001C1.30872 24.0108 23.9933 1.30884 52 1.30884C80.0067 1.30884 102.709 24.0108 102.709 52.0001Z" fill="#8A5CC4"></path>
  <path fill-rule="evenodd" clip-rule="evenodd" d="M33.5034 66.1693C33.643 63.6915 34.4108 61.2485 35.3356 59.3465C36.2604 57.4096 37.447 55.8566 38.9128 54.3908L40.0121 53.3613C40.3611 53.0472 40.7799 52.7331 41.2161 52.4365C44.2175 50.3599 46.7651 49.4526 50.6215 49.0163C50.6738 50.4646 50.1503 52.9774 52 52.9774C53.8148 52.9599 53.3262 50.5519 53.3611 49.0512C55.2631 48.9465 58.6658 50.1331 60.1141 50.8485C61.1262 51.3371 61.9463 51.8257 62.7839 52.4365C64.5987 53.7277 65.8201 54.9667 67.094 56.7465C68.9087 59.2418 70.3571 62.8888 70.4792 66.1693C69.694 66.1519 68.5946 66.117 67.8269 66.1693C67.094 66.2217 66.5181 66.7801 66.5356 67.5653C66.5879 69.2754 68.9785 68.874 70.4792 68.874C70.3745 71.317 69.6067 73.7599 68.647 75.662C67.6698 77.6338 67.3034 78.0177 66.1168 79.5358C64.7906 81.2284 62.1732 83.2002 60.0967 84.1948C58.8403 84.7881 55.0014 86.2015 53.3436 85.9572C53.3611 84.4391 53.7799 81.9787 51.9302 82.066C50.2202 82.1183 50.6215 84.4566 50.6389 85.9922C48.0564 85.8002 45.8752 85.1546 43.851 84.1774C42.141 83.3573 39.5759 81.5774 38.3369 80.0593C37.796 79.4136 37.4993 79.1519 36.9061 78.3143C35.0389 75.5922 33.6953 72.4512 33.5034 68.874C35.004 68.874 37.4644 69.3103 37.447 67.4955C37.447 66.7452 36.8537 66.2042 36.1034 66.1693C35.2832 66.1344 34.3235 66.1519 33.5034 66.1693ZM50.3423 88.7492H53.6577L54.8443 88.5747C60.341 87.8593 64.7383 85.1895 68.2631 81.176C71.596 77.4244 73.4282 71.8579 73.2363 66.6754C72.8175 55.368 63.5866 46.3465 52 46.2593C40.5181 46.172 31.0779 55.525 30.7463 66.6754C30.6591 69.8512 31.2175 72.9398 32.2993 75.5573C33.451 78.3317 34.1839 79.1519 35.7544 81.2284C36.5745 82.3103 37.953 83.5143 39.0698 84.3868C40.0295 85.1371 41.0765 85.8002 42.2806 86.4109C44.1826 87.4056 45.9275 87.9814 48.0738 88.4002C48.6497 88.5224 49.9235 88.5573 50.3423 88.7492ZM15.2161 32.474V33.1895C15.3732 33.4163 15.3732 33.5734 15.5826 33.7828C16.3678 34.5331 17.1356 34.1318 17.7114 33.5734C18.4618 32.823 23.4698 27.7103 23.8188 27.5183C23.8188 29.2633 23.9235 34.2016 23.8188 35.4754C23.6618 37.3425 22.3705 38.023 21.4282 39.0526C21.2537 39.2445 21.1316 39.3143 20.9571 39.5237C20.8 39.7331 20.6604 39.8727 20.4859 40.0995C19.2993 41.6177 18.741 44.113 19.6483 46.2767C20.5732 48.4928 22.2832 49.2781 23.243 50.7089C23.8014 51.5465 24.0282 52.8029 23.6269 53.9022C23.2604 54.8969 22.4752 55.5774 21.8644 56.1183C20.6779 57.2002 19.1946 58.823 19.2121 61.4579C19.2121 65.7854 22.8067 66.6579 23.6094 68.9438C23.8712 69.6767 23.5571 71.4566 25.0752 71.5438C27.396 71.6834 26.5584 68.019 25.2497 66.3613C23.8712 64.5989 22.0389 63.7962 21.9342 61.6673C21.8121 59.3814 23.4524 58.4915 25.0054 56.8163C26.2443 55.4901 26.9946 52.9948 26.2269 50.6566C25.0926 47.219 21.2886 46.713 21.9866 43.1532C22.5101 40.4834 26.2094 39.8901 26.5061 35.6848C26.6108 34.4284 26.541 29.2808 26.5235 27.6579C26.9248 27.8848 27.9544 29.019 28.3383 29.4203L31.8806 32.9452C32.2644 33.3291 33.1195 34.4459 33.9047 34.4633C34.8819 34.4807 35.6497 33.4512 35.1436 32.474C34.8819 31.968 27.3087 24.5519 26.3316 23.5573C24.8134 22.0391 23.8712 23.5573 22.196 25.2499L15.5651 31.8633C15.4255 32.0552 15.3557 32.2646 15.2161 32.474ZM88.8014 32.4915C88.6443 32.2821 88.6618 32.1948 88.4524 31.9331L80.0591 23.5398C79.2738 22.7371 78.5235 22.6848 77.7732 23.5049L70.2175 31.0257C69.8859 31.3747 69.0483 32.125 68.9087 32.3693C68.3504 33.364 68.996 34.4459 70.0255 34.4633C70.6886 34.4633 70.898 34.1492 71.1946 33.8526C71.5087 33.5385 71.7705 33.2767 72.0846 32.9626L75.6094 29.4378C75.9933 29.0539 77.0926 27.8499 77.4591 27.6579C77.4416 28.9667 77.4591 30.3452 77.4591 31.6539C77.5114 36.121 76.8658 37.517 80.3557 40.6754C82.0832 42.2458 82.7812 44.1653 81.2631 46.2069C80.251 47.5505 78.5235 48.3881 77.7732 50.6566C76.9705 53.0123 77.7383 55.3854 78.9597 56.7814C79.2913 57.1479 79.553 57.4794 79.9195 57.811C80.2859 58.1425 80.6175 58.4042 80.949 58.7881C81.5946 59.5385 82.1007 60.1318 82.0658 61.5801C81.9785 64.6163 78.2443 65.1747 77.5638 68.9787C77.3718 70.0257 77.3369 71.5089 78.7853 71.5438C80.4081 71.5787 80.1289 69.7116 80.3208 69.1009C80.8269 67.4781 82.9034 66.3264 83.8806 64.721C84.404 63.8485 84.7356 62.819 84.7879 61.5975C84.9101 57.2351 81.2108 56.1532 80.4081 54.0244C79.9718 52.9076 80.1289 51.6687 80.6873 50.7787C81.4376 49.5922 83.4443 48.3881 84.2819 46.4338C85.2591 44.1828 84.753 41.7573 83.5316 40.1519C82.2577 38.4418 80.3732 37.6566 80.1812 35.5626C80.0765 34.3935 80.1638 32.7881 80.1638 31.5841C80.1638 30.223 80.1812 28.8794 80.1638 27.5183C80.5651 27.7626 85.6779 32.9801 86.2712 33.5734C86.6027 33.9049 86.9866 34.3063 87.7544 34.1492C88.4175 34.0096 88.4873 33.5908 88.8014 33.1371V32.4915ZM52.2094 15.2512H51.494C50.7785 15.7747 51.2846 15.2163 50.2725 16.2284C49.8712 16.6297 49.5222 16.9787 49.1208 17.3801C48.353 18.1479 47.6202 18.8808 46.8524 19.6485L43.4671 23.0338C43.1007 23.4002 42.6295 23.8016 42.3329 24.1854C41.443 25.2499 42.2806 26.7854 43.6416 26.4539C44.1651 26.3318 44.6014 25.7385 44.898 25.4418C45.8403 24.4995 50.2725 19.9801 50.5691 19.8405C50.5691 21.2016 50.6389 27.1344 50.5342 27.9895C50.2899 30.0485 48.4054 30.7465 47.0094 32.7009C45.8403 34.3935 45.5611 37.1854 46.6604 39.1922C47.8121 41.2687 50.0108 42.2459 50.3597 43.8338L53.1691 43.7814C52.698 40.6579 49.9235 39.6807 48.9812 37.7613C48.1611 36.0512 48.9289 34.411 50.0806 33.2767C51.2846 32.0901 53.0121 30.8338 53.2389 28.1989C53.3611 26.8203 53.2738 21.8123 53.2738 19.9801C53.5181 20.1022 58.2819 24.9009 59.0322 25.6687C59.3289 25.9653 59.8175 26.5761 60.3235 26.7157C61.6846 27.117 62.6269 25.4767 61.5624 24.3774C59.1893 21.8646 56.0658 18.8808 53.5007 16.3157C52.7329 15.5479 53.1168 15.8445 52.2094 15.2512ZM51.7208 66.815C52.7154 66.3787 53.1517 67.9492 52.2443 68.2458C51.3544 68.5425 50.7436 67.2338 51.7208 66.815ZM40.1517 66.1693C38.2322 66.1868 38.145 68.8566 40.2215 68.874C41.1812 68.874 42.141 68.874 43.1007 68.874C44.043 68.874 48.1785 68.8217 48.7718 68.8915C48.9463 69.1532 49.0336 69.3975 49.2081 69.6244C49.4 69.8687 49.5745 70.0083 49.7665 70.1828C50.1504 70.5143 50.604 70.776 51.2322 70.9156C53.7624 71.4915 56.0658 69.1009 55.3504 66.5707C55.1759 65.9599 54.8792 65.5237 54.5651 65.1573C54.0067 64.5116 53.396 64.4418 53.3436 64.1801L53.3611 55.1237C53.3436 52.9599 50.6389 52.9076 50.6389 55.1935V64.1801C50.5168 64.4244 50.6389 64.2673 50.3423 64.4418C50.2376 64.5116 50.1853 64.5291 50.0806 64.5989C49.4873 65.0002 49.0685 65.4364 48.7893 66.1693H40.1517ZM88.8014 77.215C88.592 76.9183 88.4873 76.3948 87.7893 76.2203C87.353 76.0982 82.6242 76.168 81.9436 76.168C80.2336 76.168 75.4349 76.0807 74.0913 76.1854C73.8121 76.9881 72.9396 78.6458 72.8873 78.8727H85.6255C88.2953 78.8727 87.9289 79.0821 88.8014 77.8432V77.215ZM15.2161 77.215C15.4081 76.9183 15.5302 76.3948 16.2108 76.2203C16.647 76.0982 21.3759 76.168 22.0564 76.168C23.7665 76.168 28.5651 76.0807 29.9087 76.1854C30.1879 76.9881 31.0604 78.6458 31.1302 78.8727H18.3745C15.7047 78.8727 16.0712 79.0821 15.2161 77.8432V77.215Z" fill="white"></path>
</svg>
